<svg width="42" height="41" viewBox="0 0 42 41" fill="none" xmlns="http://www.w3.org/2000/svg">
<path fill-rule="evenodd" clip-rule="evenodd" d="M18.6699 0.733079C20.1469 0.0420988 21.8543 0.0420988 23.3312 0.733079C24.3502 1.20977 25.0797 2.10695 25.7289 3.12429C26.3797 4.1441 27.0949 5.52855 27.9837 7.2492L28.0194 7.3183L28.802 8.8334C29.1789 9.5628 29.2407 9.6509 29.2955 9.708C29.3753 9.7913 29.4704 9.8584 29.5756 9.9058C29.6478 9.9383 29.7515 9.9671 30.565 10.078L31.0496 10.144L31.1276 10.1546C33.3052 10.4514 35.0426 10.6882 36.3523 10.9882C37.6411 11.2834 38.8394 11.7023 39.6552 12.5859C40.8196 13.8469 41.3285 15.5792 41.0313 17.2696C40.823 18.454 40.0417 19.4545 39.1174 20.3999C38.1781 21.3607 36.8449 22.4995 35.1739 23.927L35.114 23.9782L34.9568 24.1126C34.1798 24.7763 34.0914 24.88 34.0446 24.9623C33.9757 25.0835 33.9359 25.219 33.9283 25.3581C33.9232 25.4526 33.9415 25.5877 34.236 26.5662L34.5179 27.5028L34.5406 27.5784C35.2308 29.8712 35.7783 31.6902 36.0712 33.1031C36.3565 34.4802 36.4869 35.8254 35.9776 36.9712C35.2584 38.589 33.8045 39.7617 32.0712 40.122C30.8435 40.3773 29.5564 39.9651 28.271 39.3947C26.952 38.8094 25.2901 37.8892 23.1953 36.7293L23.1264 36.6911L22.1341 36.1417C21.3704 35.7188 21.263 35.6779 21.1814 35.6611C21.0621 35.6367 20.9391 35.6367 20.8198 35.6611C20.7381 35.6779 20.6308 35.7188 19.8671 36.1417L18.8748 36.6911L18.8058 36.7293C16.711 37.8892 15.0492 38.8094 13.7302 39.3947C12.4448 39.9651 11.1577 40.3773 9.93 40.122C8.1966 39.7617 6.74272 38.589 6.0236 36.9712C5.51426 35.8254 5.64464 34.4802 5.93 33.1031C6.22281 31.6902 6.77035 29.8712 7.4605 27.5784L7.4833 27.5028L7.7652 26.5662C8.0597 25.5877 8.078 25.4526 8.0728 25.3581C8.0652 25.219 8.0254 25.0835 7.9566 24.9623C7.9098 24.88 7.8213 24.7763 7.0444 24.1126L6.88714 23.9782L6.82725 23.9271C5.15623 22.4996 3.82309 21.3607 2.88377 20.3999C1.95941 19.4545 1.17818 18.454 0.969901 17.2696C0.672621 15.5792 1.18157 13.8469 2.34597 12.5859C3.16179 11.7023 4.36003 11.2834 5.64889 10.9882C6.9586 10.6882 8.6959 10.4514 10.8735 10.1546L10.9516 10.144L11.4362 10.078C12.2497 9.9671 12.3534 9.9383 12.4255 9.9058C12.5307 9.8584 12.6259 9.7913 12.7057 9.708C12.7605 9.6509 12.8223 9.5628 13.1991 8.8334L13.9818 7.3183L14.0174 7.2493C14.9063 5.52855 15.6215 4.1441 16.2723 3.12429C16.9215 2.10695 17.651 1.20977 18.6699 0.733079ZM22.06 3.4504C21.3886 3.13632 20.6125 3.13632 19.9412 3.4504C19.7264 3.55089 19.3795 3.83193 18.8012 4.73816C18.2331 5.62832 17.58 6.88938 16.6471 8.6952L15.8645 10.2102C15.8435 10.2508 15.8227 10.2914 15.8018 10.3318C15.531 10.8583 15.2669 11.3715 14.8712 11.7843C14.5251 12.1451 14.113 12.4361 13.6571 12.6414C13.1357 12.8761 12.5637 12.9531 11.9769 13.0321C11.9318 13.0382 11.8866 13.0443 11.8413 13.0505L11.3567 13.1165C9.0834 13.4264 7.4809 13.6463 6.3187 13.9125C5.12008 14.187 4.70903 14.4489 4.55005 14.6211C4.02077 15.1942 3.78944 15.9817 3.92456 16.7501C3.96515 16.9809 4.16924 17.4234 5.02888 18.3027C5.86237 19.1552 7.0913 20.2069 8.8358 21.6972L8.993 21.8316C9.0366 21.8688 9.0802 21.9059 9.1236 21.9429C9.6806 22.4168 10.2224 22.8778 10.5645 23.4796C10.863 24.0046 11.0355 24.5917 11.0684 25.1948C11.1061 25.886 10.8997 26.5668 10.6875 27.2666C10.671 27.3213 10.6544 27.376 10.6379 27.4309L10.3559 28.3675C9.638 30.7527 9.1302 32.4445 8.8676 33.7119C8.5943 35.0308 8.6714 35.5421 8.765 35.7527C9.0918 36.488 9.7527 37.0211 10.5406 37.1848C10.7661 37.2317 11.2822 37.1989 12.5134 36.6526C13.6965 36.1275 15.2424 35.2732 17.4216 34.0666L18.4139 33.5171C18.4564 33.4936 18.4989 33.4699 18.5413 33.4464C19.0904 33.1411 19.6255 32.8436 20.2171 32.7223C20.734 32.6163 21.2671 32.6163 21.7841 32.7223C22.3757 32.8436 22.9107 33.1411 23.4599 33.4464C23.5023 33.47 23.5447 33.4936 23.5873 33.5171L24.5796 34.0666C26.7587 35.2732 28.3047 36.1275 29.4878 36.6526C30.7189 37.1989 31.235 37.2317 31.4606 37.1848C32.2485 37.0211 32.9093 36.488 33.2362 35.7527C33.3298 35.5421 33.4069 35.0308 33.1336 33.7119C32.8709 32.4445 32.3632 30.7527 31.6452 28.3675L31.3633 27.4309C31.3468 27.376 31.3302 27.3213 31.3136 27.2666C31.1015 26.5668 30.8951 25.886 30.9328 25.1948C30.9657 24.5917 31.1381 24.0046 31.4366 23.4796C31.7787 22.8778 32.3205 22.4168 32.8775 21.9429C32.921 21.9059 32.9646 21.8688 33.0081 21.8316L33.1654 21.6972C34.9099 20.2069 36.1388 19.1552 36.9723 18.3027C37.8319 17.4234 38.036 16.9809 38.0766 16.7501C38.2117 15.9817 37.9804 15.1942 37.4511 14.6211C37.2921 14.4489 36.8811 14.187 35.6825 13.9125C34.5203 13.6463 32.9178 13.4264 30.6444 13.1165L30.1598 13.0505C30.1146 13.0443 30.0694 13.0382 30.0243 13.0321C29.4375 12.9531 28.8655 12.8761 28.3441 12.6414C27.8882 12.4361 27.476 12.1451 27.13 11.7843C26.7343 11.3715 26.4702 10.8583 26.1993 10.3318C26.1785 10.2914 26.1576 10.2508 26.1367 10.2102L25.354 8.6952C24.4212 6.88938 23.7681 5.62832 23.2 4.73816C22.6217 3.83193 22.2748 3.55089 22.06 3.4504Z" fill="#828282"/>
</svg>
