<svg width="24" height="24" viewBox="0 0 24 24" fill="none" xmlns="http://www.w3.org/2000/svg">
<path d="M10.3334 5.36257V20.948C10.333 21.4316 10.162 21.8995 9.85051 22.2694C9.53899 22.6392 9.10693 22.8873 8.63044 22.9699C8.15396 23.0524 7.66363 22.9642 7.24584 22.7206C6.82805 22.4771 6.5096 22.094 6.3466 21.6387L3.84159 14.4632M3.84159 14.4632C2.85128 14.0421 2.03685 13.293 1.53613 12.3405C1.03542 11.388 0.879166 10.2917 1.09382 9.23722C1.30848 8.18273 1.88086 7.23479 2.7141 6.55382C3.54735 5.87284 4.59027 5.50065 5.66638 5.50024H7.80386C12.5875 5.50024 16.7003 4.06048 18.5006 2V18.3345C16.7003 16.274 12.5887 14.8342 7.80386 14.8342H5.66638C5.03941 14.8351 4.41872 14.7082 3.84159 14.4632ZM18.5006 13.6675C19.4289 13.6675 20.3192 13.2987 20.9757 12.6423C21.6321 11.9859 22.0009 11.0956 22.0009 10.1672C22.0009 9.23891 21.6321 8.34861 20.9757 7.69219C20.3192 7.03577 19.4289 6.66699 18.5006 6.66699" stroke="#4F4F4F" stroke-width="1.5" stroke-linecap="round" stroke-linejoin="round"/>
</svg>
