<svg width="24" height="24" viewBox="0 0 24 24" fill="none" xmlns="http://www.w3.org/2000/svg">
<path d="M20.6667 11.3333H4.33333M20.6667 11.3333C21.2855 11.3333 21.879 11.5792 22.3166 12.0168C22.7542 12.4543 23 13.0478 23 13.6667V20.6667C23 21.2855 22.7542 21.879 22.3166 22.3166C21.879 22.7542 21.2855 23 20.6667 23H4.33333C3.71449 23 3.121 22.7542 2.68342 22.3166C2.24583 21.879 2 21.2855 2 20.6667V13.6667C2 13.0478 2.24583 12.4543 2.68342 12.0168C3.121 11.5792 3.71449 11.3333 4.33333 11.3333M20.6667 11.3333V9C20.6667 8.38116 20.4208 7.78767 19.9832 7.35008C19.5457 6.9125 18.9522 6.66667 18.3333 6.66667M4.33333 11.3333V9C4.33333 8.38116 4.57917 7.78767 5.01675 7.35008C5.45434 6.9125 6.04783 6.66667 6.66667 6.66667M18.3333 6.66667V4.33333C18.3333 3.71449 18.0875 3.121 17.6499 2.68342C17.2123 2.24583 16.6188 2 16 2H9C8.38116 2 7.78767 2.24583 7.35008 2.68342C6.9125 3.121 6.66667 3.71449 6.66667 4.33333V6.66667M18.3333 6.66667H6.66667" stroke="#4F4F4F" stroke-width="1.5" stroke-linecap="round" stroke-linejoin="round"/>
</svg>
