<svg width="24" height="24" viewBox="0 0 24 24" fill="none" xmlns="http://www.w3.org/2000/svg">
<path fill-rule="evenodd" clip-rule="evenodd" d="M10.833 1.86849C11.5715 1.523 12.4252 1.523 13.1637 1.86849C13.6731 2.10684 14.0379 2.55543 14.3625 3.0641C14.6879 3.574 15.0455 4.26623 15.4899 5.12657L15.5077 5.16111L15.8991 5.91863C16.0875 6.28337 16.1184 6.3274 16.1458 6.35596C16.1857 6.3976 16.2333 6.43117 16.2859 6.45485C16.3219 6.4711 16.3738 6.48549 16.7805 6.54093L17.0228 6.57396L17.0619 6.57927C18.1507 6.72767 19.0193 6.84607 19.6742 6.99606C20.3186 7.14367 20.9177 7.35313 21.3256 7.79488C21.9078 8.42539 22.1623 9.29155 22.0137 10.1368C21.9095 10.729 21.5189 11.2292 21.0567 11.7019C20.5871 12.1823 19.9205 12.7517 19.085 13.4655L19.0551 13.4911L18.9764 13.5582C18.588 13.8901 18.5437 13.942 18.5203 13.9831C18.4859 14.0437 18.466 14.1114 18.4622 14.181C18.4596 14.2283 18.4688 14.2958 18.616 14.7851L18.757 15.2534L18.7684 15.2911C19.1135 16.4375 19.3872 17.347 19.5336 18.0535C19.6763 18.742 19.7415 19.4146 19.4868 19.9876C19.1273 20.7965 18.4003 21.3828 17.5336 21.563C16.9198 21.6906 16.2762 21.4845 15.6335 21.1993C14.974 20.9067 14.1431 20.4465 13.0957 19.8666L13.0612 19.8475L12.5651 19.5728C12.1832 19.3613 12.1296 19.3409 12.0887 19.3325C12.0291 19.3203 11.9676 19.3203 11.9079 19.3325C11.8671 19.3409 11.8134 19.3613 11.4316 19.5728L10.9354 19.8475L10.9009 19.8666C9.85356 20.4466 9.02262 20.9067 8.36314 21.1993C7.72045 21.4845 7.07687 21.6906 6.46303 21.563C5.59636 21.3828 4.86941 20.7965 4.50985 19.9876C4.25518 19.4146 4.32037 18.742 4.46305 18.0535C4.60945 17.347 4.88322 16.4376 5.2283 15.2912L5.23967 15.2534L5.38064 14.7851C5.5279 14.2958 5.53704 14.2283 5.53447 14.181C5.53067 14.1114 5.51077 14.0437 5.47633 13.9831C5.45294 13.942 5.40871 13.8901 5.02025 13.5582L4.94162 13.4911L4.91167 13.4655C4.07616 12.7517 3.40959 12.1823 2.93993 11.7019C2.47775 11.2292 2.08714 10.729 1.983 10.1368C1.83436 9.29155 2.08883 8.42539 2.67103 7.79488C3.07894 7.35313 3.67806 7.14367 4.32249 6.99606C4.97735 6.84607 5.84599 6.72767 6.9348 6.57928L6.97383 6.57396L7.21613 6.54093C7.6229 6.48549 7.67474 6.4711 7.71081 6.45485C7.76342 6.43117 7.81098 6.3976 7.8509 6.35596C7.87828 6.3274 7.90919 6.28337 8.09761 5.91863L8.48893 5.16111L8.50677 5.12658C8.95119 4.26623 9.30877 3.574 9.63418 3.0641C9.95879 2.55543 10.3235 2.10684 10.833 1.86849ZM12.528 3.22716C12.1924 3.07011 11.8043 3.07011 11.4686 3.22716C11.3613 3.2774 11.1878 3.41792 10.8986 3.87103C10.6146 4.31611 10.288 4.94664 9.82161 5.84955L9.4303 6.60707C9.41981 6.62736 9.40938 6.64764 9.39897 6.66787C9.26353 6.93111 9.1315 7.18771 8.93362 7.39409C8.76062 7.57452 8.55453 7.72001 8.32659 7.82263C8.06588 7.94001 7.77989 7.97852 7.4865 8.01802C7.46394 8.02106 7.44135 8.0241 7.41871 8.02719L7.17641 8.06021C6.03973 8.21515 5.23848 8.3251 4.6574 8.4582C4.05809 8.59547 3.85256 8.72639 3.77307 8.81248C3.50843 9.09908 3.39276 9.49279 3.46033 9.87698C3.48062 9.99238 3.58267 10.2137 4.01249 10.6533C4.42923 11.0795 5.04368 11.6054 5.91592 12.3506L5.99456 12.4177C6.01635 12.4364 6.03813 12.4549 6.05987 12.4734C6.33836 12.7104 6.60925 12.9409 6.78032 13.2417C6.92956 13.5042 7.0158 13.7978 7.03224 14.0993C7.05109 14.4449 6.9479 14.7853 6.84182 15.1353C6.83354 15.1626 6.82524 15.19 6.81698 15.2174L6.67601 15.6857C6.31704 16.8783 6.06317 17.7242 5.93184 18.3579C5.79518 19.0174 5.83374 19.273 5.88053 19.3783C6.04397 19.746 6.3744 20.0125 6.76834 20.0944C6.88111 20.1178 7.13916 20.1014 7.75473 19.8282C8.34629 19.5657 9.11926 19.1385 10.2088 18.5352L10.705 18.2605C10.7263 18.2487 10.7475 18.2369 10.7687 18.2251C11.0433 18.0725 11.3108 17.9238 11.6066 17.8631C11.8651 17.8101 12.1316 17.8101 12.3901 17.8631C12.6859 17.9238 12.9534 18.0725 13.228 18.2252C13.2492 18.2369 13.2704 18.2487 13.2917 18.2605L13.7878 18.5352C14.8774 19.1385 15.6504 19.5657 16.2419 19.8282C16.8575 20.1014 17.1156 20.1178 17.2283 20.0944C17.6223 20.0125 17.9527 19.746 18.1161 19.3783C18.1629 19.273 18.2015 19.0174 18.0648 18.3579C17.9335 17.7242 17.6796 16.8783 17.3207 15.6857L17.1797 15.2174C17.1714 15.19 17.1631 15.1626 17.1549 15.1353C17.0488 14.7853 16.9456 14.4449 16.9644 14.0993C16.9809 13.7978 17.0671 13.5042 17.2164 13.2417C17.3874 12.9409 17.6583 12.7104 17.9368 12.4734C17.9585 12.4549 17.9803 12.4364 18.0021 12.4177L18.0807 12.3506C18.953 11.6054 19.5674 11.0795 19.9842 10.6533C20.414 10.2137 20.5161 9.99238 20.5363 9.87698C20.6039 9.49279 20.4882 9.09908 20.2236 8.81248C20.1441 8.72639 19.9386 8.59547 19.3393 8.4582C18.7582 8.3251 17.9569 8.21515 16.8203 8.06021L16.578 8.02719C16.5553 8.0241 16.5327 8.02106 16.5102 8.01802C16.2168 7.97852 15.9308 7.94001 15.6701 7.82263C15.4421 7.72001 15.2361 7.57452 15.063 7.39409C14.8652 7.18771 14.7331 6.93111 14.5977 6.66787C14.5873 6.64764 14.5769 6.62736 14.5664 6.60707L14.1751 5.84955C13.7086 4.94664 13.3821 4.31611 13.098 3.87103C12.8089 3.41792 12.6354 3.2774 12.528 3.22716Z" fill="#333333"/>
</svg>
