<svg width="24" height="24" viewBox="0 0 24 24" fill="none" xmlns="http://www.w3.org/2000/svg">
<path fill-rule="evenodd" clip-rule="evenodd" d="M10.344 2.51811C11.6036 1.59436 13.3112 1.92291 14.1788 3.09386L14.4909 2.87099C15.9419 1.83456 17.9803 2.43184 18.6426 4.08743L19.663 6.63839C20.8997 7.2513 21.75 8.52657 21.75 10.0004V11.8539C22.9043 12.1804 23.75 13.2416 23.75 14.5004C23.75 15.7592 22.9043 16.8204 21.75 17.1469V18.0004C21.75 20.0715 20.0711 21.7504 18 21.7504H6C3.92893 21.7504 2.25 20.0715 2.25 18.0004V10.0004C2.25 8.23623 3.46825 6.75658 5.10938 6.35682L10.344 2.51811ZM9.75965 6.25043H7.79098L11.231 3.72771C11.7954 3.31387 12.5575 3.45299 12.9569 3.96668L9.75965 6.25043ZM17.2499 4.64452C16.9488 3.89197 16.0223 3.62049 15.3627 4.09159L12.3403 6.25043H17.8922L17.2499 4.64452ZM19 17.2504H20.25V18.0004C20.25 19.2431 19.2426 20.2504 18 20.2504H6C4.75736 20.2504 3.75 19.2431 3.75 18.0004V10.0004C3.75 8.75778 4.75736 7.75043 6 7.75043H18C19.2426 7.75043 20.25 8.75778 20.25 10.0004V11.7504H19C17.4812 11.7504 16.25 12.9816 16.25 14.5004C16.25 16.0192 17.4812 17.2504 19 17.2504ZM17.75 14.5004C17.75 13.8101 18.3096 13.2504 19 13.2504H21C21.6904 13.2504 22.25 13.8101 22.25 14.5004C22.25 15.1908 21.6904 15.7504 21 15.7504H19C18.3096 15.7504 17.75 15.1908 17.75 14.5004ZM10.5303 10.4701C10.3897 10.3294 10.1989 10.2504 10 10.2504C9.80109 10.2504 9.61032 10.3294 9.46967 10.4701L6.46967 13.4701C6.17678 13.763 6.17678 14.2379 6.46967 14.5308C6.76256 14.8236 7.23744 14.8236 7.53033 14.5308L9.25 12.8111V17.0004C9.25 17.4146 9.58579 17.7504 10 17.7504C10.4142 17.7504 10.75 17.4146 10.75 17.0004V12.8111L12.4697 14.5308C12.7626 14.8236 13.2374 14.8236 13.5303 14.5308C13.8232 14.2379 13.8232 13.763 13.5303 13.4701L10.5303 10.4701Z" fill="#4F4F4F"/>
</svg>
