<svg width="156" height="13" viewBox="0 0 156 13" fill="none" xmlns="http://www.w3.org/2000/svg">
<path d="M2.5 10.3636C2.04167 10.3636 1.62311 10.2519 1.24432 10.0284C0.86553 9.80114 0.5625 9.49811 0.335227 9.11932C0.111742 8.74053 0 8.32197 0 7.86364C0 7.40152 0.111742 6.98295 0.335227 6.60795C0.5625 6.22917 0.86553 5.92803 1.24432 5.70455C1.62311 5.47727 2.04167 5.36364 2.5 5.36364C2.96212 5.36364 3.38068 5.47727 3.75568 5.70455C4.13447 5.92803 4.43561 6.22917 4.65909 6.60795C4.88636 6.98295 5 7.40152 5 7.86364C5 8.32197 4.88636 8.74053 4.65909 9.11932C4.43561 9.49811 4.13447 9.80114 3.75568 10.0284C3.38068 10.2519 2.96212 10.3636 2.5 10.3636ZM11.5 10.3636C11.0417 10.3636 10.6231 10.2519 10.2443 10.0284C9.86553 9.80114 9.5625 9.49811 9.33523 9.11932C9.11174 8.74053 9 8.32197 9 7.86364C9 7.40152 9.11174 6.98295 9.33523 6.60795C9.5625 6.22917 9.86553 5.92803 10.2443 5.70455C10.6231 5.47727 11.0417 5.36364 11.5 5.36364C11.9621 5.36364 12.3807 5.47727 12.7557 5.70455C13.1345 5.92803 13.4356 6.22917 13.6591 6.60795C13.8864 6.98295 14 7.40152 14 7.86364C14 8.32197 13.8864 8.74053 13.6591 9.11932C13.4356 9.49811 13.1345 9.80114 12.7557 10.0284C12.3807 10.2519 11.9621 10.3636 11.5 10.3636ZM20.5 10.3636C20.0417 10.3636 19.6231 10.2519 19.2443 10.0284C18.8655 9.80114 18.5625 9.49811 18.3352 9.11932C18.1117 8.74053 18 8.32197 18 7.86364C18 7.40152 18.1117 6.98295 18.3352 6.60795C18.5625 6.22917 18.8655 5.92803 19.2443 5.70455C19.6231 5.47727 20.0417 5.36364 20.5 5.36364C20.9621 5.36364 21.3807 5.47727 21.7557 5.70455C22.1345 5.92803 22.4356 6.22917 22.6591 6.60795C22.8864 6.98295 23 7.40152 23 7.86364C23 8.32197 22.8864 8.74053 22.6591 9.11932C22.4356 9.49811 22.1345 9.80114 21.7557 10.0284C21.3807 10.2519 20.9621 10.3636 20.5 10.3636ZM29.5 10.3636C29.0417 10.3636 28.6231 10.2519 28.2443 10.0284C27.8655 9.80114 27.5625 9.49811 27.3352 9.11932C27.1117 8.74053 27 8.32197 27 7.86364C27 7.40152 27.1117 6.98295 27.3352 6.60795C27.5625 6.22917 27.8655 5.92803 28.2443 5.70455C28.6231 5.47727 29.0417 5.36364 29.5 5.36364C29.9621 5.36364 30.3807 5.47727 30.7557 5.70455C31.1345 5.92803 31.4356 6.22917 31.6591 6.60795C31.8864 6.98295 32 7.40152 32 7.86364C32 8.32197 31.8864 8.74053 31.6591 9.11932C31.4356 9.49811 31.1345 9.80114 30.7557 10.0284C30.3807 10.2519 29.9621 10.3636 29.5 10.3636ZM43 10.3636C42.5417 10.3636 42.1231 10.2519 41.7443 10.0284C41.3655 9.80114 41.0625 9.49811 40.8352 9.11932C40.6117 8.74053 40.5 8.32197 40.5 7.86364C40.5 7.40152 40.6117 6.98295 40.8352 6.60795C41.0625 6.22917 41.3655 5.92803 41.7443 5.70455C42.1231 5.47727 42.5417 5.36364 43 5.36364C43.4621 5.36364 43.8807 5.47727 44.2557 5.70455C44.6345 5.92803 44.9356 6.22917 45.1591 6.60795C45.3864 6.98295 45.5 7.40152 45.5 7.86364C45.5 8.32197 45.3864 8.74053 45.1591 9.11932C44.9356 9.49811 44.6345 9.80114 44.2557 10.0284C43.8807 10.2519 43.4621 10.3636 43 10.3636ZM52 10.3636C51.5417 10.3636 51.1231 10.2519 50.7443 10.0284C50.3655 9.80114 50.0625 9.49811 49.8352 9.11932C49.6117 8.74053 49.5 8.32197 49.5 7.86364C49.5 7.40152 49.6117 6.98295 49.8352 6.60795C50.0625 6.22917 50.3655 5.92803 50.7443 5.70455C51.1231 5.47727 51.5417 5.36364 52 5.36364C52.4621 5.36364 52.8807 5.47727 53.2557 5.70455C53.6345 5.92803 53.9356 6.22917 54.1591 6.60795C54.3864 6.98295 54.5 7.40152 54.5 7.86364C54.5 8.32197 54.3864 8.74053 54.1591 9.11932C53.9356 9.49811 53.6345 9.80114 53.2557 10.0284C52.8807 10.2519 52.4621 10.3636 52 10.3636ZM61 10.3636C60.5417 10.3636 60.1231 10.2519 59.7443 10.0284C59.3655 9.80114 59.0625 9.49811 58.8352 9.11932C58.6117 8.74053 58.5 8.32197 58.5 7.86364C58.5 7.40152 58.6117 6.98295 58.8352 6.60795C59.0625 6.22917 59.3655 5.92803 59.7443 5.70455C60.1231 5.47727 60.5417 5.36364 61 5.36364C61.4621 5.36364 61.8807 5.47727 62.2557 5.70455C62.6345 5.92803 62.9356 6.22917 63.1591 6.60795C63.3864 6.98295 63.5 7.40152 63.5 7.86364C63.5 8.32197 63.3864 8.74053 63.1591 9.11932C62.9356 9.49811 62.6345 9.80114 62.2557 10.0284C61.8807 10.2519 61.4621 10.3636 61 10.3636ZM70 10.3636C69.5417 10.3636 69.1231 10.2519 68.7443 10.0284C68.3655 9.80114 68.0625 9.49811 67.8352 9.11932C67.6117 8.74053 67.5 8.32197 67.5 7.86364C67.5 7.40152 67.6117 6.98295 67.8352 6.60795C68.0625 6.22917 68.3655 5.92803 68.7443 5.70455C69.1231 5.47727 69.5417 5.36364 70 5.36364C70.4621 5.36364 70.8807 5.47727 71.2557 5.70455C71.6345 5.92803 71.9356 6.22917 72.1591 6.60795C72.3864 6.98295 72.5 7.40152 72.5 7.86364C72.5 8.32197 72.3864 8.74053 72.1591 9.11932C71.9356 9.49811 71.6345 9.80114 71.2557 10.0284C70.8807 10.2519 70.4621 10.3636 70 10.3636ZM83.5 9.18182C83.0417 9.18182 82.6231 9.07008 82.2443 8.84659C81.8655 8.61932 81.5625 8.31629 81.3352 7.9375C81.1117 7.55871 81 7.14015 81 6.68182C81 6.2197 81.1117 5.80114 81.3352 5.42614C81.5625 5.04735 81.8655 4.74621 82.2443 4.52273C82.6231 4.29545 83.0417 4.18182 83.5 4.18182C83.9621 4.18182 84.3807 4.29545 84.7557 4.52273C85.1345 4.74621 85.4356 5.04735 85.6591 5.42614C85.8864 5.80114 86 6.2197 86 6.68182C86 7.14015 85.8864 7.55871 85.6591 7.9375C85.4356 8.31629 85.1345 8.61932 84.7557 8.84659C84.3807 9.07008 83.9621 9.18182 83.5 9.18182ZM92.5 9.18182C92.0417 9.18182 91.6231 9.07008 91.2443 8.84659C90.8655 8.61932 90.5625 8.31629 90.3352 7.9375C90.1117 7.55871 90 7.14015 90 6.68182C90 6.2197 90.1117 5.80114 90.3352 5.42614C90.5625 5.04735 90.8655 4.74621 91.2443 4.52273C91.6231 4.29545 92.0417 4.18182 92.5 4.18182C92.9621 4.18182 93.3807 4.29545 93.7557 4.52273C94.1345 4.74621 94.4356 5.04735 94.6591 5.42614C94.8864 5.80114 95 6.2197 95 6.68182C95 7.14015 94.8864 7.55871 94.6591 7.9375C94.4356 8.31629 94.1345 8.61932 93.7557 8.84659C93.3807 9.07008 92.9621 9.18182 92.5 9.18182ZM101.5 9.18182C101.042 9.18182 100.623 9.07008 100.244 8.84659C99.8655 8.61932 99.5625 8.31629 99.3352 7.9375C99.1117 7.55871 99 7.14015 99 6.68182C99 6.2197 99.1117 5.80114 99.3352 5.42614C99.5625 5.04735 99.8655 4.74621 100.244 4.52273C100.623 4.29545 101.042 4.18182 101.5 4.18182C101.962 4.18182 102.381 4.29545 102.756 4.52273C103.134 4.74621 103.436 5.04735 103.659 5.42614C103.886 5.80114 104 6.2197 104 6.68182C104 7.14015 103.886 7.55871 103.659 7.9375C103.436 8.31629 103.134 8.61932 102.756 8.84659C102.381 9.07008 101.962 9.18182 101.5 9.18182ZM110.5 9.18182C110.042 9.18182 109.623 9.07008 109.244 8.84659C108.866 8.61932 108.563 8.31629 108.335 7.9375C108.112 7.55871 108 7.14015 108 6.68182C108 6.2197 108.112 5.80114 108.335 5.42614C108.563 5.04735 108.866 4.74621 109.244 4.52273C109.623 4.29545 110.042 4.18182 110.5 4.18182C110.962 4.18182 111.381 4.29545 111.756 4.52273C112.134 4.74621 112.436 5.04735 112.659 5.42614C112.886 5.80114 113 6.2197 113 6.68182C113 7.14015 112.886 7.55871 112.659 7.9375C112.436 8.31629 112.134 8.61932 111.756 8.84659C111.381 9.07008 110.962 9.18182 110.5 9.18182ZM124.5 12.6591C123.644 12.6591 122.915 12.4261 122.312 11.9602C121.71 11.4905 121.25 10.8106 120.932 9.92045C120.614 9.02652 120.455 7.94697 120.455 6.68182C120.455 5.42424 120.614 4.35038 120.932 3.46023C121.254 2.56629 121.716 1.88447 122.318 1.41477C122.924 0.941287 123.652 0.704545 124.5 0.704545C125.348 0.704545 126.074 0.941287 126.676 1.41477C127.282 1.88447 127.744 2.56629 128.062 3.46023C128.384 4.35038 128.545 5.42424 128.545 6.68182C128.545 7.94697 128.386 9.02652 128.068 9.92045C127.75 10.8106 127.29 11.4905 126.688 11.9602C126.085 12.4261 125.356 12.6591 124.5 12.6591ZM124.5 11.4091C125.348 11.4091 126.008 11 126.477 10.1818C126.947 9.36364 127.182 8.19697 127.182 6.68182C127.182 5.67424 127.074 4.81629 126.858 4.10795C126.646 3.39962 126.339 2.85985 125.938 2.48864C125.54 2.11742 125.061 1.93182 124.5 1.93182C123.659 1.93182 123.002 2.34659 122.528 3.17614C122.055 4.00189 121.818 5.17045 121.818 6.68182C121.818 7.68939 121.924 8.54545 122.136 9.25C122.348 9.95455 122.653 10.4905 123.051 10.858C123.453 11.2254 123.936 11.4091 124.5 11.4091ZM134.636 12.6591C133.886 12.6591 133.218 12.5303 132.631 12.2727C132.047 12.0152 131.583 11.6572 131.239 11.1989C130.898 10.7367 130.712 10.2008 130.682 9.59091H132.114C132.144 9.96591 132.273 10.2898 132.5 10.5625C132.727 10.8314 133.025 11.0398 133.392 11.1875C133.759 11.3352 134.167 11.4091 134.614 11.4091C135.114 11.4091 135.557 11.322 135.943 11.1477C136.33 10.9735 136.633 10.7311 136.852 10.4205C137.072 10.1098 137.182 9.75 137.182 9.34091C137.182 8.91288 137.076 8.53598 136.864 8.21023C136.652 7.88068 136.341 7.62311 135.932 7.4375C135.523 7.25189 135.023 7.15909 134.432 7.15909H133.5V5.90909H134.432C134.894 5.90909 135.299 5.82576 135.648 5.65909C136 5.49242 136.275 5.25758 136.472 4.95455C136.672 4.65152 136.773 4.29545 136.773 3.88636C136.773 3.49242 136.686 3.14962 136.511 2.85795C136.337 2.56629 136.091 2.33901 135.773 2.17614C135.458 2.01326 135.087 1.93182 134.659 1.93182C134.258 1.93182 133.879 2.00568 133.523 2.15341C133.17 2.29735 132.883 2.50758 132.659 2.78409C132.436 3.05682 132.314 3.38636 132.295 3.77273H130.932C130.955 3.16288 131.138 2.62879 131.483 2.17045C131.828 1.70833 132.278 1.34848 132.835 1.09091C133.396 0.833333 134.011 0.704545 134.682 0.704545C135.402 0.704545 136.019 0.850378 136.534 1.14205C137.049 1.42992 137.445 1.81061 137.722 2.28409C137.998 2.75758 138.136 3.26894 138.136 3.81818C138.136 4.47348 137.964 5.0322 137.619 5.49432C137.278 5.95644 136.814 6.27652 136.227 6.45455V6.54545C136.962 6.66667 137.536 6.97917 137.949 7.48295C138.362 7.98295 138.568 8.60227 138.568 9.34091C138.568 9.97348 138.396 10.5417 138.051 11.0455C137.71 11.5455 137.244 11.9394 136.653 12.2273C136.063 12.5152 135.39 12.6591 134.636 12.6591ZM144.824 12.6591C144.074 12.6591 143.405 12.5303 142.818 12.2727C142.235 12.0152 141.771 11.6572 141.426 11.1989C141.085 10.7367 140.9 10.2008 140.869 9.59091H142.301C142.331 9.96591 142.46 10.2898 142.688 10.5625C142.915 10.8314 143.212 11.0398 143.58 11.1875C143.947 11.3352 144.354 11.4091 144.801 11.4091C145.301 11.4091 145.744 11.322 146.131 11.1477C146.517 10.9735 146.82 10.7311 147.04 10.4205C147.259 10.1098 147.369 9.75 147.369 9.34091C147.369 8.91288 147.263 8.53598 147.051 8.21023C146.839 7.88068 146.528 7.62311 146.119 7.4375C145.71 7.25189 145.21 7.15909 144.619 7.15909H143.688V5.90909H144.619C145.081 5.90909 145.487 5.82576 145.835 5.65909C146.188 5.49242 146.462 5.25758 146.659 4.95455C146.86 4.65152 146.96 4.29545 146.96 3.88636C146.96 3.49242 146.873 3.14962 146.699 2.85795C146.525 2.56629 146.278 2.33901 145.96 2.17614C145.646 2.01326 145.275 1.93182 144.847 1.93182C144.445 1.93182 144.066 2.00568 143.71 2.15341C143.358 2.29735 143.07 2.50758 142.847 2.78409C142.623 3.05682 142.502 3.38636 142.483 3.77273H141.119C141.142 3.16288 141.326 2.62879 141.67 2.17045C142.015 1.70833 142.466 1.34848 143.023 1.09091C143.583 0.833333 144.199 0.704545 144.869 0.704545C145.589 0.704545 146.206 0.850378 146.722 1.14205C147.237 1.42992 147.633 1.81061 147.909 2.28409C148.186 2.75758 148.324 3.26894 148.324 3.81818C148.324 4.47348 148.152 5.0322 147.807 5.49432C147.466 5.95644 147.002 6.27652 146.415 6.45455V6.54545C147.15 6.66667 147.723 6.97917 148.136 7.48295C148.549 7.98295 148.756 8.60227 148.756 9.34091C148.756 9.97348 148.583 10.5417 148.239 11.0455C147.898 11.5455 147.432 11.9394 146.841 12.2273C146.25 12.5152 145.578 12.6591 144.824 12.6591ZM155.17 0.863636V12.5H153.761V2.34091H153.693L150.852 4.22727V2.79545L153.761 0.863636H155.17Z" fill="#333333"/>
</svg>
