<svg width="34" height="24" viewBox="0 0 34 24" fill="none" xmlns="http://www.w3.org/2000/svg">
<path d="M11.7934 24C11.5058 24 11.2277 23.9458 10.9591 23.8373C10.6905 23.7305 10.4305 23.5514 10.1791 23.3L1.08481 14.2058C0.654333 13.7753 0.448565 13.2286 0.467506 12.5656C0.484725 11.901 0.708574 11.3534 1.13905 10.9229C1.56953 10.4925 2.10763 10.2772 2.75334 10.2772C3.39906 10.2772 3.93716 10.4925 4.36764 10.9229L11.9019 18.4572L29.7133 0.645717C30.1438 0.215239 30.6724 0 31.2992 0C31.9277 0 32.4572 0.215239 32.8877 0.645717C33.3181 1.07619 33.5334 1.60568 33.5334 2.23418C33.5334 2.86096 33.3181 3.38958 32.8877 3.82006L13.4077 23.3C13.1563 23.5514 12.8963 23.7305 12.6276 23.8373C12.359 23.9458 12.0809 24 11.7934 24Z" fill="white"/>
</svg>
