<svg width="72" height="72" viewBox="0 0 72 72" fill="none" xmlns="http://www.w3.org/2000/svg">
<g filter="url(#filter0_dd_1539_14266)">
<rect x="8" width="56" height="56" rx="28" fill="#0DA75E"/>
<path d="M28.0345 35.4153C25.8053 35.4153 23.998 33.6203 23.998 31.4062C23.998 29.192 25.8053 27.397 28.0345 27.397V35.4153Z" fill="#EBF6EE"/>
<path d="M43.9658 35.4153C46.1951 35.4153 48.0023 33.6203 48.0023 31.4062C48.0023 29.192 46.1951 27.397 43.9658 27.397V35.4153Z" fill="#EBF6EE"/>
<path d="M37.3582 41.1628H35.1436V43.3626H37.3582V41.1628Z" fill="#EBF6EE"/>
<path d="M44.9308 15.6885C42.536 13.31 39.3645 12 36.0004 12C32.6364 12 29.4649 13.31 27.0701 15.6885C24.6753 18.0671 23.3564 21.2171 23.3564 24.5585V31.4415C23.3564 31.4536 23.3576 31.4654 23.3582 31.4774C23.3969 34.0066 25.4792 36.0527 28.0347 36.0527C28.3892 36.0527 28.6765 35.7673 28.6765 35.4152V27.3968C28.6765 27.0448 28.3892 26.7594 28.0347 26.7594C26.699 26.7594 25.4932 27.3191 24.64 28.2138V24.5585C24.64 18.3367 29.7363 13.2749 36.0004 13.2749C42.2645 13.2749 47.3608 18.3367 47.3608 24.5585V28.2138C46.5077 27.3191 45.3019 26.7594 43.9662 26.7594C43.6117 26.7594 43.3244 27.0448 43.3244 27.3968V35.4152C43.3244 35.7673 43.6117 36.0527 43.9662 36.0527C46.5217 36.0527 48.6039 34.0066 48.6426 31.4774C48.6433 31.4654 48.6444 31.4536 48.6444 31.4415V24.5585C48.6444 21.2171 47.3255 18.0671 44.9308 15.6885ZM27.3929 28.0947V34.7173C25.8269 34.4184 24.64 33.0473 24.64 31.406C24.64 29.7647 25.8269 28.3936 27.3929 28.0947ZM44.608 34.7173V28.0947C46.174 28.3936 47.3608 29.7647 47.3608 31.406C47.3608 33.0473 46.174 34.4185 44.608 34.7173Z" fill="#EBF6EE"/>
<path d="M47.094 36.597C46.7701 36.4538 46.3908 36.5985 46.2468 36.9202C46.0594 37.3383 45.8472 37.744 45.6162 38.1259C45.4336 38.4277 45.5319 38.8193 45.8357 39.0006C45.9391 39.0624 46.0531 39.0918 46.1657 39.0918C46.3836 39.0918 46.596 38.9816 46.7164 38.7826C46.9744 38.3562 47.2109 37.904 47.4195 37.4386C47.5636 37.117 47.4179 36.7402 47.094 36.597Z" fill="#EBF6EE"/>
<path d="M45.3647 39.638C45.1013 39.4023 44.6955 39.4234 44.4583 39.6849C42.7917 41.5224 40.5687 42.5589 37.9992 42.7062V41.1628C37.9992 40.8108 37.7119 40.5254 37.3574 40.5254H35.1428C34.7883 40.5254 34.501 40.8108 34.501 41.1628V43.3626C34.501 43.7147 34.7883 44.0001 35.1428 44.0001H37.3574C40.5727 44.0001 43.3578 42.803 45.4119 40.5383C45.6492 40.2767 45.628 39.8737 45.3647 39.638ZM35.7846 41.8003H36.7157V42.7252H35.7846V41.8003Z" fill="#EBF6EE"/>
</g>
<defs>
<filter id="filter0_dd_1539_14266" x="0" y="0" width="72" height="72" filterUnits="userSpaceOnUse" color-interpolation-filters="sRGB">
<feFlood flood-opacity="0" result="BackgroundImageFix"/>
<feColorMatrix in="SourceAlpha" type="matrix" values="0 0 0 0 0 0 0 0 0 0 0 0 0 0 0 0 0 0 127 0" result="hardAlpha"/>
<feMorphology radius="2" operator="erode" in="SourceAlpha" result="effect1_dropShadow_1539_14266"/>
<feOffset dy="4"/>
<feGaussianBlur stdDeviation="3"/>
<feColorMatrix type="matrix" values="0 0 0 0 0.0627451 0 0 0 0 0.0941176 0 0 0 0 0.156863 0 0 0 0.1 0"/>
<feBlend mode="normal" in2="BackgroundImageFix" result="effect1_dropShadow_1539_14266"/>
<feColorMatrix in="SourceAlpha" type="matrix" values="0 0 0 0 0 0 0 0 0 0 0 0 0 0 0 0 0 0 127 0" result="hardAlpha"/>
<feMorphology radius="4" operator="erode" in="SourceAlpha" result="effect2_dropShadow_1539_14266"/>
<feOffset dy="8"/>
<feGaussianBlur stdDeviation="6"/>
<feColorMatrix type="matrix" values="0 0 0 0 0 0 0 0 0 0 0 0 0 0 0 0 0 0 0.2 0"/>
<feBlend mode="normal" in2="effect1_dropShadow_1539_14266" result="effect2_dropShadow_1539_14266"/>
<feBlend mode="normal" in="SourceGraphic" in2="effect2_dropShadow_1539_14266" result="shape"/>
</filter>
</defs>
</svg>
