<svg width="40" height="40" viewBox="0 0 40 40" fill="none" xmlns="http://www.w3.org/2000/svg">
<rect width="40" height="40" rx="8" fill="#252525" fill-opacity="0.1"/>
<path fill-rule="evenodd" clip-rule="evenodd" d="M22.1788 11.0934C21.3112 9.92243 19.6036 9.59388 18.344 10.5176L13.1094 14.3563C11.4683 14.756 10.25 16.2357 10.25 17.9999V25.9999C10.25 28.071 11.9289 29.7499 14 29.7499H26C28.0711 29.7499 29.75 28.071 29.75 25.9999V25.1464C30.9043 24.8199 31.75 23.7587 31.75 22.4999C31.75 21.2411 30.9043 20.1799 29.75 19.8534V17.9999C29.75 16.5261 28.8997 15.2508 27.6629 14.6379L26.6426 12.0869C25.9803 10.4313 23.9419 9.83408 22.4909 10.8705L22.1788 11.0934ZM15.791 14.2499H17.7597L20.9569 11.9662C20.5575 11.4525 19.7954 11.3134 19.231 11.7272L15.791 14.2499ZM23.3627 12.0911C24.0223 11.62 24.9488 11.8915 25.2499 12.644L25.8922 14.2499H20.3404L23.3627 12.0911ZM28.25 25.2499H27C25.4812 25.2499 24.25 24.0187 24.25 22.4999C24.25 20.9811 25.4812 19.7499 27 19.7499H28.25V17.9999C28.25 16.7573 27.2426 15.7499 26 15.7499H14C12.7574 15.7499 11.75 16.7573 11.75 17.9999V25.9999C11.75 27.2426 12.7574 28.2499 14 28.2499H26C27.2426 28.2499 28.25 27.2426 28.25 25.9999V25.2499ZM27 21.2499C26.3096 21.2499 25.75 21.8096 25.75 22.4999C25.75 23.1903 26.3096 23.7499 27 23.7499H29C29.6904 23.7499 30.25 23.1903 30.25 22.4999C30.25 21.8096 29.6904 21.2499 29 21.2499H27Z" fill="#252525"/>
</svg>
