<svg width="224" height="131" viewBox="0 0 224 131" fill="none" xmlns="http://www.w3.org/2000/svg">
<rect width="224" height="131" rx="12" fill="#FBF0F5"/>
<path d="M22.9997 27.5L22.9174 27.9936C22.8495 28.4009 22.8156 28.6046 22.7617 28.7849C22.4767 29.7382 21.7377 30.4883 20.7886 30.7872C20.6091 30.8437 20.406 30.8807 19.9997 30.9545V30.9545M22.9997 27.5L23.4997 24.5L18.6853 25.3753C18.2507 25.4544 17.8731 25.7215 17.6539 26.1051V26.1051C17.0132 27.2263 17.9985 28.578 19.262 28.3113L20.9997 27.9444L22.9997 27.5ZM22.9997 27.5L19.6292 28.2282C19.2303 28.3144 18.8904 28.5733 18.7013 28.9349L18.6232 29.0842C18.1248 30.0376 18.9413 31.147 19.9997 30.9545V30.9545M19.9997 30.9545L15.3493 31.8001C14.9839 31.8665 14.8012 31.8997 14.6309 31.9641C14.4796 32.0213 14.3359 32.0966 14.2028 32.1884C14.0528 32.2918 13.9216 32.4231 13.659 32.6857L12.3446 34" stroke="#EF5DA8" stroke-width="1.5" stroke-linecap="round" stroke-linejoin="round"/>
<path d="M8.43112 24.235L9.89385 21.6751C10.0931 21.3264 10.1927 21.1521 10.3215 21.0038C10.4357 20.8722 10.5666 20.7561 10.7109 20.6584C10.8736 20.5483 11.0586 20.4703 11.4286 20.3142L15.9335 18.414C16.174 18.3126 16.2943 18.2619 16.3952 18.242C16.8738 18.1479 17.3506 18.4129 17.5234 18.8691C17.5598 18.9653 17.5802 19.0942 17.621 19.352V19.352C17.6733 19.682 17.6994 19.847 17.7005 19.9967C17.7059 20.6939 17.3478 21.3435 16.7554 21.7112C16.6282 21.7902 16.4747 21.8562 16.1678 21.9882L15.399 22.3188C15.049 22.4693 14.8739 22.5446 14.7454 22.6656C14.6319 22.7725 14.5449 22.9046 14.4915 23.0512C14.4311 23.217 14.4311 23.4075 14.4311 23.7886L14.4311 24.3604C14.4311 24.961 14.4311 25.2613 14.3509 25.5358C14.2799 25.779 14.1634 26.0064 14.0075 26.206C13.8315 26.4315 13.5878 26.6069 13.1003 26.9577L12.8462 27.1406" stroke="#EF5DA8" stroke-width="1.5" stroke-linecap="round" stroke-linejoin="round"/>
<path fill-rule="evenodd" clip-rule="evenodd" d="M24.7183 14.0272C25.3152 13.923 25.9009 14.2619 26.108 14.8314L28.4791 21.3528C28.7449 22.0839 28.2856 22.8776 27.5193 23.0113L14.6299 25.2613L13.8911 25.3903L14.149 26.868L14.8878 26.739L27.7773 24.489C29.4631 24.1947 30.4736 22.4486 29.8888 20.8403L27.5177 14.3189C27.0622 13.066 25.7736 12.3203 24.4603 12.5495L13.2219 14.5114C11.536 14.8056 10.5255 16.5517 11.1103 18.1601L11.2345 18.5018L11.7044 19.7942C11.846 20.1835 12.2763 20.3843 12.6656 20.2428C13.0549 20.1013 13.2557 19.671 13.1142 19.2817L12.6442 17.9892L12.52 17.6475C12.2542 16.9165 12.7135 16.1228 13.4798 15.989L24.7183 14.0272ZM22.5759 23.097C22.6243 23.1271 22.6793 23.135 22.741 23.1206L23.3382 22.9816C23.3943 22.9686 23.4374 22.9379 23.4675 22.8895C23.4976 22.8411 23.5055 22.7861 23.4911 22.7244L23.3561 22.144C23.7425 22.0009 24.0638 21.8197 24.3202 21.6004C24.5822 21.3798 24.7657 21.1272 24.871 20.8427C24.9748 20.5525 24.9889 20.2447 24.9133 19.9195C24.835 19.583 24.6975 19.3224 24.5008 19.1377C24.3084 18.946 24.0416 18.8159 23.7006 18.7475C23.3596 18.6791 22.9306 18.6519 22.4136 18.6658C22.0688 18.6573 21.7932 18.6417 21.5869 18.6187C21.3793 18.5902 21.2229 18.5409 21.1179 18.4707C21.0116 18.395 20.9428 18.2898 20.9115 18.1552C20.8632 17.9477 20.9087 17.7746 21.0478 17.6358C21.1869 17.497 21.3939 17.3957 21.6686 17.3317C21.9266 17.2717 22.1527 17.2782 22.3471 17.3512C22.5401 17.4186 22.6676 17.5219 22.7296 17.6612C22.7763 17.7094 22.8246 17.7396 22.8747 17.7515C22.9248 17.7635 22.9751 17.7637 23.0255 17.7519L23.976 17.5307C24.0265 17.519 24.0647 17.4923 24.0905 17.4509C24.115 17.4038 24.122 17.3578 24.1116 17.313C24.059 17.1124 23.9378 16.9219 23.748 16.7414C23.5625 16.554 23.3184 16.4069 23.0157 16.3C22.7173 16.1862 22.3675 16.1435 21.9662 16.1718L21.8272 15.5746C21.8129 15.5129 21.7815 15.467 21.7331 15.4369C21.6847 15.4068 21.6325 15.3983 21.5764 15.4113L20.9792 15.5503C20.9175 15.5647 20.8716 15.596 20.8415 15.6444C20.8114 15.6928 20.8035 15.7478 20.8178 15.8095L20.9529 16.3899C20.4091 16.5933 20.0133 16.8864 19.7654 17.2692C19.5232 17.6507 19.4536 18.063 19.5567 18.506C19.635 18.8424 19.7738 19.1087 19.9731 19.3047C20.1767 19.4937 20.4413 19.6272 20.7668 19.7052C21.091 19.7775 21.4739 19.8096 21.9153 19.8014C22.2882 19.8033 22.5868 19.8166 22.8113 19.8412C23.0413 19.8645 23.2145 19.9099 23.3307 19.9775C23.4525 20.0437 23.5304 20.1497 23.5643 20.2955C23.6113 20.4974 23.5559 20.6787 23.3983 20.8396C23.2463 20.9991 22.988 21.1213 22.6235 21.2061C22.3992 21.2583 22.2048 21.274 22.0404 21.2531C21.8746 21.2267 21.7364 21.179 21.6258 21.1102C21.5208 21.04 21.4376 20.9619 21.3762 20.8757C21.3321 20.8386 21.2871 20.8107 21.2414 20.7918C21.1943 20.7673 21.1343 20.7635 21.0614 20.7805L20.1614 20.9899C20.1109 21.0017 20.0706 21.0317 20.0405 21.0801C20.0147 21.1216 20.007 21.1648 20.0174 21.2096C20.0874 21.4594 20.222 21.6822 20.4213 21.8782C20.6206 22.0742 20.8822 22.2202 21.206 22.3163C21.5285 22.4067 21.9088 22.4276 22.3467 22.3789L22.4817 22.9593C22.4961 23.021 22.5275 23.0669 22.5759 23.097Z" fill="#EF5DA8"/>
</svg>
