<svg width="24" height="24" viewBox="0 0 24 24" fill="none" xmlns="http://www.w3.org/2000/svg">
<path d="M15.9997 16.5L15.9174 16.9936C15.8495 17.4009 15.8156 17.6046 15.7617 17.7849C15.4767 18.7382 14.7377 19.4883 13.7886 19.7872C13.6091 19.8437 13.406 19.8807 12.9997 19.9545V19.9545M15.9997 16.5L16.4997 13.5L11.6853 14.3753C11.2507 14.4544 10.8731 14.7215 10.6539 15.1051V15.1051C10.0132 16.2263 10.9985 17.578 12.262 17.3113L13.9997 16.9444L15.9997 16.5ZM15.9997 16.5L12.6292 17.2282C12.2303 17.3144 11.8904 17.5733 11.7013 17.9349L11.6232 18.0842C11.1248 19.0376 11.9413 20.147 12.9997 19.9545V19.9545M12.9997 19.9545L8.34926 20.8001C7.98392 20.8665 7.80124 20.8997 7.63086 20.9641C7.47963 21.0213 7.3359 21.0966 7.20281 21.1884C7.05285 21.2918 6.92156 21.4231 6.65898 21.6857L5.34464 23" stroke="#EF5DA8" stroke-width="1.5" stroke-linecap="round" stroke-linejoin="round"/>
<path d="M1.43112 13.235L2.89385 10.6751C3.0931 10.3264 3.19272 10.1521 3.32145 10.0038C3.43568 9.87216 3.56661 9.75606 3.71093 9.6584C3.87357 9.54834 4.05859 9.4703 4.42862 9.31422L8.93354 7.41405C9.17403 7.31261 9.29427 7.2619 9.39515 7.24205C9.87384 7.14788 10.3506 7.41288 10.5234 7.86913C10.5598 7.96529 10.5802 8.09418 10.621 8.35197V8.35197C10.6733 8.68199 10.6994 8.847 10.7005 8.99667C10.7059 9.69387 10.3478 10.3435 9.75539 10.7112C9.62822 10.7902 9.47474 10.8562 9.16779 10.9882L8.39903 11.3188C8.04896 11.4693 7.87392 11.5446 7.74544 11.6656C7.63189 11.7725 7.54494 11.9046 7.49154 12.0512C7.43112 12.217 7.43112 12.4075 7.43112 12.7886L7.43112 13.3604C7.43112 13.961 7.43112 14.2613 7.35094 14.5358C7.27995 14.779 7.16341 15.0064 7.00753 15.206C6.8315 15.4315 6.58776 15.6069 6.10027 15.9577L5.8462 16.1406" stroke="#EF5DA8" stroke-width="1.5" stroke-linecap="round" stroke-linejoin="round"/>
<path fill-rule="evenodd" clip-rule="evenodd" d="M17.7183 3.02693C18.3152 2.92273 18.9009 3.26169 19.108 3.83118L21.4791 10.3526C21.7449 11.0836 21.2856 11.8773 20.5193 12.0111L7.6299 14.2611L6.89107 14.3901L7.14902 15.8677L7.88784 15.7387L20.7773 13.4887C22.4631 13.1944 23.4736 11.4483 22.8888 9.84001L20.5177 3.31862C20.0622 2.06574 18.7736 1.32003 17.4603 1.54928L6.22186 3.51111C4.53603 3.8054 3.52553 5.55151 4.11029 7.15982L4.23453 7.50154L4.70445 8.79399C4.84598 9.18327 5.2763 9.38411 5.66558 9.24257C6.05486 9.10103 6.2557 8.67072 6.11416 8.28144L5.64425 6.98899L5.52 6.64727C5.2542 5.91622 5.71352 5.12253 6.47981 4.98877L17.7183 3.02693ZM15.5759 12.0967C15.6243 12.1269 15.6793 12.1347 15.741 12.1204L16.3382 11.9814C16.3943 11.9683 16.4374 11.9376 16.4675 11.8892C16.4976 11.8408 16.5055 11.7858 16.4911 11.7241L16.3561 11.1437C16.7425 11.0006 17.0638 10.8194 17.3202 10.6001C17.5822 10.3796 17.7657 10.127 17.871 9.84241C17.9748 9.55222 17.9889 9.2445 17.9133 8.91926C17.835 8.5828 17.6975 8.32219 17.5008 8.13742C17.3084 7.94574 17.0416 7.81569 16.7006 7.74728C16.3596 7.67886 15.9306 7.65161 15.4136 7.66551C15.0688 7.65709 14.7932 7.64142 14.5869 7.6185C14.3793 7.58997 14.2229 7.54063 14.1179 7.47049C14.0116 7.39473 13.9428 7.28956 13.9115 7.15498C13.8632 6.9475 13.9087 6.77436 14.0478 6.63558C14.1869 6.49679 14.3939 6.39543 14.6686 6.33148C14.9266 6.27145 15.1527 6.27794 15.3471 6.35094C15.5401 6.41833 15.6676 6.52167 15.7296 6.66094C15.7763 6.70919 15.8246 6.73931 15.8747 6.7513C15.9248 6.76329 15.9751 6.76341 16.0255 6.75166L16.976 6.53046C17.0265 6.51872 17.0647 6.49211 17.0905 6.45063C17.115 6.40355 17.122 6.35757 17.1116 6.31271C17.059 6.11214 16.9378 5.92162 16.748 5.74116C16.5625 5.55378 16.3184 5.40665 16.0157 5.29975C15.7173 5.18595 15.3675 5.14323 14.9662 5.17159L14.8272 4.57437C14.8129 4.51269 14.7815 4.46679 14.7331 4.43667C14.6847 4.40655 14.6325 4.39802 14.5764 4.41107L13.9792 4.55005C13.9175 4.56441 13.8716 4.59578 13.8415 4.64417C13.8114 4.69256 13.8035 4.7476 13.8178 4.80928L13.9529 5.38967C13.4091 5.59307 13.0133 5.88618 12.7654 6.26899C12.5232 6.65049 12.4536 7.06274 12.5567 7.50575C12.635 7.84221 12.7738 8.10843 12.9731 8.30441C13.1767 8.49348 13.4413 8.62698 13.7668 8.70492C14.091 8.77725 14.4739 8.80934 14.9153 8.80118C15.2882 8.80308 15.5868 8.81634 15.8113 8.84095C16.0413 8.86426 16.2145 8.90968 16.3307 8.97722C16.4525 9.04345 16.5304 9.14946 16.5643 9.29526C16.6113 9.49714 16.5559 9.67849 16.3983 9.83932C16.2463 9.99884 15.988 10.121 15.6235 10.2058C15.3992 10.258 15.2048 10.2737 15.0404 10.2529C14.8746 10.2264 14.7364 10.1788 14.6258 10.1099C14.5208 10.0398 14.4376 9.96163 14.3762 9.87543C14.3321 9.8384 14.2871 9.81043 14.2414 9.79153C14.1943 9.76702 14.1343 9.76325 14.0614 9.78021L13.1614 9.98967C13.1109 10.0014 13.0706 10.0315 13.0405 10.0799C13.0147 10.1213 13.007 10.1645 13.0174 10.2094C13.0874 10.4591 13.222 10.682 13.4213 10.878C13.6206 11.0739 13.8822 11.22 14.206 11.316C14.5285 11.4065 14.9088 11.4274 15.3467 11.3786L15.4817 11.959C15.4961 12.0207 15.5275 12.0666 15.5759 12.0967Z" fill="#EF5DA8"/>
</svg>
