<svg width="358" height="109" viewBox="0 0 358 109" fill="none" xmlns="http://www.w3.org/2000/svg">
<rect width="358" height="109" rx="12" fill="#EEE2EF"/>
<path fill-rule="evenodd" clip-rule="evenodd" d="M18.4147 10.0792C18.6259 9.97361 18.8744 9.97361 19.0855 10.0792L28.0855 14.5792C28.3396 14.7062 28.5001 14.9659 28.5001 15.25C28.5001 15.5341 28.3396 15.7938 28.0855 15.9208L19.0855 20.4208C18.8744 20.5264 18.6259 20.5264 18.4147 20.4208L9.41473 15.9208C9.16064 15.7938 9.00014 15.5341 9.00014 15.25C9.00014 14.9659 9.16064 14.7062 9.41473 14.5792L18.4147 10.0792ZM11.4272 15.25L18.7501 18.9115L26.0731 15.25L18.7501 11.5885L11.4272 15.25ZM9.09452 24.3858C9.29568 24.0237 9.75228 23.8932 10.1144 24.0944L18.7501 28.892L27.3859 24.0944C27.748 23.8932 28.2046 24.0237 28.4058 24.3858C28.6069 24.7479 28.4765 25.2045 28.1144 25.4056L19.1144 30.4056C18.8879 30.5315 18.6124 30.5315 18.3859 30.4056L9.3859 25.4056C9.02382 25.2045 8.89336 24.7479 9.09452 24.3858ZM10.1144 19.0944C9.75228 18.8932 9.29568 19.0237 9.09452 19.3858C8.89336 19.7479 9.02382 20.2045 9.3859 20.4056L18.3859 25.4056C18.6124 25.5315 18.8879 25.5315 19.1144 25.4056L28.1144 20.4056C28.4765 20.2045 28.6069 19.7479 28.4058 19.3858C28.2046 19.0237 27.748 18.8932 27.3859 19.0944L18.7501 23.892L10.1144 19.0944Z" fill="#7D0891"/>
</svg>
