<svg width="224" height="131" viewBox="0 0 224 131" fill="none" xmlns="http://www.w3.org/2000/svg">
<rect width="224" height="131" rx="12" fill="#EDF0F5"/>
<path fill-rule="evenodd" clip-rule="evenodd" d="M18.7849 16.9366C18.2834 17.4248 17.6523 18.2254 16.7468 19.3778L13.0847 24.0387C12.4058 24.9027 11.9512 25.4845 11.6945 25.9319C11.5694 26.1499 11.5212 26.2871 11.5062 26.3691C11.4952 26.4287 11.5035 26.4449 11.5077 26.4533C11.508 26.4539 11.5082 26.4543 11.5084 26.4548C11.5087 26.4552 11.5089 26.4557 11.5091 26.4562C11.5131 26.4648 11.5208 26.4813 11.5745 26.5095C11.6482 26.5484 11.7859 26.5952 12.0346 26.6315C12.5449 26.7061 13.2833 26.7081 14.3821 26.7081H15.4442C15.4556 26.7081 15.4671 26.7081 15.4787 26.7081C15.6838 26.708 15.9056 26.7079 16.0928 26.7331C16.3121 26.7626 16.5923 26.8384 16.8281 27.0742C17.0639 27.31 17.1397 27.5902 17.1692 27.8095C17.1944 27.9967 17.1943 28.2185 17.1942 28.4236C17.1942 28.4352 17.1942 28.4467 17.1942 28.4581V30.5189C17.1942 31.9846 17.1959 33.004 17.2886 33.6977C17.3346 34.0424 17.3958 34.2394 17.4511 34.3461C17.4759 34.394 17.4929 34.4107 17.4957 34.4132C17.4958 34.4133 17.4958 34.4133 17.4958 34.4133C17.496 34.4134 17.4964 34.4135 17.4971 34.4138C17.5001 34.4148 17.4979 34.4143 17.4986 34.4142C17.5023 34.4139 17.5261 34.4113 17.5752 34.389C17.6845 34.3392 17.8544 34.2221 18.1035 33.9796C18.605 33.4914 19.2361 32.6908 20.1416 31.5383L23.8037 26.8775C24.4826 26.0135 24.9372 25.4317 25.1939 24.9843C25.319 24.7662 25.3673 24.629 25.3823 24.5471C25.3932 24.4875 25.385 24.4712 25.3807 24.4628C25.3805 24.4623 25.3802 24.4618 25.38 24.4614C25.3798 24.4609 25.3795 24.4604 25.3793 24.4599C25.3753 24.4514 25.3676 24.4348 25.314 24.4066C25.2403 24.3678 25.1026 24.321 24.8538 24.2846C24.3435 24.21 23.6051 24.2081 22.5063 24.2081H21.4442C21.4328 24.2081 21.4213 24.2081 21.4098 24.2081C21.2047 24.2082 20.9829 24.2083 20.7956 24.1831C20.5763 24.1536 20.2961 24.0778 20.0603 23.842C19.8245 23.6062 19.7487 23.326 19.7192 23.1066C19.694 22.9194 19.6941 22.6976 19.6942 22.4925C19.6942 22.481 19.6942 22.4695 19.6942 22.4581V20.3972C19.6942 18.9316 19.6926 17.9122 19.5999 17.2184C19.5538 16.8738 19.4926 16.6768 19.4374 16.5701C19.4126 16.5222 19.3955 16.5055 19.3927 16.503C19.3922 16.5024 19.3943 16.5034 19.3913 16.5024C19.3883 16.5014 19.3906 16.5019 19.3898 16.5019C19.3861 16.5022 19.3623 16.5048 19.3132 16.5272C19.2039 16.5769 19.0341 16.694 18.7849 16.9366ZM17.7386 15.8618C18.285 15.3298 19.0196 14.7866 19.8816 15.0848C20.7437 15.3829 20.9856 16.2639 21.0866 17.0198C21.1943 17.8252 21.1942 18.9462 21.1942 20.3343V20.3972V22.4581C21.1942 22.5572 21.1943 22.6375 21.1954 22.7069C21.2648 22.708 21.3451 22.7081 21.4442 22.7081H22.5063L22.569 22.7081C23.5889 22.708 24.4386 22.708 25.0708 22.8004C25.7073 22.8934 26.3941 23.1164 26.7291 23.8057C27.0641 24.4949 26.8151 25.1727 26.495 25.7307C26.1771 26.2848 25.6521 26.953 25.0219 27.7549L24.9832 27.8042L21.3211 32.4651L21.2823 32.5145C20.4246 33.6061 19.7321 34.4875 19.1499 35.0544C18.6034 35.5863 17.8689 36.1295 17.0068 35.8314C16.1448 35.5332 15.9028 34.6523 15.8018 33.8964C15.6942 33.091 15.6942 31.97 15.6942 30.5818L15.6942 30.5189V28.4581C15.6942 28.359 15.6942 28.2787 15.6931 28.2092C15.6236 28.2081 15.5433 28.2081 15.4442 28.2081H14.3821L14.3194 28.2081C13.2995 28.2081 12.4498 28.2081 11.8177 28.1158C11.1811 28.0227 10.4943 27.7997 10.1594 27.1105C9.82436 26.4213 10.0733 25.7435 10.3934 25.1855C10.7113 24.6313 11.2363 23.9632 11.8665 23.1612L11.9052 23.1119L15.5673 18.4511L15.6062 18.4016C16.4638 17.3101 17.1563 16.4286 17.7386 15.8618Z" fill="#00398E"/>
</svg>
