<svg width="358" height="109" viewBox="0 0 358 109" fill="none" xmlns="http://www.w3.org/2000/svg">
<rect width="358" height="109" rx="12" fill="#EDF0F5"/>
<rect x="335" y="9" width="16" height="16" rx="8" fill="white"/>
<path fill-rule="evenodd" clip-rule="evenodd" d="M347.168 13.8536C347.363 13.6583 347.363 13.3417 347.168 13.1464C346.973 12.9512 346.656 12.9512 346.461 13.1464L343.157 16.45L339.854 13.1465C339.658 12.9512 339.342 12.9512 339.146 13.1465C338.951 13.3417 338.951 13.6583 339.146 13.8536L342.45 17.1571L339.146 20.4607C338.951 20.656 338.951 20.9726 339.146 21.1678C339.342 21.3631 339.658 21.3631 339.854 21.1678L343.157 17.8643L346.461 21.1678C346.656 21.3631 346.973 21.3631 347.168 21.1678C347.363 20.9726 347.363 20.656 347.168 20.4607L343.864 17.1571L347.168 13.8536Z" fill="#FF0000"/>
<g clip-path="url(#clip0_1822_9171)">
<path d="M337.427 45.6094H298.573V70.6936H337.427V45.6094Z" fill="#F18739" fill-opacity="0.25"/>
<path d="M341.044 38.2573H294.956V45.608H341.044V38.2573Z" fill="#EBF6EE"/>
<path d="M318 31.7818C318 33.3945 318 38.2574 318 38.2574C318 38.2574 313.488 38.2574 311.524 38.2574C307.948 38.2574 305.049 35.3581 305.049 31.7818C305.049 28.2054 307.948 25.3062 311.524 25.3062C315.101 25.3062 318 28.2054 318 31.7818Z" fill="#F18739" fill-opacity="0.25"/>
<path d="M318 31.7818C318 33.3945 318 38.2574 318 38.2574C318 38.2574 322.512 38.2574 324.476 38.2574C328.052 38.2574 330.951 35.3581 330.951 31.7818C330.951 28.2054 328.052 25.3062 324.476 25.3062C320.899 25.3062 318 28.2054 318 31.7818Z" fill="#F18739" fill-opacity="0.25"/>
<path d="M341.044 37.3013H329.446C330.956 35.9401 331.907 33.9702 331.907 31.7819C331.907 27.684 328.573 24.3501 324.476 24.3501C321.7 24.3501 319.276 25.8809 318 28.1418C316.724 25.8809 314.3 24.3501 311.524 24.3501C307.427 24.3501 304.093 27.684 304.093 31.7819C304.093 33.9702 305.044 35.9401 306.554 37.3013H294.956C294.428 37.3013 294 37.7294 294 38.2575V45.6082C294 46.1363 294.428 46.5643 294.956 46.5643H297.617V70.6938C297.617 71.2219 298.045 71.65 298.573 71.65H337.427C337.955 71.65 338.383 71.2219 338.383 70.6938V46.5643H341.044C341.572 46.5643 342 46.1363 342 45.6082V38.2575C342 37.7294 341.572 37.3013 341.044 37.3013ZM318.956 31.7819C318.956 28.7385 321.432 26.2624 324.476 26.2624C327.519 26.2624 329.995 28.7385 329.995 31.7819C329.995 34.8253 327.519 37.3013 324.476 37.3013H318.956V31.7819ZM306.005 31.7819C306.005 28.7385 308.481 26.2624 311.524 26.2624C314.568 26.2624 317.044 28.7385 317.044 31.7819V37.3013H311.524C308.481 37.3013 306.005 34.8253 306.005 31.7819ZM336.471 69.7376H299.529V46.681H336.471V69.7376H336.471ZM340.088 39.2137V44.652H295.912V39.2137H340.088Z" fill="#0DA75E"/>
<path d="M308.666 32.7965C309.194 32.7965 309.622 32.3685 309.622 31.8404C309.622 30.7592 310.502 29.8796 311.583 29.8796C312.111 29.8796 312.539 29.4516 312.539 28.9235C312.539 28.3954 312.111 27.9673 311.583 27.9673C309.447 27.9673 307.71 29.7048 307.71 31.8404C307.71 32.3685 308.138 32.7965 308.666 32.7965Z" fill="#0DA75E"/>
<path d="M307.032 53.2151H321.5C322.028 53.2151 322.457 52.787 322.457 52.2589C322.457 51.7308 322.028 51.3027 321.5 51.3027H307.032C306.504 51.3027 306.076 51.7308 306.076 52.2589C306.076 52.787 306.504 53.2151 307.032 53.2151Z" fill="#0DA75E"/>
<path d="M307.032 58.699H328.968C329.496 58.699 329.924 58.2709 329.924 57.7428C329.924 57.2147 329.496 56.7866 328.968 56.7866H307.032C306.504 56.7866 306.076 57.2147 306.076 57.7428C306.076 58.2709 306.504 58.699 307.032 58.699Z" fill="#0DA75E"/>
<path d="M307.032 64.0662H328.968C329.496 64.0662 329.924 63.6381 329.924 63.11C329.924 62.5819 329.496 62.1538 328.968 62.1538H307.032C306.504 62.1538 306.076 62.5819 306.076 63.11C306.076 63.6381 306.504 64.0662 307.032 64.0662Z" fill="#0DA75E"/>
<path d="M326.051 53.2151H328.968C329.496 53.2151 329.924 52.787 329.924 52.2589C329.924 51.7308 329.496 51.3027 328.968 51.3027H326.051C325.523 51.3027 325.095 51.7308 325.095 52.2589C325.095 52.787 325.523 53.2151 326.051 53.2151Z" fill="#0DA75E"/>
</g>
<defs>
<clipPath id="clip0_1822_9171">
<rect width="48" height="48" fill="white" transform="translate(294 24)"/>
</clipPath>
</defs>
</svg>
