<svg width="24" height="24" viewBox="0 0 24 24" fill="none" xmlns="http://www.w3.org/2000/svg">
<path fill-rule="evenodd" clip-rule="evenodd" d="M16.0603 5L15.5346 4.47437L15.5252 4.46492L11.5299 0.46967C11.237 0.176777 10.7622 0.176777 10.4693 0.46967C10.1764 0.762563 10.1764 1.23744 10.4693 1.53033L13.1889 4.24996L10.4533 4.24996H10.4397H10.4396C9.5176 4.24996 8.80828 4.24996 8.26032 4.26654C7.71694 4.28299 7.28068 4.31646 6.92411 4.39937C3.20883 5.26326 1.34906 9.4391 3.19232 12.7786C3.36922 13.0991 3.63619 13.4457 3.98747 13.8606C4.34169 14.279 4.81618 14.8062 5.43292 15.4915L5.43296 15.4915L5.43303 15.4916L5.44213 15.5017C5.71922 15.8096 6.19344 15.8346 6.50132 15.5575C6.80921 15.2804 6.83417 14.8062 6.55707 14.4983C5.92933 13.8008 5.47006 13.2903 5.13225 12.8914C4.78975 12.4868 4.60586 12.2354 4.50555 12.0537C3.14314 9.58541 4.51776 6.49892 7.26383 5.86039C7.46602 5.81338 7.77589 5.78189 8.3057 5.76585C8.82824 5.75004 9.51487 5.74996 10.4533 5.74996L13.189 5.74996L10.4693 8.46967C10.1764 8.76256 10.1764 9.23744 10.4693 9.53033C10.7622 9.82322 11.237 9.82322 11.5299 9.53033L15.5299 5.53033L16.0603 5ZM16.7354 18.1396C19.4815 17.5011 20.8561 14.4146 19.4937 11.9463C19.3934 11.7646 19.2095 11.5132 18.867 11.1086C18.5292 10.7097 18.0699 10.1992 17.4422 9.50174C17.1651 9.19385 17.19 8.71964 17.4979 8.44254C17.8058 8.16545 18.28 8.19041 18.5571 8.49829L18.5662 8.50844L18.5663 8.50851L18.5665 8.50867C19.1831 9.19387 19.6576 9.72104 20.0118 10.1394C20.363 10.5543 20.63 10.9009 20.8069 11.2214C22.6502 14.5609 20.7904 18.7367 17.0751 19.6006C16.7186 19.6836 16.2823 19.717 15.7389 19.7335C15.191 19.7501 14.4817 19.7501 13.5599 19.7501H13.5597H13.546L10.8103 19.7501L13.53 22.4697C13.8228 22.7626 13.8228 23.2374 13.53 23.5303C13.2371 23.8232 12.7622 23.8232 12.4693 23.5303L8.4693 19.5303L7.93896 19L8.46929 18.4697L12.4693 14.4697C12.7622 14.1768 13.2371 14.1768 13.53 14.4697C13.8228 14.7626 13.8228 15.2374 13.53 15.5303L10.8102 18.2501L13.546 18.2501C14.4844 18.2501 15.171 18.25 15.6935 18.2342C16.2233 18.2181 16.5332 18.1866 16.7354 18.1396Z" fill="#B75C1A"/>
</svg>
