<svg width="224" height="131" viewBox="0 0 224 131" fill="none" xmlns="http://www.w3.org/2000/svg">
<rect width="224" height="131" rx="12" fill="#F9E9DD"/>
<path fill-rule="evenodd" clip-rule="evenodd" d="M21.0603 13L20.5346 12.4744L20.5252 12.4649L16.5299 8.46967C16.237 8.17678 15.7622 8.17678 15.4693 8.46967C15.1764 8.76256 15.1764 9.23744 15.4693 9.53033L18.1889 12.25L15.4533 12.25H15.4397H15.4396C14.5176 12.25 13.8083 12.25 13.2603 12.2665C12.7169 12.283 12.2807 12.3165 11.9241 12.3994C8.20883 13.2633 6.34906 17.4391 8.19232 20.7786C8.36922 21.0991 8.63619 21.4457 8.98747 21.8606C9.34169 22.279 9.81618 22.8062 10.4329 23.4915L10.433 23.4915L10.433 23.4916L10.4421 23.5017C10.7192 23.8096 11.1934 23.8346 11.5013 23.5575C11.8092 23.2804 11.8342 22.8062 11.5571 22.4983C10.9293 21.8008 10.4701 21.2903 10.1323 20.8914C9.78975 20.4868 9.60586 20.2354 9.50555 20.0537C8.14314 17.5854 9.51776 14.4989 12.2638 13.8604C12.466 13.8134 12.7759 13.7819 13.3057 13.7659C13.8282 13.75 14.5149 13.75 15.4533 13.75L18.189 13.75L15.4693 16.4697C15.1764 16.7626 15.1764 17.2374 15.4693 17.5303C15.7622 17.8232 16.237 17.8232 16.5299 17.5303L20.5299 13.5303L21.0603 13ZM21.7354 26.1396C24.4815 25.5011 25.8561 22.4146 24.4937 19.9463C24.3934 19.7646 24.2095 19.5132 23.867 19.1086C23.5292 18.7097 23.0699 18.1992 22.4422 17.5017C22.1651 17.1939 22.19 16.7196 22.4979 16.4425C22.8058 16.1654 23.28 16.1904 23.5571 16.4983L23.5662 16.5084L23.5663 16.5085L23.5665 16.5087C24.1831 17.1939 24.6576 17.721 25.0118 18.1394C25.363 18.5543 25.63 18.9009 25.8069 19.2214C27.6502 22.5609 25.7904 26.7367 22.0751 27.6006C21.7186 27.6836 21.2823 27.717 20.7389 27.7335C20.191 27.7501 19.4817 27.7501 18.5599 27.7501H18.5597H18.546L15.8103 27.7501L18.53 30.4697C18.8228 30.7626 18.8228 31.2374 18.53 31.5303C18.2371 31.8232 17.7622 31.8232 17.4693 31.5303L13.4693 27.5303L12.939 27L13.4693 26.4697L17.4693 22.4697C17.7622 22.1768 18.2371 22.1768 18.53 22.4697C18.8228 22.7626 18.8228 23.2374 18.53 23.5303L15.8102 26.2501L18.546 26.2501C19.4844 26.2501 20.171 26.25 20.6935 26.2342C21.2233 26.2181 21.5332 26.1866 21.7354 26.1396Z" fill="#B75C1A"/>
</svg>
