<svg width="40" height="40" viewBox="0 0 40 40" fill="none" xmlns="http://www.w3.org/2000/svg">
<g clip-path="url(#clip0_1539_13494)">
<path fill-rule="evenodd" clip-rule="evenodd" d="M39.8408 19.9172C39.8408 25.2216 37.7337 30.3086 33.983 34.0594C30.2322 37.8101 25.1451 39.9172 19.8408 39.9172C14.5365 39.9172 9.44941 37.8101 5.69868 34.0594C1.94796 30.3086 -0.15918 25.2216 -0.15918 19.9172C-0.15918 14.6129 1.94796 9.52583 5.69868 5.7751C9.44941 2.02437 14.5365 -0.0827637 19.8408 -0.0827637C25.1451 -0.0827637 30.2322 2.02437 33.983 5.7751C37.7337 9.52583 39.8408 14.6129 39.8408 19.9172ZM24.8408 12.4172C24.8408 13.7433 24.314 15.0151 23.3764 15.9528C22.4387 16.8905 21.1669 17.4172 19.8408 17.4172C18.5147 17.4172 17.243 16.8905 16.3053 15.9528C15.3676 15.0151 14.8408 13.7433 14.8408 12.4172C14.8408 11.0912 15.3676 9.81938 16.3053 8.8817C17.243 7.94402 18.5147 7.41724 19.8408 7.41724C21.1669 7.41724 22.4387 7.94402 23.3764 8.8817C24.314 9.81938 24.8408 11.0912 24.8408 12.4172ZM19.8408 22.4172C17.4473 22.4168 15.104 23.1035 13.0894 24.3957C11.0747 25.688 9.47343 27.5316 8.47582 29.7072C9.88251 31.3437 11.6265 32.6566 13.5882 33.5559C15.5499 34.4552 17.6828 34.9196 19.8408 34.9172C21.9988 34.9196 24.1318 34.4552 26.0935 33.5559C28.0551 32.6566 29.7991 31.3437 31.2058 29.7072C30.2082 27.5316 28.6069 25.688 26.5923 24.3957C24.5776 23.1035 22.2343 22.4168 19.8408 22.4172Z" fill="#BDBDBD"/>
</g>
<defs>
<clipPath id="clip0_1539_13494">
<rect width="40" height="40" fill="white"/>
</clipPath>
</defs>
</svg>
