<svg width="135" height="41" viewBox="0 0 135 41" fill="none" xmlns="http://www.w3.org/2000/svg">
<rect x="0.5" y="0.833984" width="134" height="39" rx="6.5" fill="black"/>
<path d="M81.5259 19.5348V21.8259H80.0899V23.3283H81.5259V28.4333C81.5259 30.1764 82.3145 30.8737 84.2984 30.8737C84.647 30.8737 84.9791 30.8322 85.2696 30.7824V29.2966C85.0206 29.3215 84.8628 29.3381 84.5889 29.3381C83.7007 29.3381 83.3106 28.923 83.3106 27.9767V23.3283H85.2696V21.8259H83.3106V19.5348H81.5259Z" fill="white"/>
<path d="M90.3234 30.9982C92.9631 30.9982 94.5817 29.2302 94.5817 26.3C94.5817 23.3864 92.9548 21.61 90.3234 21.61C87.6838 21.61 86.0568 23.3864 86.0568 26.3C86.0568 29.2302 87.6755 30.9982 90.3234 30.9982ZM90.3234 29.4128C88.7712 29.4128 87.8996 28.2756 87.8996 26.3C87.8996 24.341 88.7712 23.1955 90.3234 23.1955C91.8674 23.1955 92.7473 24.341 92.7473 26.3C92.7473 28.2673 91.8674 29.4128 90.3234 29.4128Z" fill="white"/>
<path d="M95.9666 30.8239H97.7513V25.4865C97.7513 24.2165 98.7059 23.3615 100.059 23.3615C100.374 23.3615 100.906 23.4196 101.055 23.4694V21.7096C100.864 21.6598 100.524 21.6349 100.258 21.6349C99.0794 21.6349 98.075 22.2824 97.8177 23.1706H97.6849V21.7844H95.9666V30.8239Z" fill="white"/>
<path d="M105.486 23.1291C106.806 23.1291 107.669 24.0505 107.711 25.4699H103.145C103.245 24.0588 104.166 23.1291 105.486 23.1291ZM107.703 28.3835C107.371 29.089 106.632 29.4792 105.553 29.4792C104.125 29.4792 103.204 28.4748 103.145 26.8893V26.7897H109.529V26.1672C109.529 23.3283 108.01 21.61 105.495 21.61C102.946 21.61 101.328 23.4445 101.328 26.3332C101.328 29.2219 102.913 30.9982 105.503 30.9982C107.57 30.9982 109.014 30.0021 109.421 28.3835H107.703Z" fill="white"/>
<path d="M69.8223 27.4857C69.96 29.7055 71.8098 31.125 74.5629 31.125C77.5053 31.125 79.3464 29.6366 79.3464 27.2621C79.3464 25.3951 78.2968 24.3627 75.7502 23.769L74.3822 23.4335C72.7647 23.0549 72.1109 22.5473 72.1109 21.6612C72.1109 20.5427 73.1261 19.8114 74.6489 19.8114C76.0943 19.8114 77.0923 20.5255 77.273 21.6698H79.1486C79.0367 19.5791 77.1956 18.1079 74.6747 18.1079C71.9646 18.1079 70.1579 19.5791 70.1579 21.7902C70.1579 23.6142 71.1817 24.6982 73.4272 25.223L75.0275 25.6102C76.6707 25.9973 77.3934 26.5652 77.3934 27.5116C77.3934 28.6128 76.2578 29.4129 74.7091 29.4129C73.0487 29.4129 71.8958 28.6644 71.7323 27.4857H69.8223Z" fill="white"/>
<path d="M51.335 21.6349C50.1065 21.6349 49.044 22.2492 48.4961 23.2785H48.3633V21.7844H46.6451V33.8288H48.4297V29.4543H48.5708C49.044 30.4089 50.065 30.9733 51.3516 30.9733C53.6343 30.9733 55.087 29.1721 55.087 26.3C55.087 23.4279 53.6343 21.6349 51.335 21.6349ZM50.8287 29.3713C49.3345 29.3713 48.3965 28.1926 48.3965 26.3083C48.3965 24.4157 49.3345 23.237 50.837 23.237C52.3477 23.237 53.2525 24.3908 53.2525 26.3C53.2525 28.2175 52.3477 29.3713 50.8287 29.3713Z" fill="white"/>
<path d="M61.3318 21.6349C60.1033 21.6349 59.0408 22.2492 58.4929 23.2785H58.3601V21.7844H56.6419V33.8288H58.4265V29.4543H58.5676C59.0408 30.4089 60.0618 30.9733 61.3484 30.9733C63.6311 30.9733 65.0838 29.1721 65.0838 26.3C65.0838 23.4279 63.6311 21.6349 61.3318 21.6349ZM60.8255 29.3713C59.3313 29.3713 58.3933 28.1926 58.3933 26.3083C58.3933 24.4157 59.3313 23.237 60.8338 23.237C62.3445 23.237 63.2493 24.3908 63.2493 26.3C63.2493 28.2175 62.3445 29.3713 60.8255 29.3713Z" fill="white"/>
<path d="M43.4431 30.8239H45.4907L41.0083 18.409H38.9348L34.4524 30.8239H36.4312L37.5755 27.5288H42.3074L43.4431 30.8239ZM39.8726 20.6632H40.0189L41.817 25.9113H38.0659L39.8726 20.6632Z" fill="white"/>
<path d="M35.6511 9.04468V15.0337H37.8135C39.5981 15.0337 40.6316 13.9338 40.6316 12.0205C40.6316 10.1362 39.5898 9.04468 37.8135 9.04468H35.6511ZM36.5808 9.89136H37.7097C38.9507 9.89136 39.6853 10.6799 39.6853 12.033C39.6853 13.4067 38.9631 14.187 37.7097 14.187H36.5808V9.89136Z" fill="white"/>
<path d="M43.7967 15.1208C45.1165 15.1208 45.9258 14.2368 45.9258 12.7717C45.9258 11.3149 45.1124 10.4268 43.7967 10.4268C42.4769 10.4268 41.6634 11.3149 41.6634 12.7717C41.6634 14.2368 42.4727 15.1208 43.7967 15.1208ZM43.7967 14.3281C43.0206 14.3281 42.5848 13.7595 42.5848 12.7717C42.5848 11.7922 43.0206 11.2195 43.7967 11.2195C44.5687 11.2195 45.0086 11.7922 45.0086 12.7717C45.0086 13.7554 44.5687 14.3281 43.7967 14.3281Z" fill="white"/>
<path d="M52.818 10.5139H51.9256L51.1205 13.9629H51.0499L50.1202 10.5139H49.2652L48.3355 13.9629H48.2691L47.4598 10.5139H46.555L47.8001 15.0337H48.7174L49.6471 11.7051H49.7176L50.6515 15.0337H51.577L52.818 10.5139Z" fill="white"/>
<path d="M53.8456 15.0337H54.7379V12.3899C54.7379 11.6843 55.1571 11.2444 55.817 11.2444C56.477 11.2444 56.7924 11.6055 56.7924 12.3318V15.0337H57.6847V12.1077C57.6847 11.0327 57.1286 10.4268 56.12 10.4268C55.4394 10.4268 54.9911 10.7297 54.7711 11.2319H54.7047V10.5139H53.8456V15.0337Z" fill="white"/>
<path d="M59.09 15.0337H59.9824V8.75H59.09V15.0337Z" fill="white"/>
<path d="M63.3384 15.1208C64.6582 15.1208 65.4675 14.2368 65.4675 12.7717C65.4675 11.3149 64.6541 10.4268 63.3384 10.4268C62.0186 10.4268 61.2051 11.3149 61.2051 12.7717C61.2051 14.2368 62.0144 15.1208 63.3384 15.1208ZM63.3384 14.3281C62.5623 14.3281 62.1265 13.7595 62.1265 12.7717C62.1265 11.7922 62.5623 11.2195 63.3384 11.2195C64.1104 11.2195 64.5503 11.7922 64.5503 12.7717C64.5503 13.7554 64.1104 14.3281 63.3384 14.3281Z" fill="white"/>
<path d="M68.1263 14.3572C67.6407 14.3572 67.2879 14.1206 67.2879 13.7139C67.2879 13.3154 67.5701 13.1038 68.1927 13.0623L69.2967 12.9917V13.3694C69.2967 13.9297 68.7986 14.3572 68.1263 14.3572ZM67.898 15.1084C68.4915 15.1084 68.9854 14.8511 69.2552 14.3987H69.3257V15.0337H70.1849V11.9458C70.1849 10.9912 69.5457 10.4268 68.4126 10.4268C67.3875 10.4268 66.657 10.9248 66.5657 11.7009H67.429C67.5286 11.3813 67.8731 11.1987 68.3711 11.1987C68.9812 11.1987 69.2967 11.4685 69.2967 11.9458V12.3359L68.0723 12.4065C66.9974 12.4729 66.3914 12.9419 66.3914 13.7554C66.3914 14.5813 67.0264 15.1084 67.898 15.1084Z" fill="white"/>
<path d="M73.213 15.1084C73.8355 15.1084 74.3626 14.8137 74.6324 14.3198H74.703V15.0337H75.558V8.75H74.6656V11.2319H74.5992C74.3543 10.7339 73.8314 10.4392 73.213 10.4392C72.0716 10.4392 71.337 11.344 71.337 12.7717C71.337 14.2036 72.0633 15.1084 73.213 15.1084ZM73.4662 11.2402C74.2132 11.2402 74.6822 11.8337 74.6822 12.7759C74.6822 13.7222 74.2174 14.3074 73.4662 14.3074C72.7108 14.3074 72.2584 13.7305 72.2584 12.7717C72.2584 11.8213 72.7149 11.2402 73.4662 11.2402Z" fill="white"/>
<path d="M81.3444 15.1208C82.6643 15.1208 83.4736 14.2368 83.4736 12.7717C83.4736 11.3149 82.6601 10.4268 81.3444 10.4268C80.0246 10.4268 79.2111 11.3149 79.2111 12.7717C79.2111 14.2368 80.0205 15.1208 81.3444 15.1208ZM81.3444 14.3281C80.5683 14.3281 80.1325 13.7595 80.1325 12.7717C80.1325 11.7922 80.5683 11.2195 81.3444 11.2195C82.1164 11.2195 82.5563 11.7922 82.5563 12.7717C82.5563 13.7554 82.1164 14.3281 81.3444 14.3281Z" fill="white"/>
<path d="M84.6548 15.0337H85.5471V12.3899C85.5471 11.6843 85.9663 11.2444 86.6262 11.2444C87.2861 11.2444 87.6016 11.6055 87.6016 12.3318V15.0337H88.4939V12.1077C88.4939 11.0327 87.9377 10.4268 86.9292 10.4268C86.2485 10.4268 85.8003 10.7297 85.5803 11.2319H85.5139V10.5139H84.6548V15.0337Z" fill="white"/>
<path d="M92.6036 9.38916V10.5347H91.8856V11.2859H92.6036V13.8384C92.6036 14.71 92.9979 15.0586 93.9898 15.0586C94.1642 15.0586 94.3302 15.0378 94.4754 15.0129V14.27C94.3509 14.2825 94.2721 14.2908 94.1351 14.2908C93.691 14.2908 93.4959 14.0833 93.4959 13.6101V11.2859H94.4754V10.5347H93.4959V9.38916H92.6036Z" fill="white"/>
<path d="M95.6732 15.0337H96.5656V12.394C96.5656 11.7092 96.9723 11.2485 97.7028 11.2485C98.3336 11.2485 98.6698 11.6138 98.6698 12.3359V15.0337H99.5622V12.116C99.5622 11.041 98.9687 10.4309 98.0058 10.4309C97.3251 10.4309 96.8478 10.7339 96.6278 11.2402H96.5573V8.75H95.6732V15.0337Z" fill="white"/>
<path d="M102.781 11.1863C103.441 11.1863 103.873 11.647 103.894 12.3567H101.611C101.661 11.6511 102.121 11.1863 102.781 11.1863ZM103.889 13.8135C103.723 14.1663 103.354 14.3613 102.814 14.3613C102.101 14.3613 101.64 13.8591 101.611 13.0664V13.0166H104.802V12.7053C104.802 11.2859 104.043 10.4268 102.785 10.4268C101.511 10.4268 100.702 11.344 100.702 12.7883C100.702 14.2327 101.495 15.1208 102.789 15.1208C103.823 15.1208 104.545 14.6228 104.748 13.8135H103.889Z" fill="white"/>
<path d="M24.769 20.635C24.7907 18.954 25.6934 17.3635 27.1256 16.483C26.2221 15.1927 24.7088 14.3746 23.1344 14.3253C21.4552 14.149 19.8272 15.3301 18.9715 15.3301C18.0992 15.3301 16.7817 14.3428 15.363 14.372C13.5137 14.4317 11.7898 15.4831 10.8901 17.0999C8.95607 20.4483 10.3987 25.3693 12.2513 28.0759C13.1782 29.4013 14.2615 30.8817 15.6789 30.8292C17.066 30.7717 17.584 29.9448 19.2583 29.9448C20.9171 29.9448 21.4031 30.8292 22.8493 30.7959C24.3377 30.7717 25.2754 29.4646 26.1698 28.1267C26.8358 27.1824 27.3483 26.1386 27.6882 25.0342C25.9391 24.2944 24.771 22.5342 24.769 20.635Z" fill="white"/>
<path d="M22.0373 12.5453C22.8489 11.5711 23.2487 10.3189 23.1518 9.05469C21.912 9.18491 20.7668 9.77747 19.9443 10.7143C19.14 11.6296 18.7214 12.8598 18.8006 14.0757C20.0408 14.0885 21.2601 13.512 22.0373 12.5453Z" fill="white"/>
<rect x="0.5" y="0.833984" width="134" height="39" rx="6.5" stroke="#A6A6A6"/>
</svg>
