<svg width="135" height="41" viewBox="0 0 135 41" fill="none" xmlns="http://www.w3.org/2000/svg">
<rect x="0.5" y="0.833984" width="134" height="39" rx="4.5" fill="black"/>
<path d="M68.136 22.0849C65.784 22.0849 63.867 23.8739 63.867 26.3379C63.867 28.7869 65.784 30.5909 68.136 30.5909C70.489 30.5909 72.406 28.7869 72.406 26.3379C72.405 23.8739 70.488 22.0849 68.136 22.0849ZM68.136 28.9169C66.847 28.9169 65.736 27.8539 65.736 26.3389C65.736 24.8079 66.848 23.7609 68.136 23.7609C69.425 23.7609 70.536 24.8079 70.536 26.3389C70.536 27.8529 69.425 28.9169 68.136 28.9169ZM58.822 22.0849C56.47 22.0849 54.553 23.8739 54.553 26.3379C54.553 28.7869 56.47 30.5909 58.822 30.5909C61.175 30.5909 63.092 28.7869 63.092 26.3379C63.092 23.8739 61.175 22.0849 58.822 22.0849ZM58.822 28.9169C57.533 28.9169 56.422 27.8539 56.422 26.3389C56.422 24.8079 57.534 23.7609 58.822 23.7609C60.111 23.7609 61.222 24.8079 61.222 26.3389C61.223 27.8529 60.111 28.9169 58.822 28.9169ZM47.744 23.3909V25.1949H52.062C51.933 26.2099 51.595 26.9509 51.079 27.4659C50.451 28.0939 49.468 28.7869 47.744 28.7869C45.086 28.7869 43.008 26.6439 43.008 23.9859C43.008 21.3279 45.086 19.1849 47.744 19.1849C49.178 19.1849 50.225 19.7489 50.998 20.4739L52.271 19.2009C51.191 18.1699 49.758 17.3809 47.744 17.3809C44.103 17.3809 41.042 20.3449 41.042 23.9859C41.042 27.6269 44.103 30.5909 47.744 30.5909C49.709 30.5909 51.192 29.9459 52.351 28.7379C53.543 27.5459 53.914 25.8699 53.914 24.5169C53.914 24.0989 53.882 23.7119 53.817 23.3899H47.744V23.3909ZM93.052 24.7919C92.698 23.8419 91.618 22.0849 89.411 22.0849C87.22 22.0849 85.399 23.8089 85.399 26.3379C85.399 28.7219 87.204 30.5909 89.62 30.5909C91.569 30.5909 92.697 29.3989 93.165 28.7059L91.715 27.7389C91.232 28.4479 90.571 28.9149 89.62 28.9149C88.67 28.9149 87.993 28.4799 87.558 27.6259L93.245 25.2739L93.052 24.7919ZM87.252 26.2099C87.204 24.5659 88.525 23.7289 89.476 23.7289C90.217 23.7289 90.845 24.0999 91.055 24.6309L87.252 26.2099ZM82.629 30.3339H84.497V17.8329H82.629V30.3339ZM79.567 23.0359H79.503C79.084 22.5359 78.278 22.0849 77.264 22.0849C75.137 22.0849 73.188 23.9539 73.188 26.3549C73.188 28.7389 75.137 30.5919 77.264 30.5919C78.279 30.5919 79.084 30.1409 79.503 29.6259H79.567V30.2379C79.567 31.8649 78.697 32.7349 77.296 32.7349C76.152 32.7349 75.443 31.9139 75.153 31.2209L73.526 31.8979C73.993 33.0249 75.233 34.4109 77.296 34.4109C79.487 34.4109 81.34 33.1219 81.34 29.9799V22.3439H79.568V23.0359H79.567ZM77.425 28.9169C76.136 28.9169 75.057 27.8369 75.057 26.3549C75.057 24.8559 76.136 23.7609 77.425 23.7609C78.697 23.7609 79.696 24.8559 79.696 26.3549C79.696 27.8369 78.697 28.9169 77.425 28.9169ZM101.806 17.8329H97.335V30.3339H99.2V25.5979H101.805C103.873 25.5979 105.907 24.1009 105.907 21.7159C105.907 19.3309 103.874 17.8329 101.806 17.8329ZM101.854 23.8579H99.2V19.5729H101.854C103.249 19.5729 104.041 20.7279 104.041 21.7159C104.041 22.6839 103.249 23.8579 101.854 23.8579ZM113.386 22.0629C112.035 22.0629 110.636 22.6579 110.057 23.9769L111.713 24.6679C112.067 23.9769 112.727 23.7509 113.418 23.7509C114.383 23.7509 115.364 24.3299 115.38 25.3589V25.4879C115.042 25.2949 114.318 25.0059 113.434 25.0059C111.649 25.0059 109.831 25.9869 109.831 27.8199C109.831 29.4929 111.295 30.5699 112.935 30.5699C114.189 30.5699 114.881 30.0069 115.315 29.3469H115.379V30.3119H117.181V25.5189C117.182 23.3009 115.524 22.0629 113.386 22.0629ZM113.16 28.9139C112.55 28.9139 111.697 28.6079 111.697 27.8519C111.697 26.8869 112.759 26.5169 113.676 26.5169C114.495 26.5169 114.882 26.6939 115.38 26.9349C115.235 28.0939 114.238 28.9139 113.16 28.9139ZM123.743 22.3359L121.604 27.7559H121.54L119.32 22.3359H117.31L120.639 29.9109L118.741 34.1249H120.687L125.818 22.3359H123.743ZM106.937 30.3339H108.802V17.8329H106.937V30.3339Z" fill="white"/>
<path d="M47.418 10.5772C47.418 11.4152 47.1701 12.0822 46.673 12.5802C46.109 13.1722 45.3731 13.4682 44.4691 13.4682C43.6031 13.4682 42.8661 13.1682 42.2611 12.5682C41.6551 11.9672 41.3521 11.2232 41.3521 10.3352C41.3521 9.44617 41.6551 8.70217 42.2611 8.10217C42.8661 7.50117 43.6031 7.20117 44.4691 7.20117C44.8991 7.20117 45.3101 7.28517 45.7001 7.45217C46.0911 7.62017 46.404 7.84317 46.6381 8.12217L46.111 8.65017C45.714 8.17517 45.167 7.93817 44.468 7.93817C43.836 7.93817 43.29 8.16017 42.829 8.60417C42.368 9.04817 42.1381 9.62517 42.1381 10.3342C42.1381 11.0432 42.368 11.6202 42.829 12.0642C43.29 12.5082 43.836 12.7302 44.468 12.7302C45.138 12.7302 45.6971 12.5072 46.1441 12.0602C46.4341 11.7692 46.602 11.3642 46.647 10.8452H44.468V10.1242H47.375C47.405 10.2812 47.418 10.4322 47.418 10.5772Z" fill="white"/>
<path d="M52.0281 8.07123H49.2961V9.97323H51.7601V10.6942H49.2961V12.5962H52.0281V13.3342H48.5251V7.33423H52.0281V8.07123Z" fill="white"/>
<path d="M55.279 13.3342H54.508V8.07123H52.832V7.33423H56.955V8.07123H55.279V13.3342Z" fill="white"/>
<path d="M59.938 13.3342V7.33423H60.709V13.3342H59.938Z" fill="white"/>
<path d="M64.1281 13.3342H63.3572V8.07123H61.6812V7.33423H65.8042V8.07123H64.1281V13.3342Z" fill="white"/>
<path d="M73.6089 12.5592C73.0189 13.1652 72.2859 13.4682 71.4089 13.4682C70.5319 13.4682 69.7989 13.1652 69.2099 12.5592C68.6199 11.9532 68.3259 11.2112 68.3259 10.3342C68.3259 9.45722 68.6199 8.71522 69.2099 8.10922C69.7989 7.50322 70.5319 7.19922 71.4089 7.19922C72.2809 7.19922 73.0129 7.50422 73.6049 8.11322C74.1969 8.72222 74.4929 9.46222 74.4929 10.3342C74.4929 11.2112 74.1979 11.9532 73.6089 12.5592ZM69.7789 12.0562C70.2229 12.5062 70.7659 12.7302 71.4089 12.7302C72.0519 12.7302 72.5959 12.5052 73.0389 12.0562C73.4829 11.6062 73.7059 11.0322 73.7059 10.3342C73.7059 9.63622 73.4829 9.06222 73.0389 8.61222C72.5959 8.16222 72.0519 7.93822 71.4089 7.93822C70.7659 7.93822 70.2229 8.16322 69.7789 8.61222C69.3359 9.06222 69.1129 9.63622 69.1129 10.3342C69.1129 11.0322 69.3359 11.6062 69.7789 12.0562Z" fill="white"/>
<path d="M75.5749 13.3342V7.33423H76.513L79.429 12.0012H79.4619L79.429 10.8452V7.33423H80.1999V13.3342H79.3949L76.344 8.44023H76.3109L76.344 9.59623V13.3342H75.5749Z" fill="white"/>
<path d="M47.418 10.5772C47.418 11.4152 47.1701 12.0822 46.673 12.5802C46.109 13.1722 45.3731 13.4682 44.4691 13.4682C43.6031 13.4682 42.8661 13.1682 42.2611 12.5682C41.6551 11.9672 41.3521 11.2232 41.3521 10.3352C41.3521 9.44617 41.6551 8.70217 42.2611 8.10217C42.8661 7.50117 43.6031 7.20117 44.4691 7.20117C44.8991 7.20117 45.3101 7.28517 45.7001 7.45217C46.0911 7.62017 46.404 7.84317 46.6381 8.12217L46.111 8.65017C45.714 8.17517 45.167 7.93817 44.468 7.93817C43.836 7.93817 43.29 8.16017 42.829 8.60417C42.368 9.04817 42.1381 9.62517 42.1381 10.3342C42.1381 11.0432 42.368 11.6202 42.829 12.0642C43.29 12.5082 43.836 12.7302 44.468 12.7302C45.138 12.7302 45.6971 12.5072 46.1441 12.0602C46.4341 11.7692 46.602 11.3642 46.647 10.8452H44.468V10.1242H47.375C47.405 10.2812 47.418 10.4322 47.418 10.5772Z" stroke="white" stroke-width="0.2" stroke-miterlimit="10"/>
<path d="M52.0281 8.07123H49.2961V9.97323H51.7601V10.6942H49.2961V12.5962H52.0281V13.3342H48.5251V7.33423H52.0281V8.07123Z" stroke="white" stroke-width="0.2" stroke-miterlimit="10"/>
<path d="M55.279 13.3342H54.508V8.07123H52.832V7.33423H56.955V8.07123H55.279V13.3342Z" stroke="white" stroke-width="0.2" stroke-miterlimit="10"/>
<path d="M59.938 13.3342V7.33423H60.709V13.3342H59.938Z" stroke="white" stroke-width="0.2" stroke-miterlimit="10"/>
<path d="M64.1281 13.3342H63.3572V8.07123H61.6812V7.33423H65.8042V8.07123H64.1281V13.3342Z" stroke="white" stroke-width="0.2" stroke-miterlimit="10"/>
<path d="M73.6089 12.5592C73.0189 13.1652 72.2859 13.4682 71.4089 13.4682C70.5319 13.4682 69.7989 13.1652 69.2099 12.5592C68.6199 11.9532 68.3259 11.2112 68.3259 10.3342C68.3259 9.45722 68.6199 8.71522 69.2099 8.10922C69.7989 7.50322 70.5319 7.19922 71.4089 7.19922C72.2809 7.19922 73.0129 7.50422 73.6049 8.11322C74.1969 8.72222 74.4929 9.46222 74.4929 10.3342C74.4929 11.2112 74.1979 11.9532 73.6089 12.5592ZM69.7789 12.0562C70.2229 12.5062 70.7659 12.7302 71.4089 12.7302C72.0519 12.7302 72.5959 12.5052 73.0389 12.0562C73.4829 11.6062 73.7059 11.0322 73.7059 10.3342C73.7059 9.63622 73.4829 9.06222 73.0389 8.61222C72.5959 8.16222 72.0519 7.93822 71.4089 7.93822C70.7659 7.93822 70.2229 8.16322 69.7789 8.61222C69.3359 9.06222 69.1129 9.63622 69.1129 10.3342C69.1129 11.0322 69.3359 11.6062 69.7789 12.0562Z" stroke="white" stroke-width="0.2" stroke-miterlimit="10"/>
<path d="M75.5749 13.3342V7.33423H76.513L79.429 12.0012H79.4619L79.429 10.8452V7.33423H80.1999V13.3342H79.3949L76.344 8.44023H76.3109L76.344 9.59623V13.3342H75.5749Z" stroke="white" stroke-width="0.2" stroke-miterlimit="10"/>
<g filter="url(#filter0_ii_1341_14986)">
<path d="M10.436 7.87232C10.145 8.18032 9.97302 8.65832 9.97302 9.27732V31.3933C9.97302 32.0133 10.145 32.4903 10.436 32.7983L10.51 32.8703L22.899 20.4813V20.3353V20.1893L10.51 7.79932L10.436 7.87232Z" fill="url(#paint0_linear_1341_14986)"/>
<path d="M27.028 24.6121L22.899 20.4811V20.3351V20.1891L27.029 16.0591L27.122 16.1121L32.015 18.8921C33.412 19.6861 33.412 20.9851 32.015 21.7801L27.122 24.5601L27.028 24.6121Z" fill="url(#paint1_linear_1341_14986)"/>
<g filter="url(#filter1_i_1341_14986)">
<path d="M27.122 24.559L22.898 20.335L10.436 32.798C10.896 33.286 11.657 33.346 12.514 32.86L27.122 24.559Z" fill="url(#paint2_linear_1341_14986)"/>
</g>
<path d="M27.122 16.1112L12.514 7.81117C11.657 7.32417 10.896 7.38517 10.436 7.87317L22.899 20.3362L27.122 16.1112Z" fill="url(#paint3_linear_1341_14986)"/>
</g>
<rect x="0.5" y="0.833984" width="134" height="39" rx="4.5" stroke="#A6A6A6"/>
<defs>
<filter id="filter0_ii_1341_14986" x="9.97302" y="7.4751" width="23.0897" height="25.7207" filterUnits="userSpaceOnUse" color-interpolation-filters="sRGB">
<feFlood flood-opacity="0" result="BackgroundImageFix"/>
<feBlend mode="normal" in="SourceGraphic" in2="BackgroundImageFix" result="shape"/>
<feColorMatrix in="SourceAlpha" type="matrix" values="0 0 0 0 0 0 0 0 0 0 0 0 0 0 0 0 0 0 127 0" result="hardAlpha"/>
<feOffset dy="-0.15"/>
<feComposite in2="hardAlpha" operator="arithmetic" k2="-1" k3="1"/>
<feColorMatrix type="matrix" values="0 0 0 0 0 0 0 0 0 0 0 0 0 0 0 0 0 0 0.12 0"/>
<feBlend mode="normal" in2="shape" result="effect1_innerShadow_1341_14986"/>
<feColorMatrix in="SourceAlpha" type="matrix" values="0 0 0 0 0 0 0 0 0 0 0 0 0 0 0 0 0 0 127 0" result="hardAlpha"/>
<feOffset dy="0.15"/>
<feComposite in2="hardAlpha" operator="arithmetic" k2="-1" k3="1"/>
<feColorMatrix type="matrix" values="0 0 0 0 1 0 0 0 0 1 0 0 0 0 1 0 0 0 0.25 0"/>
<feBlend mode="normal" in2="effect1_innerShadow_1341_14986" result="effect2_innerShadow_1341_14986"/>
</filter>
<filter id="filter1_i_1341_14986" x="10.436" y="20.335" width="16.686" height="12.8608" filterUnits="userSpaceOnUse" color-interpolation-filters="sRGB">
<feFlood flood-opacity="0" result="BackgroundImageFix"/>
<feBlend mode="normal" in="SourceGraphic" in2="BackgroundImageFix" result="shape"/>
<feColorMatrix in="SourceAlpha" type="matrix" values="0 0 0 0 0 0 0 0 0 0 0 0 0 0 0 0 0 0 127 0" result="hardAlpha"/>
<feOffset dy="-0.15"/>
<feComposite in2="hardAlpha" operator="arithmetic" k2="-1" k3="1"/>
<feColorMatrix type="matrix" values="0 0 0 0 0 0 0 0 0 0 0 0 0 0 0 0 0 0 0.08 0"/>
<feBlend mode="normal" in2="shape" result="effect1_innerShadow_1341_14986"/>
</filter>
<linearGradient id="paint0_linear_1341_14986" x1="21.8008" y1="9.04332" x2="5.01882" y2="25.8253" gradientUnits="userSpaceOnUse">
<stop stop-color="#00A0FF"/>
<stop offset="0.0066" stop-color="#00A1FF"/>
<stop offset="0.2601" stop-color="#00BEFF"/>
<stop offset="0.5122" stop-color="#00D2FF"/>
<stop offset="0.7604" stop-color="#00DFFF"/>
<stop offset="1" stop-color="#00E3FF"/>
</linearGradient>
<linearGradient id="paint1_linear_1341_14986" x1="33.8335" y1="20.3351" x2="9.63765" y2="20.3351" gradientUnits="userSpaceOnUse">
<stop stop-color="#FFE000"/>
<stop offset="0.4087" stop-color="#FFBD00"/>
<stop offset="0.7754" stop-color="#FFA500"/>
<stop offset="1" stop-color="#FF9C00"/>
</linearGradient>
<linearGradient id="paint2_linear_1341_14986" x1="24.8281" y1="22.6289" x2="2.06964" y2="45.3874" gradientUnits="userSpaceOnUse">
<stop stop-color="#FF3A44"/>
<stop offset="1" stop-color="#C31162"/>
</linearGradient>
<linearGradient id="paint3_linear_1341_14986" x1="7.29743" y1="0.510973" x2="17.4597" y2="10.6733" gradientUnits="userSpaceOnUse">
<stop stop-color="#32A071"/>
<stop offset="0.0685" stop-color="#2DA771"/>
<stop offset="0.4762" stop-color="#15CF74"/>
<stop offset="0.8009" stop-color="#06E775"/>
<stop offset="1" stop-color="#00F076"/>
</linearGradient>
</defs>
</svg>
