<svg width="358" height="326" viewBox="0 0 358 326" fill="none" xmlns="http://www.w3.org/2000/svg">
<path fill-rule="evenodd" clip-rule="evenodd" d="M70.7427 45.0216C68.3842 40.0613 67.3818 34.4881 69.2568 29.0466C74.6595 13.3682 95.9606 22.8434 98.1264 32.0674C100.292 41.2915 94.2967 61.6106 88.3186 61.5537C85.9345 61.5309 81.5611 58.8499 77.507 54.64L74.7888 76.9239L56.8691 72.1223L70.7427 45.0216Z" fill="#D4A181"/>
<path fill-rule="evenodd" clip-rule="evenodd" d="M77.2458 45.5599C73.8808 49.2299 69.9467 51.6185 66.8764 50.7958C61.0445 49.2331 58.987 40.3249 61.2333 31.9417C61.3122 31.6471 61.3965 31.3561 61.4858 31.0688C54.1823 33.6492 47.192 40.7198 39.0292 38.5326C27.9238 35.5569 29.5153 11.9754 45.0311 16.1329C55.5831 18.9603 60.3613 21.8895 64.2248 25.3631C65.7735 23.1123 67.6791 21.3817 69.7154 20.3621C70.2305 20.0227 70.9515 19.759 71.8401 19.5736C72.3888 19.44 72.9411 19.3595 73.493 19.3354C76.4564 19.0669 80.5512 19.4146 84.9567 20.4317C85.7793 20.6216 86.582 20.8278 87.3601 21.0475C88.4748 16.9381 92.7051 14.5023 96.8209 15.6052C100.945 16.7101 103.392 20.9487 102.287 25.0724C101.218 29.0604 97.2189 31.4803 93.227 30.6359C90.7895 30.7273 87.7603 30.4623 84.4948 29.8179C84.4924 31.0725 84.3052 32.4485 83.9023 33.9521C83.5465 35.2797 83.0227 36.6485 82.3698 38.0059C81.8956 36.9925 81.1099 36.2036 80.1657 35.9506C77.5244 35.2428 75.1036 36.9231 74.4854 39.2301C73.7008 42.1582 74.8236 44.7293 77.2458 45.5599Z" fill="#191847"/>
<path fill-rule="evenodd" clip-rule="evenodd" d="M34.0117 140.457L62.3272 238.029L75.6454 311.289H89.0128L75.6692 140.457H34.0117Z" fill="#BA8B72"/>
<path fill-rule="evenodd" clip-rule="evenodd" d="M21.2864 140.457C23.2621 191.145 22.4829 218.792 22.0407 223.397C21.5985 228.003 19.0881 258.846 1.98157 312.835H15.8849C38.5397 261.042 46.4483 230.198 49.0466 223.397C51.645 216.596 59.319 188.949 70.5228 140.457H21.2864Z" fill="#D4A181"/>
<path fill-rule="evenodd" clip-rule="evenodd" d="M33.4039 140.457C40.7692 174.032 53.508 227.626 71.6203 301.24H91.1717C92.6158 225.682 86.4727 175.953 75.8344 140.457H33.4039Z" fill="#69A1AC"/>
<path fill-rule="evenodd" clip-rule="evenodd" d="M21.1876 140.457C23.1226 191.145 18.1079 241.083 2.57434 302.029H23.4346C46.1311 251.009 62.3984 201.317 73.516 140.457H21.1876Z" fill="#89C5CC"/>
<path fill-rule="evenodd" clip-rule="evenodd" d="M0 322.884L0.767138 310.516C5.25862 311.829 10.8843 311.314 17.6442 308.97C24.9127 314.118 34.0627 317.634 45.0944 319.517C45.9361 319.66 46.5019 320.459 46.3583 321.301C46.349 321.355 46.3368 321.409 46.3217 321.462L45.2611 325.203H17.6442H1.53428L0 322.884Z" fill="#191847"/>
<path fill-rule="evenodd" clip-rule="evenodd" d="M72.6615 322.884L73.4286 310.516C77.9201 311.829 83.5458 311.314 90.3057 308.97C97.5742 314.118 106.724 317.634 117.756 319.517C118.598 319.66 119.163 320.459 119.02 321.301C119.011 321.355 118.998 321.409 118.983 321.462L117.923 325.203H90.3057H74.1958L72.6615 322.884Z" fill="#191847"/>
<path fill-rule="evenodd" clip-rule="evenodd" d="M89.3204 97.0015L118.295 87.1888C123.609 82.7458 128.653 79.4567 133.426 77.3218C134.826 77.0075 137.162 77.08 134.364 80.4868C131.566 83.8936 128.776 87.6029 129.656 88.9597C130.537 90.3164 133.531 89.1659 134.485 91.3305C135.121 92.7735 130.136 93.9971 119.53 95.0011L97.2313 109.195L89.3204 97.0015ZM128.551 116.509L141.281 112.179C144.002 106.27 146.499 103.495 148.771 103.855C150.653 103.353 146.243 110.649 149.661 110.551C153.079 110.454 162.185 105.886 163.358 107.346C165.093 109.507 162.289 114.706 159.649 117.073C154.714 121.497 151.068 122.664 142.417 123.51C137.893 123.952 132.807 125.539 127.158 128.273L128.551 116.509Z" fill="#D4A181"/>
<path fill-rule="evenodd" clip-rule="evenodd" d="M77.0208 91.5087C86.293 93.0428 98.9792 93.2642 113.622 87.2273L116.76 99.6721C106.087 107.085 92.0089 112.239 80.8965 109.957C72.1394 108.158 69.5186 96.7193 77.0208 91.5087Z" fill="#0D6967"/>
<path fill-rule="evenodd" clip-rule="evenodd" d="M86.2214 112.201C95.6146 116.384 112.601 116.4 137.179 112.248C140.823 125.127 141.983 134.056 140.659 139.034C118.992 145.899 101.172 147.521 87.1091 145.356C86.0885 153.747 83.682 161.479 79.0087 168.107C69.401 181.733 30.9104 160.758 16.6753 161.04C12.9934 131.542 31.6565 123.108 34.8267 105.207C38.2983 85.6044 59.3619 58.2025 61.678 58.6109L82.8003 62.3354C81.3256 77.5139 84.2819 95.0499 86.2214 112.201Z" fill="#158A83"/>
<path fill-rule="evenodd" clip-rule="evenodd" d="M290.356 107.837C293.772 103.828 296.083 98.9154 295.697 93.4102C294.584 77.5481 272.504 81.0376 268.209 89.0434C263.913 97.0492 264.424 117.357 269.975 118.787C272.189 119.358 276.905 117.96 281.704 115.067L278.692 136.381H296.48L290.356 107.837Z" fill="#915B3C"/>
<path fill-rule="evenodd" clip-rule="evenodd" d="M291.723 111.408C293.956 101.475 300.316 94.7042 299.345 90.2647C298.697 87.305 296.971 85.4644 294.167 84.743C292.716 78.8752 288.038 76.3794 280.133 77.2556C268.274 78.5699 261.037 83.4946 264.162 94.331C267.035 94.331 270.504 93.292 275.3 95.0722C276.822 95.6371 277.91 97.3888 278.566 100.327H280.733C282.837 96.8401 284.911 95.5586 286.955 96.483C289 97.4073 289.465 99.6525 288.35 103.219L289.417 111.408H291.723Z" fill="#191847"/>
<path fill-rule="evenodd" clip-rule="evenodd" d="M346.141 229.031H260.903C254.353 229.031 249.044 234.341 249.044 240.89V309.081C249.044 315.63 254.353 320.94 260.903 320.94H346.141C352.691 320.94 358 315.63 358 309.081V240.89C358 234.341 352.691 229.031 346.141 229.031ZM334.282 249.785C335.919 249.785 337.247 251.112 337.247 252.749V297.222C337.247 298.859 335.919 300.186 334.282 300.186H272.762C271.125 300.186 269.797 298.859 269.797 297.222V252.749C269.797 251.112 271.125 249.785 272.762 249.785H334.282Z" fill="#C5CFD6"/>
<path fill-rule="evenodd" clip-rule="evenodd" d="M175.547 317.234C190.16 299.389 200.048 286.16 205.21 277.546C214.049 262.796 221.283 249.672 223.566 244.659C229.01 232.704 211.033 227.106 206.965 232.682C200.807 241.122 187.656 267.68 167.512 312.355L175.547 317.234Z" fill="#B28B67"/>
<path fill-rule="evenodd" clip-rule="evenodd" d="M205.492 312.046L232.689 243.586C238.506 231.106 210.415 222.903 206.14 228.711C196.435 241.896 173.368 293.912 170.476 297.84L205.492 312.046Z" fill="#2F3676"/>
<path fill-rule="evenodd" clip-rule="evenodd" d="M277.926 298.316C272.628 290.589 253.358 264.59 242.863 253.833C239.847 250.741 236.904 247.774 234.12 245.01C225.847 236.791 209.372 250.604 217.63 258.09C238.196 276.731 268.203 301.896 270.71 304.14C274.224 307.285 281.255 303.173 277.926 298.316Z" fill="#915B3C"/>
<path fill-rule="evenodd" clip-rule="evenodd" d="M276.687 294.826C278.512 296.328 279.699 297.555 280.249 298.507C280.917 299.664 281.699 301.465 282.596 303.908C281.253 304.683 269.185 311.651 246.392 324.811C243.655 322.244 243.229 320.251 245.112 318.833C246.996 317.414 248.551 316.218 249.776 315.244L262.273 298.027C262.513 297.696 262.976 297.622 263.308 297.863C263.313 297.867 263.319 297.871 263.325 297.875L265.921 299.875C268.303 299.667 270.081 299.224 271.254 298.547C272.207 297.997 273.301 296.852 274.536 295.112C275.01 294.444 275.935 294.287 276.603 294.761C276.632 294.782 276.66 294.803 276.687 294.826Z" fill="#E4E4E4"/>
<path fill-rule="evenodd" clip-rule="evenodd" d="M181.833 314.567C182.662 316.781 183.077 318.437 183.077 319.536C183.077 320.873 182.854 322.823 182.409 325.387C180.858 325.387 166.923 325.387 140.604 325.387C139.517 321.796 140.144 319.857 142.485 319.57C144.826 319.284 146.77 319.026 148.318 318.795L167.749 310.133C168.123 309.966 168.561 310.134 168.728 310.508C168.73 310.514 168.733 310.521 168.736 310.527L169.985 313.557C172.152 314.568 173.912 315.073 175.267 315.073C176.368 315.073 177.888 314.629 179.827 313.74C180.571 313.398 181.451 313.725 181.792 314.469C181.807 314.502 181.821 314.534 181.833 314.567Z" fill="#E4E4E4"/>
<path fill-rule="evenodd" clip-rule="evenodd" d="M242.475 247.005C265.079 243.323 280.22 240.805 287.897 239.451C309.78 235.593 316.161 223.817 312.388 198.125H272.07C266.734 199.665 244.44 209.195 205.189 226.712C198.126 230.218 199.442 240.555 200.733 243.96C200.785 244.099 212.691 264.5 236.449 305.162L269.431 284.151L242.413 249.481C241.7 248.044 241.72 247.219 242.475 247.005Z" fill="#5C63AB"/>
<path fill-rule="evenodd" clip-rule="evenodd" d="M239.57 188.422L215.927 205.784C209.515 207.514 204.157 209.667 199.855 212.242C198.838 213.168 197.61 215.043 201.825 214.719C206.04 214.395 210.488 214.244 211.069 215.681C211.651 217.119 209.1 218.838 210.276 220.778C211.06 222.071 214.762 218.829 221.384 211.051L244.797 201.342L239.57 188.422ZM330.347 189.021L314.858 189.082C324.422 219.956 329.585 236.337 330.347 238.226C332.062 242.477 328.433 248.95 326.881 252.429C331.936 254.691 331.397 246.314 337.774 249.281C343.595 251.988 348.022 256.895 354.747 252.746C355.574 252.235 356.48 250.315 354.291 248.814C348.837 245.074 340.978 238.53 339.916 236.375C338.468 233.438 335.279 217.653 330.347 189.021Z" fill="#915B3C"/>
<path fill-rule="evenodd" clip-rule="evenodd" d="M286.329 124.027L279.92 122.927C256.14 143.47 246.373 182.935 217.224 203.841L224.24 212.538C274.807 206.277 287.341 158.139 286.329 124.027Z" fill="#E87613"/>
<path fill-rule="evenodd" clip-rule="evenodd" d="M314.269 204.571C288.57 204.571 269.667 204.571 257.559 204.571C254.967 204.571 255.456 200.83 255.83 198.941C260.154 177.15 277.03 153.659 277.03 122.64L293.388 120.074C306.918 141.835 311.597 168.627 314.269 204.571Z" fill="#DDE3E9"/>
<path fill-rule="evenodd" clip-rule="evenodd" d="M313.813 141.464C316.189 140.781 318.071 139.189 319.458 136.686C325.436 125.898 323.277 119.958 316.888 118.005C310.498 116.053 304.8 120.075 294.62 120.075C294.066 120.075 293.559 120.109 293.099 120.179L287.978 120.471C273.285 170.265 269.233 203.487 275.821 220.137H320.457C323.101 226.304 325.632 231.492 328.049 235.702H340.211C341.356 198.692 332.557 167.279 313.813 141.464Z" fill="#FF9B21"/>
<path fill-rule="evenodd" clip-rule="evenodd" d="M310.737 194.564C309.333 206.309 307.052 214.833 303.892 220.137H320.457C317.372 212.944 314.132 204.419 310.737 194.564Z" fill="black" fill-opacity="0.1"/>
</svg>
