<svg width="358" height="275" viewBox="0 0 358 275" fill="none" xmlns="http://www.w3.org/2000/svg">
<path fill-rule="evenodd" clip-rule="evenodd" d="M244.106 30.3548C240.127 27.6383 236.915 23.8632 235.959 18.9247C233.206 4.69548 253.642 2.51232 259.345 8.5381C265.049 14.5639 269.386 32.5632 264.793 35.144C262.961 36.1732 258.443 36.0651 253.497 34.6605L261.201 52.7073L245.4 56.941L244.106 30.3548Z" fill="#B28B67"/>
<path fill-rule="evenodd" clip-rule="evenodd" d="M249.592 16.9255C252.434 25.1139 255.153 28.8605 257.748 28.1651C261.64 27.1221 264.287 23.7878 265.995 23.3301C267.24 22.9965 267.376 24.6153 266.857 25.9815C266.429 27.1086 263.357 28.9076 263.75 30.3722C264.142 31.8368 266.458 30.0017 266.691 30.8703C267.076 32.3071 268.26 34.8851 265.745 35.5592C263.198 36.2415 255.651 37.2779 253.397 33.8676C251.942 31.6667 250.077 26.7975 247.804 19.2601C247.645 19.2833 247.485 19.3161 247.326 19.3588C245.144 19.9433 243.845 22.1701 244.425 24.3323C244.719 25.43 245.44 26.3001 246.365 26.8143C245.794 28.3379 245.127 29.9481 244.323 31.6409C239.211 30.2003 233.882 23.401 236.217 14.8718C236.44 10.9401 238.621 8.28779 241.567 6.53817C243.861 4.77664 246.508 3.93813 248.941 3.97361C253.476 3.16261 257.793 3.44174 259.128 3.93684C260.243 8.09683 259.761 9.549 252.785 11.3015C251.318 12.6522 250.418 14.5423 249.592 16.9255Z" fill="#191847"/>
<path fill-rule="evenodd" clip-rule="evenodd" d="M253.093 111.961L286.546 196.304L308.983 267.609H317.843L283.542 111.961L253.093 111.961Z" fill="#997659"/>
<path fill-rule="evenodd" clip-rule="evenodd" d="M246.357 111.961C246.001 141.6 240.806 181.503 239.976 183.351C239.422 184.583 220.321 200.246 182.67 230.34L188.772 236.845C233.196 211.043 256.436 196.421 258.492 192.98C261.576 187.818 271.615 140.316 279.675 111.961H246.357Z" fill="#B28B67"/>
<path fill-rule="evenodd" clip-rule="evenodd" d="M181.813 228.156C179.764 228.88 178.352 229.567 177.578 230.217C176.636 231.007 175.394 232.316 173.851 234.146C174.768 235.238 183.004 245.054 198.561 263.594C201.733 262.237 202.728 260.649 201.547 258.831C200.365 257.013 199.398 255.49 198.645 254.263L193.262 235.456C193.158 235.094 192.781 234.885 192.419 234.988C192.413 234.99 192.407 234.992 192.401 234.994L189.528 235.905C187.535 234.976 186.139 234.034 185.338 233.08C184.687 232.305 184.102 230.971 183.582 229.08C183.382 228.354 182.632 227.927 181.906 228.127C181.875 228.135 181.844 228.145 181.813 228.156Z" fill="#E4E4E4"/>
<path fill-rule="evenodd" clip-rule="evenodd" d="M305.355 264.384C304.593 266.42 304.211 267.943 304.211 268.954C304.211 270.183 304.416 271.976 304.826 274.334C306.252 274.334 319.066 274.334 343.268 274.334C344.267 271.032 343.69 269.249 341.538 268.985C339.386 268.722 337.598 268.484 336.174 268.272L318.306 260.307C317.963 260.153 317.56 260.308 317.406 260.652C317.404 260.657 317.401 260.663 317.399 260.669L316.25 263.455C314.258 264.385 312.639 264.85 311.393 264.85C310.381 264.85 308.983 264.441 307.2 263.623C306.515 263.31 305.706 263.61 305.393 264.295C305.379 264.324 305.367 264.354 305.355 264.384Z" fill="#E4E4E4"/>
<path fill-rule="evenodd" clip-rule="evenodd" d="M275.585 260.265L317.709 255.711L286.49 111.961H248.761L275.585 260.265Z" fill="#69A1AC"/>
<path fill-rule="evenodd" clip-rule="evenodd" d="M191.383 219.845L219.014 252.425C248.118 220.762 265.085 200.101 269.916 190.444C274.748 180.787 279.091 154.626 282.945 111.961H240.469C238.363 149.496 236.944 169.136 236.211 170.883C235.478 172.63 220.535 188.95 191.383 219.845Z" fill="#89C5CC"/>
<path fill-rule="evenodd" clip-rule="evenodd" d="M305.268 96.3217L329.437 108.191C335.519 108.727 340.713 109.811 345.018 111.445C346.086 112.117 347.496 113.611 343.628 113.992C339.759 114.373 335.707 114.947 335.409 116.335C335.111 117.723 337.694 118.865 336.937 120.801C336.433 122.091 332.565 119.761 325.332 113.809L302.588 108.799L305.268 96.3217ZM223.156 111.357L237.193 108.938C233.437 138.287 231.365 153.873 230.975 155.697C230.097 159.801 234.412 165.055 236.37 167.942C232.152 170.787 231.309 163.152 226.005 166.844C221.165 170.213 217.935 175.342 211.186 172.677C210.356 172.349 209.23 170.763 210.974 169.061C215.319 164.82 221.396 157.668 222.015 155.557C222.86 152.678 223.24 137.945 223.156 111.357Z" fill="#B28B67"/>
<path fill-rule="evenodd" clip-rule="evenodd" d="M252.691 45.7612L258.32 43.7471C283.12 58.4615 298.235 92.4647 327.954 106.649L322.982 115.606C276.194 118.039 257.195 76.662 252.691 45.7612Z" fill="#E87613"/>
<path fill-rule="evenodd" clip-rule="evenodd" d="M240.187 122.804C263.46 118.7 280.579 115.682 291.544 113.748C293.89 113.334 292.853 110.04 292.214 108.399C284.837 89.4522 265.821 70.9793 260.892 43.0266L245.671 43.3271C236.876 65.0965 236.896 89.9862 240.187 122.804Z" fill="#DDE3E9"/>
<path fill-rule="evenodd" clip-rule="evenodd" d="M230.572 65.8631C228.312 65.6271 226.356 64.4922 224.702 62.4585C217.573 53.6916 218.585 47.9944 224.061 45.2148C229.537 42.4351 235.336 45.1493 244.555 43.5237C245.057 43.4353 245.521 43.3856 245.95 43.3746L250.633 42.8202C271.851 85.3449 280.799 114.635 277.478 130.69L237.057 137.818C235.642 143.797 234.174 148.876 232.655 153.056L221.641 154.998C214.723 121.83 217.701 92.1185 230.572 65.8631Z" fill="#FF9B21"/>
<path fill-rule="evenodd" clip-rule="evenodd" d="M241.796 113.221C244.933 123.581 248.354 130.898 252.058 135.173L237.057 137.818C238.708 130.843 240.287 122.644 241.796 113.221Z" fill="black" fill-opacity="0.1"/>
<path fill-rule="evenodd" clip-rule="evenodd" d="M111.834 88.1564C114.734 84.7531 116.696 80.5824 116.368 75.909C115.423 62.4436 96.6792 65.4058 93.033 72.202C89.3869 78.9982 89.8201 96.2372 94.5324 97.4519C96.4117 97.9363 100.415 96.7497 104.49 94.2938L101.932 112.387H117.033L111.834 88.1564Z" fill="#B28B67"/>
<path fill-rule="evenodd" clip-rule="evenodd" d="M107.136 80.8436C107.63 80.5042 108.22 80.2981 108.853 80.2981C110.591 80.2981 112 81.8475 112 83.4441C112 85.1052 111.215 86.3895 110.095 86.9343C110.693 88.104 111.295 88.9528 112 89.107C114.719 88.8319 118.292 82.0728 118.292 76.5228C118.292 70.4481 113.458 65.197 104.449 65.197C96.3516 65.197 93.2814 68.5357 93.1232 71.4891C96.5931 72.4428 102.656 72.81 111.37 72.7475V73.3768L103.82 74.006L102.561 77.7812C104.563 77.6318 105.994 79.005 107.136 80.8436Z" fill="#191847"/>
<path d="M123.325 274.094C96.5672 274.094 74.8758 253.389 74.8758 227.847C74.8758 202.306 96.5672 181.6 123.325 181.6C150.083 181.6 171.774 202.306 171.774 227.847C171.774 253.389 150.083 274.094 123.325 274.094Z" fill="#C5CFD6"/>
<path fill-rule="evenodd" clip-rule="evenodd" d="M31.7692 266.959C39.8312 249.116 45.6615 233.579 48.0017 225.381C52.0088 211.345 55.0572 198.994 55.8277 194.382C57.6649 183.383 41.6944 182.742 39.5834 188.208C36.3884 196.482 30.8105 223.665 24.1084 264.724L31.7692 266.959ZM125.283 210.962C117.886 208.038 91.983 198.888 79.4898 196.3C75.8998 195.556 72.4202 194.865 69.1488 194.24C59.4251 192.384 54.3873 209.926 63.7524 211.274C87.0754 214.631 120.14 218.097 122.969 218.486C126.935 219.031 129.932 212.799 125.283 210.962Z" fill="#B28B67"/>
<path fill-rule="evenodd" clip-rule="evenodd" d="M63.1806 189.413L103.19 169.046V164.612H98.4321C59.7245 174.476 39.945 180.797 39.0935 183.575C39.0843 183.605 39.0759 183.635 39.0683 183.665C39.0488 183.691 39.0296 183.716 39.0108 183.742C31.3398 194.292 26.7457 245.797 25.2378 249.654L39.9372 251.847C45.5601 230.996 63.55 216.471 63.0722 191.498C63.2012 190.765 63.2338 190.071 63.1806 189.413Z" fill="#1F28CF"/>
<path fill-rule="evenodd" clip-rule="evenodd" d="M99.8662 201.509C103.527 200.777 106.898 200.123 109.783 199.617C128.416 196.348 133.849 186.374 130.637 164.612H96.3057C90.6977 166.223 61.553 178.445 46.4314 184.946C36.4232 189.249 39.5781 204.759 45.2458 208.795C45.2766 209.043 45.3786 209.211 45.5602 209.286C76.0482 221.922 100.167 215.292 108.224 217.411L111.951 205.655L99.8662 201.509Z" fill="#2B44FF"/>
<path fill-rule="evenodd" clip-rule="evenodd" d="M122.754 209.093C124.752 209.284 126.17 209.584 127.008 209.993C128.028 210.49 129.433 211.386 131.224 212.68C130.647 213.863 125.461 224.496 115.667 244.577C112.522 244.07 111.276 242.869 111.929 240.977C112.581 239.085 113.108 237.505 113.508 236.238L114.129 218.189C114.141 217.842 114.432 217.57 114.78 217.582C114.786 217.582 114.792 217.582 114.798 217.583L117.574 217.757C119.152 216.48 120.193 215.325 120.697 214.291C121.106 213.451 121.333 212.126 121.376 210.316C121.393 209.621 121.97 209.071 122.664 209.088C122.694 209.088 122.724 209.09 122.754 209.093Z" fill="#E4E4E4"/>
<path fill-rule="evenodd" clip-rule="evenodd" d="M35.4382 263.651C36.1422 265.53 36.4941 266.936 36.4941 267.869C36.4941 269.004 36.3051 270.659 35.9271 272.836C34.6108 272.836 22.7813 272.836 0.438452 272.836C-0.483772 269.787 0.0485884 268.142 2.03553 267.898C4.02248 267.655 5.67307 267.436 6.9873 267.24L23.4821 259.886C23.7995 259.745 24.1715 259.888 24.313 260.205C24.3154 260.21 24.3177 260.216 24.32 260.221L25.3803 262.793C27.2197 263.652 28.7143 264.081 29.8643 264.081C30.7987 264.081 32.089 263.703 33.7354 262.949C34.3672 262.659 35.1141 262.936 35.4037 263.568C35.4162 263.595 35.4277 263.623 35.4382 263.651Z" fill="#E4E4E4"/>
<path fill-rule="evenodd" clip-rule="evenodd" d="M65.5073 152.111L45.4366 166.849C39.993 168.318 35.445 170.145 31.7927 172.331C30.93 173.118 29.8873 174.71 33.4652 174.435C37.0432 174.159 40.8191 174.031 41.3128 175.251C41.8065 176.472 39.6413 177.931 40.6393 179.578C41.3046 180.675 44.4478 177.923 50.0688 171.32L69.9441 163.078L65.5073 152.111ZM156.334 145.972L145.253 147.978C158.114 173.499 165.002 186.994 165.918 188.46C167.979 191.761 165.899 197.708 165.114 200.845C169.673 201.991 167.988 195.067 173.757 196.607C179.022 198.013 183.446 201.462 188.457 197.002C189.073 196.454 189.547 194.714 187.496 193.782C182.385 191.46 174.85 187.147 173.645 185.502C172.001 183.26 166.231 170.083 156.334 145.972Z" fill="#B28B67"/>
<path fill-rule="evenodd" clip-rule="evenodd" d="M60.8316 153.713C58.2493 153.527 55.4403 153.955 52.4287 154.97C50.9468 155.469 50.1503 157.075 50.6496 158.557C50.9396 159.418 51.6029 160.047 52.3984 160.326C51.8222 160.746 51.2408 161.164 50.6543 161.58L55.7177 171.917C77.0246 161.293 97.051 153.284 106.177 135.745C109.239 129.858 108.203 109.863 108.495 102.589L101.766 99.8293C92.3851 119.22 79.6899 137.822 60.8316 153.713Z" fill="#69A1AC"/>
<path fill-rule="evenodd" clip-rule="evenodd" d="M132.134 170.218C112.353 172.391 96.7826 172.391 85.4238 170.218C84.0165 169.949 84.0783 163.882 84.731 162.225C94.894 136.424 101.579 117.537 101.579 99.616C103.444 100.59 106.708 100.736 111.37 100.054C123.9 118.522 129.66 139.712 132.134 170.218Z" fill="#191847"/>
<path fill-rule="evenodd" clip-rule="evenodd" d="M135.81 173.268C136.481 172.636 136.832 171.688 136.66 170.712L136.332 168.853C136.11 167.593 135.087 166.676 133.879 166.533C133.667 165.589 133.485 164.651 133.335 163.72C132.065 155.858 134.235 148.148 134.133 140.577C144.251 149.209 153.327 164.115 161.362 185.294L173.246 181.797C172.793 180.113 172.323 178.449 171.837 176.806C173.209 176.027 174.811 172.455 173.658 171.858C172.467 171.24 171.205 170.806 169.876 170.55C158.979 137.731 141.16 113.729 116.419 98.5444H114.23L109.263 98.5444C111.37 126.406 82.2695 187.235 92.374 239.184C111.051 243.355 137.714 230.378 163.668 240.746C162.703 219.825 143.357 195.248 135.81 173.268Z" fill="#89C5CC"/>
<path fill-rule="evenodd" clip-rule="evenodd" d="M113.82 99.1738L117.067 109.157L110.53 116.64L116.437 122.521L102.145 146.994L119.623 122.57L113.82 116.64L119.623 110.027L113.82 99.1738Z" fill="black" fill-opacity="0.1"/>
<path fill-rule="evenodd" clip-rule="evenodd" d="M106.337 156.432C107.727 156.432 108.853 155.305 108.853 153.915C108.853 152.525 107.727 151.398 106.337 151.398C104.947 151.398 103.82 152.525 103.82 153.915C103.82 155.305 104.947 156.432 106.337 156.432ZM103.19 170.904C104.581 170.904 105.707 169.777 105.707 168.387C105.707 166.997 104.581 165.87 103.19 165.87C101.8 165.87 100.674 166.997 100.674 168.387C100.674 169.777 101.8 170.904 103.19 170.904ZM102.561 185.376C103.951 185.376 105.078 184.249 105.078 182.859C105.078 181.469 103.951 180.342 102.561 180.342C101.171 180.342 100.044 181.469 100.044 182.859C100.044 184.249 101.171 185.376 102.561 185.376Z" fill="black" fill-opacity="0.4"/>
<path d="M212.626 28.8936C205.386 35.1029 195.546 39.465 184.242 40.324C182.759 36.9401 181.638 33.5063 180.877 30.0831C190.675 30.0078 199.205 26.6872 205.393 21.7767C207.486 24.3329 209.904 26.7252 212.626 28.8936Z" fill="#C1D97A"/>
<path d="M211.671 28.8767C204.691 34.6642 195.361 38.7391 184.678 39.646C183.389 36.6893 182.377 33.6939 181.642 30.7019C191.067 30.4626 199.297 27.2627 205.382 22.5574C207.233 24.8031 209.334 26.9235 211.671 28.8767Z" fill="#4E7735"/>
<path d="M203.493 26.5088C202.763 26.9672 201.87 27.0785 201.087 26.8826C197.36 28.927 193.12 30.4684 188.496 31.31C188.137 31.9991 187.374 32.5328 186.339 32.6668C185.3 32.8007 184.244 32.9007 183.173 32.9646C183.624 34.424 184.141 35.8814 184.724 37.3301C185.863 37.2295 186.985 37.0915 188.091 36.9176C189.159 36.7503 190.269 36.9176 191.202 37.3174C196.297 36.1946 200.972 34.3207 205.088 31.8978C205.245 31.1914 205.728 30.513 206.485 30.0172C207.488 29.3602 208.454 28.6685 209.38 27.9468C208.254 26.8873 207.193 25.7871 206.196 24.6529C205.332 25.3013 204.43 25.921 203.493 26.5088Z" fill="#C1D97A"/>
<path d="M200.312 30.8297C201.529 32.5217 201.129 34.6381 199.104 35.4624C197.086 36.29 194.405 35.3238 193.427 33.4359C192.442 31.5481 193.327 29.6056 195.104 28.9705C196.89 28.3395 199.086 29.1318 200.312 30.8297Z" fill="#4E7735"/>
<path d="M191.071 34.3453C191.438 35.0856 190.959 35.8786 189.949 36.0805C188.941 36.2838 187.823 35.7913 187.503 35.0203C187.181 34.2487 187.74 33.5143 188.701 33.3417C189.664 33.1705 190.703 33.6036 191.071 34.3453Z" fill="#4E7735"/>
<path d="M205.212 28.426C205.739 29.0291 205.565 29.9214 204.766 30.4032C203.967 30.8856 202.878 30.739 202.39 30.0967C201.9 29.4536 202.164 28.5886 202.922 28.1462C203.683 27.7037 204.682 27.8223 205.212 28.426Z" fill="#4E7735"/>
<path d="M123.276 49.6996C125.382 43.9907 127.461 38.2719 129.511 32.543C132.008 33.4359 134.741 33.4386 137.244 32.5457C139.288 38.2772 141.304 44.0187 143.293 49.7695C136.812 52.0599 129.739 52.0346 123.276 49.6996Z" fill="#C1D97A"/>
<path d="M124.589 49.7378C126.371 44.1882 128.128 38.6299 129.859 33.0643C132.148 33.7754 134.601 33.7774 136.895 33.067C138.617 38.6359 140.313 44.2122 141.984 49.7964C136.312 51.535 130.247 51.5137 124.589 49.7378Z" fill="#4E7735"/>
<path d="M137.322 47.9059C137.238 47.3029 137.766 46.6818 138.596 46.1174C137.985 43.184 137.367 40.2526 136.742 37.3225C136.017 37.088 135.544 36.5655 135.457 35.9318C135.364 35.2927 135.272 34.6537 135.178 34.0146C133.969 34.1912 132.74 34.1885 131.532 34.0066C131.435 34.645 131.339 35.2834 131.241 35.9225C131.151 36.5382 130.697 37.0453 130.002 37.2852C129.355 40.2333 128.702 43.1793 128.041 46.124C128.82 46.6805 129.305 47.2869 129.211 47.8706C129.084 48.639 128.957 49.408 128.829 50.177C131.751 50.6448 134.728 50.6594 137.655 50.2203C137.545 49.4486 137.433 48.6769 137.322 47.9059Z" fill="#C1D97A"/>
<path d="M133.334 44.6921C130.096 44.6874 127.85 42.9182 128.243 41.6914C128.626 40.4419 130.891 40.0088 133.359 39.9921C135.827 40.0141 138.088 40.4546 138.458 41.7074C138.837 42.9382 136.572 44.7014 133.334 44.6921Z" fill="#4E7735"/>
<path d="M133.042 38.4041C132.141 38.3861 131.481 37.805 131.564 37.2079C131.646 36.6089 132.327 36.205 133.091 36.219C133.854 36.2357 134.518 36.6668 134.573 37.2686C134.629 37.8683 133.944 38.4227 133.042 38.4041Z" fill="#4E7735"/>
<path d="M132.794 48.2739C131.365 48.2432 130.282 47.6041 130.368 47.0084C130.454 46.4087 131.563 46.0635 132.853 46.0888C134.144 46.1188 135.232 46.5126 135.284 47.1164C135.337 47.7154 134.223 48.3065 132.794 48.2739Z" fill="#4E7735"/>
<path d="M87.2585 16.9319C87.9508 24.5412 83.1483 33.8619 73.2273 38.9443C67.3003 37.1591 62.097 33.8226 58.1389 29.3625C69.0099 29.9076 76.9549 23.8649 79.2779 17.1831C81.5789 17.8935 84.3757 17.9521 87.2585 16.9319Z" fill="#C1D97A"/>
<path d="M86.748 17.5881C87.0066 24.9089 82.1946 33.5531 72.7679 38.2917C67.6827 36.6551 63.1628 33.8523 59.559 30.1726C69.8626 30.0806 77.2774 24.1912 79.5585 17.7327C81.6795 18.3097 84.1691 18.3577 86.748 17.5881Z" fill="#4E7735"/>
<path d="M79.923 21.3599C79.5785 22.0436 78.8821 22.584 78.0718 22.8313C75.8188 25.9892 72.3135 28.7207 67.8303 30.3154C68.0182 31.0004 67.6707 31.6401 66.6523 31.9493C65.6285 32.2545 64.562 32.5037 63.4578 32.6897C65.439 34.1937 67.614 35.4698 69.9412 36.4854C70.9915 36.0529 71.9939 35.5691 72.9447 35.04C73.8671 34.5315 75.199 34.2197 76.5718 34.0457C80.5127 31.0617 83.2136 27.282 84.5696 23.4323C84.1692 22.9952 84.0739 22.3435 84.2818 21.6051C84.5563 20.6262 84.7436 19.6473 84.8455 18.6811C83.5108 18.871 82.2193 18.8603 81.0085 18.6897C80.732 19.5887 80.3701 20.4829 79.923 21.3599Z" fill="#C1D97A"/>
<path d="M79.8056 25.7142C82.058 26.0633 83.4694 27.2662 82.4112 28.8981C81.371 30.5334 77.7852 31.5176 75.0524 30.5641C72.3134 29.6185 71.8557 27.7533 73.372 26.7397C74.9051 25.7002 77.5326 25.3783 79.8056 25.7142Z" fill="#4E7735"/>
<path d="M73.4083 32.0939C74.4987 32.4938 74.8032 33.2141 73.9708 33.7492C73.1411 34.285 71.4306 34.3123 70.2772 33.7606C69.1214 33.2101 69.0077 32.4251 69.8997 32.042C70.7953 31.6568 72.3144 31.6948 73.4083 32.0939Z" fill="#4E7735"/>
<path d="M82.3373 21.5443C83.0883 21.5716 83.5488 22.1441 83.2669 22.8951C82.9883 23.6461 81.9874 24.2385 81.1365 24.1439C80.2835 24.0512 79.9856 23.3742 80.3641 22.6912C80.7453 22.0054 81.5829 21.5183 82.3373 21.5443Z" fill="#4E7735"/>
<path d="M177.27 86.5102C168.516 86.347 161.969 90.9816 159.531 96.4126C157.105 95.431 153.99 95.2145 150.772 96.3866C150.299 89.9147 153.902 82.1934 161.485 77.2236C167.778 78.6063 173.283 81.9096 177.27 86.5102Z" fill="#A7C05D"/>
<path d="M175.973 85.6971C167.678 86.0582 161.572 90.6296 159.229 95.8933C156.981 95.0877 154.223 94.9091 151.353 95.7787C151.247 89.568 154.908 82.4025 162.153 77.7998C167.548 79.1319 172.318 81.9047 175.973 85.6971Z" fill="#4E7735"/>
<path d="M162.506 81.0633C161.82 81.5311 160.69 81.8217 159.441 82.0069C156.473 84.6931 154.448 87.885 153.412 91.105C153.988 91.4495 154.201 92.0406 154.018 92.7116C153.836 93.39 153.699 94.0677 153.606 94.7407C155.015 94.5768 156.369 94.6428 157.621 94.8887C157.849 94.2729 158.119 93.6625 158.433 93.0615C158.733 92.4797 159.413 92.0492 160.222 91.9133C162.13 89.2984 164.982 87.0227 168.59 85.5754C168.377 84.9643 168.567 84.4225 169.308 84.154C170.287 83.8041 171.315 83.5123 172.385 83.2864C170.262 81.6764 167.883 80.359 165.314 79.3887C164.321 79.8985 163.384 80.4596 162.506 81.0633Z" fill="#A7C05D"/>
<path d="M162.187 84.8421C165.058 85.8204 165.812 87.6902 164.549 88.5025C163.271 89.3448 160.735 89.3295 158.318 88.9264C155.922 88.5046 154.225 87.5656 155.044 86.1669C155.841 84.7682 159.32 83.8526 162.187 84.8421Z" fill="#4E7735"/>
<path d="M157.677 90.4841C158.567 90.6281 158.933 91.2545 158.594 91.8069C158.254 92.362 157.409 92.6899 156.613 92.6119C155.819 92.5319 155.302 92.0361 155.549 91.4157C155.793 90.796 156.789 90.3382 157.677 90.4841Z" fill="#4E7735"/>
<path d="M166.54 82.5139C167.721 83.0876 167.994 83.8686 167.275 84.1892C166.553 84.513 165.153 84.3711 164.034 83.9379C162.918 83.5021 162.455 82.8391 163.116 82.376C163.773 81.9142 165.362 81.9388 166.54 82.5139Z" fill="#4E7735"/>
<path d="M183.949 158.912C188.467 154.892 191.132 146.419 187.095 137.516C190.648 138.208 194.258 139.708 197.595 142.047C199.062 153.157 193.924 162.446 187.134 166.598C186.716 163.521 185.535 160.902 183.949 158.912Z" fill="#A7C05D"/>
<path d="M184.525 159.018C188.885 154.971 191.461 146.872 187.986 138.217C191.068 138.954 194.172 140.313 197.073 142.312C198.392 152.776 193.74 161.576 187.464 165.762C186.965 163.108 185.906 160.823 184.525 159.018Z" fill="#4E7735"/>
<path d="M189.679 161.424C190.205 160.845 190.794 160.563 191.337 160.621C193.83 157.407 195.596 153.176 196.046 148.347C195.615 147.294 195.312 146.119 195.273 145.063C195.237 144.002 195.135 142.92 194.963 141.825C193.529 140.978 192.059 140.283 190.577 139.739C190.866 140.738 191.084 141.731 191.236 142.71C191.382 143.661 191.108 144.323 190.635 144.617C190.968 148.998 189.945 152.959 188.16 156.019C188.24 156.726 188.066 157.477 187.654 158.022C187.11 158.744 186.523 159.404 185.904 159.999C186.553 161.034 187.105 162.191 187.529 163.455C188.28 162.848 189.001 162.171 189.679 161.424Z" fill="#A7C05D"/>
<path d="M191.167 155.91C190.005 154.428 189.399 152.351 189.741 150.73C190.081 149.128 191.515 148.428 193.121 149.721C194.732 151 195.488 153.98 194.691 155.771C193.901 157.572 192.318 157.376 191.167 155.91Z" fill="#4E7735"/>
<path d="M193.132 147.215C192.476 146.743 191.943 145.699 191.883 144.797C191.823 143.897 192.318 143.439 193.057 143.855C193.794 144.27 194.425 145.452 194.401 146.406C194.379 147.363 193.785 147.684 193.132 147.215Z" fill="#4E7735"/>
<path d="M188.562 159.511C188.21 158.924 188.25 158.04 188.647 157.436C189.044 156.835 189.704 156.727 190.133 157.296C190.562 157.863 190.531 158.91 190.055 159.529C189.58 160.15 188.913 160.095 188.562 159.511Z" fill="#4E7735"/>
<mask id="mask0_1341_14749" style="mask-type:luminance" maskUnits="userSpaceOnUse" x="187" y="138" width="1" height="2">
<path d="M187.816 139.294C187.816 139.294 187.816 139.294 187.815 139.294C187.773 139.178 187.731 139.061 187.687 138.944C187.687 138.944 187.687 138.944 187.688 138.944C187.732 139.062 187.774 139.178 187.816 139.294Z" fill="white"/>
</mask>
<g mask="url(#mask0_1341_14749)">
<path d="M187.687 139.294H187.816V138.944H187.687V139.294Z" fill="#BFBFBF"/>
</g>
<path d="M187.673 166.255C188.151 165.733 188.606 165.177 189.035 164.589C189.315 164.357 189.589 164.115 189.859 163.865C189.273 164.652 188.643 165.382 187.976 166.051C187.875 166.12 187.774 166.188 187.673 166.255ZM188.444 139.455C188.234 139.399 188.025 139.345 187.817 139.295C187.775 139.178 187.732 139.062 187.688 138.945C187.899 138.996 188.11 139.048 188.322 139.104C188.364 139.221 188.404 139.338 188.444 139.455Z" fill="#7D9046"/>
<path d="M189.035 164.588C189.912 163.388 190.682 162.057 191.322 160.619C191.327 160.62 191.332 160.621 191.337 160.621C191.873 159.931 192.375 159.194 192.837 158.414C192.066 160.426 191.054 162.261 189.859 163.865C189.589 164.115 189.315 164.356 189.035 164.588ZM190.693 140.154C189.944 139.888 189.193 139.655 188.444 139.455C188.404 139.338 188.364 139.221 188.322 139.104C189.08 139.303 189.839 139.537 190.596 139.806C190.629 139.922 190.661 140.038 190.693 140.154Z" fill="#3A5928"/>
<path d="M191.337 160.62C191.331 160.62 191.327 160.62 191.321 160.619C191.832 159.472 192.26 158.258 192.593 156.989C192.757 157.04 192.921 157.066 193.081 157.066C193.16 157.066 193.237 157.06 193.314 157.047C193.167 157.51 193.008 157.967 192.837 158.413C192.374 159.194 191.872 159.931 191.337 160.62ZM194.409 151.433C194.149 150.876 193.812 150.372 193.41 149.977C193.391 149.086 193.327 148.183 193.214 147.27C193.385 147.376 193.55 147.428 193.7 147.428C194.03 147.428 194.286 147.179 194.371 146.71C194.526 148.325 194.533 149.904 194.409 151.433ZM194.208 145.361C193.969 144.717 193.536 144.124 193.057 143.855C192.869 143.749 192.697 143.7 192.546 143.7C192.542 143.7 192.537 143.7 192.532 143.7C192.252 142.621 191.901 141.534 191.477 140.446C191.215 140.344 190.954 140.247 190.692 140.154C190.661 140.038 190.629 139.922 190.596 139.806C191.459 140.113 192.32 140.465 193.175 140.865C193.652 142.381 193.992 143.883 194.208 145.361Z" fill="#7D9046"/>
<path d="M193.081 157.066C192.921 157.066 192.757 157.04 192.593 156.99C193.169 154.793 193.462 152.434 193.41 149.977C193.812 150.373 194.149 150.876 194.409 151.434C194.249 153.4 193.872 155.282 193.314 157.048C193.237 157.06 193.16 157.066 193.081 157.066Z" fill="#3A5928"/>
<path d="M193.7 147.428C193.55 147.428 193.385 147.376 193.214 147.27C193.07 146.093 192.844 144.901 192.532 143.701C192.537 143.7 192.542 143.7 192.546 143.7C192.698 143.7 192.87 143.749 193.057 143.855C193.536 144.124 193.969 144.717 194.208 145.361C194.274 145.813 194.328 146.264 194.371 146.711C194.286 147.179 194.03 147.428 193.7 147.428Z" fill="#3A5928"/>
<path d="M182.244 160.078C185.673 155.097 186.242 146.233 180.199 138.549C183.815 138.374 187.679 138.97 191.477 140.446C195.55 150.886 192.774 161.132 187.169 166.783C186.029 163.895 184.258 161.633 182.244 160.078Z" fill="#A7C05D"/>
<path d="M182.829 160.044C186.098 155.075 186.669 146.595 181.232 139.018C184.401 138.998 187.738 139.579 191.033 140.828C194.807 150.676 192.388 160.332 187.29 165.893C186.174 163.434 184.6 161.467 182.829 160.044Z" fill="#4E7735"/>
<path d="M188.407 161.152C188.781 160.464 189.285 160.05 189.826 159.976C191.481 156.261 192.188 151.732 191.474 146.934C190.804 146.014 190.229 144.945 189.94 143.93C189.652 142.907 189.296 141.881 188.867 140.859C187.273 140.378 185.679 140.054 184.11 139.878C184.63 140.779 185.078 141.692 185.459 142.606C185.827 143.494 185.719 144.203 185.33 144.602C186.697 148.776 186.648 152.867 185.643 156.265C185.889 156.932 185.901 157.703 185.63 158.331C185.274 159.161 184.861 159.942 184.401 160.667C185.278 161.518 186.09 162.511 186.803 163.637C187.389 162.868 187.926 162.038 188.407 161.152Z" fill="#A7C05D"/>
<path d="M188.538 155.442C187.057 154.279 185.973 152.407 185.919 150.751C185.867 149.114 187.093 148.093 188.961 148.965C190.83 149.824 192.275 152.538 191.928 154.467C191.59 156.405 190.005 156.591 188.538 155.442Z" fill="#4E7735"/>
<path d="M188.374 146.53C187.624 146.228 186.858 145.34 186.584 144.478C186.312 143.62 186.684 143.056 187.5 143.284C188.315 143.511 189.209 144.508 189.414 145.441C189.62 146.376 189.12 146.829 188.374 146.53Z" fill="#4E7735"/>
<path d="M186.866 159.56C186.385 159.073 186.212 158.206 186.454 157.525C186.697 156.846 187.313 156.583 187.864 157.034C188.416 157.483 188.635 158.507 188.321 159.221C188.008 159.937 187.347 160.044 186.866 159.56Z" fill="#4E7735"/>
<path d="M187.167 166.778C186.67 165.52 186.055 164.382 185.351 163.369C186.055 164.382 186.671 165.52 187.167 166.778ZM185.293 163.286C185.29 163.282 185.288 163.278 185.285 163.274C185.288 163.278 185.29 163.282 185.293 163.286ZM185.243 163.215C185.241 163.213 185.239 163.21 185.238 163.208C185.24 163.21 185.241 163.212 185.243 163.215ZM185.222 163.186C185.221 163.184 185.22 163.183 185.218 163.181C185.22 163.183 185.221 163.185 185.222 163.186ZM185.202 163.159C185.202 163.158 185.2 163.156 185.2 163.154C185.2 163.156 185.202 163.157 185.202 163.159ZM185.162 163.102C185.161 163.102 185.162 163.102 185.161 163.102H185.162ZM182.254 160.063C182.256 160.06 182.257 160.059 182.258 160.057C182.258 160.058 182.256 160.061 182.254 160.063ZM182.294 160.005C182.296 160.003 182.297 160.001 182.298 159.999C182.297 160.001 182.296 160.003 182.294 160.005ZM182.304 159.99C182.306 159.988 182.307 159.986 182.308 159.985C182.306 159.987 182.306 159.988 182.304 159.99ZM182.344 159.931C182.345 159.929 182.346 159.927 182.348 159.924C182.347 159.927 182.345 159.929 182.344 159.931ZM182.392 159.858C182.394 159.855 182.395 159.853 182.397 159.851C182.396 159.853 182.394 159.856 182.392 159.858ZM182.412 159.828C182.413 159.826 182.414 159.824 182.416 159.821C182.415 159.823 182.413 159.826 182.412 159.828ZM182.422 159.813C182.423 159.811 182.424 159.809 182.426 159.806C182.424 159.808 182.423 159.811 182.422 159.813ZM182.479 159.724C182.48 159.721 182.482 159.719 182.483 159.716C182.482 159.719 182.481 159.721 182.479 159.724ZM182.507 159.679C182.509 159.677 182.511 159.673 182.512 159.671C182.511 159.674 182.509 159.676 182.507 159.679ZM182.517 159.664C182.519 159.661 182.52 159.658 182.522 159.656C182.52 159.659 182.519 159.661 182.517 159.664ZM182.555 159.603C182.557 159.601 182.558 159.598 182.56 159.595C182.558 159.598 182.556 159.601 182.555 159.603ZM182.592 159.543C182.594 159.539 182.595 159.537 182.597 159.534C182.596 159.537 182.594 159.54 182.592 159.543ZM182.62 159.497C182.622 159.495 182.623 159.491 182.625 159.489C182.623 159.491 182.621 159.495 182.62 159.497ZM182.629 159.482C182.631 159.479 182.633 159.476 182.635 159.473C182.633 159.476 182.631 159.479 182.629 159.482ZM182.666 159.421C182.668 159.417 182.67 159.415 182.672 159.411C182.67 159.415 182.668 159.418 182.666 159.421ZM182.675 159.406C182.677 159.403 182.679 159.399 182.681 159.396C182.679 159.399 182.677 159.403 182.675 159.406ZM182.685 159.391C182.686 159.387 182.689 159.384 182.69 159.381C182.688 159.384 182.686 159.387 182.685 159.391ZM182.693 159.375C182.695 159.371 182.697 159.369 182.699 159.365C182.697 159.369 182.695 159.372 182.693 159.375ZM182.703 159.36C182.705 159.357 182.707 159.353 182.709 159.349C182.707 159.353 182.705 159.356 182.703 159.36ZM182.72 159.33C182.723 159.326 182.725 159.323 182.727 159.318C182.725 159.322 182.722 159.326 182.72 159.33ZM182.729 159.315C182.731 159.311 182.734 159.307 182.736 159.303C182.733 159.307 182.731 159.311 182.729 159.315ZM182.738 159.299C182.741 159.295 182.743 159.291 182.745 159.287C182.743 159.291 182.741 159.295 182.738 159.299ZM182.965 158.894C182.969 158.889 182.971 158.884 182.974 158.879C182.971 158.884 182.968 158.889 182.965 158.894ZM182.983 158.862C185.673 153.832 185.774 145.929 180.492 138.928C185.775 145.93 185.673 153.832 182.983 158.862Z" fill="#BFBFBF"/>
<path d="M187.167 166.778C186.671 165.52 186.055 164.382 185.351 163.369C185.351 163.369 185.351 163.368 185.35 163.368C185.338 163.35 185.326 163.332 185.313 163.315V163.314C185.31 163.31 185.307 163.306 185.304 163.302C185.304 163.301 185.303 163.3 185.303 163.3C185.3 163.296 185.297 163.292 185.294 163.288C185.294 163.287 185.293 163.286 185.293 163.286C185.29 163.282 185.288 163.278 185.285 163.274C185.284 163.274 185.284 163.272 185.283 163.272C185.28 163.268 185.278 163.264 185.276 163.261C185.275 163.26 185.274 163.258 185.273 163.258C185.27 163.254 185.268 163.251 185.266 163.248C185.265 163.246 185.264 163.245 185.263 163.243C185.261 163.24 185.259 163.238 185.256 163.234C185.255 163.232 185.254 163.231 185.252 163.229C185.251 163.226 185.249 163.224 185.247 163.221C185.246 163.219 185.244 163.217 185.243 163.215C185.241 163.212 185.24 163.21 185.238 163.208C185.236 163.205 185.234 163.203 185.232 163.2C185.231 163.198 185.23 163.196 185.228 163.194C185.226 163.192 185.224 163.189 185.222 163.186C185.221 163.185 185.22 163.183 185.218 163.181C185.216 163.178 185.214 163.176 185.212 163.173C185.212 163.171 185.21 163.17 185.209 163.168C185.207 163.165 185.204 163.162 185.202 163.159C185.202 163.157 185.2 163.156 185.2 163.154C185.197 163.151 185.194 163.148 185.192 163.144C185.192 163.144 185.191 163.142 185.19 163.141C185.187 163.138 185.184 163.134 185.182 163.131C185.182 163.13 185.181 163.129 185.18 163.129C185.178 163.124 185.174 163.12 185.171 163.116V163.115C185.168 163.111 185.164 163.107 185.162 163.102H185.161C184.293 161.906 183.302 160.894 182.244 160.077C182.248 160.072 182.251 160.068 182.254 160.063C182.256 160.061 182.258 160.058 182.258 160.057C182.26 160.054 182.262 160.051 182.264 160.049C182.266 160.047 182.267 160.045 182.268 160.043C182.27 160.04 182.272 160.037 182.274 160.034C182.276 160.032 182.277 160.03 182.278 160.028C182.28 160.025 182.282 160.023 182.284 160.019C182.286 160.017 182.287 160.015 182.288 160.013C182.29 160.011 182.292 160.008 182.294 160.005C182.296 160.003 182.297 160.001 182.298 159.999C182.3 159.996 182.302 159.993 182.304 159.99C182.306 159.988 182.306 159.987 182.308 159.985C182.31 159.981 182.312 159.979 182.314 159.975C182.316 159.973 182.316 159.972 182.318 159.969C182.32 159.967 182.322 159.963 182.324 159.961C182.325 159.959 182.326 159.957 182.328 159.955C182.33 159.952 182.332 159.949 182.334 159.946C182.335 159.944 182.336 159.942 182.338 159.94C182.34 159.937 182.342 159.935 182.344 159.931C182.345 159.929 182.347 159.927 182.348 159.924C182.35 159.922 182.352 159.919 182.353 159.917C182.355 159.915 182.356 159.912 182.358 159.909C182.36 159.907 182.361 159.905 182.363 159.902C182.364 159.9 182.366 159.897 182.368 159.895C182.37 159.893 182.371 159.89 182.373 159.887C182.374 159.885 182.376 159.883 182.378 159.88C182.379 159.878 182.381 159.875 182.382 159.873C182.384 159.871 182.386 159.867 182.388 159.865C182.389 159.863 182.39 159.86 182.392 159.858C182.394 159.856 182.396 159.853 182.397 159.851C182.398 159.849 182.4 159.845 182.402 159.843C182.404 159.841 182.405 159.839 182.406 159.836C182.408 159.833 182.41 159.831 182.412 159.828C182.413 159.826 182.415 159.823 182.416 159.821C182.418 159.819 182.42 159.816 182.422 159.813C182.423 159.811 182.424 159.808 182.426 159.806C182.428 159.803 182.429 159.801 182.431 159.799C182.432 159.796 182.434 159.793 182.436 159.791C182.438 159.789 182.439 159.787 182.44 159.783C182.442 159.781 182.444 159.779 182.446 159.776C182.447 159.774 182.449 159.771 182.45 159.769C182.452 159.766 182.453 159.764 182.455 159.761C182.456 159.759 182.458 159.756 182.46 159.754C182.462 159.751 182.463 159.749 182.464 159.747C182.466 159.744 182.468 159.741 182.47 159.739C182.471 159.736 182.472 159.734 182.474 159.731C182.476 159.729 182.478 159.726 182.479 159.724C182.481 159.721 182.482 159.719 182.483 159.716C182.485 159.714 182.487 159.711 182.488 159.709C182.49 159.707 182.491 159.704 182.493 159.701C182.495 159.699 182.496 159.697 182.498 159.694C182.499 159.691 182.501 159.689 182.503 159.686C182.504 159.683 182.506 159.681 182.507 159.679C182.509 159.676 182.511 159.674 182.512 159.671C182.514 159.669 182.515 159.667 182.517 159.664C182.519 159.661 182.52 159.659 182.522 159.656C182.523 159.653 182.525 159.651 182.526 159.649C182.528 159.646 182.529 159.643 182.531 159.641C182.533 159.639 182.534 159.636 182.536 159.633C182.537 159.631 182.539 159.628 182.541 159.626C182.542 159.623 182.544 159.621 182.545 159.619C182.547 159.616 182.549 159.613 182.55 159.611C182.551 159.609 182.553 159.606 182.555 159.603C182.556 159.601 182.558 159.598 182.56 159.595C182.561 159.593 182.563 159.591 182.564 159.588C182.566 159.585 182.567 159.583 182.569 159.58C182.571 159.578 182.572 159.575 182.573 159.573C182.575 159.571 182.577 159.568 182.579 159.565C182.58 159.563 182.581 159.56 182.583 159.558C182.585 159.555 182.586 159.553 182.588 159.55C182.589 159.548 182.591 159.545 182.592 159.543C182.594 159.54 182.596 159.537 182.597 159.534C182.599 159.532 182.6 159.53 182.601 159.528C182.603 159.525 182.605 159.522 182.607 159.519C182.608 159.517 182.609 159.515 182.611 159.513C182.613 159.51 182.614 159.507 182.616 159.503C182.617 159.501 182.619 159.499 182.62 159.497C182.621 159.495 182.623 159.491 182.625 159.489C182.627 159.487 182.628 159.484 182.629 159.482C182.631 159.479 182.633 159.476 182.635 159.473C182.636 159.471 182.637 159.469 182.638 159.467C182.64 159.464 182.642 159.461 182.644 159.457C182.645 159.456 182.647 159.454 182.647 159.452C182.649 159.449 182.651 159.445 182.653 159.442C182.655 159.44 182.655 159.439 182.657 159.437C182.659 159.433 182.661 159.43 182.663 159.427C182.663 159.425 182.665 159.423 182.666 159.421C182.668 159.418 182.67 159.415 182.672 159.411C182.673 159.409 182.674 159.408 182.675 159.406C182.677 159.403 182.679 159.399 182.681 159.396C182.682 159.394 182.683 159.392 182.685 159.391C182.686 159.387 182.688 159.384 182.69 159.381C182.691 159.379 182.693 159.377 182.693 159.375C182.695 159.372 182.697 159.369 182.699 159.365C182.7 159.363 182.701 159.362 182.703 159.36C182.705 159.356 182.707 159.353 182.709 159.349C182.709 159.348 182.71 159.347 182.711 159.346C182.713 159.342 182.715 159.338 182.718 159.334C182.719 159.333 182.719 159.331 182.72 159.33C182.722 159.326 182.725 159.322 182.727 159.318C182.727 159.317 182.728 159.316 182.729 159.315C182.731 159.311 182.733 159.307 182.736 159.303C182.737 159.302 182.737 159.301 182.738 159.299C182.741 159.295 182.743 159.291 182.745 159.287C182.745 159.287 182.745 159.287 182.746 159.287C182.749 159.282 182.751 159.277 182.754 159.272C182.755 159.272 182.755 159.271 182.755 159.271C182.761 159.261 182.767 159.251 182.772 159.241C182.773 159.24 182.773 159.24 182.773 159.24C182.821 159.158 182.867 159.074 182.913 158.99V158.99C182.925 158.969 182.937 158.948 182.948 158.927V158.926C182.954 158.916 182.959 158.906 182.965 158.895V158.894C182.968 158.889 182.971 158.884 182.974 158.879V158.878C182.977 158.874 182.979 158.868 182.982 158.863C182.983 158.863 182.983 158.862 182.983 158.862C185.673 153.832 185.775 145.93 180.492 138.928C180.758 138.92 181.025 138.916 181.295 138.916C184.006 138.916 186.831 139.33 189.653 140.209C189.678 140.262 189.703 140.314 189.728 140.368C186.914 139.453 184.089 139.016 181.385 139.016C181.334 139.016 181.283 139.016 181.232 139.017C186.669 146.594 186.098 155.074 182.829 160.043C184.6 161.467 186.174 163.433 187.29 165.892C188.778 164.269 190.038 162.297 190.982 160.072C190.084 162.635 188.775 164.916 187.167 166.778Z" fill="#7D9046"/>
<path d="M187.29 165.893C186.174 163.434 184.6 161.467 182.829 160.044C186.098 155.075 186.669 146.595 181.232 139.018C181.283 139.017 181.334 139.017 181.385 139.017C184.089 139.017 186.914 139.454 189.728 140.369C192.956 147.32 192.976 154.389 190.982 160.073C190.037 162.298 188.778 164.27 187.29 165.893ZM186.324 152.521C186.224 153.835 185.991 155.091 185.643 156.265C185.889 156.932 185.901 157.704 185.63 158.331C185.274 159.162 184.861 159.943 184.401 160.668C185.278 161.519 186.09 162.511 186.804 163.637C187.389 162.869 187.926 162.038 188.407 161.152C188.781 160.465 189.285 160.05 189.826 159.977C190.396 158.698 190.854 157.323 191.179 155.872C191.541 155.605 191.811 155.142 191.928 154.468C192.049 153.796 191.953 153.029 191.697 152.279C191.812 150.557 191.746 148.765 191.474 146.934C190.804 146.014 190.229 144.945 189.94 143.93C189.652 142.907 189.296 141.881 188.867 140.86C187.273 140.379 185.679 140.054 184.11 139.879C184.63 140.78 185.078 141.692 185.459 142.607C185.827 143.495 185.719 144.204 185.33 144.602C185.853 146.198 186.168 147.782 186.303 149.319C186.038 149.687 185.901 150.182 185.919 150.752C185.938 151.328 186.081 151.932 186.324 152.521Z" fill="#3A5928"/>
<path d="M186.803 163.637C186.09 162.511 185.278 161.518 184.401 160.667C184.861 159.942 185.274 159.161 185.63 158.331C185.901 157.703 185.889 156.932 185.643 156.265C185.991 155.091 186.224 153.835 186.324 152.521C186.776 153.625 187.573 154.685 188.538 155.442C189.132 155.907 189.745 156.154 190.287 156.154C190.618 156.154 190.922 156.062 191.179 155.872C190.854 157.322 190.396 158.698 189.826 159.976C189.285 160.05 188.781 160.464 188.407 161.152C187.926 162.038 187.389 162.868 186.803 163.637ZM187.297 156.81C186.937 156.81 186.614 157.077 186.454 157.525C186.212 158.206 186.385 159.073 186.866 159.56C187.062 159.756 187.287 159.856 187.507 159.856C187.827 159.856 188.135 159.646 188.321 159.221C188.635 158.507 188.416 157.483 187.864 157.034C187.676 156.881 187.482 156.81 187.297 156.81ZM191.697 152.278C191.218 150.874 190.179 149.525 188.961 148.966C188.491 148.746 188.061 148.647 187.682 148.647C187.081 148.647 186.607 148.898 186.303 149.319C186.168 147.782 185.853 146.198 185.33 144.602C185.719 144.203 185.827 143.494 185.459 142.606C185.078 141.692 184.63 140.779 184.11 139.878C185.679 140.054 187.273 140.378 188.867 140.859C189.296 141.881 189.652 142.907 189.94 143.93C190.229 144.945 190.804 146.014 191.474 146.934C191.746 148.764 191.812 150.556 191.697 152.278ZM187.161 143.234C186.586 143.234 186.354 143.749 186.584 144.478C186.858 145.34 187.624 146.228 188.374 146.529C188.528 146.591 188.672 146.621 188.801 146.621C189.297 146.621 189.578 146.182 189.414 145.441C189.209 144.508 188.315 143.511 187.501 143.284C187.377 143.25 187.263 143.234 187.161 143.234Z" fill="#7D9046"/>
<path d="M190.287 156.154C189.745 156.154 189.132 155.907 188.538 155.442C187.573 154.684 186.776 153.625 186.324 152.52C186.081 151.931 185.938 151.328 185.919 150.751C185.901 150.181 186.038 149.686 186.303 149.319C186.607 148.897 187.081 148.646 187.682 148.646C188.061 148.646 188.491 148.746 188.961 148.965C190.179 149.525 191.218 150.873 191.697 152.278C191.953 153.028 192.049 153.795 191.928 154.467C191.811 155.141 191.541 155.604 191.179 155.872C190.922 156.062 190.618 156.154 190.287 156.154Z" fill="#3A5928"/>
<path d="M188.801 146.621C188.672 146.621 188.528 146.591 188.374 146.529C187.624 146.228 186.858 145.34 186.584 144.478C186.354 143.749 186.586 143.233 187.161 143.233C187.263 143.233 187.377 143.249 187.501 143.284C188.316 143.511 189.209 144.508 189.414 145.441C189.578 146.182 189.297 146.621 188.801 146.621Z" fill="#3A5928"/>
<path d="M187.507 159.856C187.287 159.856 187.062 159.756 186.866 159.56C186.385 159.073 186.212 158.206 186.454 157.525C186.614 157.077 186.937 156.81 187.297 156.81C187.482 156.81 187.677 156.881 187.864 157.034C188.416 157.483 188.635 158.507 188.321 159.221C188.135 159.646 187.827 159.856 187.507 159.856Z" fill="#3A5928"/>
<path d="M181.489 160.683C184.354 155.359 183.953 146.485 177.108 139.506C180.684 138.937 184.589 139.109 188.526 140.162C193.713 150.096 192.071 160.584 187.115 166.812C185.667 164.065 183.66 162.009 181.489 160.683Z" fill="#A7C05D"/>
<path d="M182.066 160.586C184.774 155.289 184.417 146.798 178.187 139.859C181.334 139.494 184.716 139.707 188.126 140.59C192.952 149.968 191.599 159.83 187.138 165.913C185.76 163.591 183.981 161.807 182.066 160.586Z" fill="#4E7735"/>
<path d="M187.732 161.08C188.028 160.355 188.484 159.888 189.014 159.757C190.255 155.884 190.463 151.304 189.231 146.612C188.464 145.771 187.776 144.771 187.379 143.793C186.981 142.808 186.514 141.827 185.977 140.857C184.34 140.553 182.72 140.404 181.141 140.401C181.756 141.241 182.302 142.098 182.78 142.967C183.242 143.809 183.212 144.525 182.869 144.964C184.683 148.965 185.08 153.036 184.452 156.523C184.769 157.159 184.864 157.925 184.664 158.578C184.401 159.443 184.075 160.264 183.697 161.035C184.662 161.785 185.577 162.683 186.408 163.725C186.906 162.897 187.351 162.013 187.732 161.08Z" fill="#A7C05D"/>
<path d="M187.239 155.39C185.641 154.395 184.358 152.652 184.125 151.012C183.894 149.391 185.002 148.242 186.954 148.906C188.906 149.555 190.638 152.095 190.503 154.051C190.379 156.014 188.823 156.372 187.239 155.39Z" fill="#4E7735"/>
<path d="M186.104 146.548C185.327 146.33 184.468 145.531 184.102 144.705C183.738 143.88 184.046 143.279 184.882 143.418C185.717 143.554 186.715 144.448 187.019 145.353C187.327 146.259 186.879 146.765 186.104 146.548Z" fill="#4E7735"/>
<path d="M186.026 159.665C185.495 159.233 185.229 158.39 185.395 157.687C185.563 156.986 186.146 156.658 186.743 157.046C187.341 157.432 187.67 158.426 187.435 159.169C187.203 159.916 186.556 160.094 186.026 159.665Z" fill="#4E7735"/>
<path d="M339.146 115.264C344.533 112.517 349.253 104.992 347.597 95.3581C350.86 96.9254 353.974 99.2898 356.611 102.396C355.223 113.516 347.904 121.205 340.285 123.506C340.658 120.423 340.177 117.59 339.146 115.264Z" fill="#A7C05D"/>
<path d="M339.676 115.513C344.917 112.699 349.457 105.514 348.283 96.2623C351.078 97.7543 353.738 99.8533 356.039 102.521C354.671 112.978 347.945 120.317 340.815 122.781C341.004 120.087 340.556 117.608 339.676 115.513Z" fill="#4E7735"/>
<path d="M344.055 119.144C344.71 118.717 345.351 118.592 345.862 118.785C349.086 116.307 351.864 112.66 353.52 108.1C353.369 106.973 353.373 105.759 353.602 104.728C353.835 103.692 354.011 102.62 354.12 101.517C352.948 100.335 351.7 99.291 350.404 98.3897C350.432 99.4301 350.392 100.446 350.291 101.431C350.192 102.387 349.759 102.959 349.228 103.124C348.442 107.447 346.451 111.02 343.951 113.53C343.849 114.234 343.492 114.918 342.955 115.341C342.246 115.902 341.512 116.392 340.762 116.811C341.129 117.977 341.371 119.236 341.461 120.566C342.341 120.168 343.21 119.695 344.055 119.144Z" fill="#A7C05D"/>
<path d="M346.888 114.185C346.139 112.457 346.077 110.294 346.817 108.813C347.551 107.349 349.115 107.034 350.343 108.691C351.578 110.335 351.557 113.41 350.333 114.941C349.113 116.484 347.631 115.894 346.888 114.185Z" fill="#4E7735"/>
<path d="M350.987 106.268C350.471 105.646 350.22 104.5 350.389 103.612C350.559 102.727 351.154 102.409 351.763 102.998C352.372 103.586 352.684 104.889 352.419 105.806C352.156 106.726 351.5 106.887 350.987 106.268Z" fill="#4E7735"/>
<path d="M343.458 117.01C343.266 116.353 343.527 115.508 344.064 115.024C344.6 114.543 345.267 114.605 345.537 115.264C345.809 115.921 345.514 116.926 344.898 117.404C344.282 117.885 343.649 117.664 343.458 117.01Z" fill="#4E7735"/>
<mask id="mask1_1341_14749" style="mask-type:luminance" maskUnits="userSpaceOnUse" x="347" y="96" width="1" height="2">
<path d="M347.846 97.2606C347.845 97.2605 347.845 97.2605 347.845 97.2603C347.834 97.1369 347.822 97.0132 347.809 96.8893C347.809 96.8895 347.809 96.8895 347.81 96.8896C347.823 97.0142 347.835 97.1372 347.846 97.2606Z" fill="white"/>
</mask>
<g mask="url(#mask1_1341_14749)">
<path d="M347.72 97.2278L347.846 97.2606L347.934 96.9216L347.809 96.8888L347.72 97.2278Z" fill="#BFBFBF"/>
</g>
<path d="M340.892 123.311C341.487 122.927 342.068 122.503 342.632 122.042C342.961 121.889 343.287 121.725 343.612 121.551C342.846 122.164 342.052 122.711 341.237 123.189C341.123 123.231 341.007 123.271 340.892 123.311ZM348.412 97.5752C348.224 97.4682 348.035 97.3637 347.846 97.262C347.835 97.1385 347.823 97.0156 347.81 96.891C348.001 96.9934 348.193 97.0977 348.383 97.2053C348.394 97.3287 348.404 97.4524 348.412 97.5752Z" fill="#7D9046"/>
<path d="M342.632 122.042C343.784 121.103 344.865 120.009 345.847 118.78C345.852 118.782 345.857 118.784 345.862 118.785C346.555 118.254 347.226 117.667 347.871 117.029C346.616 118.781 345.174 120.301 343.612 121.551C343.287 121.725 342.961 121.889 342.632 122.042ZM350.411 98.8206C349.755 98.3736 349.087 97.9581 348.412 97.5752C348.404 97.4524 348.394 97.3287 348.383 97.2052C349.066 97.5897 349.741 98.0078 350.406 98.4596C350.409 98.5802 350.41 98.7005 350.411 98.8206Z" fill="#3A5928"/>
<path d="M345.862 118.785C345.857 118.783 345.852 118.782 345.847 118.78C346.631 117.799 347.352 116.732 347.995 115.589C348.141 115.679 348.293 115.746 348.448 115.787C348.524 115.806 348.601 115.82 348.678 115.827C348.419 116.238 348.15 116.64 347.871 117.028C347.226 117.667 346.555 118.253 345.862 118.785ZM351.156 110.672C351.046 110.067 350.847 109.495 350.558 109.011C350.765 108.144 350.931 107.254 351.053 106.342C351.191 106.488 351.338 106.58 351.483 106.618C351.802 106.701 352.113 106.525 352.313 106.093C352.055 107.695 351.663 109.224 351.156 110.672ZM352.497 104.747C352.428 104.063 352.159 103.38 351.764 102.998C351.609 102.849 351.455 102.757 351.309 102.719C351.304 102.718 351.3 102.717 351.295 102.716C351.297 101.601 351.232 100.461 351.097 99.3005C350.869 99.1365 350.641 98.9763 350.411 98.8199C350.41 98.6998 350.409 98.5795 350.406 98.4589C351.164 98.9738 351.908 99.5325 352.633 100.135C352.713 101.723 352.662 103.262 352.497 104.747Z" fill="#7D9046"/>
<path d="M348.448 115.788C348.293 115.747 348.141 115.68 347.995 115.59C349.108 113.611 349.987 111.401 350.558 109.012C350.847 109.496 351.045 110.068 351.156 110.673C350.504 112.535 349.664 114.261 348.678 115.828C348.6 115.821 348.524 115.807 348.448 115.788Z" fill="#3A5928"/>
<path d="M351.483 106.618C351.337 106.58 351.191 106.488 351.052 106.343C351.21 105.168 351.293 103.957 351.294 102.716C351.3 102.717 351.304 102.718 351.309 102.719C351.455 102.758 351.609 102.849 351.763 102.999C352.159 103.38 352.428 104.063 352.497 104.747C352.447 105.201 352.385 105.651 352.313 106.093C352.113 106.525 351.802 106.702 351.483 106.618Z" fill="#3A5928"/>
<path d="M337.202 115.961C341.778 112.009 344.569 103.576 340.664 94.6143C344.207 95.3587 347.795 96.9123 351.097 99.3004C352.398 110.431 347.123 119.643 340.272 123.693C339.899 120.611 338.757 117.975 337.202 115.961Z" fill="#A7C05D"/>
<path d="M337.776 116.077C342.195 112.095 344.891 104.034 341.545 95.3294C344.617 96.1117 347.699 97.5168 350.571 99.5584C351.733 110.04 346.952 118.771 340.614 122.863C340.156 120.202 339.13 117.901 337.776 116.077Z" fill="#4E7735"/>
<path d="M342.893 118.559C343.428 117.988 344.021 117.714 344.563 117.78C347.104 114.604 348.932 110.4 349.454 105.578C349.039 104.518 348.753 103.338 348.729 102.283C348.709 101.221 348.624 100.138 348.467 99.0412C347.047 98.1728 345.586 97.456 344.112 96.8897C344.388 97.8928 344.591 98.8888 344.728 99.8704C344.86 100.822 344.576 101.481 344.099 101.768C344.366 106.153 343.285 110.099 341.454 113.131C341.524 113.839 341.34 114.588 340.919 115.127C340.365 115.841 339.768 116.492 339.14 117.077C339.773 118.122 340.308 119.288 340.713 120.557C341.474 119.962 342.204 119.295 342.893 118.559Z" fill="#A7C05D"/>
<path d="M344.463 113.067C343.324 111.567 342.748 109.482 343.114 107.866C343.478 106.269 344.923 105.591 346.509 106.907C348.101 108.21 348.813 111.202 347.989 112.98C347.172 114.77 345.592 114.549 344.463 113.067Z" fill="#4E7735"/>
<path d="M346.557 104.402C345.908 103.921 345.391 102.868 345.344 101.965C345.298 101.066 345.8 100.614 346.532 101.042C347.263 101.467 347.876 102.658 347.838 103.612C347.802 104.568 347.203 104.881 346.557 104.402Z" fill="#4E7735"/>
<path d="M341.804 116.628C341.462 116.035 341.514 115.153 341.92 114.555C342.327 113.96 342.989 113.861 343.409 114.437C343.829 115.01 343.782 116.056 343.298 116.668C342.814 117.282 342.147 117.218 341.804 116.628Z" fill="#4E7735"/>
<path d="M340.271 123.689C340.108 122.347 339.8 121.09 339.375 119.932C339.8 121.09 340.109 122.347 340.271 123.689ZM339.34 119.837C339.339 119.832 339.337 119.829 339.336 119.824C339.337 119.829 339.339 119.833 339.34 119.837ZM339.31 119.756C339.309 119.754 339.307 119.751 339.307 119.748C339.308 119.751 339.309 119.753 339.31 119.756ZM339.297 119.723C339.296 119.721 339.295 119.719 339.295 119.717C339.295 119.719 339.296 119.721 339.297 119.723ZM339.285 119.692C339.284 119.69 339.284 119.688 339.283 119.686C339.283 119.689 339.285 119.69 339.285 119.692ZM339.26 119.626C339.259 119.626 339.26 119.626 339.259 119.626L339.26 119.626ZM337.215 115.951C337.217 115.949 337.219 115.948 337.22 115.946C337.219 115.947 337.217 115.949 337.215 115.951ZM337.268 115.904C337.27 115.903 337.272 115.901 337.274 115.9C337.272 115.902 337.27 115.903 337.268 115.904ZM337.282 115.893C337.284 115.891 337.285 115.89 337.287 115.889C337.285 115.89 337.284 115.891 337.282 115.893ZM337.335 115.846C337.337 115.844 337.338 115.842 337.341 115.84C337.339 115.842 337.336 115.844 337.335 115.846ZM337.4 115.787C337.402 115.785 337.404 115.783 337.407 115.781C337.405 115.784 337.402 115.786 337.4 115.787ZM337.427 115.763C337.428 115.762 337.43 115.76 337.433 115.758C337.431 115.76 337.428 115.762 337.427 115.763ZM337.44 115.752C337.442 115.749 337.444 115.748 337.446 115.746C337.444 115.747 337.442 115.75 337.44 115.752ZM337.518 115.68C337.52 115.677 337.523 115.675 337.524 115.673C337.523 115.675 337.521 115.678 337.518 115.68ZM337.557 115.643C337.559 115.641 337.562 115.639 337.563 115.637C337.562 115.639 337.56 115.641 337.557 115.643ZM337.57 115.631C337.572 115.629 337.575 115.626 337.577 115.625C337.574 115.627 337.573 115.628 337.57 115.631ZM337.622 115.582C337.625 115.58 337.626 115.578 337.629 115.576C337.626 115.578 337.624 115.58 337.622 115.582ZM337.673 115.533C337.676 115.53 337.678 115.529 337.681 115.526C337.679 115.528 337.676 115.531 337.673 115.533ZM337.712 115.496C337.714 115.494 337.717 115.491 337.719 115.489C337.717 115.491 337.714 115.494 337.712 115.496ZM337.725 115.484C337.727 115.482 337.73 115.479 337.732 115.476C337.73 115.479 337.727 115.481 337.725 115.484ZM337.776 115.434C337.779 115.431 337.781 115.429 337.784 115.426C337.781 115.429 337.778 115.432 337.776 115.434ZM337.788 115.422C337.791 115.419 337.793 115.416 337.796 115.413C337.794 115.416 337.79 115.42 337.788 115.422ZM337.801 115.409C337.804 115.406 337.807 115.404 337.809 115.401C337.806 115.404 337.804 115.406 337.801 115.409ZM337.814 115.397C337.817 115.393 337.819 115.391 337.822 115.388C337.819 115.391 337.816 115.394 337.814 115.397ZM337.827 115.384C337.829 115.381 337.832 115.378 337.835 115.375C337.832 115.379 337.829 115.381 337.827 115.384ZM337.851 115.36C337.854 115.356 337.857 115.354 337.861 115.35C337.857 115.353 337.854 115.356 337.851 115.36ZM337.863 115.348C337.867 115.344 337.87 115.341 337.873 115.338C337.869 115.341 337.867 115.344 337.863 115.348ZM337.876 115.334C337.88 115.331 337.883 115.328 337.886 115.325C337.883 115.327 337.88 115.331 337.876 115.334ZM338.198 115C338.203 114.996 338.206 114.992 338.211 114.987C338.207 114.992 338.202 114.995 338.198 115ZM338.223 114.973C342.097 110.786 344.193 103.166 340.851 95.0569C344.193 103.167 342.097 110.786 338.223 114.973Z" fill="#BFBFBF"/>
<path d="M340.271 123.689C340.109 122.347 339.8 121.09 339.375 119.932C339.375 119.932 339.376 119.932 339.375 119.931C339.368 119.911 339.36 119.89 339.352 119.87L339.353 119.87C339.35 119.864 339.349 119.86 339.347 119.855C339.347 119.855 339.346 119.854 339.347 119.853C339.345 119.849 339.343 119.844 339.341 119.839C339.341 119.838 339.34 119.838 339.34 119.837C339.339 119.833 339.337 119.829 339.336 119.824C339.335 119.823 339.335 119.822 339.334 119.821C339.333 119.817 339.331 119.813 339.33 119.809C339.329 119.808 339.329 119.806 339.328 119.805C339.326 119.801 339.325 119.797 339.324 119.794C339.323 119.792 339.322 119.79 339.322 119.788C339.321 119.785 339.32 119.782 339.318 119.778C339.317 119.776 339.316 119.774 339.315 119.772C339.315 119.769 339.314 119.766 339.312 119.763C339.311 119.761 339.311 119.758 339.31 119.756C339.309 119.753 339.308 119.751 339.307 119.748C339.305 119.745 339.305 119.742 339.303 119.739C339.303 119.737 339.302 119.735 339.301 119.732C339.3 119.729 339.298 119.726 339.297 119.723C339.296 119.721 339.295 119.719 339.295 119.717C339.293 119.714 339.292 119.711 339.291 119.708C339.291 119.706 339.29 119.704 339.289 119.702C339.288 119.699 339.286 119.695 339.285 119.692C339.285 119.69 339.283 119.689 339.283 119.686C339.282 119.683 339.28 119.679 339.279 119.675C339.278 119.674 339.278 119.673 339.277 119.671C339.275 119.667 339.274 119.663 339.273 119.659C339.272 119.658 339.272 119.657 339.271 119.656C339.27 119.651 339.268 119.647 339.265 119.642L339.266 119.641C339.264 119.636 339.261 119.631 339.26 119.626L339.259 119.626C338.722 118.25 338.019 117.02 337.202 115.962C337.206 115.958 337.211 115.955 337.215 115.951C337.217 115.949 337.219 115.947 337.22 115.946C337.223 115.944 337.226 115.941 337.228 115.939C337.23 115.938 337.232 115.936 337.234 115.935C337.236 115.933 337.239 115.93 337.242 115.928C337.243 115.926 337.245 115.925 337.247 115.923C337.25 115.921 337.252 115.919 337.255 115.916C337.257 115.914 337.259 115.913 337.26 115.911C337.263 115.909 337.266 115.907 337.268 115.904C337.27 115.903 337.272 115.902 337.274 115.9C337.276 115.898 337.279 115.895 337.282 115.893C337.284 115.891 337.285 115.89 337.287 115.889C337.29 115.886 337.292 115.884 337.295 115.881C337.297 115.879 337.298 115.878 337.3 115.876C337.303 115.874 337.306 115.871 337.308 115.869C337.31 115.868 337.312 115.866 337.314 115.865C337.316 115.862 337.319 115.86 337.321 115.858C337.323 115.856 337.325 115.854 337.327 115.853C337.329 115.851 337.332 115.849 337.335 115.846C337.336 115.844 337.339 115.842 337.341 115.84C337.343 115.838 337.345 115.836 337.347 115.835C337.35 115.833 337.352 115.83 337.354 115.828C337.356 115.826 337.358 115.825 337.361 115.822C337.363 115.821 337.365 115.819 337.367 115.817C337.37 115.815 337.372 115.813 337.374 115.811C337.376 115.809 337.378 115.807 337.381 115.805C337.382 115.803 337.385 115.801 337.387 115.799C337.389 115.798 337.391 115.795 337.394 115.793C337.396 115.791 337.398 115.789 337.4 115.787C337.402 115.786 337.405 115.784 337.407 115.781C337.408 115.78 337.411 115.777 337.414 115.776C337.416 115.773 337.417 115.772 337.419 115.77C337.422 115.768 337.425 115.765 337.427 115.763C337.428 115.762 337.431 115.76 337.433 115.758C337.435 115.756 337.437 115.754 337.44 115.752C337.442 115.75 337.444 115.747 337.446 115.746C337.448 115.743 337.45 115.742 337.453 115.74C337.455 115.737 337.457 115.735 337.459 115.734C337.462 115.732 337.463 115.73 337.466 115.727C337.468 115.726 337.47 115.724 337.473 115.721C337.474 115.72 337.477 115.718 337.479 115.716C337.481 115.713 337.483 115.712 337.485 115.71C337.487 115.708 337.49 115.705 337.492 115.704C337.494 115.702 337.496 115.699 337.498 115.698C337.501 115.696 337.503 115.694 337.505 115.691C337.507 115.689 337.509 115.688 337.512 115.686C337.513 115.684 337.516 115.681 337.518 115.68C337.521 115.678 337.523 115.675 337.524 115.673C337.527 115.672 337.529 115.669 337.531 115.667C337.533 115.666 337.535 115.663 337.538 115.661C337.54 115.659 337.542 115.658 337.544 115.655C337.546 115.653 337.548 115.651 337.551 115.649C337.553 115.647 337.555 115.645 337.557 115.643C337.56 115.641 337.562 115.639 337.563 115.637C337.566 115.635 337.568 115.633 337.57 115.631C337.573 115.628 337.574 115.627 337.577 115.625C337.579 115.623 337.581 115.621 337.583 115.619C337.585 115.617 337.587 115.614 337.59 115.613C337.592 115.611 337.594 115.608 337.596 115.606C337.598 115.605 337.601 115.602 337.603 115.601C337.605 115.598 337.607 115.596 337.609 115.595C337.611 115.592 337.614 115.59 337.616 115.588C337.617 115.586 337.62 115.584 337.622 115.582C337.624 115.58 337.626 115.578 337.629 115.576C337.631 115.574 337.633 115.572 337.635 115.57C337.637 115.568 337.639 115.566 337.642 115.563C337.644 115.562 337.646 115.559 337.648 115.558C337.65 115.556 337.652 115.554 337.655 115.551C337.657 115.549 337.659 115.547 337.66 115.545C337.663 115.543 337.665 115.541 337.668 115.539C337.669 115.537 337.671 115.535 337.673 115.533C337.676 115.531 337.679 115.528 337.681 115.526C337.683 115.524 337.684 115.523 337.686 115.521C337.689 115.518 337.691 115.516 337.694 115.513C337.695 115.512 337.697 115.51 337.699 115.509C337.702 115.507 337.704 115.504 337.707 115.501C337.708 115.499 337.71 115.498 337.712 115.496C337.714 115.494 337.717 115.491 337.719 115.489C337.721 115.487 337.723 115.485 337.725 115.484C337.727 115.481 337.73 115.479 337.732 115.476C337.734 115.474 337.736 115.473 337.737 115.472C337.74 115.469 337.742 115.466 337.745 115.463C337.747 115.463 337.749 115.461 337.75 115.459C337.753 115.456 337.755 115.454 337.758 115.451C337.76 115.449 337.761 115.448 337.763 115.447C337.765 115.444 337.768 115.441 337.771 115.439C337.772 115.437 337.774 115.436 337.776 115.434C337.778 115.432 337.781 115.429 337.784 115.426C337.785 115.424 337.787 115.423 337.788 115.422C337.79 115.42 337.794 115.416 337.796 115.413C337.798 115.412 337.8 115.41 337.801 115.409C337.804 115.406 337.806 115.404 337.809 115.401C337.811 115.399 337.813 115.398 337.814 115.397C337.816 115.394 337.819 115.391 337.822 115.388C337.823 115.387 337.825 115.386 337.827 115.384C337.829 115.381 337.832 115.379 337.835 115.375C337.836 115.374 337.837 115.374 337.838 115.373C337.841 115.369 337.844 115.366 337.848 115.363C337.849 115.362 337.85 115.361 337.851 115.36C337.854 115.356 337.857 115.353 337.861 115.35C337.861 115.349 337.862 115.348 337.863 115.348C337.867 115.344 337.869 115.341 337.873 115.338C337.874 115.337 337.875 115.336 337.876 115.334C337.88 115.331 337.883 115.327 337.886 115.325C337.886 115.324 337.886 115.324 337.887 115.324C337.891 115.32 337.895 115.316 337.899 115.311C337.899 115.312 337.899 115.311 337.899 115.311C337.908 115.303 337.916 115.295 337.924 115.286C337.925 115.286 337.925 115.286 337.925 115.285C337.992 115.218 338.058 115.149 338.124 115.08L338.124 115.079C338.141 115.062 338.157 115.045 338.173 115.027L338.173 115.026C338.182 115.018 338.19 115.009 338.198 115.001L338.198 115C338.202 114.995 338.207 114.992 338.211 114.987L338.211 114.987C338.214 114.983 338.218 114.978 338.222 114.974C338.223 114.974 338.223 114.973 338.223 114.973C342.097 110.786 344.193 103.167 340.851 95.0569C341.112 95.1159 341.371 95.1796 341.632 95.2476C344.254 95.9328 346.883 97.048 349.392 98.6117C349.403 98.6697 349.413 98.7262 349.424 98.784C346.933 97.1877 344.31 96.0514 341.693 95.3677C341.644 95.3549 341.595 95.342 341.545 95.3298C344.891 104.035 342.195 112.095 337.776 116.077C339.13 117.902 340.156 120.202 340.614 122.863C342.464 121.669 344.181 120.079 345.657 118.166C344.14 120.418 342.297 122.294 340.271 123.689Z" fill="#7D9046"/>
<path d="M340.614 122.863C340.156 120.202 339.13 117.901 337.776 116.077C342.195 112.095 344.891 104.034 341.545 95.3294C341.595 95.3415 341.644 95.3545 341.693 95.3673C344.31 96.0509 346.933 97.1872 349.424 98.7836C350.79 106.325 349.023 113.17 345.657 118.166C344.181 120.079 342.464 121.668 340.614 122.863ZM343.059 109.681C342.63 110.928 342.087 112.084 341.454 113.132C341.524 113.839 341.34 114.589 340.919 115.128C340.365 115.841 339.768 116.492 339.14 117.077C339.773 118.122 340.308 119.288 340.714 120.558C341.474 119.962 342.204 119.295 342.893 118.559C343.428 117.988 344.021 117.714 344.563 117.78C345.438 116.687 346.228 115.472 346.909 114.151C347.328 113.983 347.705 113.604 347.989 112.981C348.276 112.362 348.377 111.595 348.319 110.805C348.865 109.168 349.255 107.417 349.454 105.578C349.039 104.518 348.753 103.338 348.729 102.283C348.709 101.221 348.624 100.138 348.467 99.0413C347.047 98.1729 345.587 97.456 344.112 96.8898C344.388 97.8929 344.591 98.8889 344.729 99.8705C344.86 100.822 344.576 101.481 344.099 101.768C344.201 103.444 344.106 105.057 343.848 106.578C343.499 106.866 343.241 107.311 343.114 107.867C342.987 108.43 342.973 109.049 343.059 109.681Z" fill="#3A5928"/>
<path d="M340.713 120.557C340.308 119.288 339.773 118.122 339.14 117.077C339.768 116.492 340.365 115.841 340.919 115.127C341.34 114.588 341.524 113.839 341.454 113.131C342.087 112.084 342.63 110.927 343.059 109.681C343.218 110.864 343.721 112.091 344.463 113.068C344.92 113.668 345.451 114.061 345.975 114.198C346.295 114.282 346.613 114.27 346.909 114.151C346.228 115.472 345.438 116.687 344.563 117.78C344.021 117.714 343.428 117.988 342.893 118.559C342.204 119.295 341.474 119.962 340.713 120.557ZM342.916 114.077C342.568 113.987 342.188 114.163 341.92 114.556C341.514 115.153 341.462 116.036 341.805 116.629C341.944 116.869 342.137 117.022 342.35 117.077C342.659 117.158 343.01 117.033 343.298 116.668C343.782 116.057 343.829 115.011 343.409 114.438C343.266 114.242 343.095 114.124 342.916 114.077ZM348.319 110.805C348.21 109.324 347.546 107.758 346.509 106.908C346.109 106.577 345.719 106.372 345.353 106.276C344.77 106.124 344.249 106.247 343.848 106.578C344.106 105.057 344.201 103.444 344.099 101.768C344.576 101.481 344.86 100.822 344.728 99.8704C344.591 98.8888 344.388 97.8928 344.112 96.8897C345.586 97.456 347.047 98.1728 348.467 99.0412C348.624 100.138 348.709 101.221 348.729 102.283C348.753 103.338 349.039 104.518 349.454 105.578C349.255 107.417 348.865 109.168 348.319 110.805ZM346.216 100.907C345.66 100.762 345.305 101.202 345.344 101.966C345.391 102.869 345.908 103.921 346.557 104.403C346.69 104.502 346.822 104.567 346.947 104.6C347.427 104.725 347.809 104.371 347.838 103.613C347.876 102.658 347.263 101.467 346.532 101.042C346.421 100.977 346.315 100.933 346.216 100.907Z" fill="#7D9046"/>
<path d="M345.976 114.198C345.451 114.061 344.92 113.668 344.463 113.067C343.721 112.09 343.218 110.864 343.059 109.681C342.973 109.049 342.987 108.43 343.114 107.867C343.241 107.311 343.499 106.866 343.848 106.578C344.249 106.247 344.771 106.124 345.353 106.276C345.719 106.372 346.11 106.577 346.509 106.908C347.546 107.758 348.21 109.324 348.319 110.805C348.377 111.595 348.276 112.362 347.989 112.981C347.705 113.604 347.328 113.983 346.909 114.151C346.613 114.27 346.295 114.282 345.976 114.198Z" fill="#3A5928"/>
<path d="M346.947 104.599C346.822 104.566 346.69 104.501 346.557 104.402C345.908 103.92 345.391 102.868 345.344 101.965C345.305 101.202 345.66 100.761 346.216 100.906C346.315 100.932 346.421 100.976 346.532 101.041C347.263 101.467 347.876 102.658 347.838 103.612C347.809 104.37 347.427 104.724 346.947 104.599Z" fill="#3A5928"/>
<path d="M342.35 117.077C342.137 117.021 341.944 116.868 341.804 116.628C341.462 116.035 341.514 115.153 341.92 114.555C342.188 114.162 342.568 113.986 342.916 114.077C343.095 114.124 343.266 114.241 343.409 114.437C343.829 115.01 343.782 116.057 343.298 116.668C343.01 117.032 342.659 117.157 342.35 117.077Z" fill="#3A5928"/>
<path d="M336.317 116.356C340.436 111.929 342.29 103.242 337.432 94.7589C341.035 95.1126 344.77 96.2661 348.313 98.2798C350.82 109.203 346.581 118.934 340.212 123.708C339.505 120.684 338.083 118.188 336.317 116.356Z" fill="#A7C05D"/>
<path d="M336.901 116.409C340.859 111.969 342.661 103.663 338.386 95.374C341.524 95.817 344.742 96.8773 347.818 98.5942C350.117 108.887 346.315 118.087 340.462 122.845C339.715 120.25 338.445 118.075 336.901 116.409Z" fill="#4E7735"/>
<path d="M342.258 118.317C342.727 117.691 343.287 117.354 343.833 117.361C346.012 113.927 347.372 109.549 347.365 104.698C346.836 103.69 346.423 102.549 346.286 101.502C346.15 100.449 345.946 99.3819 345.671 98.3079C344.164 97.5996 342.635 97.0463 341.108 96.6441C341.491 97.6119 341.802 98.5795 342.045 99.5405C342.279 100.472 342.07 101.157 341.626 101.495C342.37 105.825 341.725 109.864 340.236 113.079C340.382 113.775 340.281 114.54 339.922 115.121C339.449 115.891 338.926 116.604 338.365 117.254C339.109 118.224 339.768 119.324 340.309 120.542C341 119.867 341.653 119.124 342.258 118.317Z" fill="#A7C05D"/>
<path d="M343.22 112.688C341.924 111.322 341.124 109.312 341.312 107.666C341.499 106.039 342.862 105.208 344.582 106.343C346.307 107.464 347.34 110.36 346.716 112.218C346.099 114.086 344.504 114.039 343.22 112.688Z" fill="#4E7735"/>
<path d="M344.357 103.846C343.659 103.439 343.031 102.449 342.885 101.557C342.741 100.667 343.191 100.163 343.965 100.509C344.738 100.852 345.478 101.969 345.544 102.921C345.612 103.876 345.051 104.252 344.357 103.846Z" fill="#4E7735"/>
<path d="M340.966 116.517C340.561 115.966 340.516 115.083 340.855 114.444C341.194 113.809 341.841 113.638 342.321 114.165C342.802 114.689 342.869 115.734 342.454 116.394C342.04 117.058 341.37 117.066 340.966 116.517Z" fill="#4E7735"/>
<path d="M308.763 46.9865C306.611 39.3391 302.827 33.4337 298.231 29.7646C303.008 26.6467 308.437 24.2757 314.36 22.853C317.296 30.2258 318.536 39.3145 317.431 49.4294C314.645 48.2146 311.745 47.419 308.763 46.9865Z" fill="#A7C05D"/>
<path d="M309.183 46.5777C307.213 39.1462 303.716 33.2888 299.403 29.4491C303.645 26.8689 308.368 24.8677 313.468 23.5796C316.353 30.5153 317.714 39.0476 316.969 48.5808C314.444 47.5966 311.84 46.9422 309.183 46.5777Z" fill="#4E7735"/>
<path d="M314.928 43.5104C314.86 42.6075 315.145 41.8545 315.711 41.3593C315.358 36.892 314.508 32.7517 313.243 29.0174C312.158 28.7122 311.286 28.1857 310.958 27.4534C310.63 26.715 310.284 25.996 309.922 25.2983C307.541 26.0613 305.254 26.9856 303.073 28.0564C303.516 28.5869 303.946 29.1406 304.363 29.7171C304.765 30.2781 304.581 31.0125 304.023 31.6749C305.945 34.369 307.574 37.5623 308.815 41.1894C309.538 41.6099 310.076 42.2869 310.269 43.0486C310.527 44.0542 310.757 45.0871 310.958 46.1459C312.346 46.3685 313.722 46.6724 315.083 47.0642C315.065 45.8581 315.013 44.6732 314.928 43.5104Z" fill="#A7C05D"/>
<path d="M311.632 38.4802C309.239 38.5575 306.824 37.7132 306.082 36.4258C305.349 35.1477 306.857 33.3838 309.707 32.7187C312.559 32.053 315.322 33.2565 315.593 35.1197C315.868 36.9849 314.011 38.3916 311.632 38.4802Z" fill="#4E7735"/>
<path d="M308.504 31.046C307.378 31.3526 306.203 31.1593 305.833 30.5856C305.465 30.0125 306.089 29.1782 307.282 28.7543C308.474 28.3305 309.732 28.5758 310.033 29.2655C310.336 29.9552 309.629 30.7382 308.504 31.046Z" fill="#4E7735"/>
<path d="M312.347 43.2906C311.547 43.206 310.748 42.5249 310.537 41.7546C310.327 40.9856 310.858 40.3385 311.753 40.3279C312.648 40.3172 313.493 41.0276 313.607 41.8912C313.722 42.7555 313.145 43.3739 312.347 43.2906Z" fill="#4E7735"/>
<path d="M251.852 201.485C254.004 193.838 257.787 187.932 262.383 184.263C257.607 181.145 252.178 178.774 246.255 177.351C243.318 184.724 242.078 193.813 243.184 203.928C245.97 202.713 248.87 201.918 251.852 201.485Z" fill="#A7C05D"/>
<path d="M251.432 201.077C253.402 193.646 256.899 187.788 261.212 183.949C256.97 181.368 252.246 179.367 247.146 178.079C244.262 185.015 242.901 193.547 243.645 203.08C246.171 202.096 248.774 201.442 251.432 201.077Z" fill="#4E7735"/>
<path d="M245.686 198.01C245.754 197.107 245.469 196.354 244.903 195.859C245.257 191.391 246.107 187.251 247.372 183.517C248.457 183.212 249.328 182.685 249.657 181.953C249.985 181.215 250.33 180.496 250.693 179.798C253.073 180.561 255.36 181.485 257.541 182.556C257.099 183.086 256.668 183.64 256.252 184.217C255.85 184.778 256.034 185.512 256.591 186.174C254.67 188.869 253.041 192.062 251.799 195.689C251.076 196.109 250.539 196.786 250.346 197.548C250.088 198.554 249.857 199.587 249.657 200.645C248.269 200.868 246.893 201.172 245.532 201.564C245.549 200.358 245.601 199.173 245.686 198.01Z" fill="#A7C05D"/>
<path d="M248.983 192.98C251.376 193.057 253.791 192.213 254.533 190.925C255.266 189.647 253.758 187.883 250.907 187.218C248.055 186.553 245.293 187.756 245.021 189.619C244.746 191.484 246.603 192.891 248.983 192.98Z" fill="#4E7735"/>
<path d="M252.11 185.545C253.236 185.852 254.411 185.658 254.781 185.085C255.15 184.511 254.525 183.677 253.332 183.253C252.14 182.83 250.883 183.075 250.582 183.764C250.279 184.454 250.985 185.237 252.11 185.545Z" fill="#4E7735"/>
<path d="M248.267 197.79C249.067 197.705 249.866 197.024 250.077 196.254C250.287 195.485 249.757 194.838 248.861 194.827C247.966 194.816 247.121 195.527 247.007 196.39C246.893 197.255 247.469 197.873 248.267 197.79Z" fill="#4E7735"/>
<path d="M36.606 115.629C38.7237 106.68 49.4891 99.8741 62.5568 102.59C65.2849 106.217 66.9935 109.738 67.9244 112.811C57.4983 108.222 48.155 113.027 46.8329 120.155C44.3799 118.341 40.9714 116.675 36.606 115.629Z" fill="#A7C05D"/>
<path d="M37.5481 115.28C39.8684 106.94 49.9701 100.722 62.2434 103.092C64.5798 106.217 66.1404 109.256 67.0853 111.973C56.993 108.027 48.1009 112.571 46.4756 119.377C44.2372 117.781 41.2625 116.31 37.5481 115.28Z" fill="#4E7735"/>
<path d="M46.1745 114.937C46.5963 114.291 47.3414 113.957 48.083 113.948C50.6526 111.141 54.7875 109.358 59.6654 109.445C59.9606 108.944 60.7116 108.633 61.8278 108.78C62.9473 108.928 64.0915 109.168 65.249 109.507C64.5926 108.12 63.7756 106.673 62.7807 105.194C61.5072 104.941 60.2524 104.787 59.0283 104.726C57.8448 104.664 56.5314 104.361 55.3252 103.908C49.7583 104.396 45.1077 106.793 42.1683 110.211C42.3788 110.929 42.2469 111.709 41.7931 112.416C41.1893 113.351 40.7016 114.342 40.3384 115.37C42.0496 116.027 43.5656 116.775 44.8871 117.571C45.1996 116.649 45.6314 115.765 46.1745 114.937Z" fill="#A7C05D"/>
<path d="M47.4667 110.141C45.6355 108.818 45.0011 106.709 46.9476 105.689C48.8787 104.657 52.3779 105.523 53.9099 107.211C55.4686 108.897 54.7775 110.429 53.1442 111.101C51.4843 111.769 49.3172 111.485 47.4667 110.141Z" fill="#4E7735"/>
<path d="M56.2888 106.55C55.7018 105.877 56.0183 105.203 57.1191 105.159C58.2173 105.112 59.6201 105.774 60.1345 106.513C60.6523 107.255 60.1505 107.739 59.1243 107.721C58.0947 107.701 56.8779 107.228 56.2888 106.55Z" fill="#4E7735"/>
<path d="M43.8182 113.582C43.0438 113.153 42.7146 112.233 43.2577 111.556C43.7968 110.876 44.9697 110.759 45.706 111.253C46.447 111.748 46.5063 112.61 46.0052 113.224C45.5001 113.839 44.5972 114.013 43.8182 113.582Z" fill="#4E7735"/>
<path d="M202.948 93.5926C205.066 102.541 215.831 109.347 228.899 106.631C231.627 103.005 233.336 99.4827 234.266 96.4101C223.84 100.999 214.497 96.1942 213.175 89.0659C210.722 90.8798 207.313 92.5457 202.948 93.5926Z" fill="#A7C05D"/>
<path d="M203.89 93.9414C206.21 102.281 216.312 108.5 228.585 106.129C230.922 103.004 232.482 99.9654 233.427 97.2486C223.335 101.195 214.443 96.6509 212.818 89.8445C210.579 91.4405 207.605 92.9112 203.89 93.9414Z" fill="#4E7735"/>
<path d="M212.516 94.2841C212.938 94.9305 213.683 95.2643 214.425 95.273C216.995 98.0805 221.129 99.863 226.007 99.7757C226.302 100.277 227.053 100.588 228.17 100.441C229.289 100.293 230.433 100.053 231.591 99.7144C230.934 101.101 230.118 102.549 229.123 104.027C227.849 104.28 226.594 104.434 225.37 104.495C224.187 104.557 222.873 104.86 221.667 105.313C216.1 104.825 211.45 102.428 208.51 99.01C208.721 98.2924 208.589 97.512 208.135 96.8057C207.531 95.8701 207.043 94.8792 206.68 93.8516C208.392 93.1946 209.908 92.4462 211.229 91.6499C211.542 92.5722 211.973 93.4565 212.516 94.2841Z" fill="#A7C05D"/>
<path d="M213.809 99.0806C211.977 100.403 211.343 102.512 213.289 103.532C215.221 104.564 218.72 103.699 220.252 102.011C221.81 100.324 221.119 98.7927 219.486 98.1203C217.826 97.4519 215.659 97.7365 213.809 99.0806Z" fill="#4E7735"/>
<path d="M222.631 102.671C222.044 103.345 222.36 104.018 223.461 104.062C224.559 104.109 225.962 103.447 226.476 102.708C226.994 101.966 226.492 101.482 225.466 101.5C224.437 101.521 223.22 101.993 222.631 102.671Z" fill="#4E7735"/>
<path d="M210.16 95.6389C209.386 96.068 209.057 96.9876 209.6 97.6653C210.139 98.345 211.312 98.4617 212.048 97.9679C212.789 97.4734 212.848 96.6111 212.347 95.9967C211.842 95.3823 210.939 95.2077 210.16 95.6389Z" fill="#4E7735"/>
</svg>
