<svg width="666" height="510" viewBox="0 0 666 510" fill="none" xmlns="http://www.w3.org/2000/svg">
<path fill-rule="evenodd" clip-rule="evenodd" d="M454.429 55.9363C447.037 50.8901 441.07 43.8774 439.295 34.7035C434.18 8.271 472.142 4.21552 482.737 15.4091C493.332 26.6027 501.388 60.0387 492.856 64.8328C489.454 66.7448 481.06 66.5438 471.873 63.9346L486.183 97.4587L456.832 105.323L454.429 55.9363Z" fill="#B28B67"/>
<path fill-rule="evenodd" clip-rule="evenodd" d="M464.618 30.989C469.898 46.2 474.948 53.1597 479.769 51.868C487 49.9304 491.916 43.7366 495.089 42.8864C497.402 42.2666 497.654 45.2738 496.691 47.8116C495.896 49.9053 490.19 53.2473 490.919 55.9679C491.647 58.6885 495.95 55.2797 496.383 56.8932C497.098 59.5622 499.298 64.3512 494.624 65.6035C489.894 66.8708 475.875 68.7962 471.687 62.4611C468.984 58.3726 465.521 49.3275 461.298 35.3258C461.002 35.3689 460.705 35.4298 460.409 35.5091C456.356 36.595 453.944 40.7314 455.02 44.7481C455.566 46.7872 456.907 48.4035 458.624 49.3586C457.563 52.1889 456.325 55.1801 454.831 58.3248C445.334 55.6486 435.435 43.018 439.773 27.1741C440.188 19.8705 444.239 14.9434 449.712 11.6933C453.973 8.42106 458.89 6.86343 463.41 6.92933C471.833 5.4228 479.854 5.94132 482.334 6.86102C484.405 14.5887 483.508 17.2863 470.55 20.5417C467.825 23.0509 466.153 26.5619 464.618 30.989Z" fill="#191847"/>
<path fill-rule="evenodd" clip-rule="evenodd" d="M471.123 207.529L533.265 364.206L574.945 496.664H591.403L527.684 207.529L471.123 207.529Z" fill="#997659"/>
<path fill-rule="evenodd" clip-rule="evenodd" d="M458.609 207.529C457.948 262.586 448.297 336.712 446.755 340.144C445.727 342.432 410.243 371.528 340.303 427.432L351.639 439.516C434.162 391.585 477.333 364.424 481.152 358.031C486.88 348.442 505.529 260.201 520.501 207.529H458.609Z" fill="#B28B67"/>
<path fill-rule="evenodd" clip-rule="evenodd" d="M338.712 423.375C334.905 424.72 332.282 425.996 330.844 427.203C329.095 428.671 326.788 431.103 323.921 434.502C325.624 436.531 340.924 454.765 369.823 489.206C375.716 486.684 377.564 483.734 375.369 480.357C373.174 476.98 371.377 474.152 369.979 471.872L359.979 436.935C359.787 436.263 359.086 435.874 358.414 436.067C358.402 436.07 358.391 436.073 358.379 436.077L353.043 437.769C349.341 436.044 346.747 434.295 345.259 432.522C344.051 431.082 342.963 428.605 341.997 425.091C341.627 423.743 340.233 422.95 338.884 423.321C338.826 423.337 338.769 423.355 338.712 423.375Z" fill="#E4E4E4"/>
<path fill-rule="evenodd" clip-rule="evenodd" d="M568.206 490.673C566.789 494.455 566.081 497.284 566.081 499.161C566.081 501.444 566.461 504.776 567.222 509.156C569.871 509.156 593.674 509.156 638.633 509.156C640.489 503.021 639.417 499.709 635.419 499.22C631.421 498.731 628.1 498.289 625.455 497.895L592.264 483.098C591.625 482.813 590.877 483.1 590.592 483.739C590.587 483.75 590.583 483.761 590.578 483.772L588.444 488.947C584.743 490.674 581.736 491.538 579.422 491.538C577.541 491.538 574.945 490.778 571.632 489.26C570.361 488.677 568.858 489.235 568.275 490.506C568.25 490.561 568.227 490.617 568.206 490.673Z" fill="#E4E4E4"/>
<path fill-rule="evenodd" clip-rule="evenodd" d="M512.904 483.021L591.155 474.561L533.162 207.529H463.075L512.904 483.021Z" fill="#69A1AC"/>
<path fill-rule="evenodd" clip-rule="evenodd" d="M356.489 407.937L407.817 468.457C461.88 409.639 493.399 371.26 502.374 353.321C511.348 335.381 519.416 286.784 526.577 207.529H447.672C443.76 277.254 441.124 313.739 439.762 316.983C438.4 320.228 410.643 350.546 356.489 407.937Z" fill="#89C5CC"/>
<path fill-rule="evenodd" clip-rule="evenodd" d="M568.043 178.477L612.941 200.527C624.239 201.521 633.887 203.535 641.884 206.57C643.867 207.819 646.487 210.594 639.301 211.302C632.115 212.009 624.588 213.075 624.034 215.654C623.48 218.233 628.278 220.355 626.873 223.95C625.936 226.347 618.751 222.018 605.316 210.962L563.064 201.655L568.043 178.477ZM415.512 206.407L441.586 201.914C434.61 256.432 430.76 285.385 430.035 288.774C428.404 296.398 436.421 306.157 440.058 311.52C432.222 316.806 430.656 302.623 420.804 309.481C411.812 315.74 405.812 325.267 393.275 320.316C391.733 319.707 389.642 316.76 392.882 313.599C400.952 305.721 412.241 292.435 413.392 288.514C414.96 283.167 415.667 255.798 415.512 206.407Z" fill="#B28B67"/>
<path fill-rule="evenodd" clip-rule="evenodd" d="M470.376 84.5535L480.833 80.8121C526.9 108.146 554.98 171.311 610.186 197.661L600.95 214.299C514.036 218.818 478.743 141.955 470.376 84.5535Z" fill="#E87613"/>
<path fill-rule="evenodd" clip-rule="evenodd" d="M447.149 227.668C490.38 220.046 522.18 214.438 542.549 210.847C546.908 210.078 544.982 203.959 543.795 200.91C530.09 165.714 494.766 131.398 485.61 79.4729L457.335 80.0312C440.997 120.47 441.034 166.706 447.149 227.668Z" fill="#DDE3E9"/>
<path fill-rule="evenodd" clip-rule="evenodd" d="M429.288 121.895C425.09 121.456 421.455 119.348 418.383 115.57C405.141 99.2848 407.02 88.7015 417.192 83.5379C427.365 78.3744 438.137 83.4162 455.263 80.3966C456.194 80.2323 457.057 80.14 457.853 80.1196L466.554 79.0898C505.967 158.085 522.589 212.494 516.421 242.319L441.333 255.559C438.705 266.666 435.979 276.102 433.156 283.867L412.696 287.474C399.847 225.86 405.377 170.667 429.288 121.895Z" fill="#FF9B21"/>
<path fill-rule="evenodd" clip-rule="evenodd" d="M450.136 209.868C455.965 229.113 462.319 242.706 469.199 250.646L441.334 255.56C444.4 242.603 447.334 227.373 450.136 209.868Z" fill="black" fill-opacity="0.1"/>
<path fill-rule="evenodd" clip-rule="evenodd" d="M208.718 163.309C214.104 156.987 217.749 149.24 217.14 140.558C215.385 115.545 180.565 121.047 173.792 133.672C167.019 146.297 167.824 178.32 176.577 180.577C180.068 181.477 187.505 179.272 195.074 174.71L190.323 208.321H218.375L208.718 163.309Z" fill="#B28B67"/>
<path fill-rule="evenodd" clip-rule="evenodd" d="M199.99 149.724C200.907 149.094 202.003 148.711 203.18 148.711C206.408 148.711 209.025 151.589 209.025 154.555C209.025 157.64 207.567 160.026 205.487 161.038C206.598 163.211 207.715 164.788 209.025 165.074C214.076 164.563 220.713 152.007 220.713 141.698C220.713 130.413 211.734 120.659 194.999 120.659C179.957 120.659 174.253 126.861 173.96 132.347C180.405 134.119 191.668 134.801 207.856 134.685V135.854L193.83 137.022L191.492 144.035C195.211 143.758 197.869 146.309 199.99 149.724Z" fill="#191847"/>
<path d="M230.063 508.711C180.357 508.711 140.063 470.248 140.063 422.802C140.063 375.355 180.357 336.892 230.063 336.892C279.769 336.892 320.063 375.355 320.063 422.802C320.063 470.248 279.769 508.711 230.063 508.711Z" fill="#C5CFD6"/>
<path fill-rule="evenodd" clip-rule="evenodd" d="M59.9875 495.456C74.9635 462.31 85.794 433.448 90.1413 418.22C97.585 392.146 103.248 369.203 104.679 360.635C108.092 340.203 78.4247 339.013 74.5033 349.167C68.5681 364.536 58.2067 415.032 45.7566 491.304L59.9875 495.456ZM233.701 391.434C219.96 386.003 171.842 369.006 148.634 364.198C141.965 362.816 135.502 361.532 129.425 360.372C111.362 356.924 102.003 389.51 119.4 392.014C162.725 398.25 224.146 404.689 229.402 405.411C236.769 406.424 242.336 394.848 233.701 391.434Z" fill="#B28B67"/>
<path fill-rule="evenodd" clip-rule="evenodd" d="M118.338 351.406L192.661 313.571V305.334H183.822C111.918 323.657 75.1749 335.399 73.5932 340.561C73.5761 340.616 73.5606 340.672 73.5464 340.727C73.5102 340.775 73.4746 340.823 73.4396 340.871C59.1898 360.468 50.6556 456.146 47.8546 463.31L75.1605 467.383C85.6057 428.65 119.024 401.668 118.136 355.278C118.376 353.917 118.437 352.626 118.338 351.406Z" fill="#1F28CF"/>
<path fill-rule="evenodd" clip-rule="evenodd" d="M186.486 373.875C193.286 372.514 199.548 371.299 204.907 370.359C239.52 364.288 249.614 345.76 243.646 305.334H179.872C169.454 308.327 115.314 331.031 87.2243 343.107C68.6328 351.099 74.4934 379.911 85.0218 387.409C85.079 387.869 85.2684 388.182 85.6059 388.322C142.241 411.795 187.045 399.479 202.011 403.414L208.934 381.576L186.486 373.875Z" fill="#2B44FF"/>
<path fill-rule="evenodd" clip-rule="evenodd" d="M229.002 387.963C232.713 388.318 235.347 388.876 236.905 389.635C238.799 390.559 241.41 392.223 244.736 394.627C243.664 396.825 234.031 416.576 215.837 453.88C209.996 452.937 207.681 450.707 208.893 447.192C210.105 443.677 211.083 440.742 211.826 438.388L212.981 404.86C213.003 404.215 213.544 403.71 214.189 403.732C214.2 403.733 214.211 403.733 214.222 403.734L219.38 404.058C222.311 401.686 224.244 399.54 225.181 397.62C225.942 396.06 226.362 393.598 226.443 390.235C226.474 388.944 227.545 387.923 228.836 387.954C228.891 387.955 228.947 387.958 229.002 387.963Z" fill="#E4E4E4"/>
<path fill-rule="evenodd" clip-rule="evenodd" d="M66.8031 489.311C68.1107 492.802 68.7645 495.414 68.7645 497.147C68.7645 499.255 68.4134 502.33 67.7111 506.374C65.266 506.374 43.2912 506.374 1.7868 506.374C0.0736569 500.71 1.06258 497.653 4.75357 497.201C8.44455 496.75 11.5107 496.342 13.9521 495.978L44.5931 482.318C45.1827 482.055 45.8737 482.32 46.1365 482.91C46.141 482.92 46.1454 482.93 46.1496 482.94L48.1192 487.718C51.5361 489.312 54.3126 490.109 56.4489 490.109C58.1846 490.109 60.5815 489.408 63.6398 488.006C64.8134 487.468 66.201 487.984 66.739 489.157C66.7622 489.208 66.7835 489.259 66.8031 489.311Z" fill="#E4E4E4"/>
<path fill-rule="evenodd" clip-rule="evenodd" d="M122.66 282.111L85.3762 309.489C75.2641 312.218 66.8158 315.613 60.0312 319.674C58.4285 321.134 56.4916 324.092 63.1381 323.581C69.7846 323.07 76.7988 322.831 77.7158 325.098C78.6329 327.365 74.6108 330.076 76.4647 333.135C77.7006 335.174 83.5394 330.061 93.9812 317.795L130.902 302.485L122.66 282.111ZM291.382 270.707L270.797 274.435C294.688 321.844 307.484 346.911 309.185 349.636C313.013 355.767 309.149 366.814 307.691 372.641C316.161 374.77 313.03 361.908 323.746 364.769C333.526 367.38 341.746 373.788 351.053 365.502C352.197 364.484 353.078 361.253 349.268 359.521C339.775 355.207 325.778 347.195 323.539 344.141C320.485 339.975 309.766 315.497 291.382 270.707Z" fill="#B28B67"/>
<path fill-rule="evenodd" clip-rule="evenodd" d="M113.974 285.087C109.177 284.743 103.959 285.538 98.3651 287.423C95.6123 288.35 94.1326 291.334 95.0601 294.087C95.5988 295.685 96.8311 296.855 98.3088 297.372C97.2384 298.153 96.1584 298.93 95.0689 299.702L104.475 318.904C144.055 299.169 181.256 284.29 198.208 251.71C203.898 240.775 201.972 203.632 202.515 190.119L190.014 184.993C172.589 221.012 149.006 255.569 113.974 285.087Z" fill="#69A1AC"/>
<path fill-rule="evenodd" clip-rule="evenodd" d="M246.427 315.748C209.681 319.785 180.758 319.785 159.657 315.748C157.043 315.248 157.158 303.979 158.37 300.901C177.25 252.972 189.668 217.887 189.668 184.597C193.132 186.406 199.195 186.677 207.856 185.41C231.132 219.717 241.831 259.079 246.427 315.748Z" fill="#191847"/>
<path fill-rule="evenodd" clip-rule="evenodd" d="M253.255 321.414C254.503 320.24 255.153 318.48 254.834 316.667L254.225 313.213C253.812 310.873 251.911 309.169 249.667 308.903C249.275 307.149 248.937 305.407 248.658 303.678C246.298 289.072 250.33 274.751 250.14 260.687C268.935 276.723 285.796 304.412 300.722 343.755L322.797 337.259C321.955 334.129 321.083 331.039 320.18 327.986C322.728 326.539 325.705 319.904 323.562 318.794C321.349 317.648 319.005 316.841 316.536 316.366C296.295 255.4 263.195 210.814 217.235 182.606H213.169L203.942 182.606C207.856 234.363 153.798 347.359 172.568 443.862C207.262 451.61 256.793 427.504 305.006 446.763C303.212 407.9 267.276 362.245 253.255 321.414Z" fill="#89C5CC"/>
<path fill-rule="evenodd" clip-rule="evenodd" d="M212.407 183.775L218.438 202.319L206.294 216.221L217.269 227.145L190.718 272.607L223.187 227.236L212.407 216.221L223.187 203.936L212.407 183.775Z" fill="black" fill-opacity="0.1"/>
<path fill-rule="evenodd" clip-rule="evenodd" d="M198.505 290.139C201.087 290.139 203.181 288.046 203.181 285.464C203.181 282.882 201.087 280.788 198.505 280.788C195.923 280.788 193.83 282.882 193.83 285.464C193.83 288.046 195.923 290.139 198.505 290.139ZM192.661 317.022C195.243 317.022 197.336 314.929 197.336 312.347C197.336 309.765 195.243 307.672 192.661 307.672C190.079 307.672 187.986 309.765 187.986 312.347C187.986 314.929 190.079 317.022 192.661 317.022ZM191.492 343.906C194.074 343.906 196.168 341.812 196.168 339.23C196.168 336.648 194.074 334.555 191.492 334.555C188.91 334.555 186.817 336.648 186.817 339.23C186.817 341.812 188.91 343.906 191.492 343.906Z" fill="black" fill-opacity="0.4"/>
<path d="M395.951 53.2205C382.501 64.7551 364.222 72.8582 343.224 74.4539C340.469 68.1679 338.387 61.7891 336.972 55.4302C355.174 55.2903 371.02 49.1219 382.514 40C386.402 44.7485 390.894 49.1925 395.951 53.2205Z" fill="#C1D97A"/>
<path d="M394.177 53.1885C381.21 63.9395 363.879 71.5091 344.034 73.1939C341.639 67.7014 339.76 62.1371 338.395 56.5791C355.902 56.1347 371.19 50.1904 382.494 41.4497C385.933 45.6214 389.836 49.5603 394.177 53.1885Z" fill="#4E7735"/>
<path d="M378.985 48.7903C377.628 49.6419 375.97 49.8487 374.516 49.4847C367.592 53.2825 359.716 56.1458 351.126 57.7092C350.459 58.9892 349.042 59.9807 347.119 60.2295C345.188 60.4783 343.227 60.664 341.238 60.7829C342.075 63.4938 343.035 66.201 344.12 68.8922C346.234 68.7053 348.32 68.449 350.374 68.1259C352.358 67.8152 354.42 68.1259 356.153 68.8687C365.618 66.7828 374.302 63.3019 381.948 58.801C382.239 57.4889 383.136 56.2287 384.543 55.3077C386.406 54.0872 388.199 52.8023 389.921 51.4616C387.829 49.4934 385.857 47.4497 384.005 45.3428C382.4 46.5473 380.725 47.6985 378.985 48.7903Z" fill="#C1D97A"/>
<path d="M373.075 56.8168C375.337 59.9598 374.593 63.8913 370.832 65.4225C367.084 66.96 362.102 65.165 360.286 61.6581C358.456 58.1512 360.101 54.5428 363.402 53.3631C366.718 52.1908 370.799 53.6627 373.075 56.8168Z" fill="#4E7735"/>
<path d="M355.909 63.3478C356.591 64.7231 355.701 66.1961 353.826 66.5712C351.953 66.9488 349.876 66.034 349.282 64.6017C348.684 63.1683 349.722 61.8041 351.507 61.4835C353.296 61.1654 355.225 61.97 355.909 63.3478Z" fill="#4E7735"/>
<path d="M382.177 52.3519C383.156 53.4722 382.833 55.1297 381.349 56.0247C379.866 56.9209 377.842 56.6486 376.936 55.4553C376.026 54.2607 376.516 52.6539 377.925 51.832C379.337 51.01 381.194 51.2304 382.177 52.3519Z" fill="#4E7735"/>
<path d="M229.972 91.8706C233.884 81.2657 237.746 70.6422 241.555 60.0001C246.193 61.6589 251.269 61.6639 255.919 60.0051C259.716 70.6521 263.462 81.3176 267.156 92.0005C255.116 96.2551 241.977 96.2081 229.972 91.8706Z" fill="#C1D97A"/>
<path d="M232.411 91.9413C235.722 81.6323 238.985 71.3071 242.201 60.9684C246.452 62.2892 251.01 62.2929 255.271 60.9733C258.469 71.3183 261.621 81.6768 264.724 92.0502C254.189 95.2799 242.922 95.2403 232.411 91.9413Z" fill="#4E7735"/>
<path d="M256.064 88.5382C255.908 87.4179 256.889 86.2642 258.431 85.2157C257.296 79.7666 256.148 74.3211 254.987 68.8782C253.64 68.4424 252.762 67.4719 252.599 66.2947C252.427 65.1076 252.255 63.9205 252.082 62.7333C249.835 63.0614 247.553 63.0564 245.308 62.7185C245.129 63.9044 244.949 65.0903 244.769 66.2774C244.601 67.4212 243.757 68.3632 242.466 68.8088C241.265 74.2852 240.051 79.7579 238.823 85.2281C240.271 86.2617 241.173 87.3882 240.998 88.4725C240.762 89.8998 240.525 91.3283 240.287 92.7568C245.716 93.6258 251.246 93.6531 256.683 92.8373C256.478 91.4038 256.271 89.9704 256.064 88.5382Z" fill="#C1D97A"/>
<path d="M248.657 82.5681C242.641 82.5595 238.469 79.2729 239.198 76.994C239.91 74.673 244.119 73.8683 248.703 73.8374C253.286 73.8782 257.487 74.6965 258.174 77.0237C258.879 79.3101 254.672 82.5855 248.657 82.5681Z" fill="#4E7735"/>
<path d="M248.115 70.8875C246.44 70.8541 245.214 69.7747 245.368 68.6656C245.52 67.5527 246.786 66.8025 248.205 66.8285C249.622 66.8595 250.855 67.6604 250.958 68.7782C251.062 69.8923 249.789 70.9222 248.115 70.8875Z" fill="#4E7735"/>
<path d="M247.653 89.2215C244.998 89.1646 242.987 87.9775 243.147 86.8708C243.305 85.7567 245.366 85.1155 247.763 85.1625C250.161 85.2182 252.181 85.9498 252.278 87.0714C252.377 88.1842 250.307 89.2822 247.653 89.2215Z" fill="#4E7735"/>
<path d="M163.065 31.0001C164.351 45.1354 155.43 62.4496 137.001 71.8909C125.991 68.5746 116.325 62.3766 108.972 54.0914C129.166 55.104 143.925 43.879 148.24 31.4668C152.515 32.7863 157.71 32.8953 163.065 31.0001Z" fill="#C1D97A"/>
<path d="M162.117 32.2192C162.597 45.8185 153.659 61.8763 136.147 70.6788C126.701 67.6386 118.305 62.4321 111.61 55.5965C130.75 55.4257 144.524 44.4853 148.762 32.4878C152.702 33.5598 157.327 33.6489 162.117 32.2192Z" fill="#4E7735"/>
<path d="M149.439 39.2258C148.799 40.4958 147.505 41.4997 146 41.959C141.815 47.8253 135.303 52.8994 126.975 55.8616C127.324 57.1341 126.679 58.3225 124.787 58.8969C122.885 59.4638 120.904 59.9268 118.853 60.2722C122.533 63.0661 126.573 65.4366 130.896 67.3231C132.847 66.5197 134.709 65.621 136.476 64.6382C138.189 63.6937 140.663 63.1143 143.213 62.7913C150.534 57.248 155.551 50.2268 158.07 43.0756C157.326 42.2635 157.149 41.0529 157.536 39.6813C158.046 37.8629 158.394 36.0444 158.583 34.2495C156.103 34.6023 153.704 34.5825 151.455 34.2656C150.941 35.9355 150.269 37.5967 149.439 39.2258Z" fill="#C1D97A"/>
<path d="M149.221 47.3141C153.405 47.9627 156.027 50.1971 154.061 53.2287C152.129 56.2664 145.468 58.0948 140.391 56.3234C135.303 54.5668 134.453 51.102 137.27 49.2192C140.118 47.2881 144.998 46.6902 149.221 47.3141Z" fill="#4E7735"/>
<path d="M137.337 59.1654C139.362 59.9081 139.928 61.2463 138.382 62.2403C136.841 63.2355 133.663 63.2863 131.521 62.2613C129.373 61.2388 129.162 59.7806 130.819 59.0688C132.483 58.3533 135.305 58.4239 137.337 59.1654Z" fill="#4E7735"/>
<path d="M153.924 39.5687C155.319 39.6194 156.174 40.6827 155.65 42.0778C155.133 43.4729 153.274 44.5734 151.693 44.3976C150.108 44.2256 149.555 42.9679 150.258 41.699C150.966 40.4253 152.522 39.5204 153.924 39.5687Z" fill="#4E7735"/>
<path d="M330.273 160.251C314.011 159.948 301.849 168.557 297.319 178.646C292.813 176.823 287.026 176.42 281.049 178.598C280.171 166.575 286.864 152.232 300.95 143C312.639 145.569 322.865 151.705 330.273 160.251Z" fill="#A7C05D"/>
<path d="M327.863 158.74C312.455 159.411 301.112 167.903 296.758 177.681C292.583 176.184 287.461 175.852 282.128 177.468C281.932 165.931 288.733 152.62 302.192 144.07C312.212 146.544 321.073 151.695 327.863 158.74Z" fill="#4E7735"/>
<path d="M302.846 150.133C301.571 151.002 299.472 151.542 297.152 151.886C291.639 156.876 287.877 162.805 285.953 168.786C287.024 169.426 287.419 170.524 287.08 171.771C286.742 173.031 286.487 174.29 286.313 175.54C288.931 175.236 291.447 175.358 293.773 175.815C294.195 174.671 294.697 173.537 295.281 172.421C295.838 171.34 297.1 170.541 298.603 170.288C302.148 165.431 307.446 161.203 314.148 158.515C313.752 157.379 314.106 156.373 315.483 155.874C317.301 155.224 319.21 154.682 321.198 154.262C317.254 151.272 312.835 148.824 308.062 147.022C306.218 147.969 304.477 149.011 302.846 150.133Z" fill="#A7C05D"/>
<path d="M302.253 157.152C307.586 158.969 308.987 162.442 306.642 163.951C304.267 165.516 299.557 165.488 295.066 164.739C290.616 163.955 287.463 162.211 288.985 159.613C290.465 157.014 296.928 155.313 302.253 157.152Z" fill="#4E7735"/>
<path d="M293.876 167.633C295.529 167.9 296.209 169.064 295.58 170.09C294.948 171.121 293.378 171.73 291.899 171.585C290.424 171.437 289.464 170.516 289.923 169.363C290.376 168.212 292.227 167.362 293.876 167.633Z" fill="#4E7735"/>
<path d="M310.34 152.828C312.534 153.893 313.042 155.344 311.706 155.94C310.364 156.541 307.763 156.278 305.685 155.473C303.613 154.663 302.752 153.432 303.979 152.571C305.2 151.714 308.152 151.759 310.34 152.828Z" fill="#4E7735"/>
<path d="M342.68 294.746C351.072 287.278 356.022 271.538 348.523 255C355.123 256.285 361.829 259.073 368.028 263.416C370.754 284.054 361.21 301.31 348.596 309.023C347.819 303.307 345.625 298.442 342.68 294.746Z" fill="#A7C05D"/>
<path d="M343.75 294.943C351.848 287.425 356.633 272.38 350.179 256.302C355.904 257.671 361.669 260.196 367.059 263.909C369.509 283.346 360.867 299.695 349.209 307.47C348.283 302.54 346.315 298.295 343.75 294.943Z" fill="#4E7735"/>
<path d="M353.323 299.413C354.3 298.337 355.394 297.812 356.403 297.92C361.034 291.951 364.314 284.091 365.151 275.119C364.35 273.163 363.787 270.981 363.714 269.02C363.647 267.048 363.459 265.039 363.139 263.005C360.476 261.432 357.744 260.141 354.991 259.13C355.529 260.986 355.934 262.831 356.216 264.649C356.486 266.414 355.977 267.645 355.1 268.191C355.717 276.329 353.817 283.687 350.501 289.372C350.65 290.684 350.328 292.081 349.561 293.093C348.551 294.434 347.461 295.661 346.311 296.765C347.516 298.688 348.543 300.837 349.329 303.186C350.725 302.058 352.063 300.799 353.323 299.413Z" fill="#A7C05D"/>
<path d="M356.088 289.169C353.93 286.416 352.803 282.558 353.439 279.547C354.07 276.571 356.734 275.272 359.717 277.673C362.71 280.048 364.115 285.586 362.635 288.912C361.167 292.258 358.225 291.893 356.088 289.169Z" fill="#4E7735"/>
<path d="M359.738 273.017C358.519 272.141 357.53 270.2 357.417 268.525C357.307 266.854 358.227 266.002 359.598 266.776C360.969 267.546 362.14 269.742 362.095 271.514C362.054 273.291 360.951 273.889 359.738 273.017Z" fill="#4E7735"/>
<path d="M351.249 295.857C350.595 294.767 350.668 293.125 351.406 292.004C352.144 290.887 353.37 290.685 354.166 291.744C354.964 292.796 354.905 294.741 354.022 295.891C353.14 297.044 351.9 296.943 351.249 295.857Z" fill="#4E7735"/>
<mask id="mask0_1341_14188" style="mask-type:luminance" maskUnits="userSpaceOnUse" x="349" y="257" width="1" height="2">
<path d="M349.864 258.304C349.862 258.304 349.862 258.304 349.861 258.304C349.783 258.087 349.704 257.87 349.622 257.654C349.623 257.654 349.623 257.654 349.625 257.654C349.706 257.872 349.786 258.087 349.864 258.304Z" fill="white"/>
</mask>
<g mask="url(#mask0_1341_14188)">
<path d="M349.622 258.304H349.864V257.653H349.622V258.304Z" fill="#BFBFBF"/>
</g>
<path d="M349.596 308.386C350.485 307.417 351.33 306.383 352.128 305.29C352.646 304.859 353.156 304.411 353.658 303.947C352.57 305.408 351.398 306.764 350.159 308.006C349.972 308.135 349.784 308.261 349.596 308.386ZM351.028 258.601C350.64 258.497 350.251 258.398 349.864 258.304C349.786 258.087 349.706 257.872 349.625 257.654C350.017 257.748 350.409 257.846 350.802 257.95C350.88 258.167 350.955 258.384 351.028 258.601Z" fill="#7D9046"/>
<path d="M352.128 305.29C353.757 303.061 355.187 300.587 356.375 297.917C356.385 297.919 356.393 297.92 356.403 297.92C357.399 296.639 358.331 295.269 359.19 293.82C357.758 297.558 355.879 300.967 353.658 303.947C353.156 304.411 352.646 304.859 352.128 305.29ZM355.206 259.901C353.816 259.406 352.421 258.972 351.029 258.601C350.955 258.384 350.88 258.167 350.802 257.95C352.211 258.32 353.621 258.755 355.027 259.255C355.089 259.47 355.148 259.685 355.206 259.901Z" fill="#3A5928"/>
<path d="M356.403 297.92C356.393 297.92 356.385 297.918 356.375 297.917C357.323 295.787 358.118 293.531 358.737 291.175C359.041 291.269 359.346 291.317 359.644 291.317C359.79 291.317 359.934 291.306 360.076 291.282C359.804 292.143 359.508 292.99 359.19 293.82C358.331 295.269 357.399 296.639 356.403 297.92ZM362.11 280.853C361.627 279.818 361.001 278.882 360.254 278.148C360.22 276.493 360.1 274.816 359.89 273.12C360.207 273.317 360.514 273.413 360.793 273.413C361.406 273.413 361.882 272.95 362.039 272.08C362.328 275.08 362.34 278.012 362.11 280.853ZM361.737 269.574C361.293 268.377 360.488 267.276 359.598 266.776C359.25 266.579 358.931 266.488 358.65 266.488C358.641 266.488 358.633 266.488 358.623 266.489C358.103 264.483 357.452 262.464 356.663 260.443C356.178 260.255 355.693 260.074 355.206 259.901C355.148 259.685 355.089 259.47 355.027 259.255C356.631 259.824 358.23 260.479 359.817 261.222C360.705 264.038 361.336 266.828 361.737 269.574Z" fill="#7D9046"/>
<path d="M359.644 291.317C359.346 291.317 359.041 291.269 358.737 291.175C359.807 287.095 360.351 282.711 360.254 278.148C361.001 278.882 361.627 279.818 362.11 280.853C361.813 284.506 361.113 288.002 360.076 291.282C359.934 291.306 359.79 291.317 359.644 291.317Z" fill="#3A5928"/>
<path d="M360.793 273.413C360.514 273.413 360.207 273.317 359.89 273.12C359.622 270.934 359.202 268.719 358.623 266.489C358.633 266.488 358.641 266.488 358.65 266.488C358.931 266.488 359.25 266.579 359.598 266.776C360.488 267.276 361.293 268.377 361.737 269.574C361.86 270.413 361.96 271.251 362.039 272.08C361.882 272.95 361.406 273.413 360.793 273.413Z" fill="#3A5928"/>
<path d="M339.512 296.911C345.881 287.659 346.938 271.192 335.713 256.918C342.43 256.593 349.607 257.701 356.663 260.443C364.229 279.837 359.073 298.87 348.662 309.366C346.544 304.001 343.253 299.8 339.512 296.911Z" fill="#A7C05D"/>
<path d="M340.599 296.848C346.671 287.617 347.732 271.864 337.632 257.789C343.52 257.753 349.719 258.831 355.839 261.152C362.85 279.446 358.356 297.382 348.886 307.713C346.812 303.145 343.888 299.492 340.599 296.848Z" fill="#4E7735"/>
<path d="M350.962 298.906C351.655 297.629 352.592 296.859 353.597 296.723C356.672 289.821 357.984 281.407 356.658 272.495C355.414 270.785 354.346 268.8 353.809 266.914C353.274 265.014 352.612 263.108 351.816 261.21C348.855 260.317 345.894 259.714 342.979 259.388C343.944 261.062 344.777 262.756 345.485 264.456C346.169 266.105 345.968 267.422 345.245 268.162C347.784 275.918 347.694 283.517 345.827 289.828C346.284 291.067 346.305 292.5 345.802 293.666C345.141 295.209 344.374 296.659 343.519 298.006C345.149 299.587 346.657 301.43 347.982 303.522C349.069 302.095 350.068 300.553 350.962 298.906Z" fill="#A7C05D"/>
<path d="M351.204 288.3C348.452 286.14 346.44 282.662 346.338 279.587C346.242 276.545 348.521 274.649 351.989 276.269C355.463 277.864 358.146 282.906 357.501 286.489C356.874 290.089 353.93 290.434 351.204 288.3Z" fill="#4E7735"/>
<path d="M350.9 271.744C349.507 271.183 348.083 269.534 347.575 267.933C347.07 266.338 347.76 265.29 349.277 265.715C350.791 266.136 352.451 267.989 352.831 269.722C353.214 271.458 352.286 272.301 350.9 271.744Z" fill="#4E7735"/>
<path d="M348.098 295.949C347.205 295.044 346.884 293.434 347.333 292.169C347.784 290.908 348.928 290.419 349.953 291.257C350.978 292.091 351.384 293.993 350.801 295.319C350.219 296.65 348.991 296.848 348.098 295.949Z" fill="#4E7735"/>
<path d="M348.657 309.358C347.734 307.022 346.591 304.908 345.283 303.026C346.591 304.908 347.736 307.022 348.657 309.358ZM345.176 302.871C345.171 302.864 345.166 302.858 345.161 302.85C345.166 302.858 345.171 302.865 345.176 302.871ZM345.083 302.74C345.079 302.736 345.076 302.731 345.073 302.726C345.077 302.731 345.079 302.735 345.083 302.74ZM345.045 302.687C345.042 302.683 345.04 302.681 345.037 302.677C345.04 302.681 345.042 302.684 345.045 302.687ZM345.007 302.636C345.006 302.634 345.004 302.63 345.003 302.627C345.004 302.631 345.006 302.632 345.007 302.636ZM344.932 302.53C344.931 302.53 344.932 302.53 344.931 302.53H344.932ZM339.531 296.885C339.534 296.88 339.536 296.877 339.539 296.874C339.537 296.876 339.534 296.881 339.531 296.885ZM339.605 296.776C339.608 296.772 339.61 296.768 339.613 296.766C339.61 296.77 339.608 296.772 339.605 296.776ZM339.624 296.749C339.626 296.745 339.629 296.741 339.631 296.739C339.628 296.742 339.626 296.745 339.624 296.749ZM339.697 296.64C339.699 296.635 339.702 296.631 339.706 296.626C339.703 296.631 339.699 296.636 339.697 296.64ZM339.787 296.504C339.79 296.499 339.792 296.495 339.796 296.49C339.793 296.495 339.79 296.5 339.787 296.504ZM339.823 296.448C339.826 296.444 339.828 296.44 339.832 296.436C339.829 296.439 339.826 296.444 339.823 296.448ZM339.842 296.421C339.844 296.416 339.847 296.412 339.85 296.407C339.847 296.411 339.844 296.417 339.842 296.421ZM339.948 296.255C339.951 296.25 339.954 296.245 339.957 296.24C339.954 296.245 339.952 296.25 339.948 296.255ZM340.001 296.171C340.004 296.167 340.008 296.161 340.01 296.157C340.008 296.162 340.005 296.166 340.001 296.171ZM340.019 296.143C340.023 296.138 340.025 296.132 340.029 296.128C340.025 296.133 340.023 296.137 340.019 296.143ZM340.089 296.031C340.093 296.026 340.096 296.021 340.099 296.016C340.096 296.021 340.092 296.026 340.089 296.031ZM340.159 295.918C340.162 295.912 340.165 295.908 340.169 295.902C340.166 295.907 340.162 295.913 340.159 295.918ZM340.211 295.834C340.214 295.829 340.217 295.823 340.221 295.818C340.217 295.823 340.213 295.829 340.211 295.834ZM340.228 295.805C340.232 295.8 340.234 295.794 340.238 295.788C340.235 295.794 340.23 295.8 340.228 295.805ZM340.296 295.693C340.3 295.685 340.304 295.68 340.307 295.674C340.304 295.68 340.3 295.687 340.296 295.693ZM340.312 295.664C340.316 295.658 340.32 295.652 340.323 295.646C340.321 295.652 340.316 295.659 340.312 295.664ZM340.331 295.636C340.333 295.63 340.338 295.623 340.341 295.617C340.337 295.623 340.333 295.63 340.331 295.636ZM340.347 295.607C340.351 295.6 340.354 295.595 340.358 295.589C340.354 295.595 340.351 295.601 340.347 295.607ZM340.364 295.579C340.368 295.573 340.372 295.565 340.375 295.559C340.372 295.567 340.368 295.571 340.364 295.579ZM340.396 295.523C340.401 295.516 340.405 295.51 340.41 295.501C340.405 295.508 340.4 295.516 340.396 295.523ZM340.412 295.496C340.417 295.489 340.422 295.48 340.426 295.474C340.421 295.481 340.417 295.487 340.412 295.496ZM340.43 295.466C340.435 295.458 340.438 295.451 340.443 295.444C340.44 295.45 340.435 295.459 340.43 295.466ZM340.852 294.714C340.858 294.704 340.862 294.695 340.868 294.685C340.863 294.695 340.857 294.704 340.852 294.714ZM340.884 294.654C345.881 285.309 346.07 270.629 336.257 257.624C346.071 270.631 345.881 285.309 340.884 294.654Z" fill="#BFBFBF"/>
<path d="M348.657 309.358C347.736 307.022 346.591 304.908 345.283 303.026C345.283 303.026 345.283 303.025 345.282 303.025C345.26 302.991 345.236 302.958 345.213 302.926V302.924C345.207 302.916 345.202 302.908 345.196 302.901C345.196 302.9 345.194 302.898 345.194 302.897C345.189 302.89 345.183 302.882 345.178 302.875C345.177 302.874 345.176 302.872 345.176 302.871C345.171 302.865 345.166 302.858 345.161 302.85C345.16 302.849 345.158 302.846 345.157 302.845C345.152 302.839 345.147 302.832 345.144 302.825C345.142 302.824 345.14 302.82 345.139 302.819C345.134 302.813 345.13 302.807 345.126 302.801C345.124 302.798 345.121 302.796 345.12 302.792C345.116 302.787 345.113 302.782 345.108 302.776C345.105 302.772 345.103 302.77 345.1 302.766C345.098 302.761 345.094 302.756 345.09 302.751C345.088 302.747 345.085 302.744 345.083 302.74C345.079 302.735 345.077 302.731 345.073 302.726C345.069 302.721 345.067 302.718 345.063 302.713C345.061 302.709 345.058 302.705 345.056 302.702C345.052 302.697 345.048 302.692 345.045 302.687C345.042 302.684 345.04 302.681 345.037 302.677C345.033 302.672 345.03 302.667 345.026 302.662C345.025 302.658 345.022 302.656 345.02 302.652C345.016 302.647 345.011 302.641 345.007 302.636C345.006 302.632 345.004 302.631 345.003 302.627C344.998 302.621 344.993 302.615 344.989 302.609C344.988 302.608 344.986 302.605 344.984 302.603C344.979 302.596 344.974 302.589 344.97 302.583C344.969 302.582 344.968 302.58 344.967 302.579C344.962 302.57 344.955 302.563 344.949 302.556V302.554C344.943 302.546 344.937 302.538 344.932 302.53H344.931C343.319 300.309 341.478 298.428 339.513 296.911C339.519 296.902 339.525 296.894 339.531 296.885C339.534 296.881 339.537 296.876 339.539 296.874C339.542 296.868 339.546 296.863 339.55 296.858C339.552 296.854 339.555 296.85 339.557 296.846C339.561 296.842 339.565 296.835 339.568 296.83C339.571 296.827 339.573 296.823 339.576 296.819C339.579 296.814 339.583 296.809 339.587 296.803C339.589 296.799 339.592 296.796 339.594 296.792C339.598 296.787 339.602 296.782 339.605 296.776C339.608 296.772 339.61 296.77 339.613 296.766C339.616 296.76 339.62 296.755 339.624 296.749C339.626 296.745 339.628 296.742 339.631 296.739C339.635 296.733 339.638 296.728 339.642 296.721C339.645 296.718 339.646 296.715 339.649 296.71C339.652 296.705 339.657 296.699 339.66 296.694C339.662 296.69 339.665 296.687 339.668 296.683C339.671 296.678 339.675 296.672 339.678 296.667C339.681 296.663 339.683 296.66 339.687 296.656C339.69 296.651 339.693 296.646 339.697 296.64C339.699 296.636 339.703 296.631 339.706 296.626C339.708 296.622 339.712 296.617 339.714 296.614C339.718 296.609 339.72 296.604 339.724 296.599C339.727 296.594 339.729 296.59 339.733 296.585C339.735 296.582 339.739 296.577 339.742 296.573C339.745 296.568 339.748 296.563 339.751 296.558C339.754 296.553 339.756 296.549 339.76 296.544C339.763 296.541 339.766 296.536 339.769 296.531C339.772 296.527 339.775 296.521 339.779 296.517C339.781 296.512 339.784 296.507 339.787 296.504C339.79 296.5 339.793 296.495 339.796 296.49C339.798 296.486 339.802 296.48 339.806 296.476C339.808 296.471 339.811 296.468 339.813 296.463C339.817 296.458 339.821 296.453 339.823 296.448C339.826 296.444 339.829 296.439 339.832 296.436C339.834 296.431 339.838 296.426 339.842 296.421C339.844 296.417 339.847 296.411 339.85 296.407C339.853 296.402 339.855 296.398 339.859 296.393C339.862 296.388 339.865 296.384 339.868 296.38C339.871 296.375 339.874 296.371 339.876 296.365C339.88 296.361 339.883 296.356 339.886 296.351C339.889 296.348 339.893 296.343 339.895 296.338C339.897 296.333 339.9 296.329 339.904 296.324C339.906 296.32 339.91 296.314 339.912 296.31C339.916 296.306 339.919 296.301 339.921 296.297C339.925 296.292 339.927 296.287 339.931 296.282C339.933 296.277 339.936 296.273 339.94 296.268C339.942 296.265 339.946 296.258 339.948 296.255C339.952 296.25 339.954 296.245 339.957 296.24C339.961 296.236 339.963 296.231 339.966 296.226C339.969 296.223 339.972 296.218 339.975 296.213C339.978 296.208 339.98 296.204 339.984 296.199C339.987 296.194 339.989 296.189 339.993 296.184C339.995 296.179 339.999 296.176 340.001 296.171C340.005 296.166 340.008 296.162 340.01 296.157C340.014 296.152 340.016 296.148 340.019 296.143C340.023 296.137 340.025 296.133 340.029 296.128C340.031 296.124 340.034 296.12 340.036 296.115C340.04 296.11 340.042 296.105 340.046 296.101C340.049 296.096 340.051 296.091 340.055 296.086C340.057 296.083 340.061 296.077 340.063 296.073C340.066 296.068 340.07 296.063 340.072 296.059C340.075 296.054 340.078 296.049 340.081 296.044C340.083 296.041 340.087 296.036 340.089 296.031C340.092 296.026 340.096 296.021 340.099 296.016C340.102 296.012 340.104 296.007 340.107 296.002C340.11 295.997 340.113 295.994 340.117 295.987C340.119 295.984 340.122 295.979 340.124 295.975C340.128 295.97 340.13 295.965 340.134 295.959C340.136 295.955 340.139 295.95 340.141 295.947C340.145 295.942 340.148 295.937 340.151 295.932C340.154 295.928 340.156 295.923 340.159 295.918C340.162 295.913 340.166 295.907 340.169 295.902C340.171 295.898 340.174 295.895 340.176 295.891C340.18 295.885 340.182 295.88 340.186 295.874C340.188 295.87 340.191 295.866 340.193 295.862C340.197 295.857 340.2 295.851 340.203 295.845C340.206 295.841 340.208 295.838 340.211 295.834C340.213 295.829 340.217 295.823 340.221 295.818C340.223 295.814 340.226 295.809 340.228 295.805C340.23 295.8 340.235 295.794 340.238 295.788C340.24 295.784 340.243 295.782 340.244 295.778C340.248 295.772 340.252 295.766 340.255 295.76C340.258 295.757 340.26 295.753 340.261 295.75C340.265 295.744 340.269 295.737 340.273 295.731C340.275 295.727 340.276 295.725 340.279 295.721C340.282 295.715 340.286 295.709 340.29 295.703C340.291 295.7 340.294 295.696 340.296 295.693C340.3 295.687 340.304 295.68 340.307 295.674C340.308 295.67 340.311 295.668 340.312 295.664C340.316 295.659 340.321 295.652 340.323 295.646C340.326 295.642 340.328 295.638 340.331 295.636C340.333 295.63 340.337 295.623 340.341 295.617C340.343 295.614 340.346 295.61 340.347 295.607C340.351 295.601 340.354 295.595 340.358 295.589C340.359 295.585 340.362 295.583 340.364 295.579C340.368 295.571 340.372 295.567 340.375 295.559C340.377 295.557 340.378 295.555 340.379 295.553C340.383 295.545 340.388 295.538 340.393 295.531C340.394 295.528 340.395 295.526 340.396 295.523C340.4 295.516 340.405 295.508 340.41 295.501C340.41 295.5 340.411 295.497 340.412 295.496C340.417 295.487 340.421 295.481 340.426 295.474C340.427 295.471 340.429 295.469 340.43 295.466C340.435 295.459 340.44 295.45 340.443 295.444C340.443 295.443 340.443 295.443 340.445 295.443C340.45 295.433 340.455 295.424 340.459 295.414C340.461 295.414 340.461 295.413 340.461 295.413C340.472 295.394 340.483 295.376 340.493 295.357C340.494 295.356 340.494 295.356 340.494 295.355C340.583 295.203 340.67 295.048 340.755 294.892V294.891C340.778 294.852 340.799 294.814 340.82 294.774V294.773C340.831 294.753 340.841 294.735 340.852 294.715V294.714C340.857 294.704 340.863 294.695 340.868 294.685V294.684C340.873 294.675 340.878 294.665 340.883 294.655C340.884 294.655 340.884 294.654 340.884 294.654C345.881 285.309 346.071 270.631 336.257 257.624C336.752 257.608 337.248 257.601 337.749 257.601C342.784 257.601 348.033 258.371 353.275 260.004C353.322 260.103 353.368 260.199 353.414 260.298C348.188 258.599 342.94 257.788 337.916 257.788C337.822 257.788 337.726 257.788 337.632 257.789C347.732 271.864 346.671 287.617 340.599 296.848C343.888 299.492 346.812 303.145 348.886 307.713C351.65 304.697 353.989 301.034 355.745 296.902C354.075 301.662 351.644 305.899 348.657 309.358Z" fill="#7D9046"/>
<path d="M348.886 307.713C346.812 303.145 343.888 299.492 340.599 296.848C346.671 287.617 347.732 271.864 337.632 257.789C337.726 257.788 337.822 257.788 337.916 257.788C342.94 257.788 348.188 258.599 353.414 260.298C359.41 273.21 359.449 286.343 355.745 296.902C353.99 301.034 351.65 304.697 348.886 307.713ZM347.091 282.873C346.905 285.314 346.472 287.648 345.827 289.828C346.284 291.067 346.305 292.5 345.802 293.666C345.141 295.209 344.374 296.66 343.52 298.006C345.149 299.587 346.658 301.43 347.982 303.522C349.069 302.095 350.068 300.553 350.962 298.906C351.655 297.629 352.592 296.859 353.597 296.723C354.655 294.347 355.506 291.792 356.11 289.099C356.783 288.601 357.284 287.742 357.501 286.489C357.727 285.241 357.547 283.817 357.072 282.423C357.286 279.224 357.163 275.895 356.658 272.495C355.414 270.785 354.346 268.8 353.809 266.915C353.274 265.014 352.612 263.108 351.816 261.21C348.855 260.317 345.894 259.714 342.979 259.388C343.944 261.062 344.777 262.757 345.485 264.456C346.169 266.105 345.968 267.422 345.245 268.162C346.216 271.127 346.802 274.07 347.052 276.925C346.56 277.607 346.305 278.527 346.338 279.587C346.374 280.658 346.64 281.778 347.091 282.873Z" fill="#3A5928"/>
<path d="M347.982 303.522C346.657 301.43 345.149 299.587 343.519 298.006C344.374 296.659 345.141 295.209 345.802 293.666C346.305 292.5 346.284 291.067 345.827 289.828C346.472 287.648 346.905 285.314 347.091 282.873C347.931 284.924 349.412 286.893 351.204 288.3C352.307 289.164 353.446 289.622 354.454 289.622C355.068 289.622 355.633 289.451 356.11 289.098C355.506 291.792 354.655 294.347 353.597 296.723C352.592 296.859 351.655 297.629 350.962 298.906C350.068 300.553 349.069 302.095 347.982 303.522ZM348.898 290.841C348.231 290.841 347.63 291.337 347.333 292.168C346.884 293.433 347.205 295.044 348.098 295.949C348.462 296.314 348.881 296.498 349.289 296.498C349.883 296.498 350.455 296.109 350.801 295.319C351.384 293.993 350.978 292.09 349.953 291.257C349.604 290.973 349.242 290.841 348.898 290.841ZM357.072 282.423C356.182 279.813 354.253 277.309 351.989 276.269C351.116 275.862 350.318 275.676 349.615 275.676C348.497 275.676 347.617 276.143 347.052 276.925C346.802 274.069 346.216 271.127 345.245 268.162C345.968 267.422 346.169 266.105 345.485 264.456C344.777 262.756 343.944 261.062 342.979 259.388C345.894 259.714 348.855 260.317 351.816 261.21C352.612 263.108 353.274 265.014 353.809 266.914C354.346 268.8 355.414 270.785 356.658 272.495C357.163 275.895 357.286 279.224 357.072 282.423ZM348.646 265.621C347.578 265.621 347.146 266.579 347.575 267.933C348.084 269.534 349.507 271.183 350.9 271.743C351.186 271.858 351.453 271.914 351.693 271.914C352.614 271.914 353.135 271.098 352.831 269.722C352.451 267.989 350.791 266.136 349.277 265.715C349.047 265.651 348.836 265.621 348.646 265.621Z" fill="#7D9046"/>
<path d="M354.454 289.622C353.446 289.622 352.307 289.164 351.204 288.3C349.412 286.893 347.931 284.924 347.091 282.873C346.64 281.778 346.374 280.658 346.338 279.587C346.305 278.527 346.56 277.607 347.052 276.925C347.617 276.143 348.497 275.676 349.615 275.676C350.318 275.676 351.116 275.862 351.989 276.269C354.253 277.309 356.182 279.813 357.072 282.423C357.547 283.817 357.727 285.241 357.501 286.489C357.283 287.742 356.783 288.601 356.11 289.099C355.633 289.451 355.068 289.622 354.454 289.622Z" fill="#3A5928"/>
<path d="M351.693 271.914C351.453 271.914 351.186 271.859 350.9 271.744C349.507 271.183 348.084 269.534 347.575 267.933C347.147 266.579 347.579 265.621 348.646 265.621C348.836 265.621 349.047 265.651 349.277 265.715C350.791 266.136 352.451 267.989 352.831 269.722C353.135 271.099 352.614 271.914 351.693 271.914Z" fill="#3A5928"/>
<path d="M349.289 296.499C348.881 296.499 348.462 296.314 348.098 295.949C347.205 295.044 346.884 293.434 347.333 292.168C347.63 291.337 348.231 290.841 348.898 290.841C349.242 290.841 349.604 290.973 349.953 291.257C350.978 292.09 351.384 293.993 350.801 295.319C350.455 296.109 349.883 296.499 349.289 296.499Z" fill="#3A5928"/>
<path d="M338.109 298.036C343.432 288.145 342.686 271.662 329.972 258.696C336.613 257.64 343.869 257.96 351.182 259.916C360.816 278.37 357.766 297.852 348.56 309.421C345.87 304.318 342.143 300.499 338.109 298.036Z" fill="#A7C05D"/>
<path d="M339.182 297.855C344.212 288.017 343.549 272.242 331.975 259.352C337.823 258.675 344.104 259.07 350.439 260.711C359.404 278.131 356.89 296.451 348.603 307.752C346.044 303.438 342.74 300.124 339.182 297.855Z" fill="#4E7735"/>
<path d="M349.706 298.773C350.256 297.426 351.104 296.558 352.088 296.314C354.393 289.12 354.78 280.612 352.49 271.897C351.067 270.334 349.789 268.477 349.05 266.66C348.311 264.83 347.445 263.008 346.446 261.207C343.406 260.641 340.396 260.365 337.464 260.359C338.606 261.919 339.619 263.512 340.508 265.125C341.366 266.689 341.311 268.019 340.672 268.835C344.043 276.267 344.78 283.83 343.614 290.307C344.203 291.489 344.38 292.911 344.007 294.124C343.518 295.731 342.914 297.257 342.211 298.688C344.003 300.082 345.704 301.75 347.248 303.686C348.173 302.148 348.998 300.506 349.706 298.773Z" fill="#A7C05D"/>
<path d="M348.792 288.202C345.822 286.356 343.44 283.117 343.006 280.071C342.577 277.059 344.636 274.925 348.262 276.158C351.888 277.364 355.105 282.082 354.855 285.716C354.623 289.362 351.734 290.027 348.792 288.202Z" fill="#4E7735"/>
<path d="M346.684 271.777C345.239 271.372 343.645 269.888 342.964 268.353C342.288 266.822 342.86 265.705 344.413 265.963C345.964 266.217 347.817 267.877 348.383 269.558C348.954 271.241 348.123 272.181 346.684 271.777Z" fill="#4E7735"/>
<path d="M346.539 296.143C345.552 295.342 345.057 293.776 345.366 292.469C345.677 291.168 346.76 290.558 347.871 291.278C348.98 291.995 349.591 293.842 349.156 295.223C348.723 296.61 347.523 296.94 346.539 296.143Z" fill="#4E7735"/>
<path d="M630.977 213.667C640.983 208.563 649.751 194.585 646.675 176.689C652.737 179.6 658.52 183.992 663.42 189.762C660.841 210.419 647.245 224.702 633.092 228.977C633.784 223.249 632.892 217.988 630.977 213.667Z" fill="#A7C05D"/>
<path d="M631.961 214.128C641.697 208.901 650.13 195.554 647.949 178.367C653.142 181.139 658.082 185.038 662.358 189.994C659.815 209.419 647.322 223.053 634.077 227.629C634.427 222.624 633.596 218.02 631.961 214.128Z" fill="#4E7735"/>
<path d="M640.095 220.873C641.311 220.079 642.503 219.847 643.452 220.207C649.441 215.602 654.601 208.827 657.679 200.358C657.398 198.263 657.405 196.009 657.83 194.093C658.263 192.168 658.589 190.177 658.793 188.128C656.615 185.933 654.298 183.993 651.89 182.319C651.941 184.252 651.867 186.138 651.68 187.969C651.495 189.745 650.692 190.807 649.705 191.114C648.245 199.143 644.547 205.782 639.902 210.445C639.714 211.752 639.049 213.022 638.052 213.808C636.736 214.849 635.371 215.761 633.979 216.538C634.659 218.704 635.109 221.043 635.276 223.513C636.912 222.775 638.525 221.895 640.095 220.873Z" fill="#A7C05D"/>
<path d="M645.358 211.66C643.966 208.451 643.852 204.434 645.227 201.681C646.59 198.962 649.496 198.377 651.775 201.455C654.071 204.51 654.031 210.222 651.758 213.066C649.492 215.932 646.738 214.836 645.358 211.66Z" fill="#4E7735"/>
<path d="M652.973 196.956C652.014 195.799 651.548 193.671 651.862 192.023C652.178 190.378 653.283 189.786 654.415 190.881C655.546 191.973 656.124 194.393 655.633 196.097C655.144 197.806 653.926 198.105 652.973 196.956Z" fill="#4E7735"/>
<path d="M638.986 216.908C638.629 215.688 639.115 214.118 640.112 213.22C641.108 212.326 642.346 212.441 642.849 213.666C643.354 214.885 642.806 216.752 641.66 217.641C640.516 218.535 639.342 218.123 638.986 216.908Z" fill="#4E7735"/>
<mask id="mask1_1341_14188" style="mask-type:luminance" maskUnits="userSpaceOnUse" x="647" y="179" width="1" height="2">
<path d="M647.138 180.224C647.136 180.224 647.136 180.224 647.135 180.223C647.115 179.994 647.093 179.765 647.068 179.534C647.07 179.535 647.07 179.535 647.071 179.535C647.095 179.766 647.117 179.995 647.138 180.224Z" fill="white"/>
</mask>
<g mask="url(#mask1_1341_14188)">
<path d="M646.904 180.163L647.138 180.224L647.302 179.594L647.069 179.533L646.904 180.163Z" fill="#BFBFBF"/>
</g>
<path d="M634.22 228.613C635.325 227.9 636.405 227.113 637.452 226.257C638.063 225.971 638.67 225.667 639.272 225.344C637.85 226.483 636.374 227.499 634.861 228.387C634.648 228.465 634.434 228.539 634.22 228.613ZM648.189 180.806C647.84 180.607 647.489 180.413 647.137 180.224C647.117 179.995 647.094 179.767 647.071 179.535C647.426 179.725 647.781 179.919 648.135 180.119C648.155 180.348 648.173 180.578 648.189 180.806Z" fill="#7D9046"/>
<path d="M637.452 226.257C639.592 224.512 641.6 222.48 643.425 220.197C643.434 220.201 643.442 220.204 643.452 220.207C644.739 219.219 645.987 218.13 647.184 216.944C644.854 220.199 642.174 223.023 639.272 225.344C638.67 225.667 638.063 225.971 637.452 226.257ZM651.903 183.12C650.683 182.289 649.443 181.517 648.189 180.806C648.174 180.578 648.156 180.348 648.135 180.119C649.404 180.833 650.659 181.61 651.893 182.449C651.898 182.673 651.901 182.897 651.903 183.12Z" fill="#3A5928"/>
<path d="M643.452 220.207C643.442 220.204 643.434 220.201 643.425 220.197C644.881 218.376 646.22 216.394 647.414 214.27C647.685 214.438 647.968 214.562 648.256 214.637C648.398 214.674 648.539 214.7 648.683 214.713C648.202 215.477 647.702 216.222 647.184 216.944C645.986 218.13 644.739 219.219 643.452 220.207ZM653.287 205.137C653.081 204.013 652.712 202.949 652.175 202.051C652.56 200.441 652.868 198.787 653.094 197.094C653.351 197.364 653.623 197.535 653.893 197.606C654.486 197.76 655.064 197.433 655.436 196.631C654.957 199.606 654.228 202.446 653.287 205.137ZM655.777 194.129C655.65 192.859 655.149 191.59 654.415 190.882C654.128 190.603 653.842 190.434 653.57 190.363C653.562 190.361 653.553 190.359 653.544 190.357C653.547 188.286 653.428 186.168 653.176 184.012C652.754 183.708 652.33 183.41 651.903 183.12C651.901 182.897 651.898 182.673 651.893 182.449C653.301 183.405 654.683 184.443 656.031 185.563C656.178 188.512 656.083 191.371 655.777 194.129Z" fill="#7D9046"/>
<path d="M648.256 214.637C647.968 214.562 647.685 214.438 647.414 214.27C649.482 210.593 651.115 206.49 652.175 202.051C652.712 202.95 653.081 204.013 653.287 205.137C652.076 208.596 650.516 211.801 648.683 214.713C648.539 214.7 648.398 214.674 648.256 214.637Z" fill="#3A5928"/>
<path d="M653.893 197.606C653.623 197.535 653.351 197.364 653.094 197.094C653.387 194.911 653.54 192.662 653.544 190.357C653.553 190.359 653.562 190.361 653.57 190.363C653.842 190.434 654.128 190.603 654.415 190.882C655.149 191.59 655.65 192.859 655.777 194.129C655.684 194.972 655.569 195.808 655.436 196.631C655.064 197.433 654.486 197.76 653.893 197.606Z" fill="#3A5928"/>
<path d="M627.365 214.961C635.865 207.619 641.05 191.955 633.797 175.307C640.378 176.69 647.042 179.576 653.176 184.012C655.594 204.689 645.795 221.801 633.068 229.325C632.375 223.599 630.254 218.702 627.365 214.961Z" fill="#A7C05D"/>
<path d="M628.432 215.175C636.64 207.779 641.648 192.805 635.433 176.634C641.139 178.088 646.864 180.698 652.199 184.49C654.359 203.962 645.476 220.18 633.703 227.781C632.852 222.838 630.946 218.565 628.432 215.175Z" fill="#4E7735"/>
<path d="M637.937 219.786C638.931 218.725 640.032 218.217 641.039 218.339C645.759 212.439 649.155 204.63 650.125 195.672C649.353 193.703 648.821 191.512 648.778 189.552C648.741 187.579 648.582 185.567 648.292 183.53C645.653 181.916 642.94 180.585 640.202 179.533C640.713 181.396 641.091 183.247 641.346 185.07C641.591 186.838 641.064 188.062 640.177 188.595C640.673 196.74 638.665 204.07 635.264 209.704C635.393 211.018 635.051 212.411 634.27 213.412C633.241 214.737 632.131 215.947 630.964 217.034C632.141 218.975 633.135 221.14 633.888 223.499C635.3 222.393 636.657 221.153 637.937 219.786Z" fill="#A7C05D"/>
<path d="M640.853 209.585C638.737 206.8 637.668 202.926 638.347 199.925C639.023 196.958 641.707 195.699 644.653 198.143C647.611 200.564 648.933 206.121 647.403 209.425C645.886 212.749 642.951 212.339 640.853 209.585Z" fill="#4E7735"/>
<path d="M644.743 193.489C643.537 192.595 642.577 190.64 642.489 188.962C642.404 187.291 643.337 186.452 644.697 187.246C646.055 188.036 647.193 190.249 647.122 192.022C647.055 193.798 645.944 194.379 644.743 193.489Z" fill="#4E7735"/>
<path d="M635.915 216.201C635.279 215.099 635.376 213.46 636.13 212.35C636.884 211.244 638.115 211.06 638.895 212.13C639.676 213.195 639.588 215.139 638.688 216.274C637.789 217.415 636.551 217.296 635.915 216.201Z" fill="#4E7735"/>
<path d="M633.066 229.315C632.764 226.822 632.192 224.487 631.402 222.337C632.192 224.487 632.765 226.822 633.066 229.315ZM631.337 222.16C631.334 222.151 631.331 222.144 631.328 222.136C631.331 222.144 631.334 222.152 631.337 222.16ZM631.281 222.009C631.278 222.005 631.276 221.999 631.275 221.994C631.277 221.999 631.278 222.003 631.281 222.009ZM631.257 221.948C631.256 221.944 631.254 221.941 631.252 221.937C631.254 221.941 631.255 221.945 631.257 221.948ZM631.234 221.89C631.233 221.887 631.232 221.883 631.231 221.88C631.232 221.884 631.234 221.886 631.234 221.89ZM631.188 221.767C631.187 221.767 631.188 221.767 631.187 221.767L631.188 221.767ZM627.389 214.941C627.393 214.937 627.396 214.935 627.399 214.932C627.397 214.934 627.392 214.938 627.389 214.941ZM627.488 214.854C627.492 214.851 627.495 214.848 627.498 214.847C627.495 214.85 627.492 214.851 627.488 214.854ZM627.513 214.833C627.517 214.83 627.52 214.827 627.523 214.825C627.518 214.828 627.517 214.83 627.513 214.833ZM627.611 214.746C627.615 214.742 627.618 214.739 627.623 214.735C627.62 214.739 627.615 214.743 627.611 214.746ZM627.733 214.637C627.737 214.633 627.74 214.63 627.745 214.626C627.741 214.63 627.737 214.634 627.733 214.637ZM627.782 214.592C627.785 214.589 627.789 214.586 627.794 214.582C627.79 214.585 627.785 214.589 627.782 214.592ZM627.807 214.57C627.811 214.566 627.814 214.563 627.819 214.559C627.814 214.562 627.81 214.567 627.807 214.57ZM627.952 214.437C627.956 214.433 627.96 214.429 627.964 214.425C627.96 214.429 627.957 214.433 627.952 214.437ZM628.025 214.369C628.028 214.366 628.033 214.361 628.036 214.358C628.033 214.362 628.03 214.365 628.025 214.369ZM628.048 214.347C628.053 214.343 628.057 214.338 628.062 214.335C628.057 214.339 628.053 214.342 628.048 214.347ZM628.145 214.256C628.15 214.252 628.154 214.248 628.158 214.244C628.154 214.248 628.149 214.251 628.145 214.256ZM628.241 214.164C628.246 214.159 628.249 214.156 628.254 214.151C628.251 214.155 628.245 214.16 628.241 214.164ZM628.312 214.096C628.317 214.092 628.321 214.087 628.326 214.083C628.321 214.087 628.316 214.092 628.312 214.096ZM628.336 214.073C628.341 214.069 628.345 214.063 628.35 214.058C628.346 214.064 628.34 214.069 628.336 214.073ZM628.43 213.981C628.436 213.975 628.441 213.971 628.446 213.966C628.441 213.971 628.436 213.976 628.43 213.981ZM628.453 213.957C628.458 213.952 628.464 213.947 628.469 213.942C628.465 213.948 628.458 213.954 628.453 213.957ZM628.478 213.935C628.482 213.929 628.489 213.924 628.493 213.919C628.488 213.924 628.482 213.929 628.478 213.935ZM628.501 213.911C628.507 213.905 628.511 213.901 628.517 213.896C628.511 213.901 628.506 213.906 628.501 213.911ZM628.525 213.888C628.53 213.883 628.536 213.877 628.541 213.872C628.535 213.878 628.531 213.882 628.525 213.888ZM628.57 213.842C628.577 213.836 628.582 213.831 628.589 213.824C628.583 213.83 628.576 213.836 628.57 213.842ZM628.593 213.82C628.599 213.814 628.606 213.807 628.612 213.802C628.605 213.808 628.6 213.813 628.593 213.82ZM628.617 213.795C628.624 213.788 628.629 213.783 628.636 213.777C628.631 213.782 628.624 213.79 628.617 213.795ZM629.216 213.174C629.224 213.166 629.23 213.159 629.239 213.151C629.231 213.159 629.223 213.166 629.216 213.174ZM629.262 213.125C636.459 205.346 640.351 191.191 634.144 176.128C640.352 191.192 636.459 205.346 629.262 213.125Z" fill="#BFBFBF"/>
<path d="M633.066 229.315C632.765 226.822 632.192 224.487 631.402 222.337C631.402 222.337 631.403 222.335 631.402 222.335C631.388 222.297 631.374 222.259 631.36 222.222L631.36 222.221C631.356 222.211 631.353 222.202 631.349 222.193C631.349 222.192 631.348 222.191 631.349 222.189C631.346 222.181 631.342 222.172 631.339 222.164C631.338 222.162 631.337 222.161 631.337 222.16C631.334 222.152 631.331 222.144 631.328 222.136C631.327 222.134 631.327 222.131 631.326 222.13C631.323 222.123 631.32 222.114 631.318 222.107C631.317 222.106 631.315 222.101 631.315 222.1C631.311 222.093 631.309 222.086 631.307 222.079C631.306 222.076 631.304 222.073 631.304 222.069C631.301 222.063 631.299 222.057 631.296 222.05C631.294 222.046 631.292 222.043 631.291 222.039C631.29 222.033 631.287 222.028 631.285 222.022C631.284 222.018 631.282 222.013 631.281 222.009C631.278 222.003 631.277 221.999 631.275 221.994C631.272 221.988 631.271 221.984 631.268 221.978C631.267 221.974 631.266 221.969 631.264 221.965C631.262 221.959 631.259 221.954 631.257 221.948C631.255 221.945 631.254 221.941 631.252 221.937C631.25 221.931 631.248 221.925 631.245 221.919C631.245 221.915 631.243 221.912 631.242 221.908C631.24 221.902 631.236 221.895 631.234 221.89C631.234 221.886 631.232 221.884 631.231 221.88C631.228 221.873 631.225 221.865 631.223 221.858C631.222 221.857 631.221 221.854 631.22 221.851C631.216 221.844 631.213 221.836 631.211 221.829C631.211 221.827 631.21 221.826 631.209 221.824C631.206 221.814 631.202 221.806 631.198 221.797L631.198 221.796C631.195 221.786 631.19 221.777 631.188 221.767L631.187 221.767C630.189 219.211 628.883 216.927 627.364 214.961C627.373 214.955 627.381 214.948 627.389 214.941C627.392 214.938 627.397 214.934 627.399 214.932C627.404 214.927 627.409 214.923 627.414 214.919C627.417 214.916 627.421 214.913 627.424 214.91C627.429 214.906 627.434 214.901 627.439 214.898C627.442 214.895 627.445 214.892 627.449 214.889C627.454 214.885 627.458 214.881 627.464 214.876C627.467 214.873 627.47 214.87 627.474 214.867C627.478 214.863 627.483 214.859 627.488 214.854C627.492 214.851 627.495 214.85 627.498 214.847C627.503 214.842 627.508 214.838 627.513 214.833C627.517 214.83 627.518 214.828 627.523 214.825C627.528 214.82 627.532 214.816 627.538 214.811C627.541 214.808 627.543 214.806 627.547 214.802C627.552 214.798 627.558 214.793 627.562 214.789C627.565 214.786 627.568 214.783 627.573 214.78C627.577 214.776 627.582 214.771 627.587 214.767C627.59 214.764 627.593 214.761 627.598 214.759C627.601 214.755 627.606 214.751 627.611 214.746C627.615 214.743 627.62 214.739 627.623 214.735C627.627 214.732 627.631 214.728 627.635 214.725C627.64 214.721 627.643 214.717 627.648 214.713C627.652 214.709 627.655 214.706 627.66 214.702C627.663 214.699 627.668 214.695 627.671 214.692C627.676 214.688 627.68 214.684 627.685 214.68C627.688 214.676 627.692 214.673 627.697 214.669C627.7 214.666 627.705 214.663 627.708 214.658C627.713 214.656 627.717 214.65 627.721 214.648C627.725 214.644 627.729 214.639 627.733 214.637C627.737 214.634 627.741 214.63 627.745 214.626C627.748 214.623 627.754 214.618 627.758 214.615C627.762 214.611 627.765 214.608 627.769 214.604C627.774 214.6 627.778 214.596 627.782 214.592C627.785 214.589 627.79 214.585 627.794 214.582C627.797 214.578 627.802 214.574 627.807 214.57C627.81 214.567 627.814 214.562 627.819 214.559C627.822 214.555 627.826 214.552 627.831 214.548C627.834 214.544 627.839 214.54 627.842 214.537C627.847 214.534 627.851 214.531 627.855 214.525C627.859 214.523 627.863 214.518 627.868 214.514C627.871 214.512 627.876 214.508 627.879 214.504C627.883 214.499 627.886 214.496 627.891 214.493C627.895 214.49 627.9 214.485 627.903 214.482C627.908 214.478 627.912 214.474 627.915 214.471C627.92 214.467 627.923 214.463 627.928 214.459C627.932 214.455 627.935 214.452 627.94 214.448C627.943 214.445 627.949 214.44 627.952 214.437C627.957 214.433 627.96 214.429 627.964 214.425C627.969 214.422 627.972 214.418 627.976 214.414C627.98 214.411 627.984 214.407 627.989 214.403C627.993 214.399 627.996 214.396 628.001 214.392C628.004 214.388 628.008 214.384 628.013 214.38C628.016 214.376 628.021 214.373 628.025 214.369C628.03 214.365 628.033 214.362 628.036 214.358C628.041 214.354 628.045 214.351 628.048 214.347C628.053 214.342 628.057 214.339 628.062 214.335C628.065 214.331 628.069 214.328 628.072 214.324C628.077 214.32 628.081 214.316 628.085 214.313C628.089 214.309 628.093 214.305 628.097 214.301C628.101 214.298 628.106 214.293 628.109 214.29C628.113 214.286 628.118 214.282 628.121 214.279C628.125 214.275 628.13 214.271 628.133 214.267C628.137 214.264 628.141 214.26 628.145 214.256C628.149 214.251 628.154 214.248 628.158 214.244C628.162 214.241 628.165 214.237 628.169 214.232C628.174 214.229 628.177 214.226 628.182 214.221C628.186 214.218 628.189 214.213 628.193 214.21C628.198 214.207 628.201 214.202 628.206 214.197C628.21 214.194 628.213 214.19 628.217 214.187C628.221 214.183 628.225 214.179 628.23 214.175C628.233 214.172 628.237 214.168 628.241 214.164C628.245 214.16 628.251 214.155 628.254 214.151C628.258 214.148 628.261 214.145 628.264 214.142C628.269 214.137 628.273 214.133 628.278 214.128C628.282 214.125 628.285 214.122 628.288 214.119C628.293 214.115 628.297 214.11 628.302 214.105C628.306 214.102 628.309 214.099 628.312 214.096C628.316 214.092 628.321 214.087 628.326 214.083C628.329 214.08 628.333 214.076 628.336 214.073C628.34 214.069 628.346 214.064 628.35 214.058C628.353 214.055 628.356 214.054 628.359 214.05C628.364 214.045 628.369 214.04 628.374 214.035C628.377 214.033 628.38 214.031 628.383 214.027C628.388 214.022 628.393 214.017 628.398 214.012C628.401 214.009 628.403 214.007 628.407 214.004C628.412 213.999 628.417 213.994 628.422 213.989C628.424 213.987 628.427 213.984 628.43 213.981C628.436 213.976 628.441 213.971 628.446 213.966C628.448 213.962 628.451 213.961 628.453 213.957C628.458 213.954 628.465 213.948 628.469 213.942C628.472 213.939 628.475 213.936 628.478 213.935C628.482 213.929 628.488 213.924 628.493 213.919C628.496 213.916 628.499 213.913 628.501 213.911C628.506 213.906 628.511 213.901 628.517 213.896C628.519 213.893 628.522 213.891 628.525 213.888C628.531 213.882 628.535 213.878 628.541 213.872C628.543 213.869 628.544 213.869 628.546 213.867C628.552 213.86 628.558 213.854 628.565 213.848C628.567 213.846 628.569 213.844 628.57 213.842C628.576 213.836 628.583 213.83 628.589 213.824C628.589 213.823 628.591 213.821 628.593 213.82C628.6 213.813 628.605 213.808 628.612 213.802C628.613 213.8 628.615 213.798 628.617 213.796C628.624 213.79 628.631 213.782 628.636 213.777C628.636 213.776 628.636 213.776 628.637 213.777C628.645 213.768 628.652 213.761 628.659 213.753C628.66 213.753 628.66 213.752 628.66 213.752C628.676 213.737 628.691 213.722 628.706 213.706C628.707 213.705 628.707 213.705 628.708 213.704C628.832 213.579 628.955 213.451 629.077 213.322L629.078 213.321C629.109 213.289 629.139 213.258 629.169 213.225L629.17 213.223C629.185 213.207 629.2 213.192 629.215 213.175L629.216 213.174C629.223 213.166 629.231 213.159 629.239 213.151L629.239 213.149C629.246 213.142 629.253 213.134 629.26 213.126C629.262 213.126 629.262 213.125 629.262 213.125C636.459 205.346 640.352 191.192 634.144 176.128C634.627 176.237 635.11 176.355 635.594 176.482C640.466 177.755 645.349 179.826 650.009 182.731C650.029 182.839 650.049 182.944 650.068 183.051C645.441 180.086 640.569 177.975 635.708 176.705C635.617 176.681 635.525 176.657 635.433 176.634C641.648 192.805 636.64 207.779 628.432 215.175C630.946 218.565 632.852 222.838 633.703 227.781C637.14 225.563 640.329 222.61 643.072 219.056C640.253 223.239 636.83 226.724 633.066 229.315Z" fill="#7D9046"/>
<path d="M633.703 227.781C632.852 222.838 630.946 218.565 628.432 215.175C636.64 207.779 641.648 192.805 635.433 176.634C635.525 176.657 635.617 176.681 635.708 176.705C640.569 177.975 645.441 180.086 650.068 183.051C652.606 197.06 649.324 209.776 643.072 219.056C640.329 222.61 637.14 225.563 633.703 227.781ZM638.245 203.295C637.448 205.61 636.439 207.758 635.264 209.704C635.393 211.019 635.051 212.411 634.27 213.412C633.241 214.737 632.131 215.947 630.965 217.034C632.141 218.975 633.135 221.14 633.888 223.499C635.3 222.393 636.657 221.153 637.938 219.786C638.931 218.725 640.032 218.217 641.039 218.339C642.664 216.308 644.132 214.051 645.398 211.598C646.175 211.287 646.876 210.582 647.403 209.425C647.937 208.274 648.123 206.851 648.016 205.382C649.031 202.341 649.754 199.09 650.125 195.672C649.353 193.703 648.821 191.512 648.778 189.552C648.741 187.579 648.582 185.567 648.292 183.53C645.653 181.917 642.94 180.585 640.202 179.533C640.713 181.397 641.091 183.247 641.346 185.07C641.591 186.838 641.064 188.062 640.177 188.595C640.367 191.709 640.191 194.704 639.711 197.53C639.062 198.066 638.583 198.891 638.347 199.925C638.111 200.97 638.086 202.121 638.245 203.295Z" fill="#3A5928"/>
<path d="M633.888 223.499C633.135 221.14 632.141 218.975 630.964 217.034C632.131 215.947 633.241 214.737 634.27 213.412C635.051 212.411 635.393 211.018 635.264 209.704C636.439 207.758 637.448 205.61 638.245 203.295C638.539 205.492 639.474 207.77 640.853 209.585C641.702 210.7 642.688 211.431 643.663 211.686C644.257 211.841 644.847 211.819 645.398 211.598C644.132 214.051 642.664 216.308 641.039 218.339C640.032 218.217 638.931 218.725 637.937 219.786C636.657 221.153 635.3 222.393 633.888 223.499ZM637.979 211.461C637.334 211.293 636.628 211.62 636.13 212.35C635.376 213.46 635.279 215.099 635.915 216.201C636.175 216.646 636.533 216.93 636.928 217.033C637.503 217.184 638.155 216.951 638.688 216.274C639.588 215.139 639.676 213.195 638.895 212.13C638.629 211.766 638.312 211.548 637.979 211.461ZM648.016 205.382C647.814 202.632 646.581 199.722 644.653 198.143C643.912 197.529 643.186 197.147 642.506 196.969C641.424 196.687 640.455 196.916 639.711 197.53C640.191 194.704 640.367 191.709 640.177 188.595C641.064 188.062 641.591 186.838 641.346 185.07C641.091 183.247 640.713 181.396 640.202 179.533C642.94 180.585 645.653 181.916 648.292 183.53C648.582 185.567 648.741 187.579 648.778 189.552C648.821 191.512 649.353 193.703 650.125 195.672C649.754 199.089 649.031 202.341 648.016 205.382ZM644.11 186.996C643.077 186.726 642.417 187.544 642.489 188.962C642.577 190.64 643.537 192.595 644.743 193.489C644.991 193.673 645.235 193.794 645.468 193.855C646.359 194.088 647.069 193.43 647.122 192.021C647.193 190.249 646.055 188.036 644.697 187.246C644.49 187.126 644.294 187.044 644.11 186.996Z" fill="#7D9046"/>
<path d="M643.663 211.686C642.688 211.431 641.702 210.7 640.853 209.585C639.474 207.771 638.539 205.492 638.245 203.295C638.086 202.121 638.111 200.97 638.347 199.925C638.583 198.891 639.062 198.066 639.711 197.53C640.455 196.916 641.424 196.687 642.506 196.97C643.186 197.147 643.912 197.529 644.653 198.143C646.581 199.722 647.814 202.632 648.016 205.382C648.123 206.851 647.937 208.274 647.403 209.425C646.876 210.582 646.175 211.287 645.398 211.598C644.847 211.819 644.257 211.841 643.663 211.686Z" fill="#3A5928"/>
<path d="M645.468 193.855C645.235 193.794 644.991 193.673 644.743 193.489C643.537 192.595 642.577 190.64 642.489 188.962C642.417 187.544 643.077 186.726 644.11 186.996C644.294 187.044 644.49 187.126 644.697 187.246C646.055 188.036 647.193 190.249 647.122 192.022C647.069 193.43 646.359 194.088 645.468 193.855Z" fill="#3A5928"/>
<path d="M636.928 217.034C636.533 216.93 636.175 216.646 635.915 216.201C635.279 215.099 635.376 213.46 636.13 212.35C636.628 211.62 637.334 211.293 637.979 211.461C638.312 211.548 638.629 211.767 638.895 212.13C639.676 213.195 639.588 215.139 638.689 216.274C638.155 216.951 637.503 217.184 636.928 217.034Z" fill="#3A5928"/>
<path d="M625.722 215.695C633.372 207.471 636.817 191.334 627.793 175.576C634.485 176.233 641.424 178.376 648.006 182.117C652.663 202.407 644.788 220.485 632.956 229.352C631.643 223.735 629.002 219.098 625.722 215.695Z" fill="#A7C05D"/>
<path d="M626.806 215.792C634.159 207.544 637.505 192.114 629.565 176.717C635.394 177.54 641.371 179.51 647.086 182.699C651.357 201.819 644.294 218.909 633.42 227.748C632.034 222.927 629.675 218.886 626.806 215.792Z" fill="#4E7735"/>
<path d="M636.757 219.339C637.629 218.175 638.669 217.55 639.683 217.563C643.731 211.184 646.256 203.05 646.243 194.04C645.261 192.167 644.494 190.048 644.239 188.103C643.986 186.146 643.608 184.164 643.097 182.169C640.298 180.853 637.457 179.825 634.621 179.078C635.332 180.876 635.909 182.674 636.361 184.459C636.796 186.189 636.407 187.462 635.583 188.09C636.966 196.133 635.767 203.637 633.002 209.608C633.273 210.901 633.085 212.322 632.418 213.401C631.538 214.832 630.568 216.157 629.526 217.363C630.908 219.165 632.132 221.208 633.136 223.471C634.42 222.218 635.634 220.837 636.757 219.339Z" fill="#A7C05D"/>
<path d="M638.543 208.881C636.137 206.343 634.651 202.608 635.001 199.551C635.347 196.529 637.879 194.984 641.075 197.094C644.278 199.177 646.198 204.555 645.038 208.007C643.892 211.477 640.929 211.39 638.543 208.881Z" fill="#4E7735"/>
<path d="M640.655 192.456C639.36 191.699 638.192 189.86 637.922 188.203C637.655 186.551 638.49 185.615 639.928 186.257C641.365 186.894 642.738 188.969 642.861 190.738C642.987 192.511 641.946 193.21 640.655 192.456Z" fill="#4E7735"/>
<path d="M634.357 215.994C633.604 214.97 633.521 213.33 634.151 212.143C634.78 210.963 635.983 210.646 636.875 211.624C637.767 212.598 637.892 214.54 637.121 215.766C636.352 216.998 635.107 217.014 634.357 215.994Z" fill="#4E7735"/>
<path d="M574.536 86.831C570.538 72.6251 563.51 61.6551 554.972 54.8393C563.845 49.0473 573.93 44.6429 584.933 42C590.388 55.6959 592.692 72.5793 590.638 91.3691C585.462 89.1124 580.075 87.6344 574.536 86.831Z" fill="#A7C05D"/>
<path d="M575.315 86.072C571.656 72.2672 565.16 61.3863 557.148 54.2536C565.029 49.4606 573.803 45.7432 583.276 43.3504C588.635 56.2342 591.163 72.084 589.78 89.7931C585.088 87.9648 580.252 86.7492 575.315 86.072Z" fill="#4E7735"/>
<path d="M585.989 80.3741C585.862 78.6968 586.392 77.298 587.443 76.3782C586.787 68.0795 585.208 60.3885 582.858 53.4515C580.843 52.8845 579.224 51.9066 578.613 50.5462C578.004 49.1746 577.362 47.8389 576.688 46.5429C572.267 47.9602 568.018 49.6772 563.967 51.6664C564.789 52.6518 565.588 53.6805 566.362 54.7512C567.109 55.7935 566.767 57.1577 565.732 58.3881C569.301 63.3929 572.327 69.3248 574.634 76.0625C575.977 76.8437 576.974 78.1013 577.333 79.5162C577.812 81.3842 578.241 83.3029 578.613 85.2699C581.192 85.6833 583.748 86.2478 586.276 86.9757C586.244 84.7351 586.147 82.5342 585.989 80.3741Z" fill="#A7C05D"/>
<path d="M579.865 71.0296C575.42 71.1732 570.933 69.6048 569.556 67.2132C568.194 64.839 570.995 61.5623 576.29 60.3269C581.588 59.0903 586.72 61.3259 587.224 64.787C587.735 68.2518 584.285 70.865 579.865 71.0296Z" fill="#4E7735"/>
<path d="M574.055 57.2195C571.963 57.7889 569.781 57.4299 569.094 56.3641C568.409 55.2995 569.569 53.7497 571.785 52.9624C574 52.1751 576.336 52.6306 576.895 53.9118C577.457 55.193 576.145 56.6476 574.055 57.2195Z" fill="#4E7735"/>
<path d="M581.194 79.9657C579.709 79.8085 578.225 78.5434 577.832 77.1124C577.442 75.6839 578.428 74.4819 580.091 74.4621C581.754 74.4423 583.323 75.7619 583.535 77.3662C583.748 78.9717 582.677 80.1205 581.194 79.9657Z" fill="#4E7735"/>
<path d="M468.817 373.831C472.814 359.625 479.843 348.655 488.38 341.839C479.507 336.047 469.422 331.643 458.42 329C452.965 342.696 450.661 359.579 452.715 378.369C457.89 376.112 463.277 374.634 468.817 373.831Z" fill="#A7C05D"/>
<path d="M468.037 373.072C471.696 359.267 478.193 348.386 486.204 341.254C478.324 336.461 469.55 332.743 460.076 330.35C454.718 343.234 452.19 359.084 453.573 376.793C458.264 374.965 463.1 373.749 468.037 373.072Z" fill="#4E7735"/>
<path d="M457.364 367.374C457.49 365.697 456.96 364.298 455.909 363.378C456.565 355.079 458.145 347.389 460.494 340.451C462.51 339.885 464.129 338.907 464.739 337.546C465.348 336.175 465.991 334.839 466.664 333.543C471.086 334.96 475.334 336.677 479.386 338.666C478.564 339.652 477.764 340.68 476.99 341.751C476.244 342.794 476.586 344.158 477.621 345.388C474.052 350.393 471.025 356.325 468.719 363.063C467.376 363.844 466.378 365.101 466.019 366.516C465.54 368.384 465.112 370.303 464.739 372.27C462.161 372.683 459.604 373.248 457.077 373.976C457.109 371.735 457.205 369.534 457.364 367.374Z" fill="#A7C05D"/>
<path d="M463.488 358.03C467.933 358.173 472.419 356.605 473.797 354.213C475.158 351.839 472.357 348.562 467.063 347.327C461.765 346.09 456.632 348.326 456.129 351.787C455.617 355.252 459.067 357.865 463.488 358.03Z" fill="#4E7735"/>
<path d="M469.297 344.219C471.389 344.789 473.572 344.43 474.259 343.364C474.943 342.299 473.783 340.75 471.567 339.962C469.353 339.175 467.017 339.631 466.457 340.912C465.895 342.193 467.208 343.648 469.297 344.219Z" fill="#4E7735"/>
<path d="M462.158 366.966C463.644 366.808 465.128 365.543 465.52 364.112C465.91 362.684 464.925 361.482 463.261 361.462C461.599 361.442 460.029 362.762 459.817 364.366C459.605 365.972 460.675 367.12 462.158 366.966Z" fill="#4E7735"/>
<path d="M68.9722 214.343C72.9062 197.72 92.9041 185.077 117.179 190.123C122.247 196.86 125.421 203.402 127.15 209.11C107.782 200.586 90.4259 209.511 87.9699 222.752C83.4133 219.383 77.0816 216.288 68.9722 214.343Z" fill="#A7C05D"/>
<path d="M70.7225 213.695C75.0328 198.203 93.7978 186.651 116.597 191.054C120.937 196.86 123.836 202.504 125.591 207.551C106.844 200.221 90.3256 208.662 87.3064 221.305C83.1484 218.341 77.6225 215.609 70.7225 213.695Z" fill="#4E7735"/>
<path d="M86.7469 213.058C87.5304 211.858 88.9144 211.237 90.2921 211.221C95.0654 206.006 102.746 202.695 111.808 202.857C112.356 201.925 113.751 201.348 115.825 201.622C117.904 201.896 120.03 202.342 122.18 202.971C120.961 200.395 119.443 197.706 117.595 194.959C115.229 194.489 112.898 194.204 110.624 194.09C108.426 193.975 105.986 193.412 103.745 192.57C93.4042 193.478 84.765 197.93 79.3047 204.279C79.6959 205.613 79.4508 207.062 78.6078 208.374C77.4863 210.112 76.5802 211.953 75.9055 213.862C79.0844 215.082 81.9006 216.472 84.3553 217.952C84.9358 216.239 85.738 214.596 86.7469 213.058Z" fill="#A7C05D"/>
<path d="M89.1472 204.148C85.7455 201.691 84.567 197.773 88.1829 195.879C91.7702 193.962 98.2703 195.57 101.116 198.705C104.012 201.838 102.728 204.683 99.6939 205.932C96.6103 207.174 92.5848 206.645 89.1472 204.148Z" fill="#4E7735"/>
<path d="M105.535 197.48C104.445 196.228 105.033 194.977 107.078 194.895C109.118 194.808 111.724 196.038 112.679 197.41C113.641 198.788 112.709 199.688 110.803 199.655C108.89 199.616 106.63 198.739 105.535 197.48Z" fill="#4E7735"/>
<path d="M82.3698 210.542C80.9314 209.745 80.3199 208.036 81.3287 206.777C82.3302 205.515 84.5088 205.298 85.8767 206.215C87.2532 207.134 87.3634 208.736 86.4325 209.877C85.4942 211.018 83.8169 211.343 82.3698 210.542Z" fill="#4E7735"/>
<path d="M377.972 173.409C381.906 190.032 401.904 202.675 426.179 197.629C431.247 190.892 434.421 184.35 436.15 178.642C416.782 187.166 399.426 178.241 396.97 165C392.413 168.369 386.082 171.464 377.972 173.409Z" fill="#A7C05D"/>
<path d="M379.723 174.057C384.033 189.549 402.798 201.101 425.597 196.698C429.937 190.892 432.836 185.247 434.591 180.201C415.844 187.531 399.326 179.09 396.306 166.447C392.148 169.411 386.622 172.143 379.723 174.057Z" fill="#4E7735"/>
<path d="M395.747 174.694C396.53 175.894 397.914 176.514 399.292 176.531C404.065 181.746 411.746 185.057 420.808 184.895C421.356 185.827 422.751 186.404 424.825 186.13C426.904 185.856 429.03 185.41 431.18 184.781C429.961 187.357 428.443 190.046 426.595 192.793C424.229 193.263 421.898 193.548 419.624 193.662C417.426 193.777 414.986 194.34 412.745 195.182C402.404 194.274 393.765 189.822 388.305 183.473C388.696 182.139 388.451 180.69 387.608 179.378C386.486 177.64 385.58 175.799 384.906 173.89C388.084 172.67 390.901 171.279 393.355 169.8C393.936 171.513 394.738 173.156 395.747 174.694Z" fill="#A7C05D"/>
<path d="M398.147 183.604C394.745 186.061 393.567 189.979 397.183 191.873C400.77 193.79 407.27 192.182 410.116 189.047C413.012 185.914 411.728 183.069 408.694 181.82C405.61 180.578 401.585 181.107 398.147 183.604Z" fill="#4E7735"/>
<path d="M414.535 190.272C413.445 191.524 414.033 192.775 416.078 192.857C418.118 192.943 420.724 191.714 421.679 190.341C422.641 188.964 421.709 188.064 419.803 188.097C417.89 188.136 415.63 189.013 414.535 190.272Z" fill="#4E7735"/>
<path d="M391.37 177.21C389.931 178.007 389.32 179.716 390.329 180.975C391.33 182.237 393.509 182.454 394.877 181.537C396.253 180.618 396.363 179.016 395.432 177.875C394.494 176.734 392.817 176.409 391.37 177.21Z" fill="#4E7735"/>
</svg>
