<svg width="563" height="512" viewBox="0 0 563 512" fill="none" xmlns="http://www.w3.org/2000/svg">
<path fill-rule="evenodd" clip-rule="evenodd" d="M111.252 70.8021C107.543 63.0013 105.966 54.2368 108.915 45.6794C117.411 21.0232 150.91 35.924 154.316 50.43C157.722 64.936 148.293 96.8903 138.892 96.8007C135.143 96.765 128.265 92.5488 121.889 85.9282L117.615 120.972L89.4338 113.421L111.252 70.8021Z" fill="#D4A181"/>
<path fill-rule="evenodd" clip-rule="evenodd" d="M121.479 71.6486C116.187 77.42 110 81.1765 105.172 79.8827C96.0002 77.4252 92.7646 63.4159 96.2972 50.2322C96.4213 49.769 96.5538 49.3114 96.6943 48.8595C85.2086 52.9175 74.2154 64.0369 61.3784 60.5972C43.9137 55.9176 46.4167 18.8328 70.8172 25.3709C87.4115 29.8173 94.9258 34.4239 101.002 39.8866C103.437 36.347 106.434 33.6253 109.636 32.022C110.446 31.4881 111.58 31.0735 112.978 30.7819C113.841 30.5718 114.709 30.4452 115.577 30.4073C120.237 29.985 126.677 30.5319 133.605 32.1314C134.899 32.4301 136.161 32.7543 137.385 33.0998C139.138 26.6372 145.791 22.8067 152.263 24.541C158.748 26.2787 162.597 32.9444 160.859 39.4294C159.179 45.701 152.889 49.5067 146.611 48.1788C142.778 48.3225 138.014 47.9058 132.879 46.8923C132.875 48.8654 132.581 51.0292 131.947 53.3938C131.388 55.4817 130.564 57.6343 129.537 59.769C128.791 58.1753 127.556 56.9346 126.071 56.5368C121.917 55.4237 118.11 58.0661 117.138 61.6942C115.904 66.2989 117.67 70.3423 121.479 71.6486Z" fill="#191847"/>
<path fill-rule="evenodd" clip-rule="evenodd" d="M53.4877 220.885L98.0173 374.33L118.962 489.539H139.984L118.999 220.885H53.4877Z" fill="#BA8B72"/>
<path fill-rule="evenodd" clip-rule="evenodd" d="M33.4754 220.885C36.5826 300.599 35.3572 344.077 34.6618 351.32C33.9663 358.562 30.0184 407.066 3.11621 491.971H24.9809C60.6085 410.52 73.0457 362.015 77.1319 351.32C81.2182 340.624 93.2866 297.146 110.906 220.885H33.4754Z" fill="#D4A181"/>
<path fill-rule="evenodd" clip-rule="evenodd" d="M52.5317 220.885C64.1146 273.686 84.1479 357.97 112.632 473.736H143.379C145.65 354.913 135.989 276.707 119.259 220.885H52.5317Z" fill="#69A1AC"/>
<path fill-rule="evenodd" clip-rule="evenodd" d="M33.3202 220.885C36.3632 300.599 28.477 379.132 4.04846 474.977H36.8539C72.5469 394.742 98.1293 316.596 115.613 220.885H33.3202Z" fill="#89C5CC"/>
<path fill-rule="evenodd" clip-rule="evenodd" d="M-0.00012207 507.774L1.2063 488.324C8.26972 490.39 17.1168 489.579 27.7476 485.893C39.1782 493.989 53.5678 499.518 70.9165 502.479C72.2401 502.705 73.13 503.961 72.9041 505.284C72.8895 505.37 72.8703 505.455 72.8466 505.539L71.1787 511.421H27.7476H2.41272L-0.00012207 507.774Z" fill="#191847"/>
<path fill-rule="evenodd" clip-rule="evenodd" d="M114.269 507.774L115.476 488.324C122.539 490.39 131.386 489.579 142.017 485.893C153.447 493.989 167.837 499.518 185.186 502.479C186.509 502.705 187.399 503.961 187.173 505.284C187.159 505.37 187.14 505.455 187.116 505.539L185.448 511.421H142.017H116.682L114.269 507.774Z" fill="#191847"/>
<path fill-rule="evenodd" clip-rule="evenodd" d="M140.468 152.546L186.034 137.115C194.391 130.128 202.323 124.955 209.83 121.598C212.03 121.103 215.705 121.217 211.305 126.575C206.905 131.933 202.517 137.766 203.901 139.9C205.286 142.033 209.995 140.224 211.495 143.628C212.495 145.897 204.655 147.822 187.977 149.401L152.909 171.722L140.468 152.546ZM202.162 183.224L222.183 176.415C226.462 167.122 230.388 162.758 233.961 163.325C236.921 162.535 229.985 174.008 235.36 173.855C240.736 173.702 255.056 166.518 256.9 168.815C259.629 172.212 255.22 180.389 251.068 184.112C243.307 191.069 237.574 192.905 223.968 194.234C216.855 194.929 208.856 197.426 199.972 201.724L202.162 183.224Z" fill="#D4A181"/>
<path fill-rule="evenodd" clip-rule="evenodd" d="M121.125 143.908C135.707 146.321 155.657 146.669 178.684 137.175L183.619 156.746C166.835 168.404 144.696 176.51 127.22 172.92C113.448 170.091 109.327 152.103 121.125 143.908Z" fill="#0D6967"/>
<path fill-rule="evenodd" clip-rule="evenodd" d="M135.594 176.45C150.366 183.028 177.079 183.052 215.732 176.523C221.462 196.778 223.287 210.819 221.204 218.647C187.13 229.444 159.106 231.995 136.99 228.59C135.385 241.786 131.601 253.945 124.251 264.368C109.142 285.797 48.6105 252.811 26.224 253.255C20.4339 206.865 49.7839 193.602 54.7694 165.451C60.2291 134.623 93.3541 91.5303 96.9966 92.1726L130.214 98.0297C127.895 121.9 132.544 149.477 135.594 176.45Z" fill="#158A83"/>
<path fill-rule="evenodd" clip-rule="evenodd" d="M456.622 169.588C461.993 163.283 465.628 155.557 465.021 146.899C463.27 121.954 428.546 127.442 421.791 140.032C415.037 152.622 415.839 184.558 424.569 186.808C428.051 187.705 435.467 185.507 443.015 180.958L438.277 214.476H466.252L456.622 169.588Z" fill="#915B3C"/>
<path fill-rule="evenodd" clip-rule="evenodd" d="M458.771 175.203C462.282 159.582 472.285 148.934 470.758 141.953C469.739 137.298 467.025 134.403 462.614 133.269C460.333 124.041 452.976 120.116 440.544 121.494C421.895 123.561 410.513 131.306 415.428 148.347C419.947 148.347 425.401 146.713 432.944 149.513C435.337 150.401 437.049 153.156 438.079 157.777H441.488C444.796 152.293 448.058 150.278 451.273 151.732C454.489 153.185 455.22 156.716 453.466 162.324L455.145 175.203H458.771Z" fill="#191847"/>
<path fill-rule="evenodd" clip-rule="evenodd" d="M544.35 360.18H410.302C400.002 360.18 391.652 368.53 391.652 378.83V486.068C391.652 496.369 400.002 504.718 410.302 504.718H544.35C554.65 504.718 563 496.369 563 486.068V378.83C563 368.53 554.65 360.18 544.35 360.18ZM525.7 392.818C528.275 392.818 530.362 394.905 530.362 397.48V467.418C530.362 469.993 528.275 472.081 525.7 472.081H428.952C426.377 472.081 424.29 469.993 424.29 467.418V397.48C424.29 394.905 426.377 392.818 428.952 392.818H525.7Z" fill="#C5CFD6"/>
<path fill-rule="evenodd" clip-rule="evenodd" d="M276.069 498.89C299.051 470.827 314.6 450.022 322.719 436.475C336.619 413.28 347.995 392.641 351.586 384.757C360.147 365.956 331.876 357.153 325.478 365.922C315.794 379.194 295.112 420.96 263.433 491.217L276.069 498.89Z" fill="#B28B67"/>
<path fill-rule="evenodd" clip-rule="evenodd" d="M323.162 490.731L365.932 383.069C375.08 363.443 330.904 350.543 324.181 359.676C308.919 380.412 272.642 462.212 268.095 468.39L323.162 490.731Z" fill="#2F3676"/>
<path fill-rule="evenodd" clip-rule="evenodd" d="M437.073 469.14C428.742 456.987 398.438 416.1 381.932 399.183C377.189 394.322 372.561 389.656 368.183 385.308C355.172 372.384 329.263 394.106 342.25 405.878C374.592 435.194 421.782 474.77 425.725 478.298C431.251 483.244 442.309 476.777 437.073 469.14Z" fill="#915B3C"/>
<path fill-rule="evenodd" clip-rule="evenodd" d="M435.125 463.65C437.995 466.013 439.862 467.942 440.726 469.439C441.777 471.259 443.007 474.091 444.417 477.933C442.305 479.153 423.327 490.11 387.481 510.805C383.178 506.768 382.507 503.634 385.47 501.404C388.432 499.173 390.877 497.292 392.804 495.761L412.456 468.685C412.834 468.164 413.563 468.048 414.084 468.426C414.093 468.433 414.102 468.439 414.111 468.446L418.194 471.59C421.94 471.263 424.735 470.567 426.58 469.502C428.079 468.636 429.8 466.836 431.742 464.1C432.487 463.05 433.943 462.803 434.993 463.549C435.038 463.581 435.082 463.615 435.125 463.65Z" fill="#E4E4E4"/>
<path fill-rule="evenodd" clip-rule="evenodd" d="M285.955 494.696C287.259 498.177 287.911 500.782 287.911 502.51C287.911 504.612 287.561 507.68 286.86 511.712C284.422 511.712 262.507 511.712 221.117 511.712C219.408 506.064 220.394 503.015 224.075 502.565C227.756 502.114 230.814 501.708 233.248 501.345L263.806 487.722C264.393 487.46 265.083 487.724 265.345 488.312C265.349 488.322 265.354 488.332 265.358 488.343L267.322 493.107C270.729 494.697 273.498 495.492 275.629 495.492C277.36 495.492 279.75 494.793 282.8 493.395C283.97 492.858 285.354 493.372 285.891 494.542C285.914 494.593 285.935 494.644 285.955 494.696Z" fill="#E4E4E4"/>
<path fill-rule="evenodd" clip-rule="evenodd" d="M381.322 388.447C416.87 382.656 440.681 378.696 452.754 376.567C487.167 370.499 497.202 351.98 491.269 311.576H427.863C419.473 313.999 384.413 328.985 322.685 356.534C311.578 362.047 313.647 378.303 315.677 383.658C315.76 383.877 334.482 415.959 371.845 479.905L423.714 446.863L381.225 392.34C380.103 390.08 380.135 388.782 381.322 388.447Z" fill="#5C63AB"/>
<path fill-rule="evenodd" clip-rule="evenodd" d="M376.754 296.317L339.572 323.62C329.488 326.342 321.063 329.727 314.297 333.777C312.698 335.233 310.767 338.183 317.395 337.673C324.023 337.163 331.018 336.925 331.933 339.186C332.847 341.447 328.836 344.151 330.685 347.201C331.918 349.235 337.74 344.135 348.154 331.903L384.973 316.635L376.754 296.317ZM519.513 297.259L495.154 297.355C510.194 345.908 518.314 371.67 519.513 374.641C522.21 381.325 516.502 391.505 514.061 396.976C522.011 400.533 521.164 387.359 531.192 392.025C540.346 396.283 547.308 403.999 557.884 397.474C559.184 396.672 560.609 393.651 557.166 391.291C548.59 385.41 536.231 375.118 534.561 371.73C532.284 367.11 527.268 342.286 519.513 297.259Z" fill="#915B3C"/>
<path fill-rule="evenodd" clip-rule="evenodd" d="M450.289 195.047L440.21 193.319C402.812 225.624 387.452 287.688 341.612 320.566L352.645 334.242C432.169 324.396 451.88 248.693 450.289 195.047Z" fill="#E87613"/>
<path fill-rule="evenodd" clip-rule="evenodd" d="M494.228 321.714C453.813 321.714 424.085 321.714 405.044 321.714C400.968 321.714 401.736 315.83 402.325 312.86C409.124 278.59 435.665 241.649 435.665 192.866L461.39 188.832C482.668 223.053 490.026 265.186 494.228 321.714Z" fill="#DDE3E9"/>
<path fill-rule="evenodd" clip-rule="evenodd" d="M493.511 222.47C497.247 221.396 500.206 218.891 502.387 214.956C511.79 197.99 508.394 188.649 498.346 185.578C488.297 182.508 479.336 188.832 463.327 188.832C462.456 188.832 461.658 188.887 460.934 188.996L452.881 189.456C429.775 267.763 423.403 320.009 433.764 346.193H503.959C508.118 355.891 512.097 364.05 515.898 370.671H535.025C536.825 312.468 522.987 263.067 493.511 222.47Z" fill="#FF9B21"/>
<path fill-rule="evenodd" clip-rule="evenodd" d="M488.673 305.976C486.465 324.447 482.877 337.852 477.909 346.193H503.958C499.107 334.88 494.012 321.475 488.673 305.976Z" fill="black" fill-opacity="0.1"/>
</svg>
