<svg width="24" height="24" viewBox="0 0 24 24" fill="none" xmlns="http://www.w3.org/2000/svg">
<path d="M15.9997 16.5L15.9174 16.9936C15.8495 17.4009 15.8156 17.6046 15.7617 17.7849C15.4767 18.7382 14.7377 19.4883 13.7886 19.7872C13.6091 19.8437 13.406 19.8807 12.9997 19.9545V19.9545M15.9997 16.5L16.4997 13.5L11.6853 14.3753C11.2507 14.4544 10.8731 14.7215 10.6539 15.1051V15.1051C10.0132 16.2263 10.9985 17.578 12.262 17.3113L13.9997 16.9444L15.9997 16.5ZM15.9997 16.5L12.6292 17.2282C12.2303 17.3144 11.8904 17.5733 11.7013 17.9349L11.6232 18.0842C11.1248 19.0376 11.9413 20.147 12.9997 19.9545V19.9545M12.9997 19.9545L8.34926 20.8001C7.98392 20.8665 7.80124 20.8997 7.63086 20.9641C7.47963 21.0213 7.3359 21.0966 7.20281 21.1884C7.05285 21.2918 6.92156 21.4231 6.65898 21.6857L5.34464 23" stroke="#828282" stroke-width="1.5" stroke-linecap="round" stroke-linejoin="round"/>
<path d="M1.43112 13.235L2.89385 10.6751C3.0931 10.3264 3.19272 10.1521 3.32145 10.0038C3.43568 9.87216 3.56661 9.75606 3.71093 9.6584C3.87357 9.54834 4.05859 9.4703 4.42862 9.31422L8.93354 7.41405C9.17403 7.31261 9.29427 7.2619 9.39515 7.24205C9.87384 7.14788 10.3506 7.41288 10.5234 7.86913C10.5598 7.96529 10.5802 8.09418 10.621 8.35197V8.35197C10.6733 8.68199 10.6994 8.847 10.7005 8.99667C10.7059 9.69387 10.3478 10.3435 9.75539 10.7112C9.62822 10.7902 9.47474 10.8562 9.16779 10.9882L8.39903 11.3188C8.04896 11.4693 7.87392 11.5446 7.74544 11.6656C7.63189 11.7725 7.54494 11.9046 7.49154 12.0512C7.43112 12.217 7.43112 12.4075 7.43112 12.7886L7.43112 13.3604C7.43112 13.961 7.43112 14.2613 7.35094 14.5358C7.27995 14.779 7.16341 15.0064 7.00753 15.206C6.8315 15.4315 6.58776 15.6069 6.10027 15.9577L5.8462 16.1406" stroke="#828282" stroke-width="1.5" stroke-linecap="round" stroke-linejoin="round"/>
<path fill-rule="evenodd" clip-rule="evenodd" d="M17.7183 3.02718C18.3152 2.92297 18.9009 3.26193 19.108 3.83143L21.4791 10.3528C21.7449 11.0839 21.2856 11.8776 20.5193 12.0113L7.6299 14.2613L6.89107 14.3903L7.14902 15.868L7.88784 15.739L20.7773 13.489C22.4631 13.1947 23.4736 11.4486 22.8888 9.84025L20.5177 3.31887C20.0622 2.06598 18.7736 1.32027 17.4603 1.54952L6.22186 3.51135C4.53603 3.80564 3.52553 5.55175 4.11029 7.16007L4.23453 7.50179L4.70445 8.79423C4.84598 9.18351 5.2763 9.38435 5.66558 9.24281C6.05486 9.10128 6.2557 8.67096 6.11416 8.28168L5.64425 6.98924L5.52 6.64752C5.2542 5.91646 5.71352 5.12278 6.47981 4.98901L17.7183 3.02718ZM15.5759 12.097C15.6243 12.1271 15.6793 12.135 15.741 12.1206L16.3382 11.9816C16.3943 11.9686 16.4374 11.9379 16.4675 11.8895C16.4976 11.8411 16.5055 11.7861 16.4911 11.7244L16.3561 11.144C16.7425 11.0009 17.0638 10.8197 17.3202 10.6004C17.5822 10.3798 17.7657 10.1272 17.871 9.84266C17.9748 9.55246 17.9889 9.24475 17.9133 8.9195C17.835 8.58305 17.6975 8.32243 17.5008 8.13766C17.3084 7.94598 17.0416 7.81594 16.7006 7.74752C16.3596 7.67911 15.9306 7.65185 15.4136 7.66576C15.0688 7.65734 14.7932 7.64166 14.5869 7.61874C14.3793 7.59021 14.2229 7.54088 14.1179 7.47073C14.0116 7.39497 13.9428 7.28981 13.9115 7.15522C13.8632 6.94774 13.9087 6.77461 14.0478 6.63582C14.1869 6.49704 14.3939 6.39567 14.6686 6.33173C14.9266 6.2717 15.1527 6.27818 15.3471 6.35118C15.5401 6.41858 15.6676 6.52191 15.7296 6.66119C15.7763 6.70943 15.8246 6.73955 15.8747 6.75154C15.9248 6.76353 15.9751 6.76365 16.0255 6.75191L16.976 6.5307C17.0265 6.51896 17.0647 6.49235 17.0905 6.45087C17.115 6.40379 17.122 6.35782 17.1116 6.31296C17.059 6.11239 16.9378 5.92187 16.748 5.7414C16.5625 5.55403 16.3184 5.40689 16.0157 5.3C15.7173 5.18619 15.3675 5.14347 14.9662 5.17183L14.8272 4.57462C14.8129 4.51293 14.7815 4.46703 14.7331 4.43691C14.6847 4.4068 14.6325 4.39826 14.5764 4.41131L13.9792 4.5503C13.9175 4.56465 13.8716 4.59603 13.8415 4.64441C13.8114 4.6928 13.8035 4.74784 13.8178 4.80952L13.9529 5.38992C13.4091 5.59332 13.0133 5.88642 12.7654 6.26923C12.5232 6.65073 12.4536 7.06299 12.5567 7.50599C12.635 7.84245 12.7738 8.10867 12.9731 8.30465C13.1767 8.49372 13.4413 8.62723 13.7668 8.70516C14.091 8.77749 14.4739 8.80958 14.9153 8.80143C15.2882 8.80332 15.5868 8.81658 15.8113 8.84119C16.0413 8.8645 16.2145 8.90992 16.3307 8.97746C16.4525 9.04369 16.5304 9.14971 16.5643 9.29551C16.6113 9.49738 16.5559 9.67873 16.3983 9.83956C16.2463 9.99908 15.988 10.1213 15.6235 10.2061C15.3992 10.2583 15.2048 10.274 15.0404 10.2531C14.8746 10.2267 14.7364 10.179 14.6258 10.1102C14.5208 10.04 14.4376 9.96187 14.3762 9.87568C14.3321 9.83864 14.2871 9.81068 14.2414 9.79177C14.1943 9.76726 14.1343 9.76349 14.0614 9.78046L13.1614 9.98991C13.1109 10.0017 13.0706 10.0317 13.0405 10.0801C13.0147 10.1216 13.007 10.1648 13.0174 10.2096C13.0874 10.4594 13.222 10.6822 13.4213 10.8782C13.6206 11.0742 13.8822 11.2202 14.206 11.3163C14.5285 11.4067 14.9088 11.4276 15.3467 11.3789L15.4817 11.9593C15.4961 12.021 15.5275 12.0669 15.5759 12.097Z" fill="#828282"/>
</svg>
