<svg width="20" height="21" viewBox="0 0 20 21" fill="none" xmlns="http://www.w3.org/2000/svg">
<path fill-rule="evenodd" clip-rule="evenodd" d="M9.76972 2.00749C9.92205 1.97891 10.0784 1.97891 10.2307 2.00749C10.3785 2.03521 10.5323 2.10454 11.0959 2.38635L18.6648 6.17081C19.0352 6.35605 19.4858 6.20588 19.671 5.8354C19.8562 5.46491 19.7061 5.01441 19.3356 4.82917L11.7667 1.04471L11.6884 1.00551C11.2404 0.781128 10.888 0.604645 10.5073 0.533212C10.1722 0.470335 9.82826 0.470334 9.49312 0.53321C9.11239 0.604641 8.76003 0.781124 8.31203 1.00551L8.23372 1.0447L0.664756 4.82916C0.294271 5.01441 0.144102 5.46491 0.329343 5.83539C0.514584 6.20588 0.965089 6.35605 1.33557 6.17081L8.90454 2.38635C9.46815 2.10454 9.62197 2.03521 9.76972 2.00749ZM9.76972 6.00749C9.92205 5.97891 10.0784 5.97891 10.2307 6.00749C10.3785 6.03521 10.5323 6.10454 11.0959 6.38635L16.1243 8.90056C17.0205 9.34867 17.3242 9.50911 17.5472 9.72028C17.831 9.98901 18.0399 10.327 18.1533 10.7011C18.2425 10.995 18.2502 11.3383 18.2502 12.3403V13.75C18.2502 14.9476 18.2465 15.4369 18.1685 15.8291C17.8332 17.5151 16.5152 18.833 14.8293 19.1683C14.4968 19.2345 14.0945 19.2472 13.2502 19.2495V16C13.2502 14.2051 11.7951 12.75 10.0002 12.75C8.20525 12.75 6.75018 14.2051 6.75018 16V19.2495C5.90584 19.2471 5.50361 19.2345 5.17107 19.1683C3.48512 18.833 2.16719 17.5151 1.83183 15.8291C1.7538 15.4368 1.75017 14.9476 1.75017 13.75L1.75017 12.3403C1.75017 11.3383 1.75787 10.995 1.84701 10.7011C1.96045 10.3271 2.16936 9.98901 2.45318 9.72028C2.6762 9.50911 2.97985 9.34867 3.87607 8.90057L8.90454 6.38635C9.46815 6.10454 9.62197 6.03521 9.76972 6.00749ZM12.7461 20.75L12.7502 20.75L12.8512 20.75H12.8512C13.9165 20.7501 14.5656 20.7502 15.1219 20.6395C17.4029 20.1858 19.186 18.4027 19.6397 16.1218C19.7504 15.5654 19.7503 14.9163 19.7502 13.8511L19.7502 13.75V12.3403L19.7502 12.2268C19.7505 11.3825 19.7507 10.7997 19.5888 10.2657C19.3997 9.64235 19.0515 9.07897 18.5785 8.63108C18.1733 8.2474 17.652 7.98697 16.8966 7.60966L16.7951 7.55892L11.7667 5.04471L11.6884 5.00551L11.6884 5.00551C11.2404 4.78113 10.888 4.60464 10.5073 4.53321C10.1722 4.47033 9.82826 4.47033 9.49312 4.53321C9.11239 4.60464 8.76003 4.78112 8.31203 5.00551L8.23372 5.0447L3.20525 7.55892L3.10372 7.60966L3.10371 7.60966C2.3484 7.98697 1.82707 8.2474 1.42186 8.63107C0.948829 9.07896 0.600633 9.64236 0.411571 10.2658C0.249617 10.7998 0.249831 11.3825 0.25014 12.2268L0.250168 12.3403L0.250169 13.75L0.250163 13.851C0.250058 14.9163 0.249995 15.5654 0.360654 16.1217C0.814367 18.4027 2.59745 20.1858 4.87844 20.6395C5.43476 20.7502 6.08385 20.7501 7.14908 20.75H7.14915L7.25019 20.75L7.2543 20.75C7.278 20.7504 7.38379 20.752 7.48552 20.7317C7.86237 20.6568 8.15697 20.3622 8.23193 19.9853C8.25216 19.8836 8.25058 19.7778 8.25023 19.7541L8.25018 19.75V16C8.25018 15.0335 9.03368 14.25 10.0002 14.25C10.9667 14.25 11.7502 15.0335 11.7502 16V19.75L11.7501 19.7541C11.7498 19.7778 11.7482 19.8836 11.7684 19.9853C11.8434 20.3622 12.138 20.6568 12.5148 20.7317C12.6166 20.752 12.7224 20.7504 12.7461 20.75Z" fill="#828282"/>
</svg> 