<svg width="24" height="24" viewBox="0 0 24 24" fill="none" xmlns="http://www.w3.org/2000/svg">
<path fill-rule="evenodd" clip-rule="evenodd" d="M11.7697 3.00727C11.9221 2.97869 12.0784 2.97869 12.2307 3.00728C12.3785 3.035 12.5323 3.10433 13.0959 3.38614L20.6648 7.17059C21.0352 7.35583 21.4858 7.20567 21.671 6.83518C21.8562 6.4647 21.7061 6.01419 21.3356 5.82895L13.7667 2.0445L13.6884 2.0053C13.2404 1.78091 12.888 1.60443 12.5073 1.533C12.1722 1.47012 11.8283 1.47012 11.4931 1.533C11.1124 1.60443 10.76 1.78091 10.312 2.00529L10.2337 2.04449L2.66476 5.82895C2.29427 6.01419 2.1441 6.4647 2.32934 6.83518C2.51458 7.20567 2.96509 7.35583 3.33557 7.17059L10.9045 3.38613C11.4682 3.10433 11.622 3.03499 11.7697 3.00727ZM14.7502 22.7498L14.7461 22.7498C14.7224 22.7502 14.6166 22.7518 14.5149 22.7315C14.138 22.6566 13.8434 22.362 13.7685 21.9851C13.7482 21.8834 13.7498 21.7776 13.7502 21.7539L13.7502 21.7498V17.5664C13.7502 16.5999 12.9667 15.8164 12.0002 15.8164C11.0337 15.8164 10.2502 16.5999 10.2502 17.5664V21.7498L10.2503 21.7539C10.2506 21.7776 10.2522 21.8834 10.232 21.9851C10.157 22.3619 9.86242 22.6565 9.48556 22.7315C9.38384 22.7517 9.27805 22.7502 9.25435 22.7498L9.25023 22.7498L9.1492 22.7498C8.08393 22.7499 7.43482 22.7499 6.8785 22.6393C4.5975 22.1856 2.81442 20.4025 2.3607 18.1215C2.25005 17.5652 2.25011 16.9161 2.25021 15.8508L2.25022 15.7498L2.25022 13.6798L2.25019 13.5555C2.24981 12.6288 2.24956 11.9884 2.44563 11.405C2.61848 10.8908 2.90086 10.4201 3.27329 10.0256C3.69575 9.57809 4.26091 9.27696 5.07879 8.84118L5.18847 8.78272L10.1414 6.14116L10.2239 6.09714L10.2239 6.09714C10.6936 5.84618 11.0629 5.64888 11.4648 5.5691C11.8183 5.49891 12.1822 5.49891 12.5358 5.5691C12.9376 5.64888 13.3069 5.84619 13.7767 6.09715L13.8591 6.14116L18.812 8.78272L18.9217 8.84118C19.7395 9.27696 20.3047 9.57809 20.7272 10.0256C21.0996 10.4201 21.3819 10.8908 21.5548 11.405C21.7509 11.9884 21.7506 12.6288 21.7502 13.5555L21.7502 13.6798V15.7498L21.7502 15.8508C21.7503 16.9161 21.7504 17.5652 21.6397 18.1215C21.186 20.4025 19.403 22.1856 17.122 22.6393C16.5656 22.75 15.9165 22.7499 14.8512 22.7498L14.7502 22.7498Z" fill="#0DA75E"/>
</svg>
