<svg width="48" height="48" viewBox="0 0 48 48" fill="none" xmlns="http://www.w3.org/2000/svg">
<rect width="48" height="48" rx="24" fill="#EBF6EE"/>
<path d="M27.6667 31.1667H34.3333L32.46 29.2933C32.2084 29.0417 32.0089 28.743 31.8728 28.4142C31.7366 28.0855 31.6666 27.7331 31.6667 27.3773V23.1667C31.6669 21.5119 31.1541 19.8978 30.199 18.5465C29.2438 17.1952 27.8933 16.1733 26.3333 15.6213V15.1667C26.3333 14.4594 26.0524 13.7811 25.5523 13.281C25.0522 12.781 24.3739 12.5 23.6667 12.5C22.9594 12.5 22.2811 12.781 21.781 13.281C21.281 13.7811 21 14.4594 21 15.1667V15.6213C17.8933 16.72 15.6667 19.684 15.6667 23.1667V27.3787C15.6667 28.096 15.3813 28.7853 14.8733 29.2933L13 31.1667H19.6667M27.6667 31.1667V32.5C27.6667 33.5609 27.2452 34.5783 26.4951 35.3284C25.7449 36.0786 24.7275 36.5 23.6667 36.5C22.6058 36.5 21.5884 36.0786 20.8382 35.3284C20.0881 34.5783 19.6667 33.5609 19.6667 32.5V31.1667M27.6667 31.1667H19.6667" stroke="#0DA75E" stroke-width="2" stroke-linecap="round" stroke-linejoin="round"/>
<circle cx="32" cy="16.5" r="4" fill="#FF0000"/>
</svg>
