<svg width="25" height="24" viewBox="0 0 25 24" fill="none" xmlns="http://www.w3.org/2000/svg">
<path fill-rule="evenodd" clip-rule="evenodd" d="M6.5 5.00018L11.8224 1.1983C12.6279 0.622901 13.7599 1.03969 14 2.00006L9.5 5.00018H6.5ZM18.8139 2.94173L19.5 5.00018H11L15.835 1.89183C16.9327 1.18612 18.4012 1.70371 18.8139 2.94173ZM6.25 6.24999C4.17893 6.24999 2.5 7.92892 2.5 9.99999V18C2.5 20.0711 4.17893 21.75 6.25 21.75H18.25C20.3211 21.75 22 20.0711 22 18V17.75H22.0001V16.5C23.1046 16.5 24 15.6045 24 14.5C24 13.3954 23.1046 12.5 22.0001 12.5V11.25H22V9.99998C22 7.92892 20.3211 6.24999 18.25 6.24999H6.25ZM22 11.25H20.5483H19.0001C17.2051 11.25 15.7501 12.7051 15.7501 14.5C15.7501 16.2949 17.2051 17.75 19.0001 17.75H22V16.6923V16.5H19C17.8954 16.5 17 15.6046 17 14.5C17 13.3954 17.8954 12.5 19 12.5H22V11.3077V11.25Z" fill="#0DA75E"/>
</svg>
