<svg width="25" height="24" viewBox="0 0 25 24" fill="none" xmlns="http://www.w3.org/2000/svg">
<path fill-rule="evenodd" clip-rule="evenodd" d="M20.7931 3.28289L20.7716 3.26137C20.3939 2.88366 20.0786 2.56839 19.8 2.33188C19.5094 2.08521 19.2098 1.88047 18.8498 1.7635C18.2975 1.58404 17.7025 1.58404 17.1502 1.7635C16.7902 1.88047 16.4906 2.08521 16.2 2.33188C15.9214 2.56839 15.6061 2.88366 15.2284 3.26137L15.2069 3.28289L14.7827 3.70715L14.7611 3.72868C14.3834 4.10637 14.0682 4.42163 13.8317 4.70022C13.585 4.99079 13.3802 5.29044 13.2633 5.65043C13.0838 6.20275 13.0838 6.7977 13.2633 7.35002C13.3802 7.71002 13.585 8.00966 13.8317 8.30023C14.0682 8.57883 14.3834 8.89408 14.7611 9.27178L14.7827 9.2933L15.2069 9.71756L15.2284 9.73908C15.6061 10.1168 15.9214 10.4321 16.2 10.6686C16.4906 10.9152 16.7902 11.12 17.1502 11.237C17.7025 11.4164 18.2975 11.4164 18.8498 11.237C19.2098 11.12 19.5094 10.9152 19.8 10.6686C20.0786 10.4321 20.3939 10.1168 20.7715 9.7391L20.7716 9.73908L20.7931 9.71756L21.2173 9.2933L21.2389 9.27178C21.6166 8.89408 21.9318 8.57883 22.1683 8.30023C22.415 8.00966 22.6198 7.71002 22.7367 7.35002C22.9162 6.7977 22.9162 6.20275 22.7367 5.65043C22.6198 5.29044 22.415 4.99079 22.1683 4.70022C21.9318 4.42163 21.6166 4.10637 21.2389 3.72867L21.2173 3.70715L20.7931 3.28289ZM18.3863 3.19009C18.4829 3.22149 18.6096 3.28895 18.8292 3.47539C19.0556 3.66751 19.3276 3.93878 19.7324 4.34355L20.1567 4.76781C20.5614 5.17258 20.8327 5.44468 21.0248 5.67099C21.2113 5.8906 21.2787 6.01729 21.3101 6.11396C21.3917 6.36501 21.3917 6.63544 21.3101 6.8865C21.2787 6.98316 21.2113 7.10985 21.0248 7.32946C20.8327 7.55578 20.5614 7.82787 20.1567 8.23264L19.7324 8.6569C19.3276 9.06167 19.0556 9.33294 18.8292 9.52506C18.6096 9.7115 18.4829 9.77896 18.3863 9.81037C18.1352 9.89194 17.8648 9.89194 17.6137 9.81037C17.5171 9.77896 17.3904 9.7115 17.1708 9.52506C16.9445 9.33294 16.6724 9.06167 16.2676 8.6569L15.8433 8.23264C15.4386 7.82787 15.1673 7.55578 14.9752 7.32946C14.7887 7.10985 14.7213 6.98316 14.6899 6.8865C14.6083 6.63544 14.6083 6.36501 14.6899 6.11396C14.7213 6.01729 14.7887 5.8906 14.9752 5.67099C15.1673 5.44468 15.4386 5.17258 15.8433 4.76781L16.2676 4.34355C16.6724 3.93878 16.9445 3.66751 17.1708 3.47539C17.3904 3.28895 17.5171 3.22149 17.6137 3.19009C17.8648 3.10851 18.1352 3.10851 18.3863 3.19009ZM6.7 2.25019L6.66957 2.25019C6.13541 2.25018 5.68956 2.25017 5.32533 2.27993C4.94545 2.31096 4.58879 2.37807 4.25153 2.54992C3.73408 2.81357 3.31339 3.23427 3.04973 3.75171C2.87789 4.08897 2.81078 4.44563 2.77974 4.82552C2.74998 5.18975 2.74999 5.63559 2.75 6.16973V6.16975V6.20019V6.80019V6.83062V6.83064C2.74999 7.36479 2.74998 7.81063 2.77974 8.17486C2.81078 8.55474 2.87789 8.9114 3.04973 9.24866C3.31339 9.76611 3.73408 10.1868 4.25153 10.4505C4.58879 10.6223 4.94545 10.6894 5.32533 10.7204C5.68957 10.7502 6.13542 10.7502 6.66957 10.7502H6.7H7.3H7.33043C7.86459 10.7502 8.31044 10.7502 8.67467 10.7204C9.05456 10.6894 9.41121 10.6223 9.74848 10.4505C10.2659 10.1868 10.6866 9.76611 10.9503 9.24866C11.1221 8.9114 11.1892 8.55474 11.2203 8.17486C11.25 7.81063 11.25 7.3648 11.25 6.83066V6.83062V6.80019V6.20019V6.16976V6.16972C11.25 5.63558 11.25 5.18974 11.2203 4.82552C11.1892 4.44563 11.1221 4.08897 10.9503 3.75171C10.6866 3.23427 10.2659 2.81357 9.74848 2.54992C9.41121 2.37807 9.05456 2.31096 8.67467 2.27993C8.31044 2.25017 7.86459 2.25018 7.33044 2.25019L7.3 2.25019H6.7ZM4.93251 3.88643C5.02307 3.84029 5.16036 3.7984 5.44748 3.77494C5.74336 3.75077 6.12757 3.75019 6.7 3.75019H7.3C7.87243 3.75019 8.25664 3.75077 8.55252 3.77494C8.83965 3.7984 8.97693 3.84029 9.06749 3.88643C9.30269 4.00627 9.49392 4.1975 9.61376 4.4327C9.6599 4.52326 9.70179 4.66054 9.72524 4.94766C9.74942 5.24354 9.75 5.62776 9.75 6.20019V6.80019C9.75 7.37261 9.74942 7.75683 9.72524 8.05271C9.70179 8.33983 9.6599 8.47711 9.61376 8.56767C9.49392 8.80288 9.30269 8.9941 9.06749 9.11394C8.97693 9.16009 8.83965 9.20197 8.55252 9.22543C8.25664 9.2496 7.87243 9.25019 7.3 9.25019H6.7C6.12757 9.25019 5.74336 9.2496 5.44748 9.22543C5.16036 9.20197 5.02307 9.16009 4.93251 9.11394C4.69731 8.9941 4.50608 8.80288 4.38624 8.56767C4.3401 8.47711 4.29822 8.33983 4.27476 8.05271C4.25058 7.75683 4.25 7.37261 4.25 6.80019V6.20019C4.25 5.62776 4.25058 5.24354 4.27476 4.94766C4.29822 4.66054 4.3401 4.52326 4.38624 4.4327C4.50608 4.1975 4.69731 4.00627 4.93251 3.88643ZM6.66957 13.2502H6.7H7.3H7.33044C7.86459 13.2502 8.31044 13.2502 8.67467 13.2799C9.05456 13.311 9.41121 13.3781 9.74848 13.5499C10.2659 13.8136 10.6866 14.2343 10.9503 14.7517C11.1221 15.089 11.1892 15.4456 11.2203 15.8255C11.25 16.1897 11.25 16.6356 11.25 17.1697V17.1698V17.2002V17.8002V17.8306V17.8307C11.25 18.3648 11.25 18.8106 11.2203 19.1749C11.1892 19.5547 11.1221 19.9114 10.9503 20.2487C10.6866 20.7661 10.2659 21.1868 9.74848 21.4505C9.41121 21.6223 9.05456 21.6894 8.67467 21.7204C8.31046 21.7502 7.86463 21.7502 7.33051 21.7502H7.33043H7.3H6.7H6.66957H6.66949C6.13537 21.7502 5.68955 21.7502 5.32533 21.7204C4.94545 21.6894 4.58879 21.6223 4.25153 21.4505C3.73408 21.1868 3.31339 20.7661 3.04973 20.2487C2.87789 19.9114 2.81078 19.5547 2.77974 19.1749C2.74998 18.8106 2.74999 18.3648 2.75 17.8306V17.8306V17.8002V17.2002V17.1698V17.1697C2.74999 16.6356 2.74998 16.1897 2.77974 15.8255C2.81078 15.4456 2.87789 15.089 3.04973 14.7517C3.31339 14.2343 3.73408 13.8136 4.25153 13.5499C4.58879 13.3781 4.94545 13.311 5.32533 13.2799C5.68956 13.2502 6.13541 13.2502 6.66957 13.2502ZM5.44748 14.7749C5.16036 14.7984 5.02307 14.8403 4.93251 14.8864C4.69731 15.0063 4.50608 15.1975 4.38624 15.4327C4.3401 15.5233 4.29822 15.6605 4.27476 15.9477C4.25058 16.2435 4.25 16.6278 4.25 17.2002V17.8002C4.25 18.3726 4.25058 18.7568 4.27476 19.0527C4.29822 19.3398 4.3401 19.4771 4.38624 19.5677C4.50608 19.8029 4.69731 19.9941 4.93251 20.1139C5.02307 20.1601 5.16036 20.202 5.44748 20.2254C5.74336 20.2496 6.12757 20.2502 6.7 20.2502H7.3C7.87243 20.2502 8.25664 20.2496 8.55252 20.2254C8.83965 20.202 8.97693 20.1601 9.06749 20.1139C9.30269 19.9941 9.49392 19.8029 9.61376 19.5677C9.6599 19.4771 9.70179 19.3398 9.72524 19.0527C9.74942 18.7568 9.75 18.3726 9.75 17.8002V17.2002C9.75 16.6278 9.74942 16.2435 9.72524 15.9477C9.70179 15.6605 9.6599 15.5233 9.61376 15.4327C9.49392 15.1975 9.30269 15.0063 9.06749 14.8864C8.97693 14.8403 8.83965 14.7984 8.55252 14.7749C8.25664 14.7508 7.87243 14.7502 7.3 14.7502H6.7C6.12757 14.7502 5.74336 14.7508 5.44748 14.7749ZM17.7 13.2502H17.6696C17.1354 13.2502 16.6896 13.2502 16.3253 13.2799C15.9454 13.311 15.5888 13.3781 15.2515 13.5499C14.7341 13.8136 14.3134 14.2343 14.0497 14.7517C13.8779 15.089 13.8108 15.4456 13.7797 15.8255C13.75 16.1897 13.75 16.6356 13.75 17.1698V17.2002V17.8002V17.8306C13.75 18.3648 13.75 18.8106 13.7797 19.1749C13.8108 19.5547 13.8779 19.9114 14.0497 20.2487C14.3134 20.7661 14.7341 21.1868 15.2515 21.4505C15.5888 21.6223 15.9454 21.6894 16.3253 21.7204C16.6895 21.7502 17.1354 21.7502 17.6695 21.7502H17.6696H17.7H18.3H18.3304H18.3305C18.8646 21.7502 19.3105 21.7502 19.6747 21.7204C20.0546 21.6894 20.4112 21.6223 20.7485 21.4505C21.2659 21.1868 21.6866 20.7661 21.9503 20.2487C22.1221 19.9114 22.1892 19.5547 22.2203 19.1749C22.25 18.8106 22.25 18.3648 22.25 17.8306V17.8002V17.2002V17.1698C22.25 16.6356 22.25 16.1898 22.2203 15.8255C22.1892 15.4456 22.1221 15.089 21.9503 14.7517C21.6866 14.2343 21.2659 13.8136 20.7485 13.5499C20.4112 13.3781 20.0546 13.311 19.6747 13.2799C19.3104 13.2502 18.8646 13.2502 18.3304 13.2502H18.3H17.7ZM15.9325 14.8864C16.0231 14.8403 16.1604 14.7984 16.4475 14.7749C16.7434 14.7508 17.1276 14.7502 17.7 14.7502H18.3C18.8724 14.7502 19.2566 14.7508 19.5525 14.7749C19.8396 14.7984 19.9769 14.8403 20.0675 14.8864C20.3027 15.0063 20.4939 15.1975 20.6138 15.4327C20.6599 15.5233 20.7018 15.6605 20.7252 15.9477C20.7494 16.2435 20.75 16.6278 20.75 17.2002V17.8002C20.75 18.3726 20.7494 18.7568 20.7252 19.0527C20.7018 19.3398 20.6599 19.4771 20.6138 19.5677C20.4939 19.8029 20.3027 19.9941 20.0675 20.1139C19.9769 20.1601 19.8396 20.202 19.5525 20.2254C19.2566 20.2496 18.8724 20.2502 18.3 20.2502H17.7C17.1276 20.2502 16.7434 20.2496 16.4475 20.2254C16.1604 20.202 16.0231 20.1601 15.9325 20.1139C15.6973 19.9941 15.5061 19.8029 15.3862 19.5677C15.3401 19.4771 15.2982 19.3398 15.2748 19.0527C15.2506 18.7568 15.25 18.3726 15.25 17.8002V17.2002C15.25 16.6278 15.2506 16.2435 15.2748 15.9477C15.2982 15.6605 15.3401 15.5233 15.3862 15.4327C15.5061 15.1975 15.6973 15.0063 15.9325 14.8864Z" fill="#828282"/>
</svg>
