<svg width="25" height="24" viewBox="0 0 25 24" fill="none" xmlns="http://www.w3.org/2000/svg">
<g id="Firefly / fill / apps">
<path id="Union" fill-rule="evenodd" clip-rule="evenodd" d="M20.7716 3.26137L20.7931 3.28289L21.2173 3.70715L21.2389 3.72867C21.6166 4.10637 21.9318 4.42163 22.1683 4.70022C22.415 4.99079 22.6198 5.29044 22.7367 5.65043C22.9162 6.20275 22.9162 6.7977 22.7367 7.35002C22.6198 7.71002 22.415 8.00966 22.1683 8.30023C21.9318 8.57883 21.6166 8.89408 21.2389 9.27178L21.2173 9.2933L20.7931 9.71756L20.7716 9.73908L20.7715 9.7391C20.3939 10.1168 20.0786 10.4321 19.8 10.6686C19.5094 10.9152 19.2098 11.12 18.8498 11.237C18.2975 11.4164 17.7025 11.4164 17.1502 11.237C16.7902 11.12 16.4906 10.9152 16.2 10.6686C15.9214 10.4321 15.6061 10.1168 15.2284 9.73908L15.2069 9.71756L14.7827 9.2933L14.7611 9.27178C14.3834 8.89408 14.0682 8.57883 13.8317 8.30023C13.585 8.00966 13.3802 7.71002 13.2633 7.35002C13.0838 6.7977 13.0838 6.20275 13.2633 5.65043C13.3802 5.29044 13.585 4.99079 13.8317 4.70022C14.0682 4.42163 14.3834 4.10637 14.7611 3.72868L14.7827 3.70715L15.2069 3.28289L15.2284 3.26137C15.6061 2.88366 15.9214 2.56839 16.2 2.33188C16.4906 2.08521 16.7902 1.88047 17.1502 1.7635C17.7025 1.58404 18.2975 1.58404 18.8498 1.7635C19.2098 1.88047 19.5094 2.08521 19.8 2.33188C20.0786 2.56839 20.3939 2.88366 20.7716 3.26137ZM6.66957 2.25019L6.7 2.25019H7.3L7.33044 2.25019C7.86459 2.25018 8.31044 2.25017 8.67467 2.27993C9.05456 2.31096 9.41121 2.37807 9.74848 2.54992C10.2659 2.81357 10.6866 3.23427 10.9503 3.75171C11.1221 4.08897 11.1892 4.44563 11.2203 4.82552C11.25 5.18974 11.25 5.63558 11.25 6.16972V6.16976V6.20019V6.80019V6.83062V6.83066C11.25 7.3648 11.25 7.81063 11.2203 8.17486C11.1892 8.55474 11.1221 8.9114 10.9503 9.24866C10.6866 9.76611 10.2659 10.1868 9.74848 10.4505C9.41121 10.6223 9.05456 10.6894 8.67467 10.7204C8.31044 10.7502 7.86459 10.7502 7.33043 10.7502H7.3H6.7H6.66957C6.13542 10.7502 5.68957 10.7502 5.32533 10.7204C4.94545 10.6894 4.58879 10.6223 4.25153 10.4505C3.73408 10.1868 3.31339 9.76611 3.04973 9.24866C2.87789 8.9114 2.81078 8.55474 2.77974 8.17486C2.74998 7.81063 2.74999 7.36479 2.75 6.83065V6.83064V6.83062V6.80019V6.20019V6.16975V6.16973V6.16972C2.74999 5.63558 2.74998 5.18974 2.77974 4.82552C2.81078 4.44563 2.87789 4.08897 3.04973 3.75171C3.31339 3.23427 3.73408 2.81357 4.25153 2.54992C4.58879 2.37807 4.94545 2.31096 5.32533 2.27993C5.68956 2.25017 6.13541 2.25018 6.66957 2.25019ZM6.7 13.2502H6.66957C6.13541 13.2502 5.68956 13.2502 5.32533 13.2799C4.94545 13.311 4.58879 13.3781 4.25153 13.5499C3.73408 13.8136 3.31339 14.2343 3.04973 14.7517C2.87789 15.089 2.81078 15.4456 2.77974 15.8255C2.74998 16.1897 2.74999 16.6356 2.75 17.1697V17.1697V17.1698V17.2002V17.8002V17.8306V17.8306C2.74999 18.3648 2.74998 18.8106 2.77974 19.1749C2.81078 19.5547 2.87789 19.9114 3.04973 20.2487C3.31339 20.7661 3.73408 21.1868 4.25153 21.4505C4.58879 21.6223 4.94545 21.6894 5.32533 21.7204C5.68955 21.7502 6.13537 21.7502 6.66949 21.7502H6.66957H6.7H7.3H7.33043H7.33051C7.86463 21.7502 8.31046 21.7502 8.67467 21.7204C9.05456 21.6894 9.41121 21.6223 9.74848 21.4505C10.2659 21.1868 10.6866 20.7661 10.9503 20.2487C11.1221 19.9114 11.1892 19.5547 11.2203 19.1749C11.25 18.8106 11.25 18.3648 11.25 17.8307V17.8306V17.8002V17.2002V17.1698V17.1697C11.25 16.6356 11.25 16.1897 11.2203 15.8255C11.1892 15.4456 11.1221 15.089 10.9503 14.7517C10.6866 14.2343 10.2659 13.8136 9.74848 13.5499C9.41121 13.3781 9.05456 13.311 8.67467 13.2799C8.31044 13.2502 7.86459 13.2502 7.33044 13.2502H7.3H6.7ZM17.6696 13.2502H17.7H18.3H18.3304C18.8646 13.2502 19.3104 13.2502 19.6747 13.2799C20.0546 13.311 20.4112 13.3781 20.7485 13.5499C21.2659 13.8136 21.6866 14.2343 21.9503 14.7517C22.1221 15.089 22.1892 15.4456 22.2203 15.8255C22.25 16.1898 22.25 16.6356 22.25 17.1698V17.2002V17.8002V17.8306C22.25 18.3648 22.25 18.8106 22.2203 19.1749C22.1892 19.5547 22.1221 19.9114 21.9503 20.2487C21.6866 20.7661 21.2659 21.1868 20.7485 21.4505C20.4112 21.6223 20.0546 21.6894 19.6747 21.7204C19.3105 21.7502 18.8646 21.7502 18.3305 21.7502H18.3304H18.3H17.7H17.6696H17.6695C17.1354 21.7502 16.6895 21.7502 16.3253 21.7204C15.9454 21.6894 15.5888 21.6223 15.2515 21.4505C14.7341 21.1868 14.3134 20.7661 14.0497 20.2487C13.8779 19.9114 13.8108 19.5547 13.7797 19.1749C13.75 18.8106 13.75 18.3648 13.75 17.8306V17.8002V17.2002V17.1698C13.75 16.6356 13.75 16.1897 13.7797 15.8255C13.8108 15.4456 13.8779 15.089 14.0497 14.7517C14.3134 14.2343 14.7341 13.8136 15.2515 13.5499C15.5888 13.3781 15.9454 13.311 16.3253 13.2799C16.6896 13.2502 17.1354 13.2502 17.6696 13.2502Z" fill="#0DA75E"/>
</g>
</svg>
