<svg width="10" height="18" viewBox="0 0 10 18" fill="none" xmlns="http://www.w3.org/2000/svg">
<g id="9mobile_Logo 1" clip-path="url(#clip0_2107_1111)">
<path id="Vector" fill-rule="evenodd" clip-rule="evenodd" d="M1.91879 16.1977C2.1468 16.1977 2.31343 16.2478 2.41866 16.348C2.5239 16.4481 2.57658 16.6038 2.5767 16.8152V17.948H2.23468V16.8631C2.23468 16.6242 2.1055 16.5048 1.84715 16.5048C1.73556 16.5038 1.626 16.5358 1.53126 16.597C1.54765 16.6684 1.55536 16.7418 1.55419 16.8152V17.948H1.21218V16.8631C1.21218 16.6242 1.083 16.5048 0.824649 16.5048C0.706766 16.5049 0.589852 16.5269 0.479431 16.5697V17.948H0.13759V16.3752C0.250766 16.3169 0.370572 16.2735 0.494185 16.2462C0.626039 16.2143 0.760902 16.1978 0.896289 16.1968C1.10961 16.1968 1.26811 16.2398 1.37181 16.3258C1.5426 16.2412 1.72952 16.1975 1.91879 16.1977ZM3.74852 18C3.4878 18 3.29184 17.9226 3.16065 17.7679C3.02946 17.6132 2.96381 17.3881 2.96369 17.0924C2.96369 16.4941 3.22441 16.195 3.74585 16.1952C4.00859 16.1952 4.20614 16.2719 4.33852 16.4254C4.4709 16.5788 4.53714 16.8012 4.53726 17.0924C4.53726 17.3834 4.46888 17.6074 4.33212 17.7644C4.19536 17.9215 4.00083 18 3.74852 18ZM3.74514 17.6962C4.04485 17.6962 4.19465 17.495 4.19453 17.0924C4.19453 16.8922 4.15898 16.7427 4.08787 16.6438C4.01677 16.5449 3.90276 16.4953 3.74585 16.4952C3.58741 16.4952 3.47399 16.5459 3.40561 16.6471C3.33723 16.7484 3.30304 16.8968 3.30304 17.0924C3.30304 17.2879 3.3383 17.4375 3.40881 17.541C3.47932 17.6446 3.59143 17.6961 3.74514 17.6955V17.6962ZM5.67904 16.1985C5.92222 16.1985 6.10674 16.2747 6.2326 16.427C6.35846 16.5794 6.42156 16.7952 6.42192 17.0745C6.42192 17.4112 6.34649 17.6495 6.19563 17.7893C6.04476 17.9292 5.85301 17.9994 5.62038 18C5.15357 18 4.92017 17.8704 4.92017 17.6111V15.5495H5.25898V16.3043C5.32712 16.2705 5.39866 16.2447 5.4723 16.2274C5.53991 16.2094 5.60927 16.1995 5.67904 16.1977V16.1985ZM5.59425 17.6894C5.77201 17.6894 5.89645 17.636 5.96755 17.5291C6.03866 17.4222 6.07421 17.2754 6.07421 17.0889C6.07421 16.898 6.03676 16.7524 5.96187 16.6523C5.88697 16.5521 5.77575 16.5021 5.6282 16.5022C5.56392 16.5027 5.49993 16.5112 5.43764 16.5277C5.37528 16.5433 5.31541 16.5681 5.25987 16.6014V17.523C5.25928 17.6336 5.37074 17.6888 5.59425 17.6887V17.6894ZM6.80838 15.6389H7.17315V15.9631H6.80838V15.6389ZM6.81816 16.2462H7.16018L7.16338 17.9488H6.81816V16.2462ZM7.64476 17.9488V15.5871H7.98358V17.948L7.64476 17.9488ZM9.12927 16.1937C9.38336 16.1937 9.56954 16.2797 9.68781 16.4517C9.80608 16.6238 9.86415 16.8643 9.86202 17.1733H8.71508C8.7261 17.3417 8.77351 17.4697 8.85729 17.5573C8.94108 17.6449 9.05995 17.6886 9.21389 17.6885C9.39832 17.6887 9.5798 17.6406 9.74149 17.5486V17.883C9.57214 17.961 9.37814 18 9.15949 18C8.91418 18 8.72148 17.9221 8.5814 17.7663C8.44132 17.6105 8.37134 17.3893 8.37146 17.1027C8.37146 16.8093 8.43765 16.5847 8.57003 16.4291C8.7024 16.2734 8.88882 16.1949 9.12927 16.1937ZM9.1195 16.4886C9.00442 16.4886 8.91436 16.5205 8.84929 16.5843C8.78423 16.648 8.74187 16.756 8.72219 16.9083H9.5136C9.49831 16.7627 9.4592 16.6564 9.39628 16.5894C9.33335 16.5224 9.24109 16.4888 9.1195 16.4886ZM5.85307 2.45199C5.47586 2.35529 5.18551 2.30687 4.98203 2.30675C3.4641 2.30675 2.23343 3.57855 2.23343 5.14691C2.23343 6.71528 3.46463 7.98726 4.98203 7.98726C6.49943 7.98726 7.7308 6.71547 7.7308 5.14691C7.73091 4.91778 7.70429 4.68947 7.65152 4.46696L9.83677 3.85668C10.0138 4.55447 10.0473 5.28305 9.93503 5.99512C9.82278 6.70719 9.56733 7.38681 9.18527 7.98985L5.56669 14.9458H2.21441L4.59646 10.3932C4.60943 10.3681 4.57121 10.3128 4.53922 10.3099C1.99381 10.0702 0 7.85843 0 5.16572C0 2.31265 2.23805 3.13971e-06 4.99909 3.13971e-06C5.50452 -0.00057306 6.00712 0.0781623 6.48983 0.233535L5.85307 2.45199Z" fill="#006E53"/>
<path id="Vector_2" d="M4.96578 6.71014C5.79783 6.71014 6.47234 6.01076 6.47234 5.14804C6.47234 4.28531 5.79783 3.58594 4.96578 3.58594C4.13374 3.58594 3.45923 4.28531 3.45923 5.14804C3.45923 6.01076 4.13374 6.71014 4.96578 6.71014Z" fill="#D6E806"/>
<path id="Vector_3" d="M7.5684 4.08118C7.3074 3.40373 6.80434 2.85684 6.16406 2.55447M8.52726 3.65503C8.15865 2.71547 7.46166 1.95473 6.57559 1.52486M9.45182 3.33561C8.98229 2.09695 8.05898 1.10136 6.88365 0.566406" stroke="#D6E806" stroke-width="0.231634" stroke-linecap="round"/>
</g>
<defs>
<clipPath id="clip0_2107_1111">
<rect width="10" height="18" fill="white"/>
</clipPath>
</defs>
</svg>
