<svg width="40" height="40" viewBox="0 0 40 40" fill="none" xmlns="http://www.w3.org/2000/svg">
<rect width="40" height="40" rx="8" fill="#50B651" fill-opacity="0.1"/>
<g clip-path="url(#clip0_1908_33620)">
<ellipse cx="19.9999" cy="20" rx="11.9999" ry="12" fill="white"/>
<path d="M19.9113 31.3292C26.1894 31.3292 31.2789 26.2397 31.2789 19.9615C31.2789 13.6833 26.1894 8.59375 19.9113 8.59375C13.6331 8.59375 8.5437 13.6833 8.5437 19.9615C8.5437 26.2397 13.6331 31.3292 19.9113 31.3292Z" fill="#50B651"/>
<path opacity="0.586" fill-rule="evenodd" clip-rule="evenodd" d="M24.7356 28.3068C28.8597 24.4275 29.5452 19.9833 26.7922 14.9741C26.8061 14.9843 26.9764 14.3966 27.3031 13.2109C28.7683 14.9853 29.5474 17.1753 29.6404 19.7811C29.6396 23.1562 28.0047 25.9981 24.7356 28.3068Z" fill="url(#paint0_linear_1908_33620)"/>
<path opacity="0.744" fill-rule="evenodd" clip-rule="evenodd" d="M22.7794 13.2354C20.7888 12.1336 18.505 9.91748 18.8086 9.45207C19.1122 8.98665 23.0524 9.06672 25.0434 10.1684C27.0343 11.2702 28.7287 14.575 28.4254 15.0404C28.1221 15.5059 24.7701 14.3371 22.7794 13.2354Z" fill="url(#paint1_radial_1908_33620)"/>
<path fill-rule="evenodd" clip-rule="evenodd" d="M24.5135 22.7634C22.8621 22.7634 21.5233 21.3864 21.5233 19.688C21.5233 17.9896 22.8621 16.6129 24.5135 16.6129C26.165 16.6129 27.504 17.9896 27.504 19.688C27.504 21.3864 26.1652 22.7634 24.5135 22.7634ZM24.5348 21.7879C25.5654 21.7879 26.4021 20.8477 26.4021 19.688C26.4021 18.5283 25.5654 17.589 24.5348 17.589C23.5041 17.589 22.6675 18.5292 22.6675 19.6886C22.6675 20.848 23.5041 21.7879 24.5348 21.7879ZM20.4986 22.7292H19.3157V15.0791H18.3438V14.1367H20.4986V22.7292ZM16.7379 16.7003H17.8563V23.8759C17.8563 24.5298 17.1686 25.2108 16.4983 25.5039C16.1814 25.6423 15.5967 25.7246 14.7442 25.7506V25.0368C15.578 24.9438 16.1409 24.7583 16.4327 24.4802C16.601 24.2463 16.7063 23.9728 16.7382 23.6863V21.5783C16.4393 22.2126 16.0628 22.6331 15.6088 22.8398C15.1369 23.0945 14.1763 23.0526 13.7842 22.8398C13.3921 22.6271 12.8169 22.0669 12.5532 21.2325C12.4802 21.0022 12.2986 20.3755 12.3175 19.7115C12.3345 19.0792 12.5439 18.41 12.7179 18.135C13.0166 17.6654 13.4877 17.0772 14.2012 16.8313C14.5498 16.7112 15.1958 16.668 16.1393 16.7017V17.4116C15.4382 17.3643 15.0008 17.3879 14.8271 17.4826C14.5665 17.6241 13.9783 17.7986 13.7842 19.0806C13.5901 20.3625 13.7899 21.4116 14.4052 21.7401C14.616 21.8533 14.9889 21.9871 15.3335 21.8691C15.9956 21.6428 16.6185 20.8356 16.6661 20.2887C16.714 19.7338 16.7379 18.5376 16.7379 16.7003Z" fill="white"/>
<path fill-rule="evenodd" clip-rule="evenodd" d="M30.887 22.2141C29.8309 27.2997 25.3244 31.1209 19.926 31.1209C13.7432 31.1209 8.73096 26.1085 8.73096 19.9257C8.73096 16.0847 10.6653 12.6955 13.6128 10.6797C11.2179 12.6658 9.6929 15.6663 9.6929 19.0215C9.6929 25.0063 14.5445 29.8576 20.5289 29.8576C25.4025 29.8576 29.5242 26.6404 30.887 22.2141Z" fill="url(#paint2_radial_1908_33620)"/>
</g>
<defs>
<linearGradient id="paint0_linear_1908_33620" x1="27.8456" y1="14.2496" x2="27.8456" y2="24.9232" gradientUnits="userSpaceOnUse">
<stop stop-color="white" stop-opacity="0"/>
<stop offset="0.64" stop-color="white" stop-opacity="0.43"/>
<stop offset="1" stop-color="white" stop-opacity="0.42"/>
</linearGradient>
<radialGradient id="paint1_radial_1908_33620" cx="0" cy="0" r="1" gradientUnits="userSpaceOnUse" gradientTransform="translate(23.8593 12.321) rotate(26.7608) scale(5.61728 2.33951)">
<stop offset="0.13" stop-color="white"/>
<stop offset="0.29" stop-color="white" stop-opacity="0.69"/>
<stop offset="0.45" stop-color="white" stop-opacity="0.4"/>
<stop offset="0.59" stop-color="white" stop-opacity="0.18"/>
<stop offset="0.69" stop-color="white" stop-opacity="0.05"/>
<stop offset="0.74" stop-color="white" stop-opacity="0"/>
</radialGradient>
<radialGradient id="paint2_radial_1908_33620" cx="0" cy="0" r="1" gradientUnits="userSpaceOnUse" gradientTransform="translate(21.8458 17.3464) rotate(39.8404) scale(12.5883 13.7211)">
<stop offset="0.86" stop-opacity="0"/>
<stop offset="0.98" stop-opacity="0.47"/>
<stop offset="1"/>
</radialGradient>
<clipPath id="clip0_1908_33620">
<rect x="8" y="8" width="24" height="24" rx="4" fill="white"/>
</clipPath>
</defs>
</svg>
