<svg width="41" height="40" viewBox="0 0 41 40" fill="none" xmlns="http://www.w3.org/2000/svg">
<rect x="0.5" width="40" height="40" rx="8" fill="#FFC403" fill-opacity="0.1"/>
<g clip-path="url(#clip0_1908_33636)">
<path d="M8.5 8H32.5V32H8.5V8Z" fill="#FFC403"/>
<path d="M19.1683 18.582V21.3215H18.4191V19.785L17.9186 20.5254H17.5264L16.9761 19.785V21.3215H16.2913V18.582H16.982L17.7722 19.6562L18.4805 18.582H19.1683ZM19.3849 19.2025V18.582H21.943V19.2025H21.0474V21.3215H20.2835V19.2025H19.3849ZM24.7615 18.582V21.3215H24.1322L22.8444 19.7557V21.3215H22.1596V18.582H22.8415L24.0737 20.0923V18.582H24.7615Z" fill="black"/>
<path d="M20.5001 24.1871C18.2874 24.1871 16.2006 23.7745 14.6259 23.0223C12.9781 22.2349 12.0708 21.1637 12.0708 20.0018C12.0708 18.8398 12.9781 17.7686 14.6259 16.9813C16.2006 16.2291 18.2874 15.8164 20.5001 15.8164C22.7128 15.8164 24.7996 16.2291 26.3742 16.9813C28.022 17.7686 28.9293 18.8398 28.9293 20.0018C28.9293 21.1637 28.022 22.2349 26.3742 23.0223C24.7996 23.7745 22.7128 24.1871 20.5001 24.1871ZM20.5001 16.434C18.3752 16.434 16.3849 16.8262 14.8923 17.5403C13.4728 18.2193 12.6884 19.0945 12.6884 20.0047C12.6884 20.9149 13.4698 21.7901 14.8923 22.4662C16.3849 23.1803 18.3781 23.5725 20.5001 23.5725C22.622 23.5725 24.6152 23.1803 26.1079 22.4662C27.5274 21.7901 28.3118 20.912 28.3118 20.0047C28.3118 19.0974 27.5303 18.2193 26.1079 17.5432C24.6152 16.8262 22.6249 16.434 20.5001 16.434Z" fill="black"/>
</g>
<defs>
<clipPath id="clip0_1908_33636">
<rect x="8.5" y="8" width="24" height="24" rx="4" fill="white"/>
</clipPath>
</defs>
</svg>
