<svg width="40" height="40" viewBox="0 0 40 40" fill="none" xmlns="http://www.w3.org/2000/svg">
<rect width="40" height="40" rx="8" fill="#114185" fill-opacity="0.1"/>
<rect x="8" y="8" width="24" height="24" rx="4" fill="#E8F5FF"/>
<path d="M20.6152 17.2837C20.6184 17.2785 20.622 17.2785 20.6263 17.2837L20.6198 17.289L20.6152 17.2837Z" fill="#0124DD"/>
<path d="M15.3043 19.0596C15.3711 18.8575 15.4344 18.6666 15.4964 18.4773C15.504 18.4542 15.5195 18.4488 15.5396 18.4451C15.8741 18.3827 16.21 18.3296 16.5517 18.3464C16.7928 18.3578 17.0246 18.407 17.2322 18.5364C17.5138 18.7117 17.6426 18.9757 17.6608 19.2993C17.6715 19.4854 17.6412 19.6692 17.6146 19.8513C17.5593 20.2226 17.5025 20.5934 17.4491 20.9647C17.4476 20.9802 17.442 20.9951 17.4328 21.0078C17.4236 21.0204 17.4112 21.0304 17.3968 21.0366C17.1791 21.1561 16.9428 21.2215 16.7001 21.2612C16.3997 21.3133 16.0933 21.3211 15.7907 21.2844C15.5384 21.2527 15.3033 21.1743 15.1203 20.9889C15.0408 20.9076 14.9791 20.8106 14.9391 20.7041C14.8991 20.5977 14.8817 20.4841 14.888 20.3705C14.8942 20.257 14.924 20.146 14.9754 20.0445C15.0268 19.9431 15.0987 19.8535 15.1866 19.7813C15.3743 19.6269 15.5962 19.5501 15.83 19.5004C16.1839 19.4255 16.541 19.4357 16.8984 19.463C16.943 19.4662 16.9528 19.4526 16.9548 19.4128C16.9708 19.134 16.8034 18.9338 16.5096 18.88C16.3057 18.8425 16.1055 18.8749 15.9053 18.9077C15.701 18.9413 15.5 18.9921 15.3043 19.0596ZM16.5544 19.9006C16.4272 19.8998 16.3001 19.9091 16.1744 19.9286C16.0385 19.9517 15.9065 19.9875 15.7969 20.0777C15.673 20.1796 15.6399 20.3165 15.6644 20.4672C15.6876 20.6047 15.7837 20.6801 15.9083 20.7245C15.9654 20.7446 16.0248 20.7574 16.0852 20.7626C16.308 20.7841 16.5244 20.7453 16.7394 20.6921C16.754 20.6902 16.7673 20.683 16.777 20.6719C16.7866 20.6607 16.7918 20.6465 16.7916 20.6318C16.821 20.4133 16.8501 20.1946 16.8825 19.9766C16.888 19.939 16.8755 19.9318 16.8441 19.9258C16.7483 19.91 16.6515 19.9015 16.5544 19.9006Z" fill="#114185"/>
<path d="M25.6241 20.5823C25.5871 20.6947 25.5548 20.7952 25.5205 20.8958C25.4933 20.9783 25.4641 21.0601 25.4383 21.1434C25.4358 21.1561 25.4296 21.1678 25.4204 21.177C25.4113 21.1862 25.3996 21.1925 25.3869 21.1951C25.0332 21.2895 24.6749 21.3405 24.3097 21.2945C23.8936 21.2421 23.5496 21.0634 23.3388 20.6817C23.2091 20.4455 23.1679 20.1882 23.1855 19.923C23.219 19.4186 23.4291 19.0004 23.8198 18.6765C24.0572 18.4796 24.3342 18.3783 24.6389 18.3483C24.849 18.3277 25.058 18.3316 25.263 18.3887C25.6805 18.5043 25.9588 18.8291 26.0122 19.2591C26.043 19.5062 26.0122 19.7489 25.9723 19.9919C25.9674 20.0222 25.9521 20.0231 25.929 20.0231C25.8169 20.0231 25.7046 20.0231 25.5924 20.0231C25.053 20.0231 24.5136 20.0231 23.9742 20.0231C23.9308 20.0231 23.9181 20.0337 23.9174 20.0784C23.9114 20.4418 24.112 20.6817 24.4692 20.743C24.7332 20.7892 24.99 20.7492 25.2464 20.6933C25.3746 20.6646 25.5008 20.6275 25.6241 20.5823ZM24.6809 19.5513H25.1988C25.3569 19.5513 25.3569 19.5513 25.3622 19.3932C25.3731 19.073 25.1773 18.8643 24.8589 18.8465C24.4782 18.825 24.1192 19.1007 24.0267 19.5099C24.0191 19.5439 24.0267 19.5522 24.0614 19.552C24.2674 19.5504 24.4729 19.5513 24.6809 19.5513Z" fill="#114185"/>
<path d="M26.9541 21.3036C26.6147 21.3013 26.2777 21.2452 25.9559 21.1372C25.9238 21.1261 25.9152 21.1168 25.9268 21.0819C25.9796 20.9218 26.0303 20.7609 26.0787 20.5992C26.0907 20.5595 26.1048 20.5627 26.1367 20.578C26.4458 20.7291 26.7949 20.7784 27.1337 20.7185C27.2132 20.7064 27.2887 20.6755 27.3538 20.6284C27.3839 20.6075 27.409 20.5801 27.4272 20.5482C27.4453 20.5164 27.4561 20.4809 27.4587 20.4443C27.4613 20.4077 27.4557 20.371 27.4423 20.3369C27.4288 20.3028 27.4079 20.2721 27.3811 20.2472C27.3223 20.1928 27.2564 20.1467 27.185 20.1103C27.0082 20.0114 26.8283 19.9187 26.6603 19.804C26.2088 19.4949 26.2638 18.8516 26.7084 18.5693C26.9053 18.4443 27.121 18.3816 27.3501 18.3578C27.732 18.3183 28.1012 18.3837 28.465 18.4933C28.4983 18.5032 28.5069 18.5122 28.4942 18.5476C28.4394 18.6995 28.3864 18.8523 28.3367 19.006C28.3236 19.0465 28.3078 19.0435 28.2766 19.0291C28.049 18.9217 27.7998 18.868 27.5482 18.8719C27.4262 18.8749 27.3071 18.895 27.2038 18.9672C27.1598 18.9952 27.1263 19.0368 27.1084 19.0857C27.0904 19.1346 27.089 19.1881 27.1044 19.2379C27.1243 19.2937 27.1619 19.3415 27.2114 19.374C27.3184 19.4545 27.4409 19.5088 27.5582 19.5731C27.7016 19.6479 27.8384 19.7347 27.9673 19.8324C28.3483 20.1348 28.3097 20.7109 27.9442 21.0035C27.7084 21.1919 27.4324 21.2673 27.1388 21.2941C27.0651 21.3006 26.9918 21.3017 26.9541 21.3036Z" fill="#114185"/>
<path d="M29.4474 21.3035C29.1124 21.3003 28.7801 21.2447 28.4624 21.1387C28.4256 21.1264 28.4161 21.1156 28.4298 21.0767C28.482 20.92 28.5315 20.7624 28.5796 20.6042C28.5911 20.5659 28.6027 20.5603 28.6401 20.5783C28.9479 20.7281 29.295 20.7775 29.6323 20.7194C29.7046 20.708 29.7739 20.6822 29.836 20.6435C29.9892 20.5457 30.008 20.3661 29.8785 20.2404C29.8242 20.1916 29.7638 20.15 29.6989 20.1167C29.514 20.0117 29.3218 19.9179 29.1478 19.7931C28.7462 19.5029 28.7962 18.978 29.0417 18.7144C29.2072 18.5371 29.4162 18.4419 29.648 18.3908C29.9557 18.3214 30.2632 18.3381 30.5704 18.3949C30.6999 18.4181 30.8265 18.4532 30.9532 18.4874C30.9953 18.4992 31.0106 18.5117 30.9928 18.5598C30.9394 18.7047 30.8908 18.8513 30.8436 18.999C30.8305 19.0394 30.8173 19.0452 30.7775 19.0279C30.553 18.9224 30.3076 18.8688 30.0595 18.8709C29.9439 18.873 29.8323 18.8901 29.7315 18.9507C29.636 19.0078 29.5877 19.0908 29.602 19.205C29.611 19.2776 29.6547 19.3282 29.7098 19.3698C29.8253 19.4574 29.9583 19.5152 30.084 19.5845C30.2273 19.6638 30.3688 19.7464 30.4939 19.8529C30.8443 20.1535 30.8048 20.7106 30.4532 20.9972C30.2643 21.1514 30.0452 21.2314 29.8087 21.2728C29.6892 21.2922 29.5684 21.3025 29.4474 21.3035Z" fill="#114185"/>
<path d="M20.289 20.6233C20.2772 20.6926 20.2474 20.7548 20.2254 20.8203C20.1836 20.9449 20.139 21.0683 20.0976 21.1931C20.0945 21.2056 20.0876 21.2168 20.0778 21.2251C20.068 21.2334 20.0558 21.2384 20.043 21.2394C19.7656 21.2856 19.4852 21.315 19.2034 21.2937C18.7829 21.262 18.4223 21.1088 18.1745 20.7504C17.9997 20.498 17.938 20.2111 17.9535 19.909C17.9794 19.405 18.193 18.9926 18.5866 18.6768C18.8123 18.4961 19.0777 18.4073 19.3604 18.3703C19.7103 18.3207 20.0667 18.342 20.4083 18.433C20.4735 18.4508 20.5363 18.4757 20.6004 18.4965C20.6235 18.5039 20.6295 18.5139 20.6209 18.5391C20.5664 18.6986 20.5123 18.8585 20.4612 19.0192C20.4499 19.0546 20.4339 19.0474 20.411 19.0384C20.2478 18.9715 20.075 18.931 19.899 18.9184C19.5183 18.8969 19.1872 19.0016 18.9496 19.3186C18.727 19.6156 18.6925 20.1089 18.9309 20.4072C19.079 20.5921 19.2746 20.6901 19.5067 20.7172C19.7571 20.7463 19.9991 20.698 20.2381 20.6293C20.2534 20.6249 20.2689 20.6219 20.2844 20.6182L20.289 20.6233Z" fill="#114185"/>
<path d="M22.9247 20.6198C22.8715 20.7728 22.8105 20.9243 22.7668 21.0805C22.7351 21.1945 22.6817 21.2486 22.5574 21.2611C22.2106 21.2957 21.8639 21.3346 21.5171 21.2428C20.9718 21.0979 20.6155 20.6628 20.5859 20.0974C20.5536 19.4829 20.7889 18.9919 21.2838 18.6287C21.4919 18.4764 21.7346 18.4043 21.988 18.3712C22.3379 18.3218 22.6941 18.343 23.0357 18.4336C23.099 18.451 23.1598 18.4769 23.2229 18.4951C23.256 18.5048 23.2569 18.5199 23.246 18.5487C23.1931 18.7034 23.1406 18.8581 23.0914 19.0139C23.0796 19.0511 23.0655 19.0497 23.0352 19.0381C22.7929 18.9457 22.5451 18.8955 22.2837 18.9226C21.8396 18.9702 21.5016 19.2638 21.4163 19.6958C21.3548 20.0077 21.4112 20.2929 21.6597 20.5137C21.8578 20.6894 22.099 20.7384 22.3558 20.7234C22.537 20.7114 22.716 20.6773 22.8889 20.6216C22.8993 20.6198 22.9085 20.6112 22.9247 20.6198Z" fill="#114185"/>
<path d="M14.1177 19.9837L11.238 17.104V17.546L13.6757 19.9837L13.6766 19.9846L11.5651 22.0961L11.5625 22.0936L9.4524 19.9837L9.45055 19.9818L10.4864 18.946H10.0368L9 19.9828L9.00092 19.9837L11.5616 22.5444L11.5625 22.5434L14.12 19.986L14.1177 19.9837Z" fill="#FE6309"/>
<path d="M11.2371 17.8501V18.2921L12.9295 19.9845L11.566 21.3479L10.2014 19.9836L10.1996 19.9817L11.2355 18.9458H10.7858L9.74902 19.9826L9.74995 19.9836L11.3402 21.5738L11.5626 21.7962L11.7886 21.5703L13.3729 19.9859L11.2371 17.8501Z" fill="#FE6309"/>
<path d="M12.6263 19.9837L11.7819 19.1383L11.5572 18.9136L11.3362 19.1346L10.4873 19.9827L11.3366 20.8321L11.559 21.0544L11.7846 20.8286L12.6286 19.986L12.6263 19.9837ZM11.5629 20.6078L10.9388 19.9837L10.9369 19.9818L11.5595 19.3593L12.1836 19.9834L11.5629 20.6078Z" fill="#FE6309"/>
</svg>
