<svg width="24" height="24" viewBox="0 0 24 24" fill="none" xmlns="http://www.w3.org/2000/svg">
<g clip-path="url(#clip0_832_716)">
<rect width="24" height="24" rx="4" fill="#5C2682"/>
<path fill-rule="evenodd" clip-rule="evenodd" d="M0 0H23.7778V24H0V0Z" fill="#5C2682"/>
<path d="M4.72488 9.70343V10.5794H6.66264V11.3861H4.72488V12.9583H3.83136V8.89703H6.92352V9.70343H4.72488Z" fill="white"/>
<path d="M10.8804 12.6043C10.7666 12.6943 10.643 12.7712 10.512 12.8335C10.3724 12.8991 10.2253 12.9475 10.074 12.9775C9.89821 13.0121 9.71937 13.0286 9.54024 13.027C9.25553 13.0296 8.97326 12.9743 8.71056 12.8645C8.46309 12.7614 8.23833 12.6106 8.04912 12.4207C7.86157 12.2302 7.71368 12.0044 7.614 11.7564C7.50868 11.4966 7.45543 11.2186 7.45728 10.9382V10.9267C7.45516 10.647 7.50842 10.3697 7.614 10.1107C7.71499 9.86259 7.86271 9.63617 8.04912 9.44376C8.23877 9.2495 8.46571 9.09554 8.71631 8.99112C8.9888 8.87881 9.2813 8.82312 9.576 8.82744C9.75012 8.82613 9.92397 8.84164 10.0951 8.87376C10.2412 8.90174 10.3841 8.94452 10.5216 9.00144C10.6464 9.05413 10.7651 9.12029 10.8756 9.19872C10.983 9.27544 11.0839 9.36085 11.1773 9.45408L10.608 10.1095C10.4626 9.97587 10.2996 9.86282 10.1234 9.77352C9.95065 9.69053 9.76093 9.64888 9.56928 9.65184C9.40641 9.65033 9.24514 9.68398 9.09647 9.75048C8.95409 9.81425 8.82664 9.90713 8.72231 10.0231C8.61667 10.1412 8.53405 10.2779 8.47872 10.4263C8.41992 10.5831 8.39039 10.7492 8.3916 10.9166V10.9282C8.39058 11.0965 8.4201 11.2636 8.47872 11.4214C8.5332 11.5703 8.61455 11.7079 8.71872 11.8274C8.82497 11.9476 8.95588 12.0435 9.10253 12.1086C9.24918 12.1737 9.40813 12.2064 9.56856 12.2045C9.80072 12.2045 9.99704 12.1619 10.1575 12.0768C10.3315 11.9821 10.4924 11.8651 10.6361 11.7288L11.2046 12.3031C11.1043 12.4116 10.9959 12.5123 10.8804 12.6043Z" fill="white"/>
<path d="M15.0982 12.9583V10.3068L13.955 12.0415H13.931L12.7997 10.3243V12.9583H11.9189V8.89703H12.8818L13.9493 10.6145L15.0168 8.89703H15.9799V12.9583H15.0982Z" fill="white"/>
<path d="M20.2937 12.3317C20.2218 12.4714 20.1163 12.591 19.9867 12.6797C19.8408 12.7781 19.6781 12.8489 19.5067 12.8887C19.3023 12.9371 19.0928 12.9605 18.8827 12.9583H16.9546V8.89703H18.8369C19.2537 8.89703 19.5808 8.99183 19.8182 9.18143C20.0557 9.37103 20.1745 9.62631 20.1746 9.94727V9.95999C20.1763 10.0641 20.1616 10.1678 20.1312 10.2674C20.1042 10.3524 20.0654 10.4332 20.016 10.5074C19.969 10.5778 19.9125 10.6413 19.848 10.6961C19.7852 10.7499 19.7166 10.7966 19.6435 10.8353C19.8782 10.9244 20.063 11.0453 20.1979 11.1979C20.3328 11.3506 20.4002 11.5619 20.4 11.832V11.8435C20.4041 12.0124 20.3677 12.1798 20.2937 12.3317ZM19.2926 10.098C19.2926 9.96263 19.2424 9.85919 19.1419 9.78767C19.0414 9.71615 18.8964 9.68039 18.7068 9.68039H17.8248V10.5389H18.648C18.8453 10.5389 19.0019 10.505 19.1179 10.4374C19.2339 10.3697 19.2919 10.2604 19.2919 10.1095L19.2926 10.098ZM19.519 11.7226C19.5211 11.6601 19.5079 11.5981 19.4806 11.5419C19.4533 11.4856 19.4126 11.4369 19.3622 11.4C19.2578 11.3208 19.0898 11.2808 18.8582 11.28H17.8262V12.1735H18.888C19.0853 12.1735 19.24 12.1378 19.3522 12.0662C19.4643 11.9947 19.5203 11.8835 19.5202 11.7326L19.519 11.7226Z" fill="white"/>
<path d="M20.3333 15.5607V17.5493H3.74255V16.5034C3.74252 16.3796 3.76688 16.257 3.81425 16.1426C3.86161 16.0282 3.93105 15.9243 4.0186 15.8367C4.10615 15.7492 4.21008 15.6797 4.32447 15.6324C4.43886 15.585 4.56147 15.5606 4.68527 15.5607H20.3333Z" fill="#FAB613"/>
<path d="M3.74255 18.1932H20.3333V20.1818H4.68527C4.56144 20.1818 4.43882 20.1575 4.32442 20.1101C4.21001 20.0627 4.10606 19.9933 4.01852 19.9057C3.93097 19.8181 3.86153 19.7141 3.81418 19.5997C3.76683 19.4853 3.74249 19.3627 3.74255 19.2389V18.1932Z" fill="#FAB613"/>
</g>
<defs>
<clipPath id="clip0_832_716">
<rect width="24" height="24" rx="4" fill="white"/>
</clipPath>
</defs>
</svg>
