<svg width="40" height="40" viewBox="0 0 40 40" fill="none" xmlns="http://www.w3.org/2000/svg">
<rect width="40" height="40" rx="8" fill="#4DC247" fill-opacity="0.1"/>
<rect x="8" y="8" width="24" height="24" rx="4" fill="#E8F5FF"/>
<path d="M11.9123 28.5984H11.1154L11.1257 28.2154V25.8228C11.1246 25.7154 11.1177 25.608 11.1051 25.5012C11.1 25.4503 11.0887 25.4001 11.0716 25.3519C11.051 25.3115 11.027 25.2729 11 25.2364L11.0412 25.1268H11.9235L12.8959 25.1113C12.957 25.2023 12.9938 25.3073 13.0029 25.4165C13.0145 25.5274 13.0009 25.6396 12.963 25.7445H12.8418C12.8261 25.6696 12.7685 25.6058 12.6689 25.5531C12.571 25.5008 12.4626 25.4711 12.3516 25.4663L11.8872 25.4457C11.8647 25.8473 11.8536 26.2464 11.8537 26.6428H12.514C12.5672 26.6428 12.6084 26.642 12.6374 26.6403C12.6742 26.6368 12.7103 26.6282 12.7446 26.6148C12.7847 26.6007 12.8212 26.578 12.8516 26.5484C12.863 26.6072 12.869 26.667 12.8695 26.727C12.8695 26.9431 12.7088 27.0512 12.3872 27.0512C12.3218 27.0512 12.2289 27.0495 12.1086 27.0461C11.9883 27.0427 11.9015 27.041 11.8481 27.041C11.8465 27.2673 11.8491 27.5158 11.856 27.7864L11.8636 28.1949L11.8765 28.3582C11.8791 28.4394 11.8912 28.52 11.9123 28.5984Z" fill="#11237D"/>
<path d="M14.2703 27.4601C14.2703 27.9468 14.2892 28.3263 14.3271 28.5986H13.5863L13.6147 26.8169C13.6158 26.7196 13.6063 26.6224 13.5863 26.5272C13.5741 26.4618 13.5524 26.3986 13.5217 26.3395C13.5004 26.302 13.4734 26.268 13.4417 26.2387C13.4224 26.2191 13.3998 26.203 13.3748 26.1914C13.3648 26.1875 13.3544 26.185 13.3438 26.1838V26.0893C13.5453 25.9667 13.7354 25.9054 13.9143 25.9054C14.1689 25.9054 14.2961 26.0713 14.296 26.4031C14.296 26.4541 14.2918 26.5405 14.2833 26.6622C14.2746 26.784 14.2703 26.8786 14.2703 26.9467V27.4601ZM13.5248 25.2366C13.524 25.1883 13.5332 25.1403 13.552 25.0957C13.5707 25.0511 13.5985 25.0108 13.6337 24.9776C13.6678 24.9433 13.7084 24.9163 13.7532 24.8981C13.798 24.8798 13.846 24.8709 13.8944 24.8716C13.9409 24.8712 13.987 24.8804 14.0298 24.8986C14.0726 24.9168 14.1112 24.9437 14.1431 24.9776C14.1772 25.0114 14.204 25.0519 14.222 25.0964C14.24 25.1409 14.2487 25.1886 14.2477 25.2366C14.2483 25.2828 14.2393 25.3286 14.2213 25.3711C14.2033 25.4136 14.1767 25.4519 14.1431 25.4836C14.1107 25.5166 14.072 25.5427 14.0293 25.5604C13.9865 25.5781 13.9406 25.5869 13.8944 25.5864C13.7973 25.5881 13.7035 25.5511 13.6337 25.4836C13.599 25.4525 13.5714 25.4144 13.5527 25.3718C13.5339 25.3293 13.5244 25.2832 13.5248 25.2366Z" fill="#11237D"/>
<path d="M17.5985 28.3951V28.51C17.3904 28.6153 17.197 28.6681 17.0182 28.6682C16.928 28.666 16.8399 28.64 16.7629 28.5929C16.6769 28.5447 16.609 28.4699 16.5693 28.3797C16.3407 28.5718 16.1034 28.6678 15.8573 28.6678C15.7212 28.6686 15.5861 28.6444 15.4588 28.5964C15.3315 28.5471 15.215 28.4737 15.1156 28.3803C15.0114 28.2843 14.9291 28.1533 14.8687 27.9873C14.8082 27.8214 14.778 27.6293 14.7783 27.4112C14.7786 27.2667 14.7963 27.1227 14.8312 26.9824C14.8672 26.8384 14.9226 26.7 14.9958 26.5709C15.0671 26.4422 15.1558 26.324 15.2596 26.2196C15.3661 26.1147 15.4923 26.0318 15.631 25.9758C15.7797 25.9146 15.9391 25.8836 16.0999 25.8849C16.1841 25.8865 16.2679 25.8965 16.3501 25.9145C16.4462 25.934 16.4942 25.9471 16.4942 25.954C16.4942 25.8467 16.4933 25.7476 16.4915 25.6567C16.4897 25.5657 16.4872 25.4827 16.4839 25.4077C16.4812 25.3405 16.4738 25.2737 16.4619 25.2075C16.4525 25.1549 16.4374 25.1035 16.4168 25.0542C16.3991 25.0121 16.3724 24.9743 16.3385 24.9437C16.3046 24.913 16.2644 24.8902 16.2207 24.8769V24.7824L16.2929 24.7441C16.3577 24.7103 16.426 24.6837 16.4966 24.6649C16.5787 24.6403 16.6638 24.6274 16.7495 24.6266C16.8138 24.6252 16.878 24.6321 16.9405 24.6472C16.9916 24.6617 17.0381 24.689 17.0758 24.7264C17.1208 24.7741 17.1515 24.8333 17.1647 24.8974C17.1859 24.9919 17.1956 25.0885 17.1937 25.1853V25.2517C17.1937 25.2825 17.1895 25.3982 17.181 25.5989C17.1725 25.7995 17.1634 26.0458 17.1536 26.3375C17.1442 26.6286 17.1394 26.9001 17.1394 27.1519C17.1394 27.2967 17.1402 27.4153 17.1419 27.5079C17.1435 27.6005 17.147 27.6933 17.1524 27.7863C17.1556 27.8593 17.1624 27.9321 17.173 28.0044C17.1816 28.0576 17.1941 28.1101 17.2104 28.1614C17.2212 28.2025 17.24 28.2411 17.2658 28.275C17.2892 28.3012 17.3166 28.3237 17.347 28.3414C17.3807 28.362 17.4179 28.3759 17.4567 28.3826C17.5036 28.3899 17.551 28.3941 17.5985 28.3951ZM16.1308 28.2904C16.2702 28.2904 16.3845 28.2589 16.4738 28.196L16.4791 27.596V26.2935C16.2898 26.2476 16.1488 26.2246 16.0561 26.2246C15.9526 26.2229 15.8519 26.2582 15.7721 26.3242C15.6894 26.3935 15.6262 26.4832 15.5888 26.5845C15.5482 26.6888 15.518 26.797 15.4987 26.9073C15.4798 27.0152 15.4703 27.1245 15.4703 27.234C15.4703 27.5659 15.5313 27.8249 15.6534 28.0112C15.7755 28.1975 15.9346 28.2903 16.1308 28.2898V28.2904Z" fill="#11237D"/>
<path d="M19.9149 27.141L19.8682 27.1605C19.7805 27.1947 19.6619 27.2118 19.5122 27.2118L18.3412 27.1963C18.3445 27.2354 18.3464 27.3002 18.3464 27.3904C18.3531 27.6439 18.43 27.8428 18.5772 27.9871C18.7244 28.1314 18.8882 28.2037 19.0686 28.2041C19.2311 28.2027 19.3915 28.1666 19.5389 28.0982C19.6981 28.0267 19.8378 27.9025 19.9581 27.7255C19.9873 27.8295 19.9873 27.9395 19.9581 28.0434C19.93 28.1427 19.8772 28.2332 19.8046 28.3064C19.7267 28.384 19.6376 28.4493 19.5402 28.5002C19.4344 28.5566 19.3216 28.5987 19.2048 28.6253C19.0856 28.653 18.9636 28.6668 18.8412 28.6665C18.6923 28.6678 18.5444 28.6431 18.404 28.5936C18.2686 28.545 18.144 28.4705 18.0369 28.3745C17.9272 28.2768 17.8399 28.1454 17.7752 27.9803C17.7104 27.8151 17.6773 27.6253 17.6758 27.4109C17.6758 27.1303 17.7243 26.8759 17.8215 26.6478C17.9186 26.4196 18.059 26.239 18.2427 26.1058C18.4246 25.9727 18.6448 25.9023 18.8702 25.9054C18.9962 25.9037 19.1217 25.9205 19.2429 25.9552C19.3401 25.9819 19.4324 26.0241 19.5163 26.0801C19.5881 26.1309 19.6507 26.1935 19.7015 26.2653C19.7487 26.3291 19.7885 26.3981 19.82 26.471C19.8481 26.5405 19.8688 26.6128 19.8817 26.6867C19.894 26.7491 19.9031 26.8122 19.9089 26.8755C19.9124 26.9225 19.914 26.9704 19.914 27.0196L19.9149 27.141ZM18.8367 26.2245C18.7696 26.2235 18.7038 26.2431 18.6482 26.2807C18.5889 26.3232 18.5411 26.3797 18.5091 26.4453C18.4711 26.5178 18.4395 26.5936 18.4149 26.6716C18.3868 26.7634 18.364 26.8567 18.3466 26.9511C18.4481 26.9494 18.6011 26.9443 18.8056 26.9358C19.0101 26.9273 19.1684 26.9222 19.2803 26.9204C19.2787 26.8384 19.2692 26.7567 19.2519 26.6766C19.2353 26.5993 19.2093 26.5243 19.1745 26.4533C19.1428 26.3868 19.0949 26.3293 19.0352 26.286C18.9773 26.245 18.9077 26.2234 18.8367 26.2245Z" fill="#11237D"/>
<path d="M21.264 28.5987H20.5232C20.5335 28.0637 20.5387 27.5685 20.5387 27.1131L20.5516 25.4717C20.5516 25.2997 20.5237 25.1625 20.4679 25.0602C20.412 24.9579 20.3498 24.8967 20.2812 24.8767V24.7822L20.3535 24.744C20.4201 24.7102 20.4901 24.6837 20.5623 24.6647C20.6461 24.6401 20.733 24.6272 20.8203 24.6265C20.985 24.6265 21.0985 24.6691 21.1609 24.7542C21.2233 24.8394 21.2542 24.9704 21.2537 25.1472C21.2537 25.2545 21.2485 25.3771 21.2382 25.5149C21.2163 25.8878 21.2053 26.3456 21.2053 26.8884V27.5546C21.2053 27.7452 21.2096 27.9298 21.2183 28.1086C21.2252 28.2726 21.2405 28.4362 21.264 28.5987Z" fill="#11237D"/>
<path d="M22.6783 27.4601C22.6783 27.9468 22.6972 28.3263 22.7351 28.5986H21.9943L22.0229 26.8169C22.0241 26.7196 22.0145 26.6224 21.9943 26.5272C21.9823 26.4618 21.9606 26.3985 21.9299 26.3395C21.9086 26.302 21.8816 26.268 21.8499 26.2387C21.8306 26.219 21.8079 26.203 21.7828 26.1914C21.7729 26.1875 21.7625 26.185 21.752 26.1838V26.0893C21.9533 25.9667 22.1434 25.9054 22.3223 25.9054C22.5769 25.9054 22.7041 26.0713 22.704 26.4031C22.704 26.4541 22.6998 26.5405 22.6913 26.6622C22.6826 26.784 22.6783 26.8786 22.6783 26.9467V27.4601ZM21.9328 25.2366C21.9319 25.1883 21.941 25.1403 21.9597 25.0957C21.9783 25.0511 22.006 25.0109 22.041 24.9776C22.0751 24.9433 22.1157 24.9163 22.1605 24.8981C22.2053 24.8799 22.2532 24.8709 22.3015 24.8716C22.3481 24.8712 22.3943 24.8803 22.4371 24.8986C22.48 24.9168 22.5186 24.9437 22.5505 24.9776C22.5846 25.0114 22.6114 25.0519 22.6294 25.0964C22.6473 25.1409 22.6561 25.1886 22.655 25.2366C22.6557 25.2828 22.6467 25.3286 22.6287 25.3711C22.6107 25.4136 22.5841 25.4519 22.5505 25.4836C22.5181 25.5166 22.4793 25.5427 22.4365 25.5604C22.3937 25.5781 22.3478 25.5869 22.3015 25.5864C22.2045 25.588 22.1108 25.551 22.041 25.4836C22.0065 25.4524 21.979 25.4143 21.9604 25.3717C21.9417 25.3292 21.9323 25.2831 21.9328 25.2366Z" fill="#11237D"/>
<path d="M24.2831 25.5249L24.2237 25.9589H24.7175C24.7734 25.9584 24.8292 25.9519 24.8838 25.9397C24.9433 25.927 24.9807 25.9053 24.9961 25.8747C25.007 25.9155 25.0122 25.9576 25.0115 25.9998C25.0115 26.209 24.8602 26.3137 24.5576 26.3138C24.5302 26.3138 24.473 26.3112 24.386 26.306C24.2991 26.3008 24.2401 26.2982 24.2093 26.2984V27.4751C24.2076 27.5245 24.2076 27.5765 24.2093 27.6309C24.2109 27.6852 24.2132 27.7393 24.2157 27.793C24.218 27.8449 24.2267 27.8963 24.2416 27.9461C24.2546 27.9908 24.2732 28.0338 24.2969 28.0739C24.3205 28.1115 24.354 28.1419 24.3936 28.1619C24.4397 28.1849 24.4906 28.1962 24.542 28.1951C24.6549 28.1941 24.7671 28.1764 24.8749 28.1426C24.9899 28.1078 25.0624 28.0615 25.0916 28.0035C25.1138 28.0551 25.1228 28.1113 25.1178 28.1673C25.1129 28.2232 25.0941 28.277 25.0632 28.3239C24.9997 28.4285 24.9004 28.5119 24.7652 28.5741C24.6289 28.6365 24.4805 28.6683 24.3305 28.6673C24.169 28.6673 24.0353 28.6486 23.9294 28.6111C23.8327 28.5803 23.7483 28.5195 23.6883 28.4376C23.6327 28.3583 23.5941 28.2684 23.5747 28.1735C23.5522 28.0535 23.5418 27.9317 23.5438 27.8097C23.5438 27.6803 23.5524 27.4883 23.5696 27.2335C23.5867 26.9788 23.5953 26.7925 23.5953 26.6745C23.5953 26.4737 23.5799 26.3537 23.549 26.3146C23.4806 26.2274 23.3887 26.1615 23.2842 26.1247L23.3099 25.9691C23.3308 25.9682 23.3515 25.9648 23.3716 25.9589C23.4128 25.9462 23.4529 25.9305 23.4916 25.9117C23.5592 25.877 23.6204 25.8307 23.6722 25.7751C23.7453 25.7 23.8085 25.616 23.8603 25.5249H24.2831Z" fill="#11237D"/>
<path d="M26.7428 28.5933L26.6811 28.5678C26.6292 28.5454 26.5823 28.5129 26.5432 28.4721C26.4943 28.4265 26.4582 28.3688 26.4387 28.3049L25.9767 26.8518C25.9472 26.7529 25.9097 26.6565 25.8646 26.5637C25.8318 26.4944 25.7929 26.4281 25.7483 26.3658C25.7172 26.3235 25.6823 26.2842 25.644 26.2483C25.62 26.2255 25.5941 26.2048 25.5665 26.1865C25.5545 26.1788 25.5416 26.1728 25.528 26.1686L25.5226 26.0742C25.5941 26.0251 25.6717 25.9856 25.7535 25.9569C25.8353 25.9246 25.9223 25.9071 26.0103 25.9053C26.1583 25.9053 26.2666 25.9401 26.3352 26.0098C26.4038 26.0795 26.4586 26.1909 26.4998 26.3442C26.5341 26.5417 26.6717 26.9738 26.9125 27.6405L26.9757 27.7693C27.0144 27.8484 27.0354 27.8931 27.0389 27.9034L27.0646 27.7962C27.0783 27.7346 27.0965 27.674 27.1189 27.6149L27.4516 26.673C27.4998 26.5387 27.5239 26.4289 27.5239 26.3437C27.5239 26.2586 27.4946 26.1999 27.4362 26.1676L27.4257 26.0732C27.5448 25.9709 27.695 25.9117 27.8518 25.9053C27.9753 25.9053 28.037 25.97 28.037 26.0993C28.037 26.1894 27.9931 26.3426 27.9053 26.5588L26.8537 29.1217C26.8158 29.2136 26.784 29.2881 26.7582 29.3452C26.7324 29.4022 26.6992 29.4696 26.6584 29.5472C26.6246 29.6139 26.5826 29.6761 26.5335 29.7324C26.4876 29.782 26.438 29.8281 26.3852 29.8703C26.3289 29.916 26.2639 29.9499 26.1942 29.9699C26.1184 29.9908 26.04 30.0009 25.9613 29.9999C25.803 29.9999 25.6787 29.9404 25.5885 29.8213C25.4982 29.7022 25.4708 29.5542 25.5062 29.3771C25.5406 29.4196 25.5961 29.4545 25.6726 29.4818C25.7466 29.5087 25.8247 29.5226 25.9035 29.523C26.0341 29.523 26.1454 29.4987 26.2374 29.4503C26.3251 29.4064 26.3942 29.3325 26.4323 29.2421L26.6792 28.7036L26.7428 28.5933Z" fill="#11237D"/>
<path d="M25.1062 10.0364C24.9747 10.0121 24.8412 9.99994 24.7075 10H12.2408C12.2112 10.0001 12.1827 10.0119 12.1618 10.0328C12.1408 10.0538 12.129 10.0823 12.1289 10.1119V20.566C12.1287 21.0623 12.2966 21.544 12.6052 21.9327C16.204 20.5397 22.5297 15.6743 25.383 10.1056C25.2924 10.0764 25.1999 10.0533 25.1062 10.0364Z" fill="#11237D"/>
<path d="M26.9086 12.2016V22.6552C26.9085 22.6849 26.8967 22.7133 26.8757 22.7343C26.8547 22.7553 26.8263 22.7671 26.7966 22.7672H14.33C13.999 22.7674 13.6722 22.693 13.374 22.5495C17.0394 21.0822 23.3853 16.1476 26.1557 10.5439C26.3925 10.7502 26.5823 11.005 26.7122 11.291C26.8421 11.5769 26.909 11.8875 26.9086 12.2016Z" fill="#4DC247"/>
</svg>
