<svg width="40" height="40" viewBox="0 0 40 40" fill="none" xmlns="http://www.w3.org/2000/svg">
<rect width="40" height="40" rx="8" fill="#162D4C" fill-opacity="0.1"/>
<rect x="8" y="8" width="24" height="24" rx="4" fill="#162D4C"/>
<path d="M18.3955 12.0123V12H25.6977V12.0128L18.3955 12.0123Z" fill="#E4B935"/>
<path d="M18.3957 12.0122H25.6979C25.6427 12.2777 25.5884 12.5434 25.532 12.8087C25.3159 13.8236 25.099 14.8382 24.8816 15.8525C24.7937 16.2648 24.7059 16.6773 24.6171 17.0891C24.6058 17.1393 24.6108 17.1571 24.6673 17.1578C24.868 17.1609 25.0688 17.1578 25.2695 17.1501C25.3677 17.1442 25.4662 17.1506 25.5629 17.1691C25.7385 17.2063 25.7874 17.333 25.6823 17.4803C25.6235 17.5569 25.5471 17.6182 25.4595 17.659C25.2615 17.7611 25.0472 17.8048 24.8291 17.8331C24.7217 17.8496 24.6131 17.858 24.5044 17.8582C24.4623 17.8582 24.4515 17.8778 24.4444 17.9117C24.3775 18.2295 24.31 18.548 24.2419 18.8672L23.6224 21.7886C23.6098 21.8478 23.5973 21.9068 23.5855 21.9665C23.5795 22.0001 23.5674 22.0204 23.529 22.0134C23.5186 22.0124 23.5081 22.0124 23.4977 22.0134H16.3529C16.2665 22.0134 16.2668 22.0134 16.2854 21.9251C16.643 20.2408 17.0005 18.5566 17.3578 16.8723C17.4376 16.4966 17.5177 16.121 17.598 15.7456C17.605 15.7239 17.6035 15.7003 17.594 15.6796C17.4873 15.4686 17.4534 15.2395 17.4311 15.0081C17.3742 14.4199 17.5109 13.8581 17.6713 13.3005C17.7177 13.1399 17.8923 13.041 18.0828 13.0626C18.1528 13.0704 18.1729 13.0513 18.1859 12.9851C18.2494 12.6679 18.3189 12.352 18.3867 12.0355C18.389 12.0275 18.392 12.0197 18.3957 12.0122ZM20.8799 17.2065C20.8986 17.2045 20.9175 17.2045 20.9361 17.2065C21.1655 17.2587 21.2829 17.1232 21.3758 16.9463C21.3863 16.926 21.3971 16.9054 21.4061 16.8846C21.4706 16.7378 21.4704 16.7375 21.3517 16.6336C21.3439 16.6263 21.3355 16.6196 21.3266 16.6136C21.2747 16.582 21.2749 16.5481 21.3068 16.4964C21.4055 16.3358 21.5498 16.2082 21.7212 16.1299C21.8927 16.0515 22.0836 16.026 22.2696 16.0565C22.3332 16.0651 22.3933 16.0912 22.443 16.1318C22.6061 16.2625 22.7747 16.3857 22.9469 16.5047C23.1052 16.6171 23.2705 16.7194 23.4417 16.8111C23.5052 16.8442 23.5087 16.8427 23.5029 16.7744C23.4919 16.6454 23.4791 16.5165 23.4646 16.3877C23.4322 16.0982 23.3446 15.8314 23.1594 15.5988C23.0267 15.4322 22.9005 15.2603 22.765 15.0957C22.7518 15.0815 22.742 15.0645 22.7364 15.046C22.7308 15.0275 22.7295 15.0079 22.7326 14.9888C22.7627 14.7514 22.7632 14.7499 22.6151 14.5622C22.2889 14.1487 21.9015 13.7943 21.5055 13.4496C21.4822 13.4319 21.455 13.42 21.4262 13.4149C21.1525 13.3476 20.8724 13.3091 20.5906 13.3002C20.427 13.2927 20.2754 13.3108 20.1412 13.4112C20.0315 13.4932 19.9154 13.5068 19.7776 13.4839C19.3329 13.4099 18.886 13.3492 18.4396 13.2859C18.3096 13.2676 18.1809 13.2358 18.0482 13.2423C17.934 13.2476 17.8705 13.2872 17.8416 13.3813C17.6994 13.846 17.5907 14.3175 17.6065 14.8081C17.6148 15.2608 17.7646 15.6996 18.0351 16.0628C18.3362 16.4688 18.7437 16.7293 19.2097 16.9057C19.747 17.1084 20.3086 17.1809 20.8787 17.2055L20.8799 17.2065ZM20.8298 20.2862C20.8034 20.3036 20.7861 20.3151 20.7685 20.3261C20.551 20.4626 20.3337 20.5997 20.1148 20.7342C20.0707 20.7613 20.0687 20.7753 20.1098 20.8094C20.4611 21.0993 20.8109 21.3913 21.1615 21.6824C21.1703 21.69 21.1783 21.7028 21.1969 21.694C21.2006 21.6292 21.2082 21.5627 21.2072 21.4962C21.207 21.4212 21.2229 21.3469 21.2536 21.2784C21.3512 21.0456 21.4445 20.8109 21.5404 20.5773C21.5527 20.5487 21.5582 20.5176 21.5567 20.4865C21.5482 20.2797 21.5401 20.0729 21.5339 19.8662C21.5328 19.8288 21.5214 19.7924 21.501 19.761C21.2792 19.4022 21.0589 19.0426 20.8363 18.684C20.8264 18.6698 20.82 18.6534 20.8176 18.6363C20.8151 18.6191 20.8167 18.6016 20.8222 18.5852C20.8594 18.4569 20.893 18.3277 20.9299 18.1992C20.9438 18.149 20.9481 18.0965 20.9424 18.0446C20.9294 17.9031 20.9173 17.7616 20.9075 17.6198C20.9048 17.5726 20.8915 17.5571 20.8415 17.5568C20.5092 17.5571 20.1777 17.5242 19.8519 17.4587C19.0035 17.2831 18.3197 16.8585 17.8319 16.134C17.8221 16.1197 17.8173 16.0992 17.7912 16.0934C17.7884 16.1052 17.7854 16.1167 17.7829 16.1283C17.5665 17.1551 17.3501 18.1821 17.1338 19.2092C17.1067 19.3375 17.1067 19.339 17.2356 19.3525C17.3189 19.3613 17.3982 19.3879 17.4866 19.3558C17.9144 19.202 18.345 19.0559 18.7741 18.9041C18.7954 18.8943 18.819 18.8907 18.8422 18.8936C18.8655 18.8965 18.8874 18.9059 18.9056 18.9207C19.4752 19.3272 20.046 19.7322 20.618 20.1357L20.8298 20.2862ZM18.8238 19.1427C18.8238 19.4499 18.8238 19.7528 18.8238 20.0559C18.8243 20.1076 18.8142 20.1589 18.7939 20.2064C18.6283 20.6007 18.4647 20.9959 18.2986 21.3901C18.2892 21.4084 18.2846 21.4287 18.2854 21.4493C18.2862 21.4698 18.2923 21.4898 18.3031 21.5073C18.3382 21.569 18.3694 21.6327 18.3982 21.6977C18.4035 21.7142 18.4143 21.7283 18.4288 21.7377C18.4433 21.7471 18.4606 21.7513 18.4778 21.7494C18.8772 21.7472 19.2765 21.7494 19.6757 21.7477C19.693 21.7477 19.7128 21.7557 19.7314 21.7354C19.6948 21.6601 19.6594 21.5821 19.6198 21.5068C19.5994 21.4706 19.5933 21.4281 19.6027 21.3876C19.7006 20.9093 19.7959 20.4303 19.8953 19.9522C19.9053 19.9048 19.8953 19.8812 19.8576 19.8549C19.5301 19.6269 19.2031 19.398 18.8767 19.1683C18.8623 19.153 18.8428 19.1435 18.8218 19.1417L18.8238 19.1427ZM24.3481 17.6989C24.394 17.6989 24.4399 17.7004 24.4858 17.6989C24.7601 17.6878 25.0309 17.6539 25.2918 17.5636C25.3721 17.5396 25.4462 17.4983 25.5087 17.4424C25.5383 17.4141 25.5651 17.3807 25.5478 17.3378C25.5325 17.2996 25.4911 17.2969 25.4565 17.2966C25.3729 17.2966 25.2888 17.2944 25.2055 17.3019C24.8531 17.3355 24.4975 17.3092 24.1539 17.2238C23.5426 17.072 22.9978 16.7837 22.4939 16.4133C22.4286 16.3623 22.3505 16.3301 22.2681 16.3202C22.033 16.2951 21.8287 16.3496 21.6767 16.5443C21.6485 16.5802 21.6478 16.603 21.6847 16.6357C21.8786 16.8076 22.0877 16.9617 22.3093 17.0961C22.9341 17.477 23.6078 17.6984 24.3461 17.6979L24.3481 17.6989ZM22.4776 17.4274C22.4842 17.471 22.4902 17.5026 22.4934 17.5365C22.5037 17.6444 22.5391 17.7493 22.5283 17.8592C22.4952 18.1962 22.4234 18.5274 22.3793 18.8629C22.3451 19.1242 22.3103 19.3856 22.3243 19.6496C22.3356 19.8629 22.4049 20.0551 22.5858 20.1819C22.7564 20.3013 22.9439 20.3377 23.1408 20.2361C23.1562 20.2296 23.169 20.2184 23.1776 20.2042C23.1862 20.1899 23.19 20.1733 23.1885 20.1568C23.1877 20.0858 23.1808 20.015 23.1677 19.9452C23.1589 19.9011 23.1446 19.8895 23.0969 19.898C22.9198 19.9299 22.7981 19.8024 22.8327 19.6265C22.8631 19.472 22.9245 19.3279 22.9833 19.1831C23.126 18.8356 23.2957 18.4998 23.444 18.1543C23.4818 18.057 23.5051 17.9546 23.513 17.8504C23.517 17.8163 23.513 17.7987 23.4703 17.7932C23.4001 17.783 23.3306 17.7685 23.262 17.7501C22.9873 17.678 22.7235 17.5694 22.4776 17.4274Z" fill="#DFAC0F"/>
<path d="M20.9939 24.9135C21.0674 24.9253 21.1395 24.9448 21.2089 24.9717C21.4368 25.0668 21.5582 25.2432 21.5693 25.4839C21.5898 25.9283 21.3758 26.2547 21.0225 26.4994C20.7954 26.6558 20.5258 26.7388 20.2501 26.7373C19.8845 26.7401 19.5186 26.7373 19.1528 26.7373C19.0549 26.7373 19.0328 26.7097 19.0524 26.6148C19.2737 25.5423 19.4951 24.4699 19.7166 23.3974C19.7392 23.2872 19.7668 23.2656 19.8772 23.2656C20.1134 23.2656 20.3495 23.2656 20.5859 23.2656C20.8044 23.2656 21.02 23.2907 21.2222 23.3798C21.4415 23.4764 21.6062 23.628 21.6297 23.8779C21.6634 24.2345 21.5432 24.5343 21.2559 24.7592C21.174 24.8195 21.0863 24.8712 20.9939 24.9135ZM20.026 26.332V26.3283C20.1033 26.3283 20.1806 26.3315 20.2576 26.3283C20.6288 26.3105 20.8722 26.0964 20.9392 25.7315C20.9934 25.4349 20.8493 25.2297 20.5535 25.185C20.3688 25.1577 20.1824 25.1785 19.9969 25.172C19.9663 25.172 19.9645 25.189 19.9603 25.2101C19.9397 25.3122 19.9184 25.4144 19.897 25.5162C19.8449 25.7672 19.7937 26.0181 19.7397 26.269C19.7287 26.3192 19.7382 26.3381 19.7944 26.3343C19.8712 26.3283 19.9487 26.332 20.026 26.332ZM20.2343 24.766C20.3135 24.7707 20.393 24.7662 20.4712 24.7524C20.7595 24.6864 20.9796 24.4297 21.0082 24.1251C21.031 23.8829 20.9244 23.7389 20.6872 23.6902C20.5821 23.6686 20.4754 23.6746 20.3696 23.6679C20.2968 23.6631 20.2722 23.6852 20.2584 23.7577C20.1979 24.0769 20.1309 24.3948 20.0627 24.7128C20.0519 24.7629 20.0669 24.7687 20.1091 24.766C20.1512 24.7632 20.1924 24.766 20.2343 24.766Z" fill="white"/>
<path d="M23.9151 24.5413C23.9479 24.4598 23.9783 24.3908 24.0034 24.3213C24.0104 24.2938 24.0272 24.2698 24.0505 24.2536C24.0738 24.2374 24.1021 24.2302 24.1304 24.2332C24.237 24.2355 24.3436 24.2332 24.4503 24.2332C24.5293 24.2332 24.5524 24.2626 24.5374 24.3381C24.4203 24.9167 24.3032 25.4955 24.1861 26.0743C24.1742 26.121 24.1701 26.1693 24.174 26.2173C24.1848 26.2976 24.2117 26.326 24.292 26.3365C24.3421 26.343 24.3632 26.3706 24.3547 26.4178C24.3404 26.4979 24.3238 26.5777 24.3045 26.6567C24.3004 26.6808 24.2875 26.7026 24.2685 26.718C24.2494 26.7333 24.2253 26.7412 24.2009 26.74C24.1004 26.7447 23.9999 26.7349 23.9023 26.7109C23.7479 26.6703 23.6636 26.5706 23.644 26.4098C23.6418 26.3915 23.641 26.3729 23.6393 26.3513C23.6122 26.3578 23.6026 26.3804 23.5891 26.396C23.2779 26.7358 22.8925 26.8562 22.4433 26.7782C22.1407 26.7255 21.9525 26.5365 21.8848 26.2346C21.8268 25.9774 21.8579 25.7235 21.9098 25.4703C21.9711 25.1692 22.0742 24.8854 22.2612 24.6349C22.5841 24.1986 23.104 24.106 23.4995 24.2051C23.6824 24.2525 23.8174 24.3634 23.9151 24.5413ZM22.4345 25.9328C22.4346 25.9894 22.4395 26.0459 22.4491 26.1016C22.4765 26.2683 22.5683 26.3606 22.7349 26.3885C23.0611 26.4432 23.3733 26.3014 23.5356 26.0088C23.6966 25.7141 23.7752 25.3815 23.763 25.046C23.7572 24.8086 23.6445 24.6613 23.4448 24.6028C23.3276 24.5707 23.2045 24.5659 23.0852 24.589C22.8739 24.6247 22.7507 24.7662 22.6644 24.9463C22.5148 25.258 22.4616 25.5925 22.4345 25.9328Z" fill="white"/>
<path d="M28.7536 23.2871C28.6841 23.625 28.6145 23.9623 28.5448 24.2989C28.4755 24.6359 28.4065 24.9729 28.3368 25.3121C28.3694 25.3101 28.3799 25.2871 28.3952 25.272C28.7086 24.9616 29.0226 24.6517 29.3337 24.339C29.3654 24.3045 29.4043 24.2773 29.4477 24.2595C29.4911 24.2416 29.5378 24.2336 29.5847 24.2359C29.6993 24.2402 29.8145 24.2359 29.9294 24.2381C29.9545 24.2381 29.9861 24.2314 29.9972 24.2565C30.0082 24.2816 29.9776 24.2991 29.9603 24.3152C29.5755 24.6774 29.1896 25.0389 28.8025 25.3997C28.7618 25.4376 28.7618 25.4612 28.7907 25.5059C29.0306 25.8775 29.2675 26.2511 29.5061 26.624C29.5174 26.6416 29.5287 26.6594 29.5385 26.6775C29.5591 26.7151 29.5478 26.7415 29.5051 26.7417C29.3232 26.7417 29.1413 26.7435 28.9596 26.7395C28.9051 26.7395 28.8738 26.695 28.8472 26.6496C28.6667 26.3395 28.4855 26.03 28.3036 25.7212C28.2926 25.7023 28.2873 25.6783 28.2595 25.6652C28.2078 25.9161 28.1568 26.1638 28.1054 26.412C28.0893 26.4898 28.074 26.5676 28.0565 26.6449C28.0389 26.7221 28.0095 26.743 27.9345 26.7435C27.8176 26.7435 27.7004 26.7435 27.5832 26.7435C27.4788 26.7435 27.4592 26.7204 27.4801 26.6203C27.5443 26.3099 27.6096 25.9995 27.6738 25.6888C27.8147 25.0111 27.9544 24.3344 28.0931 23.6587C28.0953 23.6415 28.1019 23.6252 28.1123 23.6113C28.1226 23.5974 28.1364 23.5864 28.1523 23.5794C28.3317 23.4906 28.5097 23.3988 28.6883 23.3087C28.7073 23.295 28.7301 23.2874 28.7536 23.2871Z" fill="white"/>
<path d="M25.663 24.6381C25.75 24.5216 25.8504 24.4158 25.9621 24.3227C26.2258 24.1069 26.7603 24.1405 27.0083 24.3671C27.209 24.5511 27.2635 24.7867 27.22 25.0421C27.1636 25.3731 27.0886 25.7008 27.0231 26.0303C27.0088 26.1018 26.9952 26.1744 27.015 26.2476C27.0288 26.2991 27.0509 26.3405 27.1154 26.34C27.1696 26.34 27.1907 26.3731 27.1816 26.423C27.1673 26.5028 27.1513 26.5829 27.1327 26.6619C27.1284 26.6851 27.1159 26.7059 27.0975 26.7206C27.079 26.7353 27.0559 26.7428 27.0323 26.7417C26.932 26.7472 26.8314 26.737 26.7342 26.7113C26.5084 26.6479 26.397 26.4855 26.408 26.2346C26.4153 26.0642 26.4652 25.9016 26.4951 25.7355C26.5357 25.5096 26.6037 25.2888 26.6163 25.0579C26.6192 25.0122 26.6192 24.9662 26.6163 24.9204C26.5987 24.667 26.4406 24.546 26.192 24.5882C26.1143 24.6008 26.0401 24.6296 25.9744 24.6729C25.9087 24.7161 25.8528 24.7728 25.8106 24.8391C25.6986 25.0032 25.6512 25.1904 25.6116 25.3817C25.5251 25.7982 25.4378 26.2147 25.3498 26.6313C25.3313 26.7191 25.3014 26.742 25.2116 26.7422C25.0904 26.7422 24.9689 26.7422 24.8477 26.7422C24.7707 26.7422 24.7473 26.7106 24.7619 26.6348C24.879 26.0625 24.9966 25.4902 25.1147 24.9179C25.1278 24.8547 25.1433 24.7925 25.1242 24.7262C25.1092 24.676 25.0821 24.6434 25.0239 24.6386C24.9539 24.6329 24.9388 24.6085 24.9529 24.5383C24.9669 24.468 24.981 24.399 24.9955 24.3297C24.9987 24.3034 25.0116 24.2791 25.0317 24.2617C25.0518 24.2443 25.0776 24.235 25.1042 24.2356C25.2066 24.2291 25.3095 24.2391 25.4088 24.2652C25.5742 24.3132 25.6432 24.3977 25.6597 24.5689C25.6597 24.5869 25.6597 24.605 25.663 24.6381Z" fill="white"/>
<path d="M11.0073 24.7594H11.3862C11.5744 24.7594 11.7626 24.7594 11.9508 24.7594C12.0414 24.7594 12.0632 24.786 12.0454 24.8748C12.0313 24.9443 12.0163 25.0136 12.0007 25.0828C11.9809 25.1702 11.9505 25.1943 11.8554 25.1943C11.5669 25.1943 11.2783 25.1943 10.99 25.1922C10.935 25.1922 10.9122 25.2028 10.9004 25.2623C10.8131 25.7044 10.7202 26.1453 10.6296 26.5869C10.6045 26.7124 10.5845 26.7295 10.454 26.7295C10.3348 26.7295 10.2156 26.7295 10.0967 26.7295C10.0103 26.7295 9.988 26.7016 10.0056 26.6168C10.111 26.1059 10.2166 25.5952 10.3225 25.0846C10.4379 24.5267 10.553 23.9689 10.6678 23.4111C10.6959 23.2746 10.7147 23.2581 10.8557 23.2583L12.4868 23.2613C12.6032 23.2613 12.6208 23.2826 12.597 23.3938C12.5829 23.4591 12.5696 23.5245 12.554 23.5895C12.5347 23.6706 12.5061 23.6932 12.4228 23.6932C12.0464 23.6932 11.67 23.6932 11.2936 23.6932C11.2434 23.6932 11.2223 23.7025 11.2118 23.7559C11.1466 24.0884 11.0768 24.4211 11.0073 24.7594Z" fill="white"/>
<path d="M15.943 26.7926C15.7444 26.7908 15.5474 26.7569 15.3596 26.6922C15.2934 26.6717 15.2332 26.6354 15.184 26.5866C15.1338 26.5342 15.1338 26.4862 15.1777 26.43C15.2063 26.3941 15.2382 26.361 15.2688 26.3264C15.3441 26.2403 15.3566 26.2373 15.4695 26.2762C15.6261 26.3289 15.7837 26.3766 15.9501 26.3849C16.0974 26.3926 16.2422 26.3869 16.3812 26.3301C16.4359 26.3087 16.4844 26.2739 16.5224 26.229C16.5603 26.1841 16.5865 26.1305 16.5985 26.0729C16.6218 25.9824 16.5955 25.9199 16.5159 25.8697C16.4313 25.82 16.3407 25.781 16.2464 25.7538C16.1395 25.7191 16.0329 25.6817 15.9242 25.6534C15.5353 25.5497 15.4417 25.2564 15.5177 24.9224C15.6083 24.5247 15.923 24.2449 16.3413 24.1852C16.6391 24.1433 16.9332 24.1601 17.2138 24.2838C17.2701 24.3061 17.3222 24.338 17.3676 24.3781C17.4143 24.4228 17.4178 24.4599 17.3776 24.5094C17.3274 24.5691 17.2752 24.6253 17.2253 24.685C17.2002 24.7144 17.1729 24.7124 17.1407 24.7031C17.0185 24.6682 16.9019 24.6148 16.7761 24.5919C16.6329 24.5668 16.4893 24.5581 16.3478 24.5987C16.2868 24.6148 16.2309 24.6464 16.1856 24.6903C16.1403 24.7343 16.1071 24.7891 16.0891 24.8496C16.0439 24.9839 16.0934 25.0797 16.2284 25.1222C16.3955 25.1746 16.5634 25.2243 16.7302 25.2752C16.8146 25.2987 16.8957 25.3324 16.9719 25.3756C17.1129 25.4597 17.1827 25.5859 17.1909 25.7472C17.2133 26.1803 16.9802 26.5239 16.5506 26.6925C16.3661 26.7648 16.1739 26.7934 15.943 26.7926Z" fill="white"/>
<path d="M18.0404 24.6092C17.9639 24.6092 17.8866 24.6092 17.8096 24.6092C17.7202 24.6092 17.7004 24.5859 17.7175 24.5003C17.7298 24.4388 17.7426 24.3776 17.7574 24.3169C17.7616 24.2917 17.7749 24.269 17.7948 24.2531C17.8147 24.2373 17.8398 24.2293 17.8653 24.2308C17.9343 24.2308 18.0035 24.2268 18.0723 24.2308C18.1185 24.2341 18.1325 24.2165 18.1398 24.1739C18.1589 24.0609 18.1835 23.948 18.205 23.8359C18.2091 23.8153 18.2108 23.7965 18.2337 23.7857C18.4402 23.6818 18.6464 23.5769 18.8587 23.4692C18.8642 23.5367 18.8424 23.5932 18.8316 23.6504C18.7988 23.8261 18.7629 23.9985 18.7257 24.1721C18.7159 24.2175 18.7227 24.2348 18.7747 24.2321C18.86 24.2278 18.9461 24.2301 19.0316 24.2321C19.1009 24.2333 19.1225 24.2584 19.1102 24.3269C19.0979 24.3954 19.0831 24.4577 19.0673 24.5224C19.0514 24.5871 19.0113 24.612 18.9483 24.6115C18.8585 24.6115 18.7684 24.6115 18.6786 24.6115C18.6464 24.6115 18.6301 24.6188 18.6231 24.6529C18.5299 25.1196 18.4359 25.586 18.3411 26.0521C18.3295 26.1056 18.3322 26.1611 18.3488 26.2132C18.3615 26.2489 18.3852 26.2797 18.4165 26.3012C18.4478 26.3226 18.4851 26.3335 18.523 26.3324C18.6888 26.3367 18.6903 26.3382 18.6587 26.5015C18.6489 26.5517 18.6379 26.6036 18.6261 26.6543C18.6227 26.6775 18.6109 26.6987 18.593 26.7138C18.5752 26.729 18.5524 26.7372 18.529 26.7369C18.3955 26.7402 18.2608 26.7489 18.1275 26.7254C17.8665 26.6787 17.7373 26.5246 17.7328 26.2566C17.7298 26.081 17.7777 25.9136 17.8121 25.744C17.8874 25.3718 17.9649 24.9999 18.0412 24.6278C18.0418 24.6216 18.0415 24.6154 18.0404 24.6092Z" fill="white"/>
<path d="M14.5765 24.5107C14.6008 24.4795 14.6267 24.4496 14.6541 24.4211C14.8415 24.2434 15.0706 24.184 15.322 24.1887C15.3722 24.1887 15.3941 24.2048 15.3805 24.2613C15.3534 24.3727 15.3326 24.4856 15.3085 24.5978C15.2872 24.6981 15.2543 24.7147 15.1542 24.7024C14.8975 24.671 14.6167 24.7594 14.5331 25.129C14.4217 25.6233 14.315 26.1189 14.2069 26.614C14.1818 26.7322 14.1597 26.7503 14.0373 26.75C13.9266 26.75 13.8157 26.75 13.705 26.75C13.6184 26.75 13.5971 26.7222 13.6154 26.6368C13.7387 26.0637 13.8622 25.4907 13.9858 24.918C13.9991 24.8674 14.0057 24.8154 14.0054 24.7631C14.0014 24.6798 13.9713 24.6452 13.8877 24.6316C13.8375 24.6236 13.8139 24.5955 13.8237 24.5443C13.838 24.469 13.8523 24.3938 13.8694 24.3185C13.8729 24.2931 13.8856 24.27 13.9051 24.2534C13.9246 24.2368 13.9495 24.228 13.975 24.2286C14.1045 24.2266 14.2342 24.2286 14.36 24.267C14.4769 24.3027 14.5487 24.3779 14.5587 24.5049L14.5765 24.5107Z" fill="white"/>
<path d="M12.381 26.3118C12.3863 26.1329 12.438 25.962 12.4751 25.7888C12.5773 25.312 12.6822 24.8353 12.7863 24.3585C12.8054 24.2709 12.8365 24.2471 12.9243 24.2466C13.0414 24.2466 13.1585 24.2466 13.2756 24.2466C13.3637 24.2466 13.385 24.2717 13.3667 24.3567C13.2434 24.9279 13.1197 25.4988 12.9956 26.0696C12.9786 26.1388 12.9724 26.2101 12.9772 26.2812C12.9848 26.3612 13.0131 26.3916 13.0904 26.4031C13.1366 26.4101 13.1579 26.4375 13.1501 26.4814C13.1356 26.5637 13.119 26.6455 13.1 26.7266C13.0952 26.7482 13.0831 26.7676 13.0656 26.7813C13.0482 26.795 13.0265 26.8023 13.0043 26.8018C12.8789 26.8059 12.7534 26.7958 12.6355 26.7459C12.4606 26.6731 12.3765 26.5261 12.381 26.3118Z" fill="white"/>
<path d="M21.1471 28.2719C21.3589 28.392 21.3775 28.6332 21.1973 28.8071C21.0658 28.9351 20.7787 28.9762 20.6156 28.8909C20.5776 28.8726 20.5456 28.8438 20.5234 28.8079C20.5011 28.7721 20.4896 28.7306 20.4902 28.6884C20.4852 28.616 20.5007 28.5436 20.5349 28.4796C20.5692 28.4156 20.6207 28.3625 20.6836 28.3263C20.715 28.3067 20.7494 28.2919 20.782 28.2761C20.782 28.2713 20.782 28.2656 20.78 28.2646C20.6016 28.1722 20.6412 28.0028 20.7346 27.8701C20.7818 27.8079 20.8494 27.7642 20.9255 27.7469C21.0107 27.7244 21.0998 27.721 21.1865 27.7369C21.2698 27.7507 21.3461 27.7853 21.3719 27.8746C21.3877 27.9222 21.391 27.9731 21.3816 28.0223C21.3721 28.0715 21.3502 28.1175 21.318 28.1559C21.2736 28.2081 21.2148 28.2395 21.1471 28.2719ZM20.704 28.6257C20.7021 28.6614 20.7136 28.6966 20.7361 28.7244C20.7587 28.7522 20.7908 28.7707 20.8262 28.7762C20.992 28.8119 21.1524 28.6422 21.111 28.4751C21.1043 28.4421 21.0864 28.4124 21.0604 28.391C21.0343 28.3696 21.0016 28.358 20.9679 28.3579C20.8267 28.3519 20.7034 28.4764 20.704 28.6257ZM21.051 27.8809C21.027 27.8807 21.0032 27.8853 20.981 27.8943C20.9588 27.9034 20.9386 27.9167 20.9215 27.9335C20.9045 27.9504 20.8909 27.9704 20.8816 27.9925C20.8723 28.0146 20.8674 28.0383 20.8673 28.0623C20.8663 28.079 20.8686 28.0957 20.8741 28.1114C20.8797 28.1272 20.8883 28.1417 20.8995 28.1541C20.9107 28.1665 20.9242 28.1765 20.9393 28.1836C20.9544 28.1907 20.9708 28.1946 20.9875 28.1953C21.0791 28.1968 21.1757 28.0949 21.1777 27.9968C21.179 27.9281 21.1278 27.8814 21.051 27.8809Z" fill="white"/>
<path d="M22.3084 27.9629C22.3032 27.9071 22.2798 27.8545 22.2417 27.8132C22.2037 27.772 22.1531 27.7445 22.0978 27.7348C22.0192 27.7208 21.9384 27.7271 21.8629 27.7532C21.6466 27.8312 21.5681 28.0074 21.5478 28.2154C21.5264 28.4392 21.6564 28.5546 21.8808 28.5285C21.9656 28.5185 22.024 28.4711 22.0843 28.4156C22.0784 28.4887 22.0552 28.5593 22.0168 28.6216C21.9518 28.7391 21.8547 28.7988 21.7172 28.7757C21.6716 28.7705 21.6266 28.7609 21.5829 28.7471C21.5076 28.7188 21.5059 28.7852 21.4845 28.8196C21.4579 28.8625 21.5044 28.8718 21.529 28.8839C21.7365 28.987 21.9643 28.9426 22.1061 28.7544C22.2838 28.5218 22.346 28.252 22.3084 27.9629ZM22.1287 28.0741C22.1195 28.1447 22.0968 28.2129 22.0617 28.2749C22.022 28.3398 21.9676 28.379 21.8875 28.3752C21.7872 28.3727 21.7433 28.3278 21.7455 28.2129C21.7501 28.1447 21.7679 28.0781 21.7977 28.0166C21.8164 27.9744 21.8476 27.9389 21.887 27.9148C21.9455 27.8809 22.01 27.8626 22.0705 27.9012C22.1309 27.9399 22.14 28.0064 22.1287 28.0741Z" fill="white"/>
<path d="M22.8739 28.6369H22.4297C22.3683 28.6369 22.3565 28.6175 22.3846 28.5616C22.3957 28.5417 22.4094 28.5233 22.4252 28.5069C22.6282 28.274 22.8345 28.0439 23.0335 27.8078C23.0919 27.7383 23.1589 27.7455 23.2315 27.7493C23.2724 27.7513 23.2566 27.7852 23.2518 27.8073C23.2163 27.9809 23.1805 28.1544 23.1444 28.3277C23.1382 28.3669 23.1298 28.4057 23.1193 28.4439C23.105 28.4881 23.1246 28.4906 23.1607 28.4926C23.1891 28.4941 23.2395 28.4675 23.2382 28.5302C23.2365 28.6155 23.2179 28.6426 23.1542 28.6359C23.0904 28.6291 23.0681 28.6544 23.0641 28.7111C23.0612 28.7318 23.0571 28.7522 23.0518 28.7724C23.0204 28.9259 23.0204 28.9247 22.8636 28.9161C22.8247 28.9139 22.8177 28.8983 22.8247 28.866C22.841 28.7924 22.8563 28.7189 22.8739 28.6369ZM22.9913 28.0637L22.6337 28.4903C22.7246 28.4903 22.7986 28.4903 22.8726 28.4903C22.8772 28.4909 22.8819 28.4906 22.8864 28.4893C22.8909 28.4881 22.8951 28.4859 22.8986 28.4829C22.9022 28.4799 22.9052 28.4762 22.9072 28.4721C22.9093 28.4679 22.9105 28.4634 22.9108 28.4587C22.9359 28.3332 22.9617 28.2073 22.9911 28.0635L22.9913 28.0637Z" fill="white"/>
<path d="M15.7167 28.9303C15.6209 28.9301 15.5261 28.9114 15.4374 28.875C15.4154 28.8655 15.3719 28.8597 15.3918 28.8249C15.4116 28.79 15.4151 28.7222 15.4859 28.739C15.5828 28.7648 15.6827 28.7771 15.783 28.7757C15.8357 28.7744 15.8873 28.7606 15.9335 28.7353C16.0502 28.67 16.0545 28.5456 15.9391 28.4776C15.8823 28.4474 15.8236 28.4209 15.7634 28.3983C15.5157 28.2916 15.4698 28.05 15.6663 27.8628C15.8244 27.7122 16.0148 27.6994 16.2163 27.7511C16.2344 27.7559 16.252 27.7624 16.2698 27.7684C16.3654 27.8013 16.3671 27.8083 16.315 27.8909C16.3122 27.8969 16.3084 27.9024 16.3035 27.9069C16.2987 27.9115 16.293 27.915 16.2868 27.9173C16.2806 27.9197 16.274 27.9208 16.2674 27.9205C16.2607 27.9203 16.2542 27.9187 16.2482 27.916C16.1503 27.8855 16.0473 27.8742 15.9451 27.8829C15.9104 27.885 15.8767 27.8954 15.8469 27.9131C15.817 27.9308 15.7917 27.9554 15.7732 27.9847C15.723 28.0663 15.7416 28.1403 15.8271 28.1822C15.8851 28.2106 15.9463 28.2324 16.0056 28.2575C16.261 28.3659 16.2971 28.651 16.0778 28.8221C15.9865 28.8924 15.8658 28.9295 15.7167 28.9303Z" fill="white"/>
<path d="M17.1968 28.1972C17.2553 28.1342 17.3042 28.0747 17.3858 28.0567C17.6069 28.008 17.7594 28.1555 17.7143 28.3769C17.6932 28.481 17.6708 28.5849 17.6508 28.6893C17.6437 28.7264 17.6395 28.7598 17.6894 28.7804C17.7286 28.7964 17.6947 28.8353 17.6934 28.8639C17.6939 28.8702 17.6931 28.8764 17.691 28.8823C17.689 28.8883 17.6857 28.8937 17.6814 28.8982C17.6772 28.9028 17.672 28.9065 17.6662 28.9089C17.6605 28.9114 17.6543 28.9127 17.648 28.9126C17.511 28.9282 17.4252 28.8401 17.4493 28.7036C17.4673 28.6009 17.4894 28.4991 17.5095 28.3967C17.5132 28.3802 17.5154 28.3634 17.5163 28.3465C17.518 28.287 17.5163 28.2268 17.4533 28.1959C17.3991 28.1691 17.314 28.1919 17.2653 28.2461C17.2167 28.3003 17.1943 28.3716 17.1793 28.4444C17.1502 28.5831 17.12 28.7216 17.0927 28.8609C17.0924 28.8686 17.0905 28.8762 17.0871 28.8831C17.0838 28.89 17.0789 28.8962 17.073 28.9011C17.0671 28.9061 17.0602 28.9097 17.0528 28.9118C17.0454 28.9139 17.0376 28.9145 17.03 28.9134C16.8832 28.9169 16.8834 28.9181 16.913 28.7743C16.9456 28.6149 16.978 28.4556 17.0101 28.2963C17.0179 28.2574 17.029 28.2163 16.9715 28.2017C16.9464 28.1952 16.9519 28.1713 16.9584 28.1548C16.97 28.1259 16.9557 28.084 16.9999 28.0715C17.0211 28.0648 17.0436 28.0628 17.0657 28.0657C17.0877 28.0686 17.1089 28.0763 17.1277 28.0883C17.1465 28.1003 17.1624 28.1163 17.1744 28.1351C17.1863 28.1539 17.194 28.1751 17.1968 28.1972Z" fill="white"/>
<path d="M19.0777 28.5602C19.0235 28.5602 18.9688 28.5629 18.9149 28.5602C18.8747 28.5577 18.8647 28.5747 18.8647 28.6104C18.8594 28.7424 18.9307 28.8124 19.0614 28.7963C19.1152 28.7896 19.1681 28.7774 19.2195 28.7602C19.2594 28.7469 19.2742 28.7602 19.29 28.7941C19.3058 28.8279 19.2988 28.854 19.2649 28.8711C19.1618 28.9235 19.0456 28.9446 18.9307 28.9318C18.7362 28.9127 18.6481 28.8001 18.6664 28.6044C18.6743 28.498 18.7023 28.3941 18.749 28.2982C18.8451 28.1068 19.025 28.0184 19.2313 28.0598C19.3512 28.0849 19.422 28.1635 19.428 28.2857C19.43 28.3232 19.4275 28.3609 19.4205 28.3978C19.3954 28.5188 19.3452 28.5597 19.222 28.5622C19.1741 28.5622 19.1259 28.5622 19.078 28.5622L19.0777 28.5602ZM18.8978 28.4229H19.1655C19.1758 28.4241 19.1862 28.4224 19.1955 28.418C19.2048 28.4136 19.2127 28.4066 19.2182 28.3978C19.2453 28.3514 19.2325 28.254 19.1931 28.2159C19.1537 28.1778 19.095 28.1748 19.0368 28.2079C18.9553 28.2538 18.9254 28.3359 18.8978 28.4229Z" fill="white"/>
<path d="M13.2981 23.2922C13.3648 23.2922 13.4316 23.2907 13.4988 23.2922C13.5595 23.2939 13.5834 23.3218 13.5718 23.38C13.5457 23.5108 13.5181 23.6411 13.489 23.771C13.4737 23.838 13.4388 23.8653 13.3686 23.8658C13.2431 23.8658 13.1176 23.8658 12.9922 23.8658C12.9139 23.8646 12.8918 23.8347 12.9086 23.7584C12.9337 23.6362 12.9608 23.514 12.9882 23.3923C13.0045 23.3195 13.0368 23.2937 13.1099 23.2919C13.1723 23.2919 13.2353 23.2919 13.2976 23.2919L13.2981 23.2922Z" fill="white"/>
<path d="M20.1541 27.9888C20.0864 28.0169 20.0257 28.0422 19.9644 28.0666C19.9494 28.0726 19.9275 28.0832 19.9183 28.0771C19.9002 28.0656 19.9145 28.0427 19.9155 28.0247C19.9193 27.9594 19.9526 27.9215 20.0159 27.8977C20.1308 27.8535 20.2417 27.8011 20.3554 27.7527C20.3719 27.7454 20.3903 27.7276 20.4056 27.7381C20.4209 27.7487 20.4078 27.773 20.4056 27.7901C20.3336 28.1439 20.2603 28.4974 20.189 28.8513C20.1795 28.8987 20.1584 28.9157 20.109 28.915C19.9662 28.913 19.9672 28.915 19.9966 28.7757C20.0487 28.5288 20.0994 28.2814 20.1506 28.0342C20.1524 28.0224 20.1521 28.0096 20.1541 27.9888Z" fill="white"/>
<path d="M17.8781 28.6299C17.8807 28.5147 17.9082 28.4013 17.9589 28.2977C18.0635 28.0794 18.3426 27.9813 18.5556 28.0887C18.5827 28.1025 18.6331 28.1095 18.6153 28.1594C18.595 28.2151 18.5456 28.239 18.4969 28.2159C18.3049 28.1256 18.1692 28.2392 18.1177 28.3993C18.0901 28.4783 18.0775 28.5617 18.0806 28.6452C18.0871 28.7491 18.1516 28.8043 18.2562 28.7958C18.3059 28.7893 18.3546 28.7768 18.4013 28.7587C18.4264 28.7504 18.449 28.7424 18.4618 28.7772C18.4723 28.8061 18.4926 28.8312 18.4582 28.8605C18.3526 28.9506 18.0801 28.9577 17.9714 28.8708C17.8921 28.8091 17.8761 28.7228 17.8781 28.6299Z" fill="white"/>
<path d="M16.3906 28.7239C16.4137 28.6087 16.4408 28.473 16.4692 28.3352C16.4837 28.2637 16.5008 28.1927 16.5133 28.1209C16.5135 28.1132 16.5154 28.1056 16.5187 28.0987C16.5221 28.0917 16.5268 28.0855 16.5327 28.0806C16.5387 28.0756 16.5455 28.0719 16.553 28.0698C16.5604 28.0677 16.5682 28.0671 16.5758 28.0682C16.7241 28.0637 16.7234 28.0625 16.6938 28.2055C16.6609 28.3648 16.6283 28.5239 16.5969 28.6835C16.5894 28.7222 16.5821 28.7588 16.636 28.7796C16.6742 28.7942 16.6418 28.8298 16.6406 28.8577C16.6393 28.8855 16.6318 28.9058 16.5999 28.9121C16.4872 28.9342 16.3906 28.8582 16.3906 28.7239Z" fill="white"/>
<path d="M16.6948 27.7101C16.7199 27.7101 16.7393 27.7101 16.7578 27.7101C16.7764 27.7101 16.7932 27.7181 16.7894 27.7392C16.7809 27.7861 16.7704 27.8325 16.7588 27.8787C16.7543 27.8962 16.7383 27.9023 16.7207 27.9055C16.5726 27.9321 16.5556 27.9113 16.5857 27.766C16.601 27.6872 16.6577 27.7168 16.6948 27.7101Z" fill="white"/>
<path d="M20.8785 17.2056C20.3084 17.1805 19.7468 17.1085 19.2091 16.9045C18.7431 16.7288 18.3356 16.4676 18.0344 16.0616C17.764 15.6984 17.6141 15.2597 17.6059 14.8069C17.591 14.3164 17.6987 13.8449 17.841 13.3801C17.8698 13.286 17.9333 13.2464 18.0475 13.2411C18.1802 13.2346 18.309 13.2662 18.439 13.2848C18.8854 13.348 19.3323 13.4087 19.7769 13.4828C19.9144 13.5056 20.0309 13.492 20.1405 13.41C20.2748 13.3096 20.4263 13.2915 20.59 13.2991C20.8719 13.3086 21.152 13.3477 21.4258 13.4158C21.4546 13.4208 21.4818 13.4327 21.5051 13.4504C21.9011 13.7952 22.2878 14.1495 22.6147 14.563C22.7628 14.7502 22.7623 14.7517 22.7322 14.9896C22.7291 15.0087 22.7304 15.0283 22.736 15.0468C22.7416 15.0653 22.7514 15.0823 22.7645 15.0965C22.9 15.2611 23.0263 15.433 23.159 15.5996C23.3442 15.8322 23.4318 16.099 23.4641 16.3886C23.4787 16.5172 23.4915 16.6461 23.5025 16.7753C23.5083 16.8435 23.5048 16.845 23.4413 16.8119C23.2701 16.7203 23.1048 16.6179 22.9465 16.5055C22.7743 16.3866 22.6057 16.2634 22.4426 16.1326C22.3928 16.092 22.3328 16.066 22.2692 16.0573C22.0832 16.0268 21.8923 16.0524 21.7208 16.1307C21.5494 16.209 21.4051 16.3366 21.3064 16.4972C21.2745 16.5489 21.2742 16.5828 21.3262 16.6144C21.3351 16.6204 21.3435 16.6271 21.3513 16.6345C21.47 16.7374 21.4702 16.7376 21.4057 16.8854C21.3967 16.9062 21.3859 16.9268 21.3754 16.9471C21.2825 17.1228 21.1651 17.2596 20.9357 17.2074C20.9168 17.2047 20.8976 17.2041 20.8785 17.2056ZM21.4868 15.0172L21.1478 14.6368C21.1194 14.6049 21.1039 14.6368 21.0873 14.6503C20.9157 14.7999 20.7444 14.95 20.5734 15.1005C20.5588 15.1133 20.5373 15.1219 20.5342 15.1495L21.4868 15.0172Z" fill="#162D4C"/>
<path d="M20.8278 20.2854L20.6167 20.1348C20.0456 19.7303 19.4748 19.3256 18.9044 18.9206C18.8862 18.9058 18.8642 18.8964 18.841 18.8935C18.8177 18.8906 18.7942 18.8942 18.7729 18.904C18.3438 19.0546 17.9132 19.2009 17.4853 19.3557C17.3963 19.3878 17.317 19.3612 17.2344 19.3524C17.1054 19.3389 17.1054 19.3374 17.1325 19.2091C17.3483 18.1815 17.5642 17.1542 17.7802 16.1272C17.7827 16.1156 17.7857 16.1041 17.7885 16.0923C17.8136 16.0981 17.8193 16.1186 17.8291 16.1329C18.3169 16.8574 19.0007 17.283 19.8491 17.4576C20.1749 17.5231 20.5065 17.556 20.8388 17.5557C20.889 17.5557 20.902 17.5715 20.9048 17.6187C20.9136 17.7605 20.9266 17.902 20.9397 18.0435C20.9453 18.0954 20.941 18.1479 20.9271 18.1981C20.8902 18.3266 20.8566 18.4558 20.8195 18.5841C20.814 18.6005 20.8124 18.618 20.8148 18.6352C20.8173 18.6523 20.8237 18.6687 20.8335 18.6829C21.0561 19.0415 21.2764 19.4011 21.4983 19.7599C21.5187 19.7913 21.5301 19.8277 21.5311 19.8651C21.5374 20.0718 21.5454 20.2786 21.554 20.4854C21.5555 20.5165 21.5499 20.5476 21.5377 20.5762C21.4418 20.8098 21.3485 21.0445 21.2508 21.2773C21.2201 21.3458 21.2043 21.4201 21.2044 21.4951C21.2044 21.5616 21.1979 21.6281 21.1941 21.6929C21.1756 21.7017 21.1675 21.6889 21.1587 21.6813C20.8074 21.3902 20.4586 21.0982 20.1071 20.8083C20.0659 20.7745 20.0679 20.7604 20.1121 20.7331C20.3309 20.5986 20.5482 20.4615 20.7658 20.325C20.7841 20.3142 20.8014 20.3027 20.8278 20.2854Z" fill="#162D4C"/>
<path d="M18.8219 19.1416C18.8424 19.1437 18.8615 19.1532 18.8756 19.1682C19.2027 19.3971 19.5296 19.6257 19.8565 19.854C19.8946 19.8804 19.9042 19.9042 19.8941 19.9514C19.7938 20.4281 19.6994 20.9084 19.6016 21.3867C19.5922 21.4272 19.5983 21.4697 19.6186 21.5059C19.6583 21.5812 19.6939 21.6587 19.7303 21.7345C19.7117 21.7548 19.6919 21.7468 19.6746 21.7468C19.2753 21.7468 18.8761 21.7468 18.4766 21.7486C18.4594 21.7504 18.4422 21.7462 18.4277 21.7368C18.4132 21.7274 18.4024 21.7133 18.3971 21.6969C18.3682 21.6321 18.3371 21.5681 18.302 21.5064C18.2912 21.4889 18.2851 21.4689 18.2843 21.4484C18.2835 21.4279 18.288 21.4075 18.2975 21.3892C18.4636 20.995 18.6272 20.5998 18.7928 20.2056C18.813 20.158 18.8232 20.1067 18.8227 20.055C18.8209 19.7516 18.8219 19.4487 18.8219 19.1416Z" fill="#162D4C"/>
<path d="M24.3457 17.6982C23.6074 17.6982 22.9337 17.4774 22.3073 17.096C22.0858 16.9615 21.8767 16.8074 21.6828 16.6355C21.6459 16.6029 21.6466 16.5801 21.6747 16.5442C21.8268 16.3494 22.0311 16.2952 22.2662 16.3201C22.3485 16.3299 22.4267 16.3621 22.492 16.4132C22.9959 16.7836 23.5407 17.0719 24.1519 17.2237C24.4952 17.3085 24.8504 17.3344 25.2023 17.3005C25.2854 17.293 25.3695 17.2945 25.4533 17.2952C25.4879 17.2952 25.5286 17.2982 25.5446 17.3364C25.5619 17.3793 25.5351 17.4117 25.5055 17.441C25.443 17.4969 25.369 17.5382 25.2887 17.5622C25.0277 17.6525 24.7569 17.6864 24.4827 17.6975C24.4375 17.6997 24.3916 17.6982 24.3457 17.6982Z" fill="#162D4C"/>
<path d="M22.478 17.4277C22.7242 17.57 22.9882 17.6786 23.2632 17.7507C23.3317 17.7692 23.4013 17.7836 23.4715 17.7938C23.5129 17.7994 23.5181 17.8169 23.5141 17.8511C23.5062 17.9552 23.483 18.0576 23.4451 18.1549C23.2968 18.5 23.1272 18.8357 22.9844 19.1838C22.9249 19.3286 22.8635 19.4726 22.8338 19.6272C22.7992 19.8028 22.9209 19.9305 23.0981 19.8987C23.1458 19.8901 23.1601 19.9017 23.1688 19.9459C23.1819 20.0156 23.1889 20.0864 23.1897 20.1574C23.1911 20.174 23.1873 20.1906 23.1787 20.2048C23.1702 20.2191 23.1573 20.2302 23.142 20.2367C22.945 20.3383 22.7576 20.3019 22.5869 20.1825C22.406 20.0558 22.336 19.8635 22.3255 19.6503C22.3114 19.3863 22.3463 19.1248 22.3804 18.8636C22.4246 18.5283 22.4963 18.1971 22.5295 17.8598C22.5403 17.7499 22.5044 17.645 22.4946 17.5371C22.4906 17.504 22.4846 17.4706 22.478 17.4277Z" fill="#162D4C"/>
<path d="M21.4867 15.0173L20.5332 15.1496C20.5362 15.122 20.5583 15.1134 20.5724 15.1006C20.7432 14.9501 20.9145 14.8 21.0863 14.6505C21.1028 14.6362 21.1184 14.605 21.1467 14.6369L21.4867 15.0173Z" fill="#DCAA10"/>
</svg>
