<svg width="40" height="40" viewBox="0 0 40 40" fill="none" xmlns="http://www.w3.org/2000/svg">
<rect width="40" height="40" rx="8" fill="#D94F00" fill-opacity="0.1"/>
<g clip-path="url(#clip0_1539_9578)">
<path fill-rule="evenodd" clip-rule="evenodd" d="M8 8H31.7778V32H8V8Z" fill="#D94F00"/>
<path fill-rule="evenodd" clip-rule="evenodd" d="M21.528 12.6539H27.6235V18.7454H21.528V12.6539ZM14.1589 21.8266V22.4225H15.2095V25.5752H15.9339V22.3984H16.912V21.8025L14.1589 21.827V21.8266ZM13.6179 22.5654V21.9694C13.0368 21.7074 12.3684 21.6282 11.6842 21.9694C10.562 22.4699 10.5219 24.9478 11.6445 25.4323C12.289 25.758 13.6335 25.607 13.7689 25.3209V23.3592H12.4323V23.8756H13.0208V24.9082C11.0871 25.8454 10.729 21.3421 13.6179 22.5654ZM18.0903 23.8437H18.7823C19.3553 23.8678 19.5067 24.9478 18.7586 24.9396H18.0903V23.8437ZM18.0903 22.327H18.7823C19.3553 22.4303 19.1486 23.2801 18.7586 23.3037H18.0903V22.327ZM17.3741 21.7474V25.5433H19.2759C20.2466 25.1939 20.2867 23.6931 19.2759 23.5339C20.2069 23.4311 20.2548 21.7233 18.6473 21.7233L17.3741 21.7474ZM20.732 22.8115V23.3752C21.2411 23.2323 22.3473 22.8352 22.2438 23.6772C21.273 23.6135 20.6125 23.7882 20.5012 24.3915C20.3182 25.6943 21.7187 25.8213 22.3076 25.178V25.4878H22.976V23.2005C22.809 22.4617 21.7032 22.3666 20.732 22.8115ZM21.2968 24.2809C21.4482 24.0821 21.9336 24.0899 22.2598 24.1854V24.6858C21.7269 25.2572 20.8675 24.9956 21.2972 24.2805L21.2968 24.2809ZM24.3609 23.4866C24.536 23.296 25.4671 22.9384 25.6103 23.4866V25.5037H26.358V23.3674C26.1988 22.4776 25.3472 22.3188 24.313 22.9225V22.589H23.605V25.5196H24.3527L24.3609 23.4866ZM28.7055 22.5572L27.727 23.8674L28.7616 25.4796L29.6607 25.456L28.523 23.9074L29.5494 22.5809L28.7059 22.5572H28.7055ZM26.9155 21.596H27.6554V25.4796H26.915V21.5964L26.9155 21.596Z" fill="white"/>
<path fill-rule="evenodd" clip-rule="evenodd" d="M21.5283 12.6539H27.6238V18.7454H21.5283V12.6539Z" fill="white"/>
</g>
<defs>
<clipPath id="clip0_1539_9578">
<rect x="8" y="8" width="24" height="24" rx="4" fill="white"/>
</clipPath>
</defs>
</svg>
