<svg width="72" height="73" viewBox="0 0 72 73" fill="none" xmlns="http://www.w3.org/2000/svg">
<rect y="0.5" width="72" height="72" rx="36" fill="#0DA75E"/>
<path d="M30.7934 48.5C30.5058 48.5 30.2277 48.4458 29.9591 48.3373C29.6905 48.2305 29.4305 48.0514 29.1791 47.8L20.0848 38.7058C19.6543 38.2753 19.4486 37.7286 19.4675 37.0656C19.4847 36.401 19.7086 35.8534 20.1391 35.4229C20.5695 34.9925 21.1076 34.7772 21.7533 34.7772C22.3991 34.7772 22.9372 34.9925 23.3676 35.4229L30.9019 42.9572L48.7133 25.1457C49.1438 24.7152 49.6724 24.5 50.2992 24.5C50.9277 24.5 51.4572 24.7152 51.8877 25.1457C52.3181 25.5762 52.5334 26.1057 52.5334 26.7342C52.5334 27.361 52.3181 27.8896 51.8877 28.3201L32.4077 47.8C32.1563 48.0514 31.8963 48.2305 31.6276 48.3373C31.359 48.4458 31.0809 48.5 30.7934 48.5Z" fill="white"/>
</svg>
