<svg width="22" height="22" viewBox="0 0 22 22" fill="none" xmlns="http://www.w3.org/2000/svg">
<path fill-rule="evenodd" clip-rule="evenodd" d="M5 0.25C2.37665 0.25 0.25 2.37665 0.25 5V10C0.25 12.6234 2.37665 14.75 5 14.75V13.25C3.20507 13.25 1.75 11.7949 1.75 10V5C1.75 3.20507 3.20507 1.75 5 1.75H10C11.7949 1.75 13.25 3.20507 13.25 5C13.25 5.41421 13.5858 5.75 14 5.75C14.4142 5.75 14.75 5.41421 14.75 5C14.75 2.37665 12.6234 0.25 10 0.25H5ZM12 7.25C9.37665 7.25 7.25 9.37665 7.25 12V17C7.25 19.6234 9.37665 21.75 12 21.75H17C19.6234 21.75 21.75 19.6234 21.75 17V12C21.75 9.37665 19.6234 7.25 17 7.25H12ZM8.75 12C8.75 10.2051 10.2051 8.75 12 8.75H17C18.7949 8.75 20.25 10.2051 20.25 12V17C20.25 18.7949 18.7949 20.25 17 20.25H12C10.2051 20.25 8.75 18.7949 8.75 17V12Z" fill="#0DA75E"/>
</svg>
