<svg width="72" height="72" viewBox="0 0 72 72" fill="none" xmlns="http://www.w3.org/2000/svg">
<rect width="72" height="72" rx="36" fill="#FF0000"/>
<path fill-rule="evenodd" clip-rule="evenodd" d="M24.5736 24.6106C24.9487 24.2356 25.4573 24.025 25.9876 24.025C26.5179 24.025 27.0266 24.2356 27.4016 24.6106L35.9876 33.1966L44.5736 24.6106C44.7581 24.4196 44.9788 24.2672 45.2228 24.1624C45.4668 24.0576 45.7292 24.0024 45.9948 24.0001C46.2604 23.9978 46.5237 24.0484 46.7695 24.1489C47.0153 24.2495 47.2386 24.398 47.4264 24.5858C47.6142 24.7736 47.7627 24.9969 47.8633 25.2427C47.9638 25.4885 48.0144 25.7518 48.0121 26.0174C48.0098 26.2829 47.9546 26.5454 47.8498 26.7894C47.745 27.0334 47.5926 27.2541 47.4016 27.4386L38.8156 36.0246L47.4016 44.6106C47.7659 44.9878 47.9675 45.493 47.963 46.0174C47.9584 46.5418 47.7481 47.0434 47.3772 47.4142C47.0064 47.785 46.5048 47.9954 45.9804 47.9999C45.456 48.0045 44.9508 47.8029 44.5736 47.4386L35.9876 38.8526L27.4016 47.4386C27.0244 47.8029 26.5192 48.0045 25.9948 47.9999C25.4704 47.9954 24.9688 47.785 24.598 47.4142C24.2272 47.0434 24.0168 46.5418 24.0123 46.0174C24.0077 45.493 24.2093 44.9878 24.5736 44.6106L33.1596 36.0246L24.5736 27.4386C24.1987 27.0635 23.988 26.5549 23.988 26.0246C23.988 25.4942 24.1987 24.9856 24.5736 24.6106Z" fill="white"/>
</svg>
