<svg width="80" height="48" viewBox="0 0 80 48" fill="none" xmlns="http://www.w3.org/2000/svg">
<g clip-path="url(#clip0_2034_9163)">
<path d="M43.4268 21.6096H4.57324V46.6938H43.4268V21.6096Z" fill="#F18739" fill-opacity="0.25"/>
<path d="M47.0437 14.2576H0.956055V21.6083H47.0437V14.2576Z" fill="#EBF6EE"/>
<path d="M24 7.78175C24 9.39454 24 14.2574 24 14.2574C24 14.2574 19.488 14.2574 17.5244 14.2574C13.948 14.2574 11.0488 11.3581 11.0488 7.78175C11.0488 4.20537 13.948 1.30615 17.5244 1.30615C21.1008 1.30615 24 4.20537 24 7.78175Z" fill="#F18739" fill-opacity="0.25"/>
<path d="M24 7.78175C24 9.39454 24 14.2574 24 14.2574C24 14.2574 28.512 14.2574 30.4756 14.2574C34.052 14.2574 36.9512 11.3581 36.9512 7.78175C36.9512 4.20537 34.052 1.30615 30.4756 1.30615C26.8992 1.30615 24 4.20537 24 7.78175Z" fill="#F18739" fill-opacity="0.25"/>
<path d="M47.0438 13.3013H35.4462C36.9562 11.9401 37.9074 9.97018 37.9074 7.78187C37.9074 3.68399 34.5735 0.350098 30.4756 0.350098C27.6996 0.350098 25.2759 1.88093 24 4.14181C22.7241 1.88093 20.3004 0.350098 17.5244 0.350098C13.4265 0.350098 10.0926 3.68399 10.0926 7.78187C10.0926 9.97018 11.0437 11.9401 12.5538 13.3013H0.956175C0.42808 13.3013 0 13.7294 0 14.2575V21.6082C0 22.1363 0.42808 22.5643 0.956175 22.5643H3.61702V46.6938C3.61702 47.2219 4.0451 47.65 4.5732 47.65H43.4269C43.955 47.65 44.3831 47.2219 44.3831 46.6938V22.5643H47.0438C47.5719 22.5643 48 22.1363 48 21.6082V14.2575C48 13.7294 47.5719 13.3013 47.0438 13.3013ZM24.9562 7.78187C24.9562 4.73846 27.4322 2.26245 30.4756 2.26245C33.519 2.26245 35.995 4.73846 35.995 7.78187C35.995 10.8253 33.519 13.3013 30.4756 13.3013H24.9562V7.78187ZM12.005 7.78187C12.005 4.73846 14.481 2.26245 17.5244 2.26245C20.5678 2.26245 23.0438 4.73846 23.0438 7.78187V13.3013H17.5244C14.481 13.3013 12.005 10.8253 12.005 7.78187ZM42.4706 45.7376H5.52937V22.681H42.4707V45.7376H42.4706ZM46.0877 15.2137V20.652H1.91235V15.2137H46.0877Z" fill="#0DA75E"/>
<path d="M14.6661 8.7963C15.1942 8.7963 15.6223 8.36822 15.6223 7.84013C15.6223 6.75898 16.5019 5.87939 17.583 5.87939C18.1111 5.87939 18.5392 5.45131 18.5392 4.92322C18.5392 4.39512 18.1111 3.96704 17.583 3.96704C15.4474 3.96704 13.71 5.70451 13.71 7.84013C13.71 8.36822 14.138 8.7963 14.6661 8.7963Z" fill="#0DA75E"/>
<path d="M13.0323 29.2148H27.5003C28.0284 29.2148 28.4565 28.7868 28.4565 28.2587C28.4565 27.7306 28.0284 27.3025 27.5003 27.3025H13.0323C12.5043 27.3025 12.0762 27.7306 12.0762 28.2587C12.0762 28.7868 12.5043 29.2148 13.0323 29.2148Z" fill="#0DA75E"/>
<path d="M13.0323 34.6987H34.9677C35.4958 34.6987 35.9239 34.2706 35.9239 33.7426C35.9239 33.2145 35.4958 32.7864 34.9677 32.7864H13.0323C12.5043 32.7864 12.0762 33.2145 12.0762 33.7426C12.0762 34.2706 12.5043 34.6987 13.0323 34.6987Z" fill="#0DA75E"/>
<path d="M13.0323 40.0659H34.9677C35.4958 40.0659 35.9239 39.6378 35.9239 39.1097C35.9239 38.5816 35.4958 38.1536 34.9677 38.1536H13.0323C12.5043 38.1536 12.0762 38.5816 12.0762 39.1097C12.0762 39.6378 12.5043 40.0659 13.0323 40.0659Z" fill="#0DA75E"/>
<path d="M32.0509 29.2148H34.9678C35.4959 29.2148 35.924 28.7868 35.924 28.2587C35.924 27.7306 35.4959 27.3025 34.9678 27.3025H32.0509C31.5228 27.3025 31.0947 27.7306 31.0947 28.2587C31.0947 28.7868 31.5228 29.2148 32.0509 29.2148Z" fill="#0DA75E"/>
</g>
<rect x="64" width="16" height="16" rx="8" fill="white"/>
<path fill-rule="evenodd" clip-rule="evenodd" d="M76.1678 4.85355C76.3631 4.65829 76.3631 4.34171 76.1678 4.14645C75.9726 3.95118 75.656 3.95118 75.4607 4.14645L72.1571 7.45004L68.8536 4.14645C68.6583 3.95119 68.3417 3.95119 68.1464 4.14645C67.9512 4.34171 67.9512 4.6583 68.1464 4.85356L71.45 8.15714L68.1464 11.4607C67.9512 11.656 67.9512 11.9726 68.1464 12.1678C68.3417 12.3631 68.6583 12.3631 68.8536 12.1678L72.1571 8.86425L75.4607 12.1678C75.656 12.3631 75.9726 12.3631 76.1678 12.1678C76.3631 11.9726 76.3631 11.656 76.1678 11.4607L72.8642 8.15714L76.1678 4.85355Z" fill="#FF0000"/>
<defs>
<clipPath id="clip0_2034_9163">
<rect width="48" height="48" fill="white"/>
</clipPath>
</defs>
</svg>
