<svg width="168" height="167" viewBox="0 0 168 167" fill="none" xmlns="http://www.w3.org/2000/svg">
<mask id="path-1-inside-1_1637_9170" fill="white">
<path d="M59.0003 8.49984C59.0003 10.71 58.1223 12.8296 56.5595 14.3924C54.9967 15.9552 52.8771 16.8332 50.667 16.8332H25.667C23.4569 16.8332 21.3372 17.7111 19.7744 19.2739C18.2116 20.8368 17.3337 22.9564 17.3337 25.1665V50.1665C17.3337 52.3766 16.4557 54.4963 14.8929 56.0591C13.3301 57.6219 11.2105 58.4998 9.00033 58.4998C6.79019 58.4998 4.67057 57.6219 3.10777 56.0591C1.54497 54.4963 0.666992 52.3766 0.666992 50.1665V25.1665C0.666992 18.5361 3.30091 12.1772 7.98932 7.48883C12.6777 2.80043 19.0366 0.166504 25.667 0.166504H50.667C52.8771 0.166504 54.9967 1.04448 56.5595 2.60728C58.1223 4.17008 59.0003 6.2897 59.0003 8.49984ZM0.666992 141.833C0.666992 148.464 3.30091 154.822 7.98932 159.511C12.6777 164.199 19.0366 166.833 25.667 166.833H50.667C52.8771 166.833 54.9967 165.955 56.5595 164.392C58.1223 162.83 59.0003 160.71 59.0003 158.5C59.0003 156.29 58.1223 154.17 56.5595 152.607C54.9967 151.044 52.8771 150.167 50.667 150.167H25.667C23.4569 150.167 21.3372 149.289 19.7744 147.726C18.2116 146.163 17.3337 144.043 17.3337 141.833V116.833C17.3337 114.623 16.4557 112.503 14.8929 110.941C13.3301 109.378 11.2105 108.5 9.00033 108.5C6.79019 108.5 4.67057 109.378 3.10777 110.941C1.54497 112.503 0.666992 114.623 0.666992 116.833V141.833ZM159 108.5C156.79 108.5 154.671 109.378 153.108 110.941C151.545 112.503 150.667 114.623 150.667 116.833V141.833C150.667 144.043 149.789 146.163 148.226 147.726C146.663 149.289 144.544 150.167 142.334 150.167H117.334C115.124 150.167 113.004 151.044 111.441 152.607C109.878 154.17 109 156.29 109 158.5C109 160.71 109.878 162.83 111.441 164.392C113.004 165.955 115.124 166.833 117.334 166.833H142.334C148.964 166.833 155.323 164.199 160.011 159.511C164.7 154.822 167.334 148.464 167.334 141.833V116.833C167.334 114.623 166.456 112.503 164.893 110.941C163.33 109.378 161.21 108.5 159 108.5ZM142.334 0.166504H117.334C115.124 0.166504 113.004 1.04448 111.441 2.60728C109.878 4.17008 109 6.2897 109 8.49984C109 10.71 109.878 12.8296 111.441 14.3924C113.004 15.9552 115.124 16.8332 117.334 16.8332H142.334C144.544 16.8332 146.663 17.7111 148.226 19.2739C149.789 20.8368 150.667 22.9564 150.667 25.1665V50.1665C150.667 52.3766 151.545 54.4963 153.108 56.0591C154.671 57.6219 156.79 58.4998 159 58.4998C161.21 58.4998 163.33 57.6219 164.893 56.0591C166.456 54.4963 167.334 52.3766 167.334 50.1665V25.1665C167.334 18.5361 164.7 12.1772 160.011 7.48883C155.323 2.80043 148.964 0.166504 142.334 0.166504ZM50.667 58.4998V50.1665C50.667 47.9564 49.789 45.8368 48.2262 44.2739C46.6634 42.7111 44.5438 41.8332 42.3337 41.8332C40.1235 41.8332 38.0039 42.7111 36.4411 44.2739C34.8783 45.8368 34.0003 47.9564 34.0003 50.1665V58.4998C34.0003 60.71 34.8783 62.8296 36.4411 64.3924C38.0039 65.9552 40.1235 66.8332 42.3337 66.8332C44.5438 66.8332 46.6634 65.9552 48.2262 64.3924C49.789 62.8296 50.667 60.71 50.667 58.4998ZM134 58.4998V50.1665C134 47.9564 133.122 45.8368 131.56 44.2739C129.997 42.7111 127.877 41.8332 125.667 41.8332C123.457 41.8332 121.337 42.7111 119.774 44.2739C118.212 45.8368 117.334 47.9564 117.334 50.1665V58.4998C117.334 60.71 118.212 62.8296 119.774 64.3924C121.337 65.9552 123.457 66.8332 125.667 66.8332C127.877 66.8332 129.997 65.9552 131.56 64.3924C133.122 62.8296 134 60.71 134 58.4998ZM57.1253 103.233C55.7285 101.52 53.7085 100.432 51.5096 100.209C49.3108 99.9855 47.1132 100.645 45.4003 102.042C43.6875 103.438 42.5996 105.458 42.3762 107.657C42.1527 109.856 42.8119 112.054 44.2087 113.767C48.8735 119.897 54.8919 124.868 61.7943 128.289C68.6968 131.711 76.2964 133.491 84.0003 133.491C91.7042 133.491 99.3039 131.711 106.206 128.289C113.109 124.868 119.127 119.897 123.792 113.767C125.189 112.054 125.848 109.856 125.624 107.657C125.401 105.458 124.313 103.438 122.6 102.042C120.887 100.645 118.69 99.9855 116.491 100.209C114.292 100.432 112.272 101.52 110.875 103.233C107.779 107.453 103.733 110.884 99.0636 113.25C94.3946 115.615 89.2342 116.847 84.0003 116.847C78.7664 116.847 73.606 115.615 68.937 113.25C64.268 110.884 60.2216 107.453 57.1253 103.233ZM75.667 41.8332C73.4568 41.8332 71.3372 42.7111 69.7744 44.2739C68.2116 45.8368 67.3337 47.9564 67.3337 50.1665V75.2498C67.3557 81.8658 69.9994 88.2033 74.6854 92.8737C79.3714 97.5441 85.7177 100.167 92.3337 100.167C94.5438 100.155 96.659 99.2669 98.214 97.6963C99.769 96.1256 100.636 94.0016 100.625 91.7915C100.614 89.5814 99.7257 87.4661 98.1551 85.9111C96.5845 84.3562 94.4605 83.4888 92.2503 83.4998C90.063 83.4976 87.9658 82.6277 86.4191 81.081C84.8724 79.5343 84.0025 77.4372 84.0003 75.2498V50.1665C84.0003 47.9564 83.1223 45.8368 81.5595 44.2739C79.9967 42.7111 77.8771 41.8332 75.667 41.8332Z"/>
</mask>
<path d="M59.0003 8.49984C59.0003 10.71 58.1223 12.8296 56.5595 14.3924C54.9967 15.9552 52.8771 16.8332 50.667 16.8332H25.667C23.4569 16.8332 21.3372 17.7111 19.7744 19.2739C18.2116 20.8368 17.3337 22.9564 17.3337 25.1665V50.1665C17.3337 52.3766 16.4557 54.4963 14.8929 56.0591C13.3301 57.6219 11.2105 58.4998 9.00033 58.4998C6.79019 58.4998 4.67057 57.6219 3.10777 56.0591C1.54497 54.4963 0.666992 52.3766 0.666992 50.1665V25.1665C0.666992 18.5361 3.30091 12.1772 7.98932 7.48883C12.6777 2.80043 19.0366 0.166504 25.667 0.166504H50.667C52.8771 0.166504 54.9967 1.04448 56.5595 2.60728C58.1223 4.17008 59.0003 6.2897 59.0003 8.49984ZM0.666992 141.833C0.666992 148.464 3.30091 154.822 7.98932 159.511C12.6777 164.199 19.0366 166.833 25.667 166.833H50.667C52.8771 166.833 54.9967 165.955 56.5595 164.392C58.1223 162.83 59.0003 160.71 59.0003 158.5C59.0003 156.29 58.1223 154.17 56.5595 152.607C54.9967 151.044 52.8771 150.167 50.667 150.167H25.667C23.4569 150.167 21.3372 149.289 19.7744 147.726C18.2116 146.163 17.3337 144.043 17.3337 141.833V116.833C17.3337 114.623 16.4557 112.503 14.8929 110.941C13.3301 109.378 11.2105 108.5 9.00033 108.5C6.79019 108.5 4.67057 109.378 3.10777 110.941C1.54497 112.503 0.666992 114.623 0.666992 116.833V141.833ZM159 108.5C156.79 108.5 154.671 109.378 153.108 110.941C151.545 112.503 150.667 114.623 150.667 116.833V141.833C150.667 144.043 149.789 146.163 148.226 147.726C146.663 149.289 144.544 150.167 142.334 150.167H117.334C115.124 150.167 113.004 151.044 111.441 152.607C109.878 154.17 109 156.29 109 158.5C109 160.71 109.878 162.83 111.441 164.392C113.004 165.955 115.124 166.833 117.334 166.833H142.334C148.964 166.833 155.323 164.199 160.011 159.511C164.7 154.822 167.334 148.464 167.334 141.833V116.833C167.334 114.623 166.456 112.503 164.893 110.941C163.33 109.378 161.21 108.5 159 108.5ZM142.334 0.166504H117.334C115.124 0.166504 113.004 1.04448 111.441 2.60728C109.878 4.17008 109 6.2897 109 8.49984C109 10.71 109.878 12.8296 111.441 14.3924C113.004 15.9552 115.124 16.8332 117.334 16.8332H142.334C144.544 16.8332 146.663 17.7111 148.226 19.2739C149.789 20.8368 150.667 22.9564 150.667 25.1665V50.1665C150.667 52.3766 151.545 54.4963 153.108 56.0591C154.671 57.6219 156.79 58.4998 159 58.4998C161.21 58.4998 163.33 57.6219 164.893 56.0591C166.456 54.4963 167.334 52.3766 167.334 50.1665V25.1665C167.334 18.5361 164.7 12.1772 160.011 7.48883C155.323 2.80043 148.964 0.166504 142.334 0.166504ZM50.667 58.4998V50.1665C50.667 47.9564 49.789 45.8368 48.2262 44.2739C46.6634 42.7111 44.5438 41.8332 42.3337 41.8332C40.1235 41.8332 38.0039 42.7111 36.4411 44.2739C34.8783 45.8368 34.0003 47.9564 34.0003 50.1665V58.4998C34.0003 60.71 34.8783 62.8296 36.4411 64.3924C38.0039 65.9552 40.1235 66.8332 42.3337 66.8332C44.5438 66.8332 46.6634 65.9552 48.2262 64.3924C49.789 62.8296 50.667 60.71 50.667 58.4998ZM134 58.4998V50.1665C134 47.9564 133.122 45.8368 131.56 44.2739C129.997 42.7111 127.877 41.8332 125.667 41.8332C123.457 41.8332 121.337 42.7111 119.774 44.2739C118.212 45.8368 117.334 47.9564 117.334 50.1665V58.4998C117.334 60.71 118.212 62.8296 119.774 64.3924C121.337 65.9552 123.457 66.8332 125.667 66.8332C127.877 66.8332 129.997 65.9552 131.56 64.3924C133.122 62.8296 134 60.71 134 58.4998ZM57.1253 103.233C55.7285 101.52 53.7085 100.432 51.5096 100.209C49.3108 99.9855 47.1132 100.645 45.4003 102.042C43.6875 103.438 42.5996 105.458 42.3762 107.657C42.1527 109.856 42.8119 112.054 44.2087 113.767C48.8735 119.897 54.8919 124.868 61.7943 128.289C68.6968 131.711 76.2964 133.491 84.0003 133.491C91.7042 133.491 99.3039 131.711 106.206 128.289C113.109 124.868 119.127 119.897 123.792 113.767C125.189 112.054 125.848 109.856 125.624 107.657C125.401 105.458 124.313 103.438 122.6 102.042C120.887 100.645 118.69 99.9855 116.491 100.209C114.292 100.432 112.272 101.52 110.875 103.233C107.779 107.453 103.733 110.884 99.0636 113.25C94.3946 115.615 89.2342 116.847 84.0003 116.847C78.7664 116.847 73.606 115.615 68.937 113.25C64.268 110.884 60.2216 107.453 57.1253 103.233ZM75.667 41.8332C73.4568 41.8332 71.3372 42.7111 69.7744 44.2739C68.2116 45.8368 67.3337 47.9564 67.3337 50.1665V75.2498C67.3557 81.8658 69.9994 88.2033 74.6854 92.8737C79.3714 97.5441 85.7177 100.167 92.3337 100.167C94.5438 100.155 96.659 99.2669 98.214 97.6963C99.769 96.1256 100.636 94.0016 100.625 91.7915C100.614 89.5814 99.7257 87.4661 98.1551 85.9111C96.5845 84.3562 94.4605 83.4888 92.2503 83.4998C90.063 83.4976 87.9658 82.6277 86.4191 81.081C84.8724 79.5343 84.0025 77.4372 84.0003 75.2498V50.1665C84.0003 47.9564 83.1223 45.8368 81.5595 44.2739C79.9967 42.7111 77.8771 41.8332 75.667 41.8332Z" fill="#F18739" stroke="white" stroke-width="8" mask="url(#path-1-inside-1_1637_9170)"/>
</svg>
