<svg width="20" height="24" viewBox="0 0 20 24" fill="none" xmlns="http://www.w3.org/2000/svg">
<path fill-rule="evenodd" clip-rule="evenodd" d="M14.0608 5L13.5351 4.47437L13.5257 4.46492L9.53043 0.46967C9.23753 0.176777 8.76266 0.176777 8.46977 0.46967C8.17687 0.762563 8.17687 1.23744 8.46977 1.53033L11.1894 4.24996L8.45374 4.24996H8.44017H8.44005C7.51808 4.24996 6.80877 4.24996 6.26081 4.26654C5.71743 4.28299 5.28117 4.31646 4.9246 4.39937C1.20932 5.26326 -0.650452 9.4391 1.19281 12.7786C1.36971 13.0991 1.63667 13.4457 1.98795 13.8606C2.34218 14.279 2.81667 14.8062 3.43341 15.4915L3.43345 15.4915L3.43352 15.4916L3.44262 15.5017C3.71971 15.8096 4.19393 15.8346 4.50181 15.5575C4.8097 15.2804 4.83466 14.8062 4.55756 14.4983C3.92982 13.8008 3.47054 13.2903 3.13274 12.8914C2.79024 12.4868 2.60635 12.2354 2.50604 12.0537C1.14363 9.58541 2.51824 6.49892 5.26432 5.86039C5.4665 5.81338 5.77638 5.78189 6.30619 5.76585C6.82872 5.75004 7.51536 5.74996 8.45374 5.74996L11.1895 5.74996L8.46977 8.46967C8.17687 8.76256 8.17687 9.23744 8.46977 9.53033C8.76266 9.82322 9.23754 9.82322 9.53043 9.53033L13.5304 5.53033L14.0608 5ZM14.7359 18.1396C17.482 17.5011 18.8566 14.4146 17.4942 11.9463C17.3939 11.7646 17.21 11.5132 16.8675 11.1086C16.5297 10.7097 16.0704 10.1992 15.4426 9.50174C15.1656 9.19385 15.1905 8.71964 15.4984 8.44254C15.8063 8.16545 16.2805 8.19041 16.5576 8.49829L16.5667 8.50844L16.5668 8.50851L16.5669 8.50867C17.1836 9.19387 17.6581 9.72104 18.0123 10.1394C18.3635 10.5543 18.6305 10.9009 18.8074 11.2214C20.6507 14.5609 18.7909 18.7367 15.0756 19.6006C14.719 19.6836 14.2828 19.717 13.7394 19.7335C13.1915 19.7501 12.4822 19.7501 11.5604 19.7501H11.5602H11.5465L8.81082 19.7501L11.5304 22.4697C11.8233 22.7626 11.8233 23.2374 11.5304 23.5303C11.2376 23.8232 10.7627 23.8232 10.4698 23.5303L6.46978 19.5303L5.93945 19L6.46978 18.4697L10.4698 14.4697C10.7627 14.1768 11.2375 14.1768 11.5304 14.4697C11.8233 14.7626 11.8233 15.2374 11.5304 15.5303L8.81073 18.2501L11.5465 18.2501C12.4848 18.2501 13.1715 18.25 13.694 18.2342C14.2238 18.2181 14.5337 18.1866 14.7359 18.1396Z" fill="#B75C1A"/>
</svg>
