<svg width="25" height="24" viewBox="0 0 25 24" fill="none" xmlns="http://www.w3.org/2000/svg">
<path fill-rule="evenodd" clip-rule="evenodd" d="M16.5603 5L16.0346 4.47437L16.0252 4.46492L12.0299 0.46967C11.737 0.176777 11.2622 0.176777 10.9693 0.46967C10.6764 0.762563 10.6764 1.23744 10.9693 1.53033L13.6889 4.24996L10.9533 4.24996H10.9397H10.9396C10.0176 4.24996 9.30828 4.24996 8.76032 4.26654C8.21694 4.28299 7.78068 4.31646 7.42411 4.39937C3.70883 5.26326 1.84906 9.4391 3.69232 12.7786C3.86922 13.0991 4.13619 13.4457 4.48747 13.8606C4.84169 14.279 5.31618 14.8062 5.93292 15.4915L5.93296 15.4915L5.93303 15.4916L5.94213 15.5017C6.21922 15.8096 6.69344 15.8346 7.00132 15.5575C7.30921 15.2804 7.33417 14.8062 7.05707 14.4983C6.42933 13.8008 5.97006 13.2903 5.63225 12.8914C5.28975 12.4868 5.10586 12.2354 5.00555 12.0537C3.64314 9.58541 5.01776 6.49892 7.76383 5.86039C7.96602 5.81338 8.27589 5.78189 8.8057 5.76585C9.32824 5.75004 10.0149 5.74996 10.9533 5.74996L13.689 5.74996L10.9693 8.46967C10.6764 8.76256 10.6764 9.23744 10.9693 9.53033C11.2622 9.82322 11.737 9.82322 12.0299 9.53033L16.0299 5.53033L16.5603 5ZM17.2354 18.1396C19.9815 17.5011 21.3561 14.4146 19.9937 11.9463C19.8934 11.7646 19.7095 11.5132 19.367 11.1086C19.0292 10.7097 18.5699 10.1992 17.9422 9.50174C17.6651 9.19385 17.69 8.71964 17.9979 8.44254C18.3058 8.16545 18.78 8.19041 19.0571 8.49829L19.0662 8.50844L19.0663 8.50851L19.0665 8.50867C19.6831 9.19387 20.1576 9.72104 20.5118 10.1394C20.863 10.5543 21.13 10.9009 21.3069 11.2214C23.1502 14.5609 21.2904 18.7367 17.5751 19.6006C17.2186 19.6836 16.7823 19.717 16.2389 19.7335C15.691 19.7501 14.9817 19.7501 14.0599 19.7501H14.0597H14.046L11.3103 19.7501L14.03 22.4697C14.3228 22.7626 14.3228 23.2374 14.03 23.5303C13.7371 23.8232 13.2622 23.8232 12.9693 23.5303L8.9693 19.5303L8.43896 19L8.96929 18.4697L12.9693 14.4697C13.2622 14.1768 13.7371 14.1768 14.03 14.4697C14.3228 14.7626 14.3228 15.2374 14.03 15.5303L11.3102 18.2501L14.046 18.2501C14.9844 18.2501 15.671 18.25 16.1935 18.2342C16.7233 18.2181 17.0332 18.1866 17.2354 18.1396Z" fill="#828282"/>
</svg>
