<svg width="18" height="22" viewBox="0 0 18 22" fill="none" xmlns="http://www.w3.org/2000/svg">
<path fill-rule="evenodd" clip-rule="evenodd" d="M9.34059 2.47857C8.8391 2.96679 8.20796 3.76736 7.30245 4.91983L3.64037 9.58067C2.96149 10.4447 2.50686 11.0265 2.2502 11.4739C2.12511 11.6919 2.07684 11.8291 2.06183 11.911C2.05091 11.9707 2.05914 11.9869 2.06339 11.9953C2.06365 11.9958 2.06389 11.9963 2.06411 11.9968C2.06433 11.9972 2.06456 11.9977 2.0648 11.9982C2.06878 12.0068 2.0765 12.0233 2.13012 12.0515C2.20382 12.0904 2.34152 12.1372 2.59026 12.1735C3.10061 12.2481 3.83897 12.2501 4.93779 12.2501H5.99988C6.0113 12.2501 6.02279 12.2501 6.03432 12.2501C6.23944 12.25 6.46123 12.2499 6.64845 12.2751C6.86778 12.3046 7.14796 12.3804 7.38376 12.6162C7.61956 12.852 7.6954 13.1322 7.72489 13.3515C7.75006 13.5387 7.74997 13.7605 7.74989 13.9656C7.74989 13.9772 7.74988 13.9886 7.74988 14.0001V16.0609C7.74988 17.5266 7.75155 18.546 7.84424 19.2397C7.8903 19.5844 7.9515 19.7813 8.00673 19.888C8.03152 19.936 8.04861 19.9526 8.05135 19.9552C8.05144 19.9553 8.05146 19.9553 8.05145 19.9553C8.05169 19.9554 8.05211 19.9555 8.05279 19.9558C8.05576 19.9568 8.05353 19.9563 8.05428 19.9562C8.058 19.9559 8.08176 19.9533 8.13086 19.931C8.2402 19.8812 8.41003 19.7641 8.65917 19.5216C9.16066 19.0333 9.7918 18.2328 10.6973 17.0803L14.3594 12.4195C15.0383 11.5554 15.4929 10.9737 15.7496 10.5263C15.8747 10.3082 15.9229 10.171 15.9379 10.0891C15.9488 10.0295 15.9406 10.0132 15.9364 10.0048C15.9361 10.0043 15.9359 10.0038 15.9357 10.0034C15.9354 10.0029 15.9352 10.0024 15.935 10.0019C15.931 9.99336 15.9233 9.97684 15.8696 9.9486C15.7959 9.90978 15.6582 9.86297 15.4095 9.82662C14.8991 9.75203 14.1608 9.75007 13.062 9.75007H11.9999C11.9885 9.75007 11.977 9.75007 11.9654 9.75008C11.7603 9.75016 11.5385 9.75025 11.3513 9.72508C11.132 9.69559 10.8518 9.61975 10.616 9.38395C10.3802 9.14815 10.3044 8.86796 10.2749 8.64864C10.2497 8.46142 10.2498 8.23963 10.2499 8.03451C10.2499 8.02298 10.2499 8.01149 10.2499 8.00007V5.93923C10.2499 4.47358 10.2482 3.45415 10.1555 2.76043C10.1095 2.41578 10.0483 2.21879 9.99304 2.11209C9.96824 2.06419 9.95115 2.04749 9.94841 2.04495C9.94786 2.04444 9.94994 2.04539 9.94697 2.04437C9.944 2.04334 9.94623 2.04387 9.94548 2.04393C9.94176 2.04424 9.918 2.04681 9.86891 2.06916C9.75956 2.11894 9.58973 2.23602 9.34059 2.47857ZM8.29424 1.40379C8.84068 0.871808 9.57522 0.328611 10.4373 0.626762C11.2993 0.924914 11.5413 1.80585 11.6423 2.56176C11.7499 3.36718 11.7499 4.48817 11.7499 5.87631V5.93923V8.00007C11.7499 8.09915 11.7499 8.17946 11.751 8.24892C11.8205 8.25004 11.9008 8.25007 11.9999 8.25007H13.062L13.1246 8.25007C14.1446 8.25003 14.9943 8.25 15.6264 8.34238C16.263 8.43542 16.9497 8.65841 17.2847 9.34765C17.6197 10.0369 17.3708 10.7147 17.0507 11.2727C16.7328 11.8268 16.2077 12.495 15.5776 13.2969L15.5389 13.3462L11.8768 18.007L11.8379 18.0565C10.9803 19.1481 10.2877 20.0295 9.70552 20.5963C9.15908 21.1283 8.42454 21.6715 7.56249 21.3734C6.70044 21.0752 6.45846 20.1943 6.35746 19.4384C6.24984 18.633 6.24986 17.512 6.24988 16.1238L6.24988 16.0609V14.0001C6.24988 13.901 6.24985 13.8207 6.24873 13.7512C6.17927 13.7501 6.09896 13.7501 5.99988 13.7501H4.93779L4.87511 13.7501C3.8552 13.7501 3.00547 13.7501 2.37334 13.6578C1.73675 13.5647 1.05001 13.3417 0.715018 12.6525C0.380022 11.9632 0.628961 11.2855 0.949104 10.7274C1.267 10.1733 1.79201 9.50517 2.42216 8.70322L2.46089 8.65393L6.12298 3.99309L6.16184 3.94363C7.01945 2.85209 7.71201 1.97061 8.29424 1.40379Z" fill="#00398E"/>
</svg>
