<svg width="40" height="41" viewBox="0 0 40 41" fill="none" xmlns="http://www.w3.org/2000/svg">
<path fill-rule="evenodd" clip-rule="evenodd" d="M39.8408 20.417C39.8408 25.7213 37.7337 30.8084 33.983 34.5591C30.2322 38.3099 25.1451 40.417 19.8408 40.417C14.5365 40.417 9.44941 38.3099 5.69868 34.5591C1.94796 30.8084 -0.15918 25.7213 -0.15918 20.417C-0.15918 15.1127 1.94796 10.0256 5.69868 6.27486C9.44941 2.52413 14.5365 0.416992 19.8408 0.416992C25.1451 0.416992 30.2322 2.52413 33.983 6.27486C37.7337 10.0256 39.8408 15.1127 39.8408 20.417ZM24.8408 12.917C24.8408 14.2431 24.314 15.5148 23.3764 16.4525C22.4387 17.3902 21.1669 17.917 19.8408 17.917C18.5147 17.917 17.243 17.3902 16.3053 16.4525C15.3676 15.5148 14.8408 14.2431 14.8408 12.917C14.8408 11.5909 15.3676 10.3191 16.3053 9.38146C17.243 8.44378 18.5147 7.91699 19.8408 7.91699C21.1669 7.91699 22.4387 8.44378 23.3764 9.38146C24.314 10.3191 24.8408 11.5909 24.8408 12.917ZM19.8408 22.917C17.4473 22.9165 15.104 23.6032 13.0894 24.8955C11.0747 26.1878 9.47343 28.0313 8.47582 30.207C9.88251 31.8435 11.6265 33.1564 13.5882 34.0557C15.5499 34.955 17.6828 35.4194 19.8408 35.417C21.9988 35.4194 24.1318 34.955 26.0935 34.0557C28.0551 33.1564 29.7991 31.8435 31.2058 30.207C30.2082 28.0313 28.6069 26.1878 26.5923 24.8955C24.5776 23.6032 22.2343 22.9165 19.8408 22.917Z" fill="#BDBDBD"/>
</svg>
