<svg width="40" height="40" viewBox="0 0 40 40" fill="none" xmlns="http://www.w3.org/2000/svg">
<rect width="40" height="40" rx="8" fill="#0095DA" fill-opacity="0.1"/>
<rect x="8" y="8" width="24" height="24" rx="4" fill="#0095DA"/>
<g clip-path="url(#clip0_1908_37343)">
<mask id="mask0_1908_37343" style="mask-type:luminance" maskUnits="userSpaceOnUse" x="10" y="18" width="20" height="4">
<path d="M10 21.7148H30.0001V18.001H10V21.7148Z" fill="white"/>
</mask>
<g mask="url(#mask0_1908_37343)">
<path d="M29.9442 18.9995H29.507C29.4299 18.9995 29.3589 19.0721 29.358 19.0736L27.6969 21.2484C27.6657 21.2889 27.6165 21.2879 27.5869 21.2464L26.053 19.0739C26.0521 19.0721 25.9952 18.9977 25.8878 18.9977H22.9415C22.89 18.9977 22.8485 18.9561 22.8489 18.9049L22.8508 18.1872C22.8508 18.0842 22.7674 18.001 22.6651 18.001H18.1524C17.4535 18.0247 17.1545 18.0946 16.8348 18.2812C16.54 18.454 16.3928 18.6732 16.3928 18.9368C16.3928 19.2162 16.6209 19.4917 17.0771 19.7635C17.1943 19.834 17.6166 20.0374 18.3429 20.373C18.7993 20.5839 19.0454 20.7573 19.0276 20.9286C18.9999 21.2042 18.7494 21.2988 18.1524 21.2988H15.4239C15.3578 21.2988 15.3039 21.2873 15.3039 21.2358C15.3039 21.2105 15.319 21.1874 15.3475 21.1693L15.347 21.1689C15.9579 20.8018 16.1595 20.3058 16.1595 19.8562C16.1595 19.0149 15.4519 18.001 12.6348 18.001H10.1854C10.083 18.001 10 18.0842 10 18.1872V21.5295C10 21.6316 10.083 21.7148 10.1857 21.7148H12.6348C12.7283 21.7148 12.819 21.7137 12.907 21.7114H19.0329C19.5924 21.7114 20.0294 21.6189 20.3451 21.4346C20.6365 21.2632 20.7821 21.0463 20.7821 20.7812C20.7821 20.503 20.5541 20.228 20.098 19.9564C19.9812 19.8861 19.5592 19.6813 18.8317 19.3441C18.3757 19.1334 18.1476 18.9631 18.1476 18.8329C18.1476 18.5537 18.443 18.4183 19.0329 18.4183H21.1038C21.1551 18.4183 21.1966 18.4596 21.1969 18.5107L21.1956 20.9359C21.1956 21.2914 21.4309 21.7114 22.144 21.7114H27.8361C27.971 21.7114 28.0391 21.6242 28.0391 21.6242L29.9894 19.0612C29.9894 19.0612 30.0327 18.9995 29.9442 18.9995ZM12.2669 21.3129H11.6639C11.6125 21.3129 11.5709 21.2713 11.5709 21.2202V18.4946C11.5709 18.4435 11.6125 18.4018 11.6634 18.4018H12.2669C13.7586 18.4018 14.5499 19.0149 14.5499 19.8562C14.5499 20.7011 13.7511 21.3129 12.2669 21.3129ZM25.9309 21.3228H23.3016C22.9357 21.3228 22.8485 21.2185 22.8485 20.9359V19.4777C22.8485 19.4287 22.8873 19.3894 22.935 19.386H24.4618C24.5099 19.3894 24.568 19.4183 24.5984 19.4551L25.9694 21.253C25.9964 21.2914 25.9801 21.3228 25.9309 21.3228Z" fill="white"/>
</g>
</g>
<defs>
<clipPath id="clip0_1908_37343">
<rect width="20" height="3.71378" fill="white" transform="translate(10 18)"/>
</clipPath>
</defs>
</svg>
