<svg width="40" height="41" viewBox="0 0 40 41" fill="none" xmlns="http://www.w3.org/2000/svg">
<rect y="0.5" width="40" height="40" rx="8" fill="#FF0000" fill-opacity="0.1"/>
<g clip-path="url(#clip0_1539_14888)">
<path fill-rule="evenodd" clip-rule="evenodd" d="M24.0608 13.5L23.5351 12.9744L23.5257 12.9649L19.5304 8.96967C19.2375 8.67678 18.7627 8.67678 18.4698 8.96967C18.1769 9.26256 18.1769 9.73744 18.4698 10.0303L21.1894 12.75L18.4537 12.75H18.4402H18.44C17.5181 12.75 16.8088 12.75 16.2608 12.7665C15.7174 12.783 15.2812 12.8165 14.9246 12.8994C11.2093 13.7633 9.34955 17.9391 11.1928 21.2786C11.3697 21.5991 11.6367 21.9457 11.988 22.3606C12.3422 22.779 12.8167 23.3062 13.4334 23.9915L13.4335 23.9915L13.4335 23.9916L13.4426 24.0017C13.7197 24.3096 14.1939 24.3346 14.5018 24.0575C14.8097 23.7804 14.8347 23.3062 14.5576 22.9983C13.9298 22.3008 13.4705 21.7903 13.1327 21.3914C12.7902 20.9868 12.6063 20.7354 12.506 20.5537C11.1436 18.0854 12.5182 14.9989 15.2643 14.3604C15.4665 14.3134 15.7764 14.2819 16.3062 14.2659C16.8287 14.25 17.5154 14.25 18.4537 14.25L21.1895 14.25L18.4698 16.9697C18.1769 17.2626 18.1769 17.7374 18.4698 18.0303C18.7627 18.3232 19.2375 18.3232 19.5304 18.0303L23.5304 14.0303L24.0608 13.5ZM24.7359 26.6396C27.482 26.0011 28.8566 22.9146 27.4942 20.4463C27.3939 20.2646 27.21 20.0132 26.8675 19.6086C26.5297 19.2097 26.0704 18.6992 25.4426 18.0017C25.1656 17.6939 25.1905 17.2196 25.4984 16.9425C25.8063 16.6654 26.2805 16.6904 26.5576 16.9983L26.5667 17.0084L26.5668 17.0085L26.5669 17.0087C27.1836 17.6939 27.6581 18.221 28.0123 18.6394C28.3635 19.0543 28.6305 19.4009 28.8074 19.7214C30.6507 23.0609 28.7909 27.2367 25.0756 28.1006C24.719 28.1836 24.2828 28.217 23.7394 28.2335C23.1915 28.2501 22.4822 28.2501 21.5604 28.2501H21.5602H21.5465L18.8108 28.2501L21.5304 30.9697C21.8233 31.2626 21.8233 31.7374 21.5304 32.0303C21.2376 32.3232 20.7627 32.3232 20.4698 32.0303L16.4698 28.0303L15.9395 27.5L16.4698 26.9697L20.4698 22.9697C20.7627 22.6768 21.2375 22.6768 21.5304 22.9697C21.8233 23.2626 21.8233 23.7374 21.5304 24.0303L18.8107 26.7501L21.5465 26.7501C22.4848 26.7501 23.1715 26.75 23.694 26.7342C24.2238 26.7181 24.5337 26.6866 24.7359 26.6396Z" fill="#FF0000"/>
</g>
<defs>
<clipPath id="clip0_1539_14888">
<rect width="24" height="24" fill="white" transform="translate(8 8.5)"/>
</clipPath>
</defs>
</svg>
