<svg width="40" height="40" viewBox="0 0 40 40" fill="none" xmlns="http://www.w3.org/2000/svg">
<rect width="40" height="40" rx="8" fill="#B75C1A" fill-opacity="0.1"/>
<path fill-rule="evenodd" clip-rule="evenodd" d="M24.0603 13L23.5346 12.4744L23.5252 12.4649L19.5299 8.46967C19.237 8.17678 18.7622 8.17678 18.4693 8.46967C18.1764 8.76256 18.1764 9.23744 18.4693 9.53033L21.1889 12.25L18.4533 12.25H18.4397H18.4396C17.5176 12.25 16.8083 12.25 16.2603 12.2665C15.7169 12.283 15.2807 12.3165 14.9241 12.3994C11.2088 13.2633 9.34906 17.4391 11.1923 20.7786C11.3692 21.0991 11.6362 21.4457 11.9875 21.8606C12.3417 22.279 12.8162 22.8062 13.4329 23.4915L13.433 23.4915L13.433 23.4916L13.4421 23.5017C13.7192 23.8096 14.1934 23.8346 14.5013 23.5575C14.8092 23.2804 14.8342 22.8062 14.5571 22.4983C13.9293 21.8008 13.4701 21.2903 13.1323 20.8914C12.7897 20.4868 12.6059 20.2354 12.5056 20.0537C11.1431 17.5854 12.5178 14.4989 15.2638 13.8604C15.466 13.8134 15.7759 13.7819 16.3057 13.7659C16.8282 13.75 17.5149 13.75 18.4533 13.75L21.189 13.75L18.4693 16.4697C18.1764 16.7626 18.1764 17.2374 18.4693 17.5303C18.7622 17.8232 19.237 17.8232 19.5299 17.5303L23.5299 13.5303L24.0603 13ZM24.7354 26.1396C27.4815 25.5011 28.8561 22.4146 27.4937 19.9463C27.3934 19.7646 27.2095 19.5132 26.867 19.1086C26.5292 18.7097 26.0699 18.1992 25.4422 17.5017C25.1651 17.1939 25.19 16.7196 25.4979 16.4425C25.8058 16.1654 26.28 16.1904 26.5571 16.4983L26.5662 16.5084L26.5663 16.5085L26.5665 16.5087C27.1831 17.1939 27.6576 17.721 28.0118 18.1394C28.363 18.5543 28.63 18.9009 28.8069 19.2214C30.6502 22.5609 28.7904 26.7367 25.0751 27.6006C24.7186 27.6836 24.2823 27.717 23.7389 27.7335C23.191 27.7501 22.4817 27.7501 21.5599 27.7501H21.5597H21.546L18.8103 27.7501L21.53 30.4697C21.8228 30.7626 21.8228 31.2374 21.53 31.5303C21.2371 31.8232 20.7622 31.8232 20.4693 31.5303L16.4693 27.5303L15.939 27L16.4693 26.4697L20.4693 22.4697C20.7622 22.1768 21.2371 22.1768 21.53 22.4697C21.8228 22.7626 21.8228 23.2374 21.53 23.5303L18.8102 26.2501L21.546 26.2501C22.4844 26.2501 23.171 26.25 23.6935 26.2342C24.2233 26.2181 24.5332 26.1866 24.7354 26.1396Z" fill="#B75C1A"/>
</svg>
