<svg width="25" height="24" viewBox="0 0 25 24" fill="none" xmlns="http://www.w3.org/2000/svg">
<path fill-rule="evenodd" clip-rule="evenodd" d="M16.5608 5L16.0351 4.47437L16.0257 4.46492L12.0304 0.46967C11.7375 0.176777 11.2627 0.176777 10.9698 0.46967C10.6769 0.762563 10.6769 1.23744 10.9698 1.53033L13.6894 4.24996L10.9537 4.24996H10.9402H10.94C10.0181 4.24996 9.30877 4.24996 8.76081 4.26654C8.21743 4.28299 7.78117 4.31646 7.4246 4.39937C3.70932 5.26326 1.84955 9.4391 3.69281 12.7786C3.86971 13.0991 4.13667 13.4457 4.48795 13.8606C4.84218 14.279 5.31667 14.8062 5.93341 15.4915L5.93345 15.4915L5.93352 15.4916L5.94262 15.5017C6.21971 15.8096 6.69393 15.8346 7.00181 15.5575C7.3097 15.2804 7.33466 14.8062 7.05756 14.4983C6.42982 13.8008 5.97054 13.2903 5.63274 12.8914C5.29024 12.4868 5.10635 12.2354 5.00604 12.0537C3.64363 9.58541 5.01824 6.49892 7.76432 5.86039C7.9665 5.81338 8.27638 5.78189 8.80619 5.76585C9.32872 5.75004 10.0154 5.74996 10.9537 5.74996L13.6895 5.74996L10.9698 8.46967C10.6769 8.76256 10.6769 9.23744 10.9698 9.53033C11.2627 9.82322 11.7375 9.82322 12.0304 9.53033L16.0304 5.53033L16.5608 5ZM17.2359 18.1396C19.982 17.5011 21.3566 14.4146 19.9942 11.9463C19.8939 11.7646 19.71 11.5132 19.3675 11.1086C19.0297 10.7097 18.5704 10.1992 17.9426 9.50174C17.6656 9.19385 17.6905 8.71964 17.9984 8.44254C18.3063 8.16545 18.7805 8.19041 19.0576 8.49829L19.0667 8.50844L19.0668 8.50851L19.0669 8.50867C19.6836 9.19387 20.1581 9.72104 20.5123 10.1394C20.8635 10.5543 21.1305 10.9009 21.3074 11.2214C23.1507 14.5609 21.2909 18.7367 17.5756 19.6006C17.219 19.6836 16.7828 19.717 16.2394 19.7335C15.6915 19.7501 14.9822 19.7501 14.0604 19.7501H14.0602H14.0465L11.3108 19.7501L14.0304 22.4697C14.3233 22.7626 14.3233 23.2374 14.0304 23.5303C13.7376 23.8232 13.2627 23.8232 12.9698 23.5303L8.96978 19.5303L8.43945 19L8.96978 18.4697L12.9698 14.4697C13.2627 14.1768 13.7375 14.1768 14.0304 14.4697C14.3233 14.7626 14.3233 15.2374 14.0304 15.5303L11.3107 18.2501L14.0465 18.2501C14.9848 18.2501 15.6715 18.25 16.194 18.2342C16.7238 18.2181 17.0337 18.1866 17.2359 18.1396Z" fill="#B75C1A"/>
</svg>
